<?xml version="1.0" encoding="UTF-8"?>
<svg id="_圖層_1" xmlns="http://www.w3.org/2000/svg" xmlns:xlink="http://www.w3.org/1999/xlink" version="1.1" viewBox="0 0 856.1 204">
  <!-- Generator: Adobe Illustrator 29.8.1, SVG Export Plug-In . SVG Version: 2.1.1 Build 2)  -->
  <defs>
    <style>
      .st0 {
        filter: url(#outer-glow-1);
      }

      .st1 {
        fill: #fff;
      }

      .st2 {
        fill: #ff3a6e;
        filter: url(#outer-glow-2);
      }
    </style>
    <filter id="outer-glow-1" x="57" y="0" width="788" height="202" filterUnits="userSpaceOnUse">
      <feOffset dx="0" dy="0"/>
      <feGaussianBlur result="blur" stdDeviation="2"/>
      <feFlood flood-color="#fff" flood-opacity=".75"/>
      <feComposite in2="blur" operator="in"/>
      <feComposite in="SourceGraphic"/>
    </filter>
    <filter id="outer-glow-2" x="0" y="0" width="22" height="204" filterUnits="userSpaceOnUse">
      <feOffset dx="0" dy="0"/>
      <feGaussianBlur result="blur1" stdDeviation="2"/>
      <feFlood flood-color="#ff1d68" flood-opacity=".75"/>
      <feComposite in2="blur1" operator="in"/>
      <feComposite in="SourceGraphic"/>
    </filter>
  </defs>
  <g class="st0">
    <g>
      <path class="st1" d="M108.4,87.65c0,4.99-.98,7.73-4.31,9.39-3.13,1.66-7.63,1.86-13.6,1.86-.59-2.94-2.25-7.24-3.72-9.88,3.62.2,7.53.2,8.81.1,1.17,0,1.57-.39,1.57-1.57v-8.71h-17.22c-1.08,7.44-3.33,14.78-7.24,20.35-1.76-1.86-6.36-5.38-8.71-6.56,6.07-8.81,6.65-21.14,6.65-30.73v-22.41h37.77s0,48.16,0,48.16ZM152.92,22.28v10.47h-88.56v-10.47h20.84c-1.76-3.33-4.6-7.53-7.34-10.76l11.06-3.82c3.52,3.72,7.44,9,9.1,12.72l-5.38,1.86h27.2c2.94-4.5,6.07-10.27,8.02-14.78l12.62,3.72c-2.35,3.82-4.99,7.63-7.44,11.06,0,0,19.88,0,19.88,0ZM97.14,70.32v-6.36h-16.05c0,2.06-.1,4.11-.29,6.36h16.34ZM81.1,48.6v6.75h16.05v-6.75s-16.05,0-16.05,0ZM127.48,80.4h-10.67v-39.92h10.67v39.92ZM136.29,37.74h11.45v48.63c0,5.77-1.08,8.61-4.99,10.47-3.72,1.76-9,2.05-16.05,1.96-.59-3.13-2.45-7.93-4.21-10.96,4.99.2,10.08.2,11.74.1,1.57,0,2.06-.39,2.06-1.76v-48.44h0Z"/>
      <path class="st1" d="M240.49,34.02v4.01c0,1.86.2,2.74,1.66,2.74h3.23c1.27,0,3.91-.2,5.19-.59.2,2.35.2,4.31.69,6.75-1.27.39-3.82.59-5.68.59h-6.56c-6.85,0-8.02-3.42-8.02-9.59v-3.91h-5.19c-1.08,7.34-4.4,12.04-14.78,14.09-.59-1.96-2.45-4.7-4.11-6.16v1.86c0,2.45,0,5.09-.1,8.02h15.36c-.78-1.76-1.47-3.62-2.15-5.09l9.2-3.13c1.37,2.54,2.74,5.58,3.82,8.22h18.59v6.75h-45.11c-.78,13.6-2.94,29.06-7.83,40.51-2.06-1.86-6.95-4.79-9.3-5.68,6.36-14.78,7.05-35.72,7.05-49.61v-3.52c-.88.78-1.76,1.47-2.74,2.25-.69-1.96-2.45-5.09-4.01-7.34v47.36h-16.15v8.51h-9.79V12.69h25.93v19.67c8.71-7.24,14.48-16.54,17.71-24.56l10.57,1.86c-.59,1.37-1.17,2.74-1.76,4.11h17.03l1.66-.49,7.34,4.79c-1.37,2.45-3.13,5.19-4.99,7.73h15.07v8.22h-11.84,0,0ZM173.56,22.57v10.08h6.26v-10.08s-6.26,0-6.26,0ZM173.56,52.52h6.26v-10.27h-6.26v10.27ZM179.82,72.58v-10.47h-6.26v10.47h6.26ZM206.93,41.56c6.07-1.17,8.22-3.62,9.1-7.53h-9.1v7.53ZM209.08,79.72h39.04v19.38h-10.67v-3.33h-18.2v3.33h-10.18v-19.38h0ZM212.12,21.4c-.78,1.47-1.66,2.94-2.74,4.4h16.24c.88-1.37,1.76-2.84,2.54-4.4h-16.05.01ZM247.34,67.58h-37.19v-6.07h37.19v6.07ZM210.16,70.62h37.19v5.97h-37.19v-5.97h0ZM219.26,85.59v4.11h18.2v-4.11h-18.2Z"/>
      <path class="st1" d="M290.88,70.23c-1.17-2.74-3.52-6.85-5.87-10.76v39.73h-11.25v-35.23c-3.23,7.53-6.85,14.48-10.67,19.38-1.08-3.33-3.62-8.12-5.38-11.06,5.48-6.26,10.96-16.73,14.48-26.23h-13.21v-10.86h14.78v-11.06c-3.82.59-7.44,1.17-11.06,1.57-.39-2.64-1.86-6.46-3.13-9,11.16-1.76,23.39-4.7,31.51-8.02l6.56,9.49c-3.82,1.47-8.12,2.64-12.62,3.62v13.41h12.92v10.86h-12.92v.78c2.84,2.74,10.86,11.94,12.72,14.19l-6.85,9.2h-.01ZM339.12,74.44v24.66h-11.45v-22.6l-29.55,5.09-1.86-11.06,31.41-5.38V7.8h11.45v55.39l9.69-1.66,1.86,10.86-11.55,2.06h0ZM314.56,60.83c-3.03-4.31-9.88-10.57-15.56-14.97l7.44-6.65c5.58,3.91,12.82,9.98,16.05,14.19l-7.93,7.44h0ZM317.11,35c-2.74-4.21-9.1-10.47-14.58-14.68l7.63-6.65c5.28,4.01,12.13,9.79,15.07,14.09l-8.12,7.24h0Z"/>
      <path class="st1" d="M390.68,60.05c-3.42.98-6.95,1.96-10.47,2.84v23.39c0,5.68-1.08,8.42-4.4,10.27-3.23,1.76-7.93,2.06-14.87,2.06-.39-2.94-1.86-7.53-3.23-10.57,3.82.1,7.83.1,9.1.1,1.37,0,1.86-.49,1.86-1.96v-20.16l-9.49,2.35-3.03-11.06c3.62-.78,7.83-1.66,12.53-2.84v-17.32h-11.25v-10.76h11.25V7.9h11.55v18.49h9.59v10.76h-9.59v14.48l9-2.25,1.47,10.67h-.02ZM444.9,46.84c-3.72,13.5-9.98,24.27-18.3,32.49,6.46,4.5,13.99,7.73,22.7,9.88-2.45,2.35-5.77,7.05-7.44,10.08-9.49-2.84-17.52-6.95-24.37-12.33-7.63,5.28-16.24,9.2-25.83,12.04-1.27-3.13-4.01-8.02-6.16-10.57,8.61-2.06,16.54-5.19,23.39-9.59-5.68-6.56-10.27-14.29-13.9-23.29l2.94-.88h-5.09v-10.47h19.28v-11.74h-21.04v-10.76h21.04V7.71h11.55v13.99h21.92v10.76h-21.92v11.74h11.74l2.05-.49s7.44,3.13,7.44,3.13ZM406.34,54.67c2.74,6.46,6.65,12.33,11.55,17.32,5.09-4.79,9.39-10.67,12.33-17.32h-23.88,0Z"/>
      <path class="st1" d="M486.87,75.12c-5.77,7.44-14.48,15.46-21.53,20.26-2.45-2.05-7.24-5.87-10.18-7.63,7.34-4.01,15.17-10.67,19.86-16.83l11.84,4.21h.01,0ZM506.44,67.29v19.38c0,5.77-1.17,8.71-5.48,10.57-4.11,1.76-9.69,1.86-16.93,1.86-.59-3.42-2.54-8.32-4.21-11.35,4.99.2,10.96.2,12.62.2,1.66-.1,2.15-.39,2.15-1.57v-18.1c-22.21,1.76-26.62,2.45-30.04,3.72-.49-2.05-2.15-7.63-3.43-10.47,3.91-.59,7.63-2.06,13.6-4.99,3.03-1.27,8.71-4.11,15.46-8.12-15.66,1.08-18.98,1.57-21.23,2.54-.59-2.25-2.25-7.73-3.42-10.76,2.64-.39,4.89-1.47,8.22-3.23,2.64-1.27,9.2-4.99,15.66-9.88-9.39,1.86-18.89,3.33-27.89,4.5-.39-2.94-1.96-7.44-3.23-9.88,22.51-3.03,47.17-8.12,62.14-14.48l8.61,9.2c-8.12,3.23-17.81,5.97-28.08,8.22l5.28,3.42c-5.28,3.91-10.86,7.63-16.64,10.96l16.93-.88c3.62-2.54,7.05-5.09,10.37-7.83l8.61,7.73c-10.37,7.83-21.72,14.58-33.08,20.16l27.6-1.86c-2.06-2.45-4.21-4.79-6.26-6.95l9.69-4.89c6.95,6.95,14.97,16.05,19.08,22.02l-9.88,5.97c-1.27-1.96-2.94-4.31-4.99-6.85l-21.23,1.66v-.02h0ZM521.12,69.64c7.54,4.99,17.22,12.53,21.92,17.91l-10.27,6.85c-4.21-5.19-13.6-13.11-21.14-18.59l9.49-6.16h0Z"/>
      <path class="st1" d="M554.58,12.1h48.34v10.86h-21.33c-.98,3.52-2.15,7.14-3.42,10.76h13.9l1.96-.29,7.34,2.35c-4.89,32.19-17.91,53.23-35.91,63.7-1.76-2.54-6.07-6.85-8.71-8.51,8.71-4.6,16.05-11.45,21.63-20.45-3.52-3.03-9-6.85-13.6-9.88-1.76,2.45-3.72,4.79-5.87,6.85-2.05-2.15-5.77-5.68-8.32-7.54,9.39-8.9,15.66-23.78,18.98-36.99h-14.97v-10.86h-.02ZM573.95,44.39c-1.08,2.54-2.35,5.09-3.62,7.44,4.31,2.64,9.59,5.87,13.21,8.51,1.96-4.79,3.62-10.18,4.89-15.95h-14.48ZM617.01,72.38h-11.45V18.66h11.45s0,53.72,0,53.72ZM639.91,9.66v75.74c0,6.56-1.37,9.69-5.28,11.45-4.01,1.96-10.08,2.35-18.89,2.25-.49-3.23-2.25-8.42-3.82-11.64,5.87.2,11.94.2,13.8.2,1.86-.1,2.64-.68,2.64-2.35V9.66h11.55Z"/>
      <path class="st1" d="M682.07,33.14h-31.9v-9.2h14.29c-1.47-3.72-4.01-8.61-6.26-12.33l9-4.21c2.74,4.01,5.77,9.39,7.14,13.01l-6.36,3.52h14.09v9.2h0ZM679.72,93.81h-17.12v4.11h-9.39v-33.76h26.52v29.65s-.01,0-.01,0ZM679.14,46.35h-25.25v-8.81h25.25v8.81ZM653.89,50.66h25.25v8.81h-25.25v-8.81ZM662.6,73.46v10.96h7.73v-10.96h-7.73ZM718.77,13.28c-.59,1.08-1.27,2.15-1.96,3.23,5.77,7.83,15.36,14.78,25.74,18.2-2.64,2.35-6.16,7.14-7.93,10.37-2.84-1.17-5.48-2.74-8.12-4.5v4.21h-32.29v-4.31c-2.94,2.15-5.87,4.11-8.71,5.68-1.57-3.33-4.4-8.02-6.95-10.86,12.23-5.28,25.05-16.64,31.31-28.08l8.9,6.07h.01ZM735.01,87.94c0,4.4-.39,6.95-2.74,8.61-2.25,1.66-5.19,1.86-9,1.86-.29-2.84-1.27-6.95-2.25-9.69,1.57.1,3.23.1,3.82.1s.78-.29.78-1.08v-8.9h-5.19v17.52h-7.73v-17.52h-4.79v17.52h-7.93v-17.52h-4.79v20.35h-9.39v-49.12h49.22v37.87h-.01ZM699.98,69.35v-9.79h-4.79v9.79h4.79ZM719.26,34.9c-3.23-3.03-6.17-6.26-8.71-9.88-2.94,3.52-6.16,6.75-9.59,9.88h18.3ZM712.7,69.35v-9.79h-4.79v9.79h4.79ZM725.62,69.35v-9.79h-5.19v9.79h5.19Z"/>
      <path class="st1" d="M779.14,76.2c-9.39,4.11-19.47,8.22-27.79,11.45l-3.82-11.94c3.03-.88,6.65-2.06,10.67-3.42v-30.24h-8.9v-11.06h8.9V9.17h10.86v21.82h7.14v11.06h-7.14v26.42l7.93-2.84,2.15,10.57h0ZM838.44,88.92v8.61h-66.15v-8.61h66.15ZM837.75,24.14h-63.31v-8.42h25.25c-1.08-1.76-2.35-3.62-3.52-4.99l9.3-4.4c2.45,2.74,5.09,6.46,6.56,9.39h25.83l-.1,8.42h-.01ZM833.45,58.68h-54.5v-31.8h54.5v31.8ZM781.88,86.08v-24.66h48.14v24.66h-48.14ZM823.56,33.43h-35.23v18.59h35.23v-18.59ZM819.45,49.38h-27.2v-13.11h27.2v13.11ZM792.35,70.81h26.62v-3.33h-26.62v3.33ZM792.35,80.01h26.62v-3.43h-26.62v3.43ZM811.62,41.16h-11.94v3.33h11.94s0-3.33,0-3.33Z"/>
    </g>
    <path class="st1" d="M63.98,194.58v-58.29h42.55v9.16h-31.73v49.13h-10.83ZM73.97,172.18v-8.99h28.98v8.99h-28.98Z"/>
    <path class="st1" d="M133.59,195.16c-3.78,0-7.11-.71-9.99-2.12-2.89-1.41-5.15-3.58-6.78-6.49-1.64-2.92-2.46-6.59-2.46-11.03v-25.4h10.49v24.07c0,3.94.92,6.9,2.75,8.87s4.39,2.96,7.66,2.96c2.44,0,4.58-.5,6.41-1.5s3.25-2.5,4.25-4.5c1-2,1.5-4.47,1.5-7.41v-22.48h10.4v44.47h-9.91v-12.07l1.75,3.74c-1.5,2.84-3.7,5.02-6.58,6.58-2.89,1.55-6.05,2.33-9.5,2.33h0Z"/>
    <path class="st1" d="M165.58,158.43v-8.33h29.64v8.33h-29.64ZM188.22,195.16c-4.88,0-8.66-1.26-11.32-3.79-2.67-2.53-4-6.23-4-11.12v-39.97h10.33v39.64c0,2.11.55,3.74,1.67,4.91s2.67,1.75,4.66,1.75c2.27,0,4.16-.61,5.66-1.83l2.99,7.41c-1.28,1-2.81,1.75-4.58,2.25s-3.58.75-5.42.75h0Z"/>
    <path class="st1" d="M225.61,195.16c-3.78,0-7.11-.71-9.99-2.12-2.89-1.41-5.15-3.58-6.78-6.49-1.64-2.92-2.46-6.59-2.46-11.03v-25.4h10.49v24.07c0,3.94.92,6.9,2.75,8.87s4.39,2.96,7.66,2.96c2.44,0,4.58-.5,6.41-1.5s3.25-2.5,4.25-4.5c1-2,1.5-4.47,1.5-7.41v-22.48h10.4v44.47h-9.91v-12.07l1.75,3.74c-1.5,2.84-3.7,5.02-6.58,6.58-2.89,1.55-6.05,2.33-9.5,2.33h0Z"/>
    <path class="st1" d="M263.59,194.58v-44.47h9.91v12.24l-1.17-3.58c1.27-2.99,3.36-5.29,6.25-6.87,2.88-1.58,6.41-2.38,10.57-2.38v9.91c-.39-.06-.78-.09-1.17-.12s-.75-.04-1.09-.04c-4,0-7.16,1.14-9.5,3.42-2.33,2.27-3.5,5.75-3.5,10.4v21.48h-10.33.02Z"/>
    <path class="st1" d="M318.55,195.16c-4.94,0-9.25-.98-12.95-2.96-3.7-1.97-6.55-4.66-8.58-8.07-2.03-3.42-3.04-7.35-3.04-11.78s.98-8.36,2.96-11.78c1.97-3.42,4.69-6.11,8.16-8.07,3.47-1.97,7.42-2.96,11.86-2.96s8.19.95,11.57,2.87,6.05,4.59,7.99,8.04c1.95,3.44,2.92,7.52,2.92,12.24,0,.39-.02.87-.04,1.46-.03.58-.07,1.09-.12,1.54h-37.05v-6.91h31.56l-4.16,2.16c.06-2.5-.46-4.73-1.54-6.7-1.09-1.97-2.57-3.5-4.45-4.58-1.89-1.09-4.11-1.63-6.66-1.63s-4.73.54-6.7,1.63c-1.97,1.09-3.48,2.62-4.54,4.62s-1.58,4.3-1.58,6.91v1.67c0,2.67.6,5.02,1.79,7.07,1.2,2.06,2.9,3.65,5.12,4.79s4.8,1.7,7.75,1.7c2.5,0,4.74-.41,6.75-1.24,2-.83,3.77-2.05,5.33-3.67l5.66,6.49c-2.06,2.33-4.59,4.11-7.62,5.33s-6.48,1.83-10.37,1.83h0Z"/>
    <path class="st1" d="M354.36,194.58v-49.13h-19.32v-9.16h49.47v9.16h-19.32v49.13h-10.83Z"/>
    <path class="st1" d="M407.99,195.16c-4.94,0-9.25-.98-12.95-2.96-3.7-1.97-6.55-4.66-8.58-8.07-2.03-3.42-3.04-7.35-3.04-11.78s.98-8.36,2.96-11.78c1.97-3.42,4.69-6.11,8.16-8.07,3.47-1.97,7.42-2.96,11.86-2.96s8.19.95,11.57,2.87,6.05,4.59,7.99,8.04c1.95,3.44,2.92,7.52,2.92,12.24,0,.39-.02.87-.04,1.46-.03.58-.07,1.09-.12,1.54h-37.05v-6.91h31.56l-4.16,2.16c.06-2.5-.46-4.73-1.54-6.7-1.09-1.97-2.57-3.5-4.45-4.58-1.89-1.09-4.11-1.63-6.66-1.63s-4.73.54-6.7,1.63c-1.97,1.09-3.48,2.62-4.54,4.62s-1.58,4.3-1.58,6.91v1.67c0,2.67.6,5.02,1.79,7.07,1.2,2.06,2.9,3.65,5.12,4.79s4.8,1.7,7.75,1.7c2.5,0,4.74-.41,6.75-1.24,2-.83,3.77-2.05,5.33-3.67l5.66,6.49c-2.06,2.33-4.59,4.11-7.62,5.33s-6.48,1.83-10.37,1.83h0Z"/>
    <path class="st1" d="M459.28,195.16c-4.66,0-8.81-.98-12.45-2.96-3.64-1.97-6.48-4.66-8.53-8.07-2.06-3.42-3.08-7.35-3.08-11.78s1.03-8.44,3.08-11.83,4.9-6.06,8.53-8.04c3.64-1.97,7.78-2.96,12.45-2.96,4.28,0,8.07.89,11.41,2.67,3.33,1.78,5.83,4.36,7.49,7.75l-7.92,4.66c-1.33-2.05-2.96-3.59-4.87-4.62s-3.99-1.54-6.2-1.54c-2.55,0-4.86.57-6.91,1.7-2.06,1.14-3.67,2.75-4.83,4.83-1.17,2.09-1.75,4.54-1.75,7.37s.58,5.31,1.75,7.41c1.17,2.11,2.78,3.73,4.83,4.87s4.36,1.7,6.91,1.7c2.22,0,4.29-.51,6.2-1.54,1.92-1.03,3.54-2.59,4.87-4.71l7.92,4.66c-1.67,3.33-4.16,5.9-7.49,7.7-3.33,1.81-7.13,2.7-11.41,2.7v.02h0Z"/>
    <path class="st1" d="M486.93,194.58v-61.79h10.33v29.4l-2.16-3.74c1.5-2.84,3.73-5.02,6.7-6.58s6.4-2.33,10.28-2.33c3.61,0,6.78.69,9.53,2.09,2.75,1.38,4.94,3.53,6.58,6.41,1.64,2.89,2.46,6.58,2.46,11.08v25.48h-10.4v-24.15c0-3.94-.92-6.89-2.75-8.82-1.83-1.95-4.44-2.91-7.83-2.91-2.44,0-4.61.5-6.49,1.5-1.89,1-3.35,2.49-4.37,4.45-1.03,1.97-1.54,4.45-1.54,7.46v22.48h-10.33v-.02h0Z"/>
    <path class="st1" d="M567.87,194.58v-58.29h42.55v9.16h-31.73v49.13h-10.83ZM577.86,172.18v-8.99h28.98v8.99h-28.98Z"/>
    <path class="st1" d="M638.65,195.16c-4.5,0-8.53-.98-12.12-2.96s-6.4-4.68-8.45-8.12c-2.06-3.44-3.08-7.35-3.08-11.74s1.03-8.44,3.08-11.83,4.86-6.06,8.41-8.04,7.61-2.96,12.15-2.96,8.7.98,12.29,2.96,6.38,4.65,8.41,8.04,3.04,7.33,3.04,11.83-1.01,8.36-3.04,11.78-4.85,6.11-8.45,8.07c-3.61,1.97-7.69,2.96-12.24,2.96h0ZM638.65,186.33c2.55,0,4.83-.57,6.83-1.7,2-1.14,3.56-2.78,4.71-4.91,1.14-2.13,1.7-4.59,1.7-7.37s-.57-5.29-1.7-7.37c-1.14-2.08-2.7-3.69-4.71-4.83s-4.25-1.7-6.75-1.7-4.74.57-6.75,1.7c-2,1.14-3.58,2.75-4.74,4.83-1.17,2.09-1.75,4.54-1.75,7.37s.58,5.23,1.75,7.37c1.17,2.14,2.75,3.78,4.74,4.91,2,1.14,4.22,1.7,6.66,1.7h0Z"/>
    <path class="st1" d="M672.47,194.58v-44.47h9.91v12.24l-1.17-3.58c1.27-2.99,3.36-5.29,6.25-6.87,2.88-1.58,6.41-2.38,10.57-2.38v9.91c-.39-.06-.78-.09-1.17-.12s-.75-.04-1.09-.04c-4,0-7.16,1.14-9.5,3.42-2.33,2.27-3.5,5.75-3.5,10.4v21.48h-10.33.02,0Z"/>
    <path class="st1" d="M726.18,195.16c-3.78,0-7.11-.71-9.99-2.12-2.89-1.41-5.15-3.58-6.78-6.49-1.64-2.92-2.46-6.59-2.46-11.03v-25.4h10.49v24.07c0,3.94.92,6.9,2.75,8.87s4.39,2.96,7.66,2.96c2.44,0,4.58-.5,6.41-1.5s3.25-2.5,4.25-4.5,1.5-4.47,1.5-7.41v-22.48h10.4v44.47h-9.91v-12.07l1.75,3.74c-1.5,2.84-3.7,5.02-6.58,6.58-2.89,1.55-6.05,2.33-9.5,2.33h0Z"/>
    <path class="st1" d="M764.16,194.58v-44.47h9.91v11.91l-1.83-3.58c1.5-2.84,3.68-5.02,6.54-6.58s6.15-2.33,9.87-2.33c4.16,0,7.78,1.03,10.83,3.08,3.05,2.06,5.08,5.22,6.08,9.5l-4-1.5c1.38-3.27,3.74-5.94,7.07-7.99,3.33-2.05,7.19-3.08,11.57-3.08,3.56,0,6.7.69,9.45,2.09,2.75,1.38,4.9,3.53,6.46,6.41,1.55,2.89,2.33,6.58,2.33,11.08v25.48h-10.33v-24.15c0-3.94-.87-6.89-2.62-8.82-1.75-1.95-4.23-2.91-7.46-2.91-2.27,0-4.29.5-6.04,1.5s-3.11,2.49-4.08,4.45c-.97,1.97-1.46,4.43-1.46,7.37v22.57h-10.33v-24.15c0-3.94-.87-6.89-2.62-8.82-1.75-1.95-4.23-2.91-7.46-2.91-2.27,0-4.29.5-6.04,1.5s-3.11,2.49-4.08,4.45c-.97,1.97-1.46,4.43-1.46,7.37v22.57h-10.33v-.03h0Z"/>
  </g>
  <rect class="st2" x="6" y="6.49" width="9.32" height="191.44"/>
</svg>