<?xml version="1.0" encoding="UTF-8"?>
<svg id="_圖層_1" data-name="圖層_1" xmlns="http://www.w3.org/2000/svg" version="1.1" viewBox="0 0 1450 72.98">
  <!-- Generator: Adobe Illustrator 29.7.1, SVG Export Plug-In . SVG Version: 2.1.1 Build 8)  -->
  <defs>
    <style>
      .st0 {
        fill: #fff;
      }

      .st1 {
        fill: #ff5e99;
      }
    </style>
  </defs>
  <g>
    <g>
      <path class="st0" d="M.83,50.54h6.81c1.73,0,3.1.48,3.97,1.34.67.67,1.02,1.5,1.02,2.52v.04c0,1.82-1.04,2.8-2.17,3.38,1.78.61,3.01,1.63,3.01,3.69v.04c0,2.71-2.23,4.16-5.62,4.16H.83v-15.18ZM7.09,56.94c1.71,0,2.86-.67,2.86-2.06v-.04c0-1.19-.95-1.93-2.67-1.93h-3.84v4.03h3.64ZM7.87,63.36c1.82,0,2.93-.72,2.93-2.08v-.04c0-1.28-1.02-2.04-3.12-2.04H3.45v4.16h4.42Z"/>
      <path class="st0" d="M16.18,54.27h2.62v2.58c.72-1.71,2.04-2.88,4.06-2.8v2.78h-.15c-2.3,0-3.9,1.5-3.9,4.53v4.36h-2.62v-11.45Z"/>
      <path class="st0" d="M25.18,50.02h2.82v2.49h-2.82v-2.49ZM25.28,54.27h2.62v11.45h-2.62v-11.45Z"/>
      <path class="st0" d="M30.75,60.02v-.04c0-3.8,2.58-5.94,5.31-5.94,1.89,0,3.08.95,3.9,2.02v-6.16h2.62v15.83h-2.62v-1.91c-.85,1.19-2.04,2.15-3.9,2.15-2.69,0-5.31-2.15-5.31-5.94ZM40.01,60.02v-.04c0-2.21-1.56-3.66-3.32-3.66s-3.3,1.39-3.3,3.66v.04c0,2.21,1.52,3.66,3.3,3.66s3.32-1.47,3.32-3.66Z"/>
      <path class="st0" d="M45.84,67.87l.98-1.97c1.21.76,2.52,1.21,4.08,1.21,2.34,0,3.62-1.21,3.62-3.51v-.89c-.95,1.24-2.15,2.1-4.03,2.1-2.69,0-5.2-2-5.2-5.36v-.04c0-3.38,2.54-5.38,5.2-5.38,1.93,0,3.12.89,4.01,1.95v-1.71h2.62v9.11c0,1.93-.5,3.36-1.45,4.32-1.04,1.04-2.65,1.54-4.71,1.54-1.89,0-3.64-.48-5.12-1.37ZM54.54,59.45v-.04c0-1.89-1.54-3.17-3.36-3.17s-3.25,1.26-3.25,3.14v.04c0,1.89,1.45,3.17,3.25,3.17s3.36-1.3,3.36-3.14Z"/>
      <path class="st0" d="M60.43,50.02h2.82v2.49h-2.82v-2.49ZM60.54,54.27h2.62v11.45h-2.62v-11.45Z"/>
      <path class="st0" d="M66.59,54.27h2.62v1.78c.74-1.08,1.8-2.02,3.58-2.02,2.58,0,4.08,1.73,4.08,4.4v7.29h-2.62v-6.51c0-1.78-.89-2.8-2.45-2.8s-2.58,1.06-2.58,2.84v6.46h-2.62v-11.45Z"/>
      <path class="st0" d="M80.01,67.87l.98-1.97c1.21.76,2.52,1.21,4.08,1.21,2.34,0,3.62-1.21,3.62-3.51v-.89c-.95,1.24-2.15,2.1-4.03,2.1-2.69,0-5.2-2-5.2-5.36v-.04c0-3.38,2.54-5.38,5.2-5.38,1.93,0,3.12.89,4.01,1.95v-1.71h2.62v9.11c0,1.93-.5,3.36-1.45,4.32-1.04,1.04-2.65,1.54-4.71,1.54-1.89,0-3.64-.48-5.12-1.37ZM88.71,59.45v-.04c0-1.89-1.54-3.17-3.36-3.17s-3.25,1.26-3.25,3.14v.04c0,1.89,1.45,3.17,3.25,3.17s3.36-1.3,3.36-3.14Z"/>
      <path class="st0" d="M100.7,58.17v-.04c0-4.25,3.25-7.85,7.83-7.85,2.65,0,4.27.74,5.83,2.06l-1.69,2.02c-1.17-1-2.32-1.63-4.25-1.63-2.8,0-4.92,2.45-4.92,5.36v.04c0,3.12,2.06,5.42,5.16,5.42,1.43,0,2.73-.46,3.67-1.15v-2.84h-3.88v-2.32h6.46v6.38c-1.5,1.28-3.64,2.36-6.33,2.36-4.75,0-7.87-3.38-7.87-7.81Z"/>
      <path class="st0" d="M118.22,49.89h2.62v15.83h-2.62v-15.83Z"/>
      <path class="st0" d="M123.64,60.06v-.04c0-3.27,2.6-5.99,6.12-5.99s6.09,2.67,6.09,5.94v.04c0,3.25-2.6,5.96-6.14,5.96s-6.07-2.67-6.07-5.92ZM133.22,60.06v-.04c0-2.02-1.45-3.69-3.51-3.69s-3.45,1.65-3.45,3.64v.04c0,2,1.45,3.69,3.49,3.69s3.47-1.67,3.47-3.64Z"/>
      <path class="st0" d="M141.14,63.94v1.78h-2.62v-15.83h2.62v6.29c.85-1.19,2.04-2.15,3.88-2.15,2.71,0,5.33,2.15,5.33,5.94v.04c0,3.8-2.6,5.94-5.33,5.94-1.89,0-3.08-.95-3.88-2.02ZM147.69,60.02v-.04c0-2.21-1.5-3.66-3.27-3.66s-3.34,1.47-3.34,3.66v.04c0,2.21,1.56,3.66,3.34,3.66s3.27-1.41,3.27-3.66Z"/>
      <path class="st0" d="M160.05,65.72v-1.41c-.78.93-1.97,1.65-3.71,1.65-2.17,0-4.08-1.24-4.08-3.53v-.04c0-2.54,1.97-3.75,4.64-3.75,1.39,0,2.28.2,3.17.48v-.22c0-1.58-1-2.45-2.82-2.45-1.28,0-2.23.28-3.27.72l-.72-2.1c1.26-.56,2.49-.95,4.36-.95,3.38,0,5.03,1.78,5.03,4.84v6.79h-2.6ZM160.11,60.93c-.67-.26-1.6-.46-2.62-.46-1.65,0-2.62.67-2.62,1.78v.04c0,1.08.98,1.69,2.21,1.69,1.74,0,3.04-.98,3.04-2.41v-.65Z"/>
      <path class="st0" d="M165.92,49.89h2.62v15.83h-2.62v-15.83Z"/>
      <path class="st0" d="M178.93,50.54h2.67v15.18h-2.67v-15.18Z"/>
      <path class="st0" d="M185.35,54.27h2.62v1.78c.74-1.08,1.8-2.02,3.58-2.02,2.58,0,4.08,1.73,4.08,4.4v7.29h-2.62v-6.51c0-1.78-.89-2.8-2.45-2.8s-2.58,1.06-2.58,2.84v6.46h-2.62v-11.45Z"/>
      <path class="st0" d="M198.79,54.27h2.62v1.78c.74-1.08,1.8-2.02,3.58-2.02,2.58,0,4.08,1.73,4.08,4.4v7.29h-2.62v-6.51c0-1.78-.89-2.8-2.45-2.8s-2.58,1.06-2.58,2.84v6.46h-2.62v-11.45Z"/>
      <path class="st0" d="M211.61,60.06v-.04c0-3.27,2.6-5.99,6.12-5.99s6.09,2.67,6.09,5.94v.04c0,3.25-2.6,5.96-6.14,5.96s-6.07-2.67-6.07-5.92ZM221.19,60.06v-.04c0-2.02-1.45-3.69-3.51-3.69s-3.45,1.65-3.45,3.64v.04c0,2,1.45,3.69,3.49,3.69s3.47-1.67,3.47-3.64Z"/>
      <path class="st0" d="M224.75,54.27h2.82l3.08,8.41,3.1-8.41h2.75l-4.68,11.54h-2.36l-4.71-11.54Z"/>
      <path class="st0" d="M245.19,65.72v-1.41c-.78.93-1.97,1.65-3.71,1.65-2.17,0-4.08-1.24-4.08-3.53v-.04c0-2.54,1.97-3.75,4.64-3.75,1.39,0,2.28.2,3.17.48v-.22c0-1.58-1-2.45-2.82-2.45-1.28,0-2.23.28-3.27.72l-.72-2.1c1.26-.56,2.49-.95,4.36-.95,3.38,0,5.03,1.78,5.03,4.84v6.79h-2.6ZM245.26,60.93c-.67-.26-1.6-.46-2.62-.46-1.65,0-2.62.67-2.62,1.78v.04c0,1.08.98,1.69,2.21,1.69,1.74,0,3.04-.98,3.04-2.41v-.65Z"/>
      <path class="st0" d="M251.35,62.55v-6.03h-1.45v-2.26h1.45v-3.14h2.62v3.14h3.08v2.26h-3.08v5.62c0,1.02.52,1.43,1.41,1.43.59,0,1.11-.13,1.63-.39v2.15c-.65.37-1.39.59-2.36.59-1.93,0-3.3-.85-3.3-3.36Z"/>
      <path class="st0" d="M259.74,50.02h2.82v2.49h-2.82v-2.49ZM259.85,54.27h2.62v11.45h-2.62v-11.45Z"/>
      <path class="st0" d="M265.27,60.06v-.04c0-3.27,2.6-5.99,6.12-5.99s6.09,2.67,6.09,5.94v.04c0,3.25-2.6,5.96-6.14,5.96s-6.07-2.67-6.07-5.92ZM274.86,60.06v-.04c0-2.02-1.45-3.69-3.51-3.69s-3.45,1.65-3.45,3.64v.04c0,2,1.45,3.69,3.49,3.69s3.47-1.67,3.47-3.64Z"/>
      <path class="st0" d="M280.15,54.27h2.62v1.78c.74-1.08,1.8-2.02,3.58-2.02,2.58,0,4.08,1.73,4.08,4.4v7.29h-2.62v-6.51c0-1.78-.89-2.8-2.45-2.8s-2.58,1.06-2.58,2.84v6.46h-2.62v-11.45Z"/>
      <path class="st0" d="M307.1,65.72v-1.41c-.78.93-1.97,1.65-3.71,1.65-2.17,0-4.08-1.24-4.08-3.53v-.04c0-2.54,1.97-3.75,4.64-3.75,1.39,0,2.28.2,3.17.48v-.22c0-1.58-1-2.45-2.82-2.45-1.28,0-2.23.28-3.27.72l-.72-2.1c1.26-.56,2.49-.95,4.36-.95,3.38,0,5.03,1.78,5.03,4.84v6.79h-2.6ZM307.16,60.93c-.67-.26-1.6-.46-2.62-.46-1.65,0-2.62.67-2.62,1.78v.04c0,1.08.98,1.69,2.21,1.69,1.74,0,3.04-.98,3.04-2.41v-.65Z"/>
      <path class="st0" d="M312.82,54.27h2.62v1.78c.74-1.08,1.8-2.02,3.58-2.02,2.58,0,4.08,1.73,4.08,4.4v7.29h-2.62v-6.51c0-1.78-.89-2.8-2.45-2.8s-2.58,1.06-2.58,2.84v6.46h-2.62v-11.45Z"/>
      <path class="st0" d="M325.68,60.02v-.04c0-3.8,2.58-5.94,5.31-5.94,1.89,0,3.08.95,3.9,2.02v-6.16h2.62v15.83h-2.62v-1.91c-.85,1.19-2.04,2.15-3.9,2.15-2.69,0-5.31-2.15-5.31-5.94ZM334.94,60.02v-.04c0-2.21-1.56-3.66-3.32-3.66s-3.3,1.39-3.3,3.66v.04c0,2.21,1.52,3.66,3.3,3.66s3.32-1.47,3.32-3.66Z"/>
      <path class="st0" d="M347.6,50.54h11.26v2.39h-8.59v3.95h7.61v2.39h-7.61v4.08h8.7v2.39h-11.36v-15.18Z"/>
      <path class="st0" d="M365.04,59.91l-4.06-5.64h2.86l2.65,3.77,2.65-3.77h2.8l-4.06,5.57,4.23,5.88h-2.86l-2.82-4.01-2.8,4.01h-2.8l4.21-5.81Z"/>
      <path class="st0" d="M373.02,60.06v-.04c0-3.25,2.52-5.99,5.94-5.99,2.17,0,3.51.8,4.58,1.97l-1.63,1.76c-.8-.85-1.65-1.43-2.97-1.43-1.91,0-3.3,1.65-3.3,3.64v.04c0,2.04,1.41,3.69,3.43,3.69,1.24,0,2.15-.59,2.97-1.43l1.58,1.56c-1.13,1.26-2.45,2.15-4.68,2.15-3.4,0-5.92-2.67-5.92-5.92Z"/>
      <path class="st0" d="M385.07,60.04v-.04c0-3.27,2.32-5.96,5.59-5.96,3.64,0,5.49,2.86,5.49,6.16,0,.24-.02.48-.04.74h-8.41c.28,1.86,1.6,2.91,3.3,2.91,1.28,0,2.19-.48,3.1-1.37l1.54,1.37c-1.08,1.3-2.58,2.15-4.68,2.15-3.32,0-5.88-2.41-5.88-5.94ZM393.55,59.19c-.17-1.69-1.17-3.01-2.91-3.01-1.6,0-2.73,1.24-2.97,3.01h5.88Z"/>
      <path class="st0" d="M398.8,54.27h2.62v1.91c.85-1.19,2.04-2.15,3.88-2.15,2.71,0,5.33,2.15,5.33,5.94v.04c0,3.8-2.6,5.94-5.33,5.94-1.89,0-3.08-.95-3.88-2.02v5.25h-2.62v-14.92ZM407.97,60.02v-.04c0-2.21-1.5-3.66-3.27-3.66s-3.34,1.47-3.34,3.66v.04c0,2.21,1.56,3.66,3.34,3.66s3.27-1.41,3.27-3.66Z"/>
      <path class="st0" d="M413.87,62.55v-6.03h-1.45v-2.26h1.45v-3.14h2.62v3.14h3.08v2.26h-3.08v5.62c0,1.02.52,1.43,1.41,1.43.59,0,1.11-.13,1.63-.39v2.15c-.65.37-1.39.59-2.36.59-1.93,0-3.3-.85-3.3-3.36Z"/>
      <path class="st0" d="M422.26,50.02h2.82v2.49h-2.82v-2.49ZM422.37,54.27h2.62v11.45h-2.62v-11.45Z"/>
      <path class="st0" d="M427.79,60.06v-.04c0-3.27,2.6-5.99,6.12-5.99s6.09,2.67,6.09,5.94v.04c0,3.25-2.6,5.96-6.14,5.96s-6.07-2.67-6.07-5.92ZM437.37,60.06v-.04c0-2.02-1.45-3.69-3.51-3.69s-3.45,1.65-3.45,3.64v.04c0,2,1.45,3.69,3.49,3.69s3.47-1.67,3.47-3.64Z"/>
      <path class="st0" d="M442.66,54.27h2.62v1.78c.74-1.08,1.8-2.02,3.58-2.02,2.58,0,4.08,1.73,4.08,4.4v7.29h-2.62v-6.51c0-1.78-.89-2.8-2.45-2.8s-2.58,1.06-2.58,2.84v6.46h-2.62v-11.45Z"/>
      <path class="st0" d="M463.11,65.72v-1.41c-.78.93-1.97,1.65-3.71,1.65-2.17,0-4.08-1.24-4.08-3.53v-.04c0-2.54,1.97-3.75,4.64-3.75,1.39,0,2.28.2,3.17.48v-.22c0-1.58-1-2.45-2.82-2.45-1.28,0-2.23.28-3.27.72l-.72-2.1c1.26-.56,2.49-.95,4.36-.95,3.38,0,5.03,1.78,5.03,4.84v6.79h-2.6ZM463.17,60.93c-.67-.26-1.6-.46-2.62-.46-1.65,0-2.62.67-2.62,1.78v.04c0,1.08.98,1.69,2.21,1.69,1.74,0,3.04-.98,3.04-2.41v-.65Z"/>
      <path class="st0" d="M468.98,49.89h2.62v15.83h-2.62v-15.83Z"/>
      <path class="st0" d="M485.57,53.01h-4.81v-2.47h12.32v2.47h-4.81v12.71h-2.69v-12.71Z"/>
      <path class="st0" d="M500.12,65.72v-1.41c-.78.93-1.97,1.65-3.71,1.65-2.17,0-4.08-1.24-4.08-3.53v-.04c0-2.54,1.97-3.75,4.64-3.75,1.39,0,2.28.2,3.17.48v-.22c0-1.58-1-2.45-2.82-2.45-1.28,0-2.23.28-3.27.72l-.72-2.1c1.26-.56,2.49-.95,4.36-.95,3.38,0,5.03,1.78,5.03,4.84v6.79h-2.6ZM500.19,60.93c-.67-.26-1.6-.46-2.62-.46-1.65,0-2.62.67-2.62,1.78v.04c0,1.08.98,1.69,2.21,1.69,1.74,0,3.04-.98,3.04-2.41v-.65Z"/>
      <path class="st0" d="M506,49.89h2.62v15.83h-2.62v-15.83Z"/>
      <path class="st0" d="M511.42,60.04v-.04c0-3.27,2.32-5.96,5.59-5.96,3.64,0,5.49,2.86,5.49,6.16,0,.24-.02.48-.04.74h-8.41c.28,1.86,1.6,2.91,3.3,2.91,1.28,0,2.19-.48,3.1-1.37l1.54,1.37c-1.08,1.3-2.58,2.15-4.68,2.15-3.32,0-5.88-2.41-5.88-5.94ZM519.9,59.19c-.17-1.69-1.17-3.01-2.91-3.01-1.6,0-2.73,1.24-2.97,3.01h5.88Z"/>
      <path class="st0" d="M525.14,54.27h2.62v1.78c.74-1.08,1.8-2.02,3.58-2.02,2.58,0,4.08,1.73,4.08,4.4v7.29h-2.62v-6.51c0-1.78-.89-2.8-2.45-2.8s-2.58,1.06-2.58,2.84v6.46h-2.62v-11.45Z"/>
      <path class="st0" d="M539.13,62.55v-6.03h-1.45v-2.26h1.45v-3.14h2.62v3.14h3.08v2.26h-3.08v5.62c0,1.02.52,1.43,1.41,1.43.59,0,1.11-.13,1.63-.39v2.15c-.65.37-1.39.59-2.36.59-1.93,0-3.3-.85-3.3-3.36Z"/>
    </g>
    <g>
      <path class="st1" d="M18.84,5.15c3.3,4.83,9.36,9.62,15.35,11.98-.73.73-1.81,2.14-2.32,3.08-1.6-.76-3.19-1.63-4.72-2.65v2.87h-8.42v4.94h9.98v3.01h-9.98v5.37h13.9v3.08H1.63v-3.08h13.46v-5.37H5.23v-3.01h9.87v-4.94H6.9v-2.98c-1.6,1.13-3.23,2.1-4.75,2.9-.51-.87-1.38-2.07-2.14-2.79,4.36-1.92,9.36-5.52,12.92-9.22h-5.81v-3.19h11.72ZM16.99,8.34c-2.61,3.16-6.28,6.42-9.94,9h19.82c-3.81-2.54-7.26-5.73-9.87-9Z"/>
      <path class="st1" d="M43.51,29.54v-9.51h-3.88v-3.16h3.88v-7.3h-4.14v-3.19h11.36v3.19h-3.99v7.3h3.41v3.16h-3.41v8.56l4.17-1.27.44,2.69c2.43-1.96,5.77-4.75,8.86-7.48v-9.18h-8.67v-3.12h8.67v-6.1h3.3v6.1h9.29v3.12h-9.29v1.34c.44,2.54.94,4.75,1.6,6.68,1.56-1.92,3.27-4.32,4.36-6.17l2.98,1.56c-1.92,2.58-4.28,5.52-6.21,7.51,1.6,3.34,3.88,5.88,7.19,8.2-.8.62-1.71,1.67-2.14,2.61-3.59-2.69-6.02-5.63-7.77-9.47v8.13c0,1.85-.44,2.79-1.56,3.38-1.12.58-2.87.69-5.66.69-.15-.91-.73-2.4-1.2-3.3,1.96.07,3.74.04,4.32.04.54,0,.8-.18.8-.8v-7.48c-2.79,2.83-5.73,5.59-8.13,7.8l-2.07-3.01.44-.33-10.78,3.41-.76-3.3,4.61-1.31ZM54.58,15.38c1.52,2.03,3.16,4.75,3.81,6.57l-2.87,1.34c-.54-1.81-2.1-4.65-3.59-6.71l2.65-1.2ZM66.92,4.42c1.56,1.02,3.45,2.61,4.36,3.7l-2.03,2.03c-.87-1.2-2.69-2.83-4.25-3.96l1.92-1.78Z"/>
      <path class="st1" d="M92.25,7.29c-1.38.54-3.01,1.02-4.75,1.42v5.59h5.12v3.23h-5.12v.47c1.02,1.05,4.21,4.9,4.94,5.88l-2.07,2.69c-.54-1.13-1.78-3.16-2.87-4.86v16.04h-3.34v-14.77c-1.38,3.3-3.01,6.42-4.68,8.49-.33-.94-1.12-2.36-1.67-3.19,2.21-2.47,4.5-6.86,5.88-10.74h-5.37v-3.23h5.84v-4.9c-1.56.29-3.12.54-4.61.73-.11-.76-.58-1.92-.94-2.65,4.1-.65,8.78-1.74,11.65-2.98l2,2.79ZM104.19,25.62V4.06h3.38v20.98l3.99-.65.51,3.19-4.5.76v9.4h-3.38v-8.82l-11.54,1.96-.54-3.27,12.09-2ZM95.59,15.93c2.25,1.45,5.01,3.67,6.28,5.23l-2.32,2.25c-1.23-1.6-3.88-3.92-6.13-5.48l2.18-2ZM97.01,6.46c2.1,1.42,4.65,3.56,5.84,5.12l-2.4,2.18c-1.09-1.56-3.56-3.81-5.66-5.33l2.21-1.96Z"/>
      <path class="st1" d="M125.42,4.1v7.15h3.81v3.19h-3.81v6.42l3.7-.98.44,3.12-4.14,1.2v9.62c0,1.78-.4,2.69-1.45,3.19-1.09.54-2.72.65-5.23.62-.15-.83-.58-2.21-1.02-3.12,1.6.04,3.16.04,3.63,0,.47,0,.69-.18.69-.69v-8.67l-4.03,1.12-.91-3.3c1.38-.33,3.08-.73,4.94-1.2v-7.33h-4.5v-3.19h4.5v-7.15h3.38ZM141.39,4.1v5.48h8.49v3.19h-8.49v4.97h5.15l.62-.15,2.21.94c-1.45,5.04-3.96,9-7.15,12.09,2.5,1.92,5.52,3.34,9,4.25-.76.69-1.71,2.07-2.21,2.94-3.67-1.09-6.82-2.76-9.47-4.94-2.98,2.18-6.39,3.77-10.05,4.86-.33-.91-1.16-2.36-1.81-3.08,3.41-.87,6.61-2.25,9.4-4.17-2.4-2.61-4.25-5.77-5.66-9.44l.62-.18h-1.6v-3.12h7.55v-4.97h-8.24v-3.19h8.24v-5.48h3.41ZM139.69,28.41c2.25-2.07,4.1-4.61,5.34-7.55h-10.23c1.16,2.87,2.79,5.41,4.9,7.55Z"/>
      <path class="st1" d="M166.22,4.28l1.56,2.79c-1.6.62-3.48,1.23-5.23,1.74l.11,3.85h4.57v2.87h-4.46l.11,3.85h4.46v2.87h-4.36l.11,3.88h20l.22-3.74h-4.28v-2.87h4.43l.11-3.92h-4.32v-2.83h4.39l.07-3.96h-4.83v-2.98h7.98c-.04,6.46-.22,14.84-.54,20.29h3.38v3.19h-33.17v-3.19h3.48l-.65-19.09c2.29-.76,5.04-1.85,6.86-2.76ZM169.88,31.64c-3.05,2.21-7.51,4.57-11.07,6.1-.47-.73-1.34-1.89-2-2.61,3.45-1.34,7.88-3.74,10.23-5.63l2.83,2.14ZM172.46,18.03c-.33,2.47-1.02,4.94-2.11,6.57-.47-.4-1.6-1.09-2.25-1.38,1.05-1.52,1.45-3.56,1.71-5.66l2.65.47ZM171.88,4.35v3.01h5.92v2.87h-5.92v3.34l4.5.04h1.13v9.47c0,1.27-.25,1.85-1.13,2.25-.87.36-2.21.36-3.99.36-.11-.69-.47-1.56-.8-2.21,1.16.07,2.21.07,2.58.04.36,0,.44-.11.44-.44v-6.79h-5.66V4.35h2.94ZM178.19,29.32c3.85,1.78,8.06,4.03,10.56,5.7l-2.25,2.61c-2.4-1.71-6.46-4.1-10.2-5.92l1.89-2.4Z"/>
      <path class="st1" d="M208.32,6.31v3.23h-4.25v23.08c0,1.92-.4,2.83-1.6,3.41-1.2.54-3.08.62-5.88.62-.15-.91-.62-2.4-1.05-3.34,1.92.07,3.81.04,4.39.04.58-.04.76-.22.76-.76V9.54h-5.48v-3.23h13.1ZM216.88,32.95c-2.36,1.85-6.13,3.7-9.29,4.75-.47-.69-1.45-1.71-2.14-2.4,3.08-.98,6.75-2.76,8.57-4.28l2.87,1.92ZM215.97,11.68c.25-.98.47-2.07.65-3.08h-7.77v-2.94h19.96v2.94h-8.28l-1.12,3.08h8.2v19.05h-17.57V11.68h5.92ZM213.25,17.23h11v-2.98h-11v2.98ZM213.25,22.68h11v-3.01h-11v3.01ZM213.25,28.16h11v-3.05h-11v3.05ZM222.29,31.17c2.36,1.27,5.59,3.23,7.29,4.61l-2.76,2.03c-1.49-1.34-4.65-3.41-7.11-4.79l2.58-1.85Z"/>
      <path class="st1" d="M252.92,18.94c-.11,1.27-.25,2.5-.47,3.67h14.84v3.08h-13.65c2.32,5.08,6.86,7.98,14.26,8.96-.73.73-1.6,2.14-2,3.12-7.55-1.38-12.05-4.54-14.81-10.16-1.92,4.79-5.88,8.24-14.73,10.13-.33-.87-1.16-2.21-1.81-2.94,8.6-1.67,11.98-4.75,13.5-9.11h-13.14v-3.08h13.9c.18-1.16.33-2.36.44-3.67h3.67ZM244.97,8.13c-1.74,4.03-4.57,8.09-7.26,10.71-.62-.58-1.96-1.63-2.72-2.14,2.69-2.29,5.26-5.88,6.71-9.47l3.27.91ZM252.66,4.1v13.75h-3.59V4.1h3.59ZM259.52,7.14c2.98,2.9,6.35,6.93,7.84,9.76l-3.16,1.67c-1.34-2.72-4.57-6.93-7.55-9.94l2.87-1.49Z"/>
      <path class="st1" d="M291.9,4.17c-.04,1.42-.07,3.3-.25,5.48.51,4.57,2.76,19.2,15.57,24.9-1.02.8-2.03,2-2.54,2.94-8.6-4.06-12.63-12.12-14.55-18.73-1.85,6.9-5.73,14.3-14.01,18.91-.58-.91-1.71-2-2.83-2.76,14.99-7.77,14.59-24.9,14.7-30.74h3.92Z"/>
      <path class="st1" d="M336.06,4.1v7.29h9.04v3.52h-9.04v17.97c0,2.29-.54,3.27-2,3.85-1.42.58-3.7.65-7.33.65-.15-1.02-.69-2.61-1.2-3.63,2.43.11,5.01.07,5.7.07.76-.04,1.05-.25,1.05-.98v-16.84c-4.14,6.86-10.82,13.83-17.42,17.64-.62-.98-1.71-2.29-2.69-3.08,6.31-3.19,12.67-9.4,16.59-15.64h-15.42v-3.52h18.94v-7.29h3.77Z"/>
      <path class="st1" d="M374.82,4.79c-.44,1.67-.94,3.34-1.52,4.97h10.63v1.63c-.54,16.55-.98,22.25-2.47,24.06-.91,1.23-1.81,1.56-3.19,1.74-1.27.15-3.45.11-5.52,0-.07-.94-.51-2.4-1.16-3.34,2.36.22,4.54.22,5.44.22.73,0,1.13-.11,1.56-.58,1.13-1.23,1.63-6.75,2.07-20.58h-8.6c-1.02,2.36-2.18,4.46-3.38,6.13-.54-.51-1.85-1.38-2.65-1.89v16.84h-9.94v2.79h-3.16V9.94h4.14c.47-1.78,1.02-4.14,1.23-5.92l3.74.62c-.58,1.81-1.31,3.74-1.92,5.3h5.92v6.9c2.4-3.16,4.36-8.02,5.48-12.81l3.3.76ZM356.09,19.88h6.79v-6.9h-6.79v6.9ZM362.88,30.92v-8.06h-6.79v8.06h6.79ZM372.46,18.14c1.92,2.54,4.39,6.02,5.55,8.17l-2.9,1.81c-1.05-2.21-3.41-5.81-5.33-8.46l2.69-1.52Z"/>
      <path class="st1" d="M408.75,15.42v11.03h-12.67l-.22,1.45h13.76v9.58h-3.01v-1.27h-7.91v1.34h-2.9v-9.18c-.51,2.83-1.38,5.66-2.79,7.98-.62-.47-2.11-1.13-2.94-1.42,2.87-4.5,3.19-10.74,3.19-14.95v-4.57h15.5ZM403.78,5.4l-.62.94c2.76,1.63,6.02,3.59,7.77,4.94l-1.81,2.87c-1.74-1.42-5.04-3.59-7.88-5.37-.94,1.05-1.96,2.03-3.05,2.94h6.97v2.14h-7.59v-1.63c-1.78,1.45-3.74,2.72-5.63,3.7-.33-.76-1.23-2.43-1.85-3.23,4.14-1.85,8.27-4.9,10.52-8.49l3.16,1.2ZM396.34,24.02h9.29v-2.07h-9.18l-.11,2.07ZM405.63,19.81v-1.96h-9.15v1.96h9.15ZM406.61,33.6v-3.27h-7.91v3.27h7.91ZM415.58,7.98v20.21h-3.23V7.98h3.23ZM422.4,4.24v29.22c0,2-.44,2.98-1.6,3.52-1.16.58-3.08.69-6.06.69-.15-.94-.62-2.47-1.09-3.45,2.11.07,4.03.07,4.61.04.62,0,.83-.18.83-.83V4.24h3.3Z"/>
      <path class="st1" d="M435.39,27.51c-.91,2.61-2.4,5.52-3.74,7.4-.51-.44-1.63-1.27-2.32-1.6,1.34-1.74,2.58-4.25,3.38-6.57l2.69.76ZM444.47,11.32c-.62,1.6-1.27,3.3-1.89,4.68h4.28v2.87h-6.71v3.34h6.21v2.94h-6.21v12.45h-3.34v-12.45h-7.08v-2.94h7.08v-3.34h-7.26v-2.87h3.99c-.15-1.23-.65-3.16-1.27-4.61l2.79-.65c.62,1.42,1.2,3.3,1.38,4.5l-2.76.76h5.81c.65-1.56,1.42-3.77,1.81-5.33l3.16.65ZM438.91,3.81c.65,1.23,1.38,2.76,1.81,3.99h5.55v2.83h-16.15v-2.83h6.71c-.4-1.05-.87-2.18-1.34-3.12l3.41-.87ZM443.7,26.42c1.16,1.74,2.43,4.03,3.01,5.52l-2.36,1.42c-.58-1.52-1.85-3.92-2.94-5.7l2.29-1.23ZM459.64,4.6l2.69,2.54c-3.01,1.16-6.97,2.03-10.71,2.69v6.39h11.36v3.19h-3.74v18.18h-3.34v-18.18h-4.28v.91c0,5.3-.47,12.63-3.74,17.31-.54-.62-1.92-1.67-2.65-2.03,2.94-4.28,3.16-10.49,3.16-15.28V7.58c4.06-.69,8.6-1.81,11.25-2.98Z"/>
      <path class="st1" d="M485.29,27.07c2.21-2.11,3.92-4.68,5.08-7.8l3.48,1.02c-1.49,3.59-3.48,6.53-5.99,8.96,3.67,2.58,8.31,4.35,13.94,5.23-.73.73-1.67,2.14-2.11,3.08-5.92-1.09-10.67-3.12-14.44-6.1-3.96,2.98-8.82,4.97-14.48,6.35-.36-.8-1.42-2.32-2.07-3.08,5.59-1.13,10.31-2.87,14.01-5.52-2.32-2.43-4.21-5.37-5.66-8.78l3.08-.98c1.2,2.94,2.94,5.52,5.15,7.62ZM481.59,14.37c-2.5,3.12-6.39,6.42-9.58,8.46-.65-.69-1.96-2-2.72-2.54,3.23-1.74,6.82-4.54,8.96-7.22l3.34,1.31ZM485.18,3.7c.98,1.49,2.18,3.56,2.65,4.86l-.94.36h14.08v3.34h-31.65v-3.34h14.74c-.51-1.27-1.34-2.83-2.14-4.1l3.27-1.12ZM491.83,12.95c3.23,2.18,7.37,5.48,9.36,7.77l-2.9,2.25c-1.81-2.29-5.88-5.73-9.18-8.06l2.72-1.96Z"/>
      <path class="st1" d="M525.36,5.58v2.94h-17.57v-2.94h17.57ZM524.74,19.59v14.66c0,1.31-.22,2.11-1.13,2.58-.83.4-2.14.47-3.99.47-.07-.8-.44-1.89-.76-2.65,1.16.04,2.29.04,2.61.04.36-.04.47-.15.47-.47v-12.01h-10.96v15.5h-2.65v-18.11h16.4ZM523.62,10.27v7.62h-14.05v-7.62h14.05ZM520.97,23.59c-.73,1.38-1.49,2.94-2.21,4.21h2.1v2.21h-3.12v6.64h-2.5v-6.64h-3.27v-2.21h4.57c.8-1.49,1.78-3.63,2.25-5.08l2.18.87ZM514.07,22.9c.83,1.23,1.67,2.94,1.96,4.03l-1.96.76c-.25-1.12-1.09-2.83-1.85-4.14l1.85-.65ZM512.48,15.49h8.06v-2.83h-8.06v2.83ZM531.49,11.17v-6.71h3.01v6.71h5.15v14.26h-5.15v7.04l2.83-.44c-.4-1.49-.87-2.98-1.34-4.28l2.4-.54c1.23,3.19,2.43,7.37,2.79,9.84l-2.58.73c-.11-.84-.29-1.81-.54-2.94-4.1.8-8.31,1.56-11.54,2.1l-.76-3.12,5.73-.84v-7.55h-5.19v-14.26h5.19ZM528.81,22.46h2.94v-8.35h-2.94v8.35ZM534.25,22.46h2.79v-8.35h-2.79v8.35Z"/>
    </g>
  </g>
  <g>
    <path class="st0" d="M582.47,45.06h9.31c.07,4.65,2.51,6.8,6.43,6.8,4.14,0,6.13-2.44,6.13-5.76,0-9.38-20.83-10.12-20.83-25.71,0-7.68,5.47-13.44,14.63-13.44s14.85,5.69,14.92,14.92h-9.31c-.07-4.14-2.14-6.13-5.61-6.13s-5.39,1.92-5.39,4.88c0,9.01,21.05,9.31,21.05,25.56,0,8.12-5.69,14.55-15.66,14.55s-15.59-5.69-15.66-15.66Z"/>
    <path class="st0" d="M646.37,47.35c-.74,8.35-5.91,13.22-14.33,13.22s-13.66-5.61-13.66-15.07v-11.01c0-9.38,5.17-14.85,13.81-14.85s14.03,5.47,14.03,14.85v8.72h-19.13v2.29c0,4.65,1.85,6.72,5.1,6.72,3.47,0,4.73-1.48,5.39-4.88h8.79ZM627.09,34.42v2.59h10.49v-2.59c0-4.58-1.85-6.65-5.32-6.65s-5.17,2.07-5.17,6.65Z"/>
    <path class="st0" d="M680.64,35.01v10.42c0,9.38-5.02,15.22-12.56,15.22-2.51,0-4.88-.96-6.65-2.59v14.92h-8.49V20.54h6.06l.52,3.62c1.92-2.44,5.24-4.43,8.57-4.43,7.53,0,12.56,5.91,12.56,15.29ZM671.78,35.01c0-4.73-1.85-7.02-5.02-7.02s-5.32,2.36-5.32,7.02v10.42c0,4.43,1.92,6.94,5.32,6.94s5.02-2.22,5.02-6.94v-10.42Z"/>
    <path class="st0" d="M701.47,36.93h25.63v7.53h-25.63v-7.53Z"/>
    <path class="st0" d="M749.77,7.98h13.52c10.27,0,16.25,6.13,16.25,16.69v18.1c0,10.64-5.98,16.92-16.1,16.92h-13.67V7.98ZM763.44,51.04c4.51,0,6.94-2.88,6.94-8.35v-18.02c0-5.32-2.44-8.05-6.94-8.05h-4.58v34.42h4.58Z"/>
    <path class="st0" d="M813.15,47.35c-.74,8.35-5.91,13.22-14.33,13.22s-13.66-5.61-13.66-15.07v-11.01c0-9.38,5.17-14.85,13.81-14.85s14.03,5.47,14.03,14.85v8.72h-19.13v2.29c0,4.65,1.85,6.72,5.1,6.72,3.47,0,4.73-1.48,5.39-4.88h8.79ZM793.87,34.42v2.59h10.49v-2.59c0-4.58-1.85-6.65-5.32-6.65s-5.17,2.07-5.17,6.65Z"/>
    <path class="st0" d="M818.84,46.02v-11.89c0-9.09,5.1-14.48,13.59-14.48,8.94,0,13.74,5.39,14.03,14.48h-8.79c-.15-4.06-1.92-6.13-5.1-6.13s-4.95,2.07-4.95,6.13v11.89c0,4.14,1.77,6.2,4.95,6.2s4.95-2.07,5.17-6.2h8.79c-.22,9.16-5.54,14.55-14.11,14.55s-13.59-5.39-13.59-14.55Z"/>
    <path class="st0" d="M865.37,54.07c0-16.69,18.84-23.93,18.84-33.53,0-2.73-1.55-5.24-4.95-5.24-3.1,0-5.02,2.22-5.17,6.21h-8.27c.44-9.31,5.32-14.4,13.37-14.4,9.23,0,13.67,6.57,13.67,13.07,0,13.59-18.39,21.94-18.39,31.47h18.69v8.05h-27.77v-5.61Z"/>
    <path class="st0" d="M898.68,45.35v-22.9c0-9.45,5.39-15.22,14.26-15.22s14.4,5.76,14.4,15.22v22.9c0,9.38-5.39,15.07-14.4,15.07s-14.26-5.69-14.26-15.07ZM918.85,45.43v-22.9c0-4.65-2.07-7.09-5.91-7.09s-5.84,2.44-5.84,7.09v22.9c0,4.51,2.07,6.94,5.84,6.94s5.91-2.44,5.91-6.94Z"/>
    <path class="st0" d="M932.44,54.07c0-16.69,18.84-23.93,18.84-33.53,0-2.73-1.55-5.24-4.95-5.24-3.1,0-5.02,2.22-5.17,6.21h-8.27c.44-9.31,5.32-14.4,13.37-14.4,9.23,0,13.67,6.57,13.67,13.07,0,13.59-18.39,21.94-18.39,31.47h18.69v8.05h-27.77v-5.61Z"/>
    <path class="st0" d="M992.56,38.71v6.35c0,10.05-5.32,15.51-13.52,15.51s-13.22-5.47-13.44-14.48h8.64c.22,4.36,1.77,5.98,4.8,5.98s4.73-1.7,4.73-7.24v-5.54c0-5.1-1.55-6.8-4.43-6.8-2.66,0-4.21,1.7-4.8,4.51h-8.2V7.98h24.52v7.76h-16.18v10.27c1.7-1.11,3.84-1.77,6.28-1.77,6.72,0,11.6,5.1,11.6,14.48Z"/>
    <path class="st0" d="M1031.05,0h2.36v63.38h-2.36V0Z"/>
    <path class="st0" d="M1100.48,16.62h-10.42v43.06h-9.31V16.62h-10.42V7.98h30.14v8.64Z"/>
    <path class="st0" d="M1126.04,34.35v25.34h-7.02l-.52-3.69c-1.55,2.73-4.28,4.73-8.64,4.73-7.16,0-11.74-5.02-11.74-12.19,0-8.12,5.91-12.11,14.55-12.11h4.58v-2.07c0-3.99-1.18-6.28-4.43-6.28-2.44,0-4.51,1.26-4.88,4.28h-8.72c.37-7.9,5.47-12.7,13.74-12.7,8.86,0,13.07,5.17,13.07,14.7ZM1117.25,43.51h-4.43c-3.69,0-5.84,1.7-5.84,5.02,0,2.66,1.62,4.58,4.95,4.58s5.32-2.07,5.32-5.61v-3.99Z"/>
    <path class="st0" d="M1133.27,9.45c0-2.95,2.07-5.1,5.02-5.1s5.1,2.14,5.1,5.1c0,2.73-2.22,5.1-5.1,5.1s-5.02-2.22-5.02-5.1ZM1133.94,20.61h8.72v39.07h-8.72V20.61Z"/>
    <path class="st0" d="M1178.33,35.01v10.42c0,9.38-5.02,15.22-12.56,15.22-2.51,0-4.88-.96-6.65-2.59v14.92h-8.49V20.54h6.06l.52,3.62c1.92-2.44,5.24-4.43,8.57-4.43,7.53,0,12.56,5.91,12.56,15.29ZM1169.47,35.01c0-4.73-1.85-7.02-5.02-7.02s-5.32,2.36-5.32,7.02v10.42c0,4.43,1.92,6.94,5.32,6.94s5.02-2.22,5.02-6.94v-10.42Z"/>
    <path class="st0" d="M1212.46,47.35c-.74,8.35-5.91,13.22-14.33,13.22s-13.66-5.61-13.66-15.07v-11.01c0-9.38,5.17-14.85,13.81-14.85s14.03,5.47,14.03,14.85v8.72h-19.13v2.29c0,4.65,1.85,6.72,5.1,6.72,3.47,0,4.73-1.48,5.39-4.88h8.79ZM1193.18,34.42v2.59h10.49v-2.59c0-4.58-1.85-6.65-5.32-6.65s-5.17,2.07-5.17,6.65Z"/>
    <path class="st0" d="M1218.36,9.45c0-2.95,2.07-5.1,5.02-5.1s5.1,2.14,5.1,5.1c0,2.73-2.22,5.1-5.1,5.1s-5.02-2.22-5.02-5.1ZM1219.03,20.61h8.72v39.07h-8.72V20.61Z"/>
    <path class="st0" d="M1234.98,51.56h8.35l-4.65,18.47h-5.17l1.48-18.47Z"/>
    <path class="st0" d="M1291.71,16.62h-10.42v43.06h-9.31V16.62h-10.42V7.98h30.14v8.64Z"/>
    <path class="st0" d="M1317.27,34.35v25.34h-7.02l-.52-3.69c-1.55,2.73-4.28,4.73-8.64,4.73-7.16,0-11.74-5.02-11.74-12.19,0-8.12,5.91-12.11,14.55-12.11h4.58v-2.07c0-3.99-1.18-6.28-4.43-6.28-2.44,0-4.51,1.26-4.88,4.28h-8.72c.37-7.9,5.47-12.7,13.74-12.7,8.86,0,13.07,5.17,13.07,14.7ZM1308.48,43.51h-4.43c-3.69,0-5.84,1.7-5.84,5.02,0,2.66,1.62,4.58,4.95,4.58s5.32-2.07,5.32-5.61v-3.99Z"/>
    <path class="st0" d="M1324.5,9.45c0-2.95,2.07-5.1,5.02-5.1s5.1,2.14,5.1,5.1c0,2.73-2.22,5.1-5.1,5.1s-5.02-2.22-5.02-5.1ZM1325.17,20.61h8.72v39.07h-8.72V20.61Z"/>
    <path class="st0" d="M1385.89,20.61l-9.09,39.07h-9.38l-2.59-11.23c-1.33-5.76-2.36-12.26-2.66-16.55h-.37c-.37,4.28-1.4,10.78-2.66,16.55l-2.59,11.23h-9.45l-9.09-39.07h9.01l2.73,15.44c.74,4.51,1.77,11.08,2.07,14.03h.37c.44-3.47,1.4-9.09,2.22-13.67l2.95-15.07h9.23l2.88,15.07c.81,4.58,1.77,10.19,2.22,13.67h.37c.3-2.95,1.33-9.53,2.07-14.03l2.73-15.44h9.01Z"/>
    <path class="st0" d="M1414.77,34.35v25.34h-7.02l-.52-3.69c-1.55,2.73-4.28,4.73-8.64,4.73-7.16,0-11.74-5.02-11.74-12.19,0-8.12,5.91-12.11,14.55-12.11h4.58v-2.07c0-3.99-1.18-6.28-4.43-6.28-2.44,0-4.51,1.26-4.88,4.28h-8.72c.37-7.9,5.47-12.7,13.74-12.7,8.86,0,13.07,5.17,13.07,14.7ZM1405.98,43.51h-4.43c-3.69,0-5.84,1.7-5.84,5.02,0,2.66,1.62,4.58,4.95,4.58s5.32-2.07,5.32-5.61v-3.99Z"/>
    <path class="st0" d="M1450,35.46v24.23h-8.72v-24.01c0-5.54-1.55-7.68-4.58-7.68-3.25,0-5.32,2.51-5.32,7.24v24.45h-8.72V20.61h5.91l.74,4.21c1.99-3.32,5.17-5.17,9.45-5.17,7.02,0,11.23,5.17,11.23,15.81Z"/>
  </g>
</svg>