<?xml version="1.0" encoding="UTF-8"?>
<svg id="_圖層_1" data-name="圖層_1" xmlns="http://www.w3.org/2000/svg" version="1.1" viewBox="0 0 940 200">
  <!-- Generator: Adobe Illustrator 29.7.1, SVG Export Plug-In . SVG Version: 2.1.1 Build 8)  -->
  <defs>
    <style>
      .st0 {
        fill: #fff;
      }

      .st1 {
        fill: #ff4178;
      }
    </style>
  </defs>
  <g>
    <path class="st0" d="M111.47,39.02v55.07c0,5.55-1.11,8.77-4.77,10.66-3.77,1.89-8.77,2.11-15.65,2.11-.67-3.33-2.55-8.33-4.22-11.32,4,.22,8.55.22,9.99.11,1.44,0,1.89-.44,1.89-1.78v-9.88h-19.65c-1.33,8.44-3.77,16.88-8.33,23.2-2-2.11-7.22-6.11-9.99-7.55,6.99-9.99,7.66-24.09,7.66-34.97v-25.65h43.08ZM148.11,6.82c-2.66,4.33-5.66,8.66-8.33,12.55h22.54v12.1H61.28v-12.1h23.76c-2-3.77-5.33-8.55-8.44-12.21l12.66-4.44c4,4.33,8.55,10.33,10.44,14.54l-6.11,2.11h30.98c3.33-5.11,6.88-11.66,9.1-16.88l14.43,4.33ZM80.27,67l-.22,7.22h18.65v-7.22h-18.43ZM98.7,49.57h-18.43v7.55h18.43v-7.55ZM133.23,40.24v45.52h-12.21v-45.52h12.21ZM156.32,37.13v55.4c0,6.55-1.22,9.88-5.55,11.99-4.33,2-10.32,2.33-18.43,2.22-.67-3.55-2.78-9.1-4.77-12.55,5.66.22,11.55.22,13.32.11,1.78,0,2.33-.44,2.33-1.89v-55.29h13.1Z"/>
    <path class="st0" d="M248.8,43.68c1.44,2.89,3.11,6.55,4.33,9.44h21.21v7.77h-51.4c-.89,15.43-3.33,33.09-9.1,46.08-2.22-2-7.77-5.33-10.66-6.44,7.44-16.76,8.1-40.75,8.1-56.51v-4l-3,2.55c-.89-2.33-2.89-6-4.66-8.55v54.07h-18.32v9.77h-11.21V8.49h29.53v22.32c9.88-8.22,16.54-18.87,20.21-27.98l12.1,2.22-2,4.55h19.32l2-.44,8.22,5.44c-1.44,2.78-3.44,5.88-5.55,8.77h17.1v9.44h-13.32v4.55c0,2.11.11,3.11,1.89,3.11h3.66c1.44,0,4.44-.11,5.88-.67.22,2.78.33,5,.78,7.77-1.33.44-4.33.67-6.44.67h-7.55c-7.77,0-9.1-4-9.1-10.99v-4.44h-5.99c-1.22,8.44-5,13.88-16.77,16.21-.67-2.11-2.78-5.33-4.66-7.11v2.11l-.11,9.1h17.43l-2.55-5.88,10.66-3.55ZM192.29,19.81h-6.99v11.44h6.99v-11.44ZM185.29,42.13v11.77h6.99v-11.77h-6.99ZM185.29,64.89v11.88h6.99v-11.88h-6.99ZM223.37,41.35c6.88-1.44,9.33-4.11,10.21-8.55h-10.21v8.55ZM270.23,84.99v21.98h-12.1v-3.66h-20.76v3.78h-11.66v-22.09h44.52ZM226.15,23.37h18.43c1-1.55,2-3.33,2.89-5h-18.1l-3.22,5ZM269.34,64.22v6.99h-42.41v-6.99h42.41ZM269.34,74.55v6.88h-42.41v-6.88h42.41ZM258.13,96.31v-4.66h-20.76v4.66h20.76Z"/>
    <path class="st0" d="M326.07,14.71c-4.33,1.55-9.22,3-14.32,4.22v15.21h14.66v12.32h-14.66v1c3.11,2.89,12.32,13.55,14.43,16.21l-7.66,10.44c-1.44-3.11-4.11-7.88-6.77-12.21v45.19h-12.88v-39.97c-3.55,8.55-7.77,16.43-12.1,21.98-1.22-3.77-4.11-9.33-6.22-12.66,6.22-7.22,12.55-19.21,16.54-29.98h-15.1v-12.32h16.88v-12.66c-4.22.67-8.55,1.33-12.55,1.78-.44-2.89-2.11-7.44-3.55-10.33,12.66-1.89,26.65-5.22,35.86-9.1l7.44,10.88ZM360.26,68.33V2.83h13.21v63.17l10.99-1.89,2.11,12.55-13.1,2.33v27.98h-13.21v-25.76l-33.64,5.88-2.11-12.66,35.75-6.11ZM336.17,38.69c6.44,4.55,14.54,11.32,18.32,16.1l-9.1,8.66c-3.44-5-11.32-12.21-17.76-17.1l8.55-7.66ZM340.39,9.6c6.11,4.44,13.77,11.1,17.21,15.99l-9.33,8.33c-3.11-4.77-10.44-11.99-16.54-16.88l8.66-7.44Z"/>
    <path class="st0" d="M419.76,2.83v21.21h10.99v12.32h-10.99v16.54l10.21-2.55,1.67,12.21-11.88,3.22v26.65c0,6.44-1.22,9.66-5,11.77-3.78,2-9.1,2.33-16.99,2.33-.44-3.33-2.11-8.66-3.77-12.1,4.44.11,9.1.11,10.55.11,1.56,0,2.11-.55,2.11-2.22v-23.09l-10.88,2.78-3.44-12.77c4.11-.78,8.99-1.89,14.32-3.11v-19.76h-12.88v-12.32h12.88V2.83h13.1ZM469.28,2.83v15.88h24.98v12.32h-24.98v13.32h13.43l2.22-.44,8.55,3.44c-4.22,15.54-11.32,27.76-20.76,37.19,7.22,5,15.88,8.77,25.87,11.21-2.89,2.66-6.66,8.1-8.55,11.44-10.88-3.11-20.1-7.77-27.87-13.99-8.55,6-18.43,10.44-29.31,13.66-1.44-3.44-4.55-9.1-7.11-11.99,9.88-2.33,18.87-5.88,26.76-10.88-6.55-7.55-11.77-16.43-15.99-26.65l3.44-1h-5.88v-11.99h21.98v-13.32h-23.87v-12.32h23.87V2.83h13.21ZM462.62,76.1c5.88-5.55,10.77-12.1,14.1-19.76h-27.2c3.22,7.44,7.55,14.1,13.1,19.76Z"/>
    <path class="st0" d="M540.77,79.77c-6.44,8.44-16.43,17.54-24.54,23.09-2.66-2.44-8.22-6.77-11.55-8.77,8.33-4.66,17.32-12.21,22.65-19.21l13.43,4.89ZM582.63,44.68c7.77,7.88,16.99,18.32,21.76,25.09l-11.32,6.88c-1.44-2.22-3.44-5-5.66-7.88l-24.2,1.89v22.21c0,6.55-1.33,9.99-6.22,12.1-4.77,2-11.1,2.11-19.32,2.11-.67-3.89-2.89-9.55-4.88-12.99,5.77.22,12.55.22,14.43.22,1.89-.11,2.44-.44,2.44-1.78v-20.76c-25.31,2.22-30.42,3-34.2,4.44-.56-2.55-2.44-8.77-3.89-12.21,4.44-.56,8.66-2.33,15.43-5.55,3.44-1.55,9.88-4.89,17.65-9.33-17.87,1.22-21.65,1.89-24.31,2.89-.67-2.55-2.44-8.88-3.89-12.21,3-.56,5.66-1.67,9.44-3.77,3-1.44,10.32-5.66,17.65-11.1-10.55,2.11-21.32,3.66-31.53,5-.44-3.33-2.33-8.44-3.77-11.32,25.65-3.33,53.85-9.21,70.83-16.43l9.88,10.55c-9.33,3.66-20.21,6.77-31.86,9.44l5.88,3.78c-5.88,4.44-12.32,8.66-18.99,12.43l19.1-.89c4.11-2.89,8.22-5.88,11.99-8.99l9.88,8.88c-11.77,8.77-24.54,16.43-37.42,22.87l31.09-2.11-6.99-7.88,10.99-5.55ZM579.97,73.33c8.55,5.77,19.54,14.43,25.09,20.54l-11.88,7.88c-4.89-6-15.54-15.1-24.09-21.32l10.88-7.11Z"/>
    <path class="st0" d="M672.67,7.82v12.32h-24.43c-1.11,4.11-2.44,8.22-3.89,12.32h15.77l2.33-.44,8.33,2.78c-5.55,36.75-20.43,60.73-40.97,72.61-2-2.78-6.88-7.77-9.99-9.66,9.99-5.33,18.32-12.99,24.76-23.32-4-3.44-10.21-7.77-15.54-11.21-2.11,2.89-4.33,5.44-6.66,7.77-2.33-2.44-6.66-6.55-9.55-8.55,10.66-10.21,17.87-27.2,21.65-42.3h-16.99V7.82h55.18ZM639.58,44.68c-1.33,2.89-2.66,5.77-4.22,8.44,5,3,10.99,6.77,15.1,9.77,2.22-5.44,4.11-11.55,5.55-18.21h-16.43ZM688.65,15.37v61.18h-13.1V15.37h13.1ZM714.74,4.94v86.38c0,7.55-1.55,11.1-5.99,13.21-4.55,2.11-11.44,2.55-21.54,2.55-.56-3.66-2.55-9.66-4.44-13.32,6.77.22,13.66.22,15.88.22,2.11-.11,2.89-.78,2.89-2.78V4.94h13.21Z"/>
    <path class="st0" d="M745.27,2.38c3.11,4.66,6.55,10.77,8.22,14.88l-7.33,4h15.99v10.55h-36.31v-10.55h16.32c-1.67-4.11-4.55-9.77-7.11-13.99l10.21-4.89ZM759.59,67.22v33.75h-19.54v4.66h-10.66v-38.41h30.2ZM758.92,36.8v9.99h-28.87v-9.99h28.87ZM758.92,51.79v10.1h-28.87v-10.1h28.87ZM740.05,90.31h8.77v-12.55h-8.77v12.55ZM804.11,9.04l-2.11,3.66c6.44,8.88,17.54,16.88,29.31,20.76-3,2.78-6.99,8.33-9.1,11.99-3.22-1.33-6.33-3.11-9.33-5.11v4.66h-36.86v-4.88c-3.33,2.44-6.66,4.66-9.99,6.44-1.67-3.66-5-9.22-7.88-12.43,13.99-5.88,28.65-18.87,35.75-31.98l10.21,6.88ZM822.76,51.12v43.19c0,5-.44,8.1-3.22,9.88-2.66,1.89-6,2-10.21,2-.33-3.11-1.44-7.88-2.78-10.99,1.89.22,3.78.22,4.44.11.78,0,1-.33,1-1.22v-10.1h-5.88v19.98h-8.88v-19.98h-5.55v19.98h-8.99v-19.98h-5.44v23.2h-10.66v-56.07h56.18ZM782.68,73.11v-11.1h-5.44v11.1h5.44ZM804.67,33.8c-3.66-3.33-6.99-7.22-9.88-11.21-3.33,3.89-7.11,7.77-10.99,11.21h20.87ZM797.23,73.11v-11.1h-5.55v11.1h5.55ZM811.99,73.11v-11.1h-5.88v11.1h5.88Z"/>
    <path class="st0" d="M848.51,76.44v-34.42h-10.21v-12.66h10.21V4.38h12.32v24.98h8.22v12.66h-8.22v30.09l9.1-3.22,2.55,12.21c-10.88,4.55-22.43,9.33-31.86,12.99l-4.33-13.66c3.44-1,7.66-2.44,12.21-4ZM940,95.53v9.77h-75.61v-9.77h75.61ZM902.47,1.16c2.89,3.11,5.88,7.33,7.44,10.66h29.42v9.66h-72.39v-9.66h28.87c-1.22-2-2.55-4-3.89-5.66l10.55-5ZM934.45,24.59v36.31h-62.28V24.59h62.28ZM930.56,64.11v28.09h-55.07v-28.09h55.07ZM882.82,53.34h40.19v-21.21h-40.19v21.21ZM918.46,35.36v14.88h-31.09v-14.88h31.09ZM887.6,74.88h30.2v-3.89h-30.2v3.89ZM887.6,85.21h30.2v-3.78h-30.2v3.78ZM895.92,44.68h13.55v-3.77h-13.55v3.77Z"/>
    <path class="st0" d="M63.42,143.57h41.29v8.88h-31.55v15.14h27.98v8.88h-27.98v22.59h-9.75v-55.48Z"/>
    <path class="st0" d="M113.83,183.83v-26.63h9.59v23.78c0,6.5,3.25,10.22,8.96,10.22s9.43-3.88,9.43-10.38v-23.62h9.59v41.85h-9.59v-6.5c-2.7,3.96-6.58,7.37-13.08,7.37-9.43,0-14.9-6.34-14.9-16.09Z"/>
    <path class="st0" d="M165.43,187.48v-22.03h-5.31v-8.24h5.31v-11.49h9.59v11.49h11.25v8.24h-11.25v20.53c0,3.73,1.9,5.23,5.15,5.23,2.14,0,4.04-.48,5.94-1.43v7.85c-2.38,1.35-5.07,2.14-8.64,2.14-7.05,0-12.05-3.09-12.05-12.29Z"/>
    <path class="st0" d="M195.47,183.83v-26.63h9.59v23.78c0,6.5,3.25,10.22,8.96,10.22s9.43-3.88,9.43-10.38v-23.62h9.59v41.85h-9.59v-6.5c-2.7,3.96-6.58,7.37-13.08,7.37-9.43,0-14.9-6.34-14.9-16.09Z"/>
    <path class="st0" d="M245.09,157.2h9.59v9.43c2.62-6.26,7.45-10.54,14.82-10.22v10.15h-.55c-8.4,0-14.27,5.47-14.27,16.57v15.93h-9.59v-41.85Z"/>
    <path class="st0" d="M274.1,178.28v-.16c0-11.97,8.48-21.8,20.45-21.8,13.32,0,20.05,10.46,20.05,22.51,0,.87-.08,1.74-.16,2.69h-30.75c1.03,6.82,5.87,10.62,12.05,10.62,4.68,0,8.01-1.74,11.33-4.99l5.63,4.99c-3.96,4.76-9.43,7.85-17.12,7.85-12.13,0-21.48-8.8-21.48-21.72ZM305.09,175.19c-.63-6.18-4.28-11.02-10.62-11.02-5.87,0-9.99,4.52-10.86,11.02h21.48Z"/>
    <path class="st0" d="M339.02,152.6h-17.6v-9.04h45.02v9.04h-17.6v46.45h-9.83v-46.45Z"/>
    <path class="st0" d="M364.3,178.28v-.16c0-11.97,8.48-21.8,20.45-21.8,13.32,0,20.05,10.46,20.05,22.51,0,.87-.08,1.74-.16,2.69h-30.75c1.03,6.82,5.87,10.62,12.05,10.62,4.68,0,8.01-1.74,11.33-4.99l5.63,4.99c-3.96,4.76-9.43,7.85-17.12,7.85-12.13,0-21.48-8.8-21.48-21.72ZM395.29,175.19c-.63-6.18-4.28-11.02-10.62-11.02-5.87,0-9.99,4.52-10.86,11.02h21.48Z"/>
    <path class="st0" d="M412.18,178.36v-.16c0-11.89,9.19-21.88,21.72-21.88,7.93,0,12.84,2.93,16.72,7.21l-5.94,6.42c-2.93-3.09-6.02-5.23-10.86-5.23-6.98,0-12.05,6.02-12.05,13.32v.16c0,7.45,5.15,13.47,12.52,13.47,4.52,0,7.85-2.14,10.86-5.23l5.79,5.71c-4.12,4.6-8.96,7.85-17.12,7.85-12.44,0-21.64-9.75-21.64-21.64Z"/>
    <path class="st0" d="M459.73,141.19h9.59v22.51c2.69-3.96,6.58-7.37,13.08-7.37,9.43,0,14.9,6.34,14.9,16.09v26.63h-9.59v-23.78c0-6.5-3.25-10.22-8.96-10.22s-9.43,3.88-9.43,10.38v23.62h-9.59v-57.86Z"/>
    <path class="st0" d="M533.77,143.57h41.29v8.88h-31.55v15.14h27.98v8.88h-27.98v22.59h-9.75v-55.48Z"/>
    <path class="st0" d="M581.16,178.36v-.16c0-11.97,9.51-21.88,22.35-21.88s22.27,9.75,22.27,21.72v.16c0,11.89-9.51,21.8-22.43,21.8s-22.19-9.75-22.19-21.64ZM616.2,178.36v-.16c0-7.37-5.31-13.47-12.84-13.47s-12.6,6.02-12.6,13.32v.16c0,7.29,5.31,13.47,12.76,13.47s12.68-6.1,12.68-13.32Z"/>
    <path class="st0" d="M635.54,157.2h9.59v9.43c2.62-6.26,7.45-10.54,14.82-10.22v10.15h-.55c-8.4,0-14.27,5.47-14.27,16.57v15.93h-9.59v-41.85Z"/>
    <path class="st0" d="M667.8,183.83v-26.63h9.59v23.78c0,6.5,3.25,10.22,8.96,10.22s9.43-3.88,9.43-10.38v-23.62h9.59v41.85h-9.59v-6.5c-2.69,3.96-6.58,7.37-13.08,7.37-9.43,0-14.9-6.34-14.9-16.09Z"/>
    <path class="st0" d="M717.42,157.2h9.59v6.34c2.69-3.73,6.34-7.21,12.76-7.21,6.02,0,10.22,2.93,12.44,7.37,3.41-4.44,7.85-7.37,14.19-7.37,9.12,0,14.66,5.79,14.66,16.01v26.71h-9.59v-23.78c0-6.66-3.09-10.22-8.48-10.22s-8.96,3.65-8.96,10.38v23.62h-9.59v-23.86c0-6.5-3.17-10.15-8.48-10.15s-8.96,3.96-8.96,10.46v23.54h-9.59v-41.85Z"/>
  </g>
  <rect class="st1" width="10.58" height="199.05"/>
</svg>