<?xml version="1.0" encoding="UTF-8"?>
<svg id="_圖層_1" data-name="圖層_1" xmlns="http://www.w3.org/2000/svg" version="1.1" viewBox="0 0 877.84 231.5">
  <!-- Generator: Adobe Illustrator 29.6.1, SVG Export Plug-In . SVG Version: 2.1.1 Build 9)  -->
  <defs>
    <style>
      .st0 {
        fill: #e95245;
      }

      .st1 {
        fill: #fff;
      }
    </style>
  </defs>
  <g>
    <g>
      <path class="st1" d="M3.11,86.17h10.86c2.77,0,4.95.76,6.33,2.14,1.07,1.07,1.63,2.39,1.63,4.01v.07c0,2.91-1.66,4.46-3.46,5.4,2.84.97,4.81,2.59,4.81,5.88v.07c0,4.32-3.56,6.64-8.96,6.64H3.11v-24.21ZM13.11,96.37c2.73,0,4.57-1.07,4.57-3.29v-.07c0-1.9-1.52-3.08-4.25-3.08h-6.12v6.43h5.81ZM14.36,106.61c2.91,0,4.67-1.14,4.67-3.32v-.07c0-2.04-1.63-3.25-4.98-3.25h-6.75v6.64h7.06Z"/>
      <path class="st1" d="M27.6,92.12h4.19v4.12c1.14-2.73,3.25-4.6,6.47-4.46v4.43h-.24c-3.67,0-6.23,2.39-6.23,7.23v6.95h-4.19v-18.26Z"/>
      <path class="st1" d="M41.95,85.34h4.5v3.98h-4.5v-3.98ZM42.13,92.12h4.19v18.26h-4.19v-18.26Z"/>
      <path class="st1" d="M50.84,101.28v-.07c0-6.05,4.12-9.48,8.48-9.48,3.01,0,4.91,1.52,6.23,3.22v-9.82h4.19v25.25h-4.19v-3.04c-1.35,1.9-3.25,3.42-6.23,3.42-4.29,0-8.48-3.42-8.48-9.48ZM65.61,101.28v-.07c0-3.53-2.49-5.85-5.29-5.85s-5.26,2.21-5.26,5.85v.07c0,3.53,2.42,5.85,5.26,5.85s5.29-2.35,5.29-5.85Z"/>
      <path class="st1" d="M74.92,113.81l1.56-3.15c1.94,1.21,4.01,1.94,6.5,1.94,3.74,0,5.78-1.94,5.78-5.6v-1.42c-1.52,1.97-3.42,3.36-6.43,3.36-4.29,0-8.3-3.18-8.3-8.54v-.07c0-5.4,4.05-8.58,8.3-8.58,3.08,0,4.98,1.42,6.4,3.11v-2.73h4.19v14.53c0,3.08-.8,5.36-2.32,6.88-1.66,1.66-4.22,2.46-7.51,2.46-3.01,0-5.81-.76-8.16-2.18ZM88.79,100.38v-.07c0-3.01-2.46-5.05-5.36-5.05s-5.19,2.01-5.19,5.02v.07c0,3.01,2.32,5.05,5.19,5.05s5.36-2.08,5.36-5.02Z"/>
      <path class="st1" d="M98.19,85.34h4.5v3.98h-4.5v-3.98ZM98.37,92.12h4.19v18.26h-4.19v-18.26Z"/>
      <path class="st1" d="M108.02,92.12h4.19v2.84c1.18-1.73,2.87-3.22,5.71-3.22,4.12,0,6.5,2.77,6.5,7.02v11.62h-4.19v-10.38c0-2.84-1.42-4.46-3.91-4.46s-4.12,1.7-4.12,4.53v10.31h-4.19v-18.26Z"/>
      <path class="st1" d="M129.42,113.81l1.56-3.15c1.94,1.21,4.01,1.94,6.5,1.94,3.74,0,5.78-1.94,5.78-5.6v-1.42c-1.52,1.97-3.42,3.36-6.43,3.36-4.29,0-8.3-3.18-8.3-8.54v-.07c0-5.4,4.05-8.58,8.3-8.58,3.08,0,4.98,1.42,6.4,3.11v-2.73h4.19v14.53c0,3.08-.8,5.36-2.32,6.88-1.66,1.66-4.22,2.46-7.51,2.46-3.01,0-5.81-.76-8.16-2.18ZM143.3,100.38v-.07c0-3.01-2.46-5.05-5.36-5.05s-5.19,2.01-5.19,5.02v.07c0,3.01,2.32,5.05,5.19,5.05s5.36-2.08,5.36-5.02Z"/>
      <path class="st1" d="M162.42,98.34v-.07c0-6.78,5.19-12.52,12.49-12.52,4.22,0,6.81,1.18,9.31,3.29l-2.7,3.22c-1.87-1.59-3.7-2.59-6.78-2.59-4.46,0-7.85,3.91-7.85,8.54v.07c0,4.98,3.29,8.65,8.23,8.65,2.28,0,4.36-.73,5.85-1.83v-4.53h-6.19v-3.7h10.31v10.17c-2.39,2.04-5.81,3.77-10.1,3.77-7.58,0-12.56-5.4-12.56-12.45Z"/>
      <path class="st1" d="M190.37,85.13h4.19v25.25h-4.19v-25.25Z"/>
      <path class="st1" d="M199.01,101.35v-.07c0-5.22,4.15-9.55,9.75-9.55s9.72,4.25,9.72,9.48v.07c0,5.19-4.15,9.51-9.79,9.51s-9.69-4.25-9.69-9.44ZM214.3,101.35v-.07c0-3.22-2.32-5.88-5.6-5.88s-5.5,2.63-5.5,5.81v.07c0,3.18,2.32,5.88,5.57,5.88s5.53-2.66,5.53-5.81Z"/>
      <path class="st1" d="M226.93,107.54v2.84h-4.19v-25.25h4.19v10.03c1.35-1.9,3.25-3.42,6.19-3.42,4.32,0,8.51,3.42,8.51,9.48v.07c0,6.05-4.15,9.48-8.51,9.48-3.01,0-4.91-1.52-6.19-3.22ZM237.37,101.28v-.07c0-3.53-2.39-5.85-5.22-5.85s-5.33,2.35-5.33,5.85v.07c0,3.53,2.49,5.85,5.33,5.85s5.22-2.25,5.22-5.85Z"/>
      <path class="st1" d="M257.09,110.38v-2.25c-1.25,1.49-3.15,2.63-5.92,2.63-3.46,0-6.5-1.97-6.5-5.64v-.07c0-4.05,3.15-5.98,7.4-5.98,2.21,0,3.63.31,5.05.76v-.35c0-2.53-1.59-3.91-4.5-3.91-2.04,0-3.56.45-5.22,1.14l-1.14-3.36c2.01-.9,3.98-1.52,6.95-1.52,5.4,0,8.03,2.84,8.03,7.71v10.83h-4.15ZM257.19,102.74c-1.07-.42-2.56-.73-4.19-.73-2.63,0-4.19,1.07-4.19,2.84v.07c0,1.73,1.56,2.7,3.53,2.7,2.77,0,4.84-1.56,4.84-3.84v-1.04Z"/>
      <path class="st1" d="M266.46,85.13h4.19v25.25h-4.19v-25.25Z"/>
      <path class="st1" d="M287.21,86.17h4.25v24.21h-4.25v-24.21Z"/>
      <path class="st1" d="M297.45,92.12h4.19v2.84c1.18-1.73,2.87-3.22,5.71-3.22,4.12,0,6.5,2.77,6.5,7.02v11.62h-4.19v-10.38c0-2.84-1.42-4.46-3.91-4.46s-4.12,1.7-4.12,4.53v10.31h-4.19v-18.26Z"/>
      <path class="st1" d="M318.89,92.12h4.19v2.84c1.18-1.73,2.87-3.22,5.71-3.22,4.12,0,6.5,2.77,6.5,7.02v11.62h-4.19v-10.38c0-2.84-1.42-4.46-3.91-4.46s-4.12,1.7-4.12,4.53v10.31h-4.19v-18.26Z"/>
      <path class="st1" d="M339.33,101.35v-.07c0-5.22,4.15-9.55,9.75-9.55s9.72,4.25,9.72,9.48v.07c0,5.19-4.15,9.51-9.79,9.51s-9.69-4.25-9.69-9.44ZM354.62,101.35v-.07c0-3.22-2.32-5.88-5.6-5.88s-5.5,2.63-5.5,5.81v.07c0,3.18,2.32,5.88,5.57,5.88s5.53-2.66,5.53-5.81Z"/>
      <path class="st1" d="M360.29,92.12h4.5l4.91,13.42,4.95-13.42h4.39l-7.47,18.4h-3.77l-7.51-18.4Z"/>
      <path class="st1" d="M392.91,110.38v-2.25c-1.25,1.49-3.15,2.63-5.92,2.63-3.46,0-6.5-1.97-6.5-5.64v-.07c0-4.05,3.15-5.98,7.4-5.98,2.21,0,3.63.31,5.05.76v-.35c0-2.53-1.59-3.91-4.5-3.91-2.04,0-3.56.45-5.22,1.14l-1.14-3.36c2.01-.9,3.98-1.52,6.95-1.52,5.4,0,8.03,2.84,8.03,7.71v10.83h-4.15ZM393.01,102.74c-1.07-.42-2.56-.73-4.19-.73-2.63,0-4.19,1.07-4.19,2.84v.07c0,1.73,1.56,2.7,3.53,2.7,2.77,0,4.84-1.56,4.84-3.84v-1.04Z"/>
      <path class="st1" d="M402.73,105.33v-9.62h-2.32v-3.6h2.32v-5.02h4.19v5.02h4.91v3.6h-4.91v8.96c0,1.63.83,2.28,2.25,2.28.93,0,1.76-.21,2.59-.62v3.42c-1.04.59-2.21.93-3.77.93-3.08,0-5.26-1.35-5.26-5.36Z"/>
      <path class="st1" d="M416.12,85.34h4.5v3.98h-4.5v-3.98ZM416.29,92.12h4.19v18.26h-4.19v-18.26Z"/>
      <path class="st1" d="M424.94,101.35v-.07c0-5.22,4.15-9.55,9.75-9.55s9.72,4.25,9.72,9.48v.07c0,5.19-4.15,9.51-9.79,9.51s-9.69-4.25-9.69-9.44ZM440.22,101.35v-.07c0-3.22-2.32-5.88-5.6-5.88s-5.5,2.63-5.5,5.81v.07c0,3.18,2.32,5.88,5.57,5.88s5.53-2.66,5.53-5.81Z"/>
      <path class="st1" d="M448.66,92.12h4.19v2.84c1.18-1.73,2.87-3.22,5.71-3.22,4.12,0,6.5,2.77,6.5,7.02v11.62h-4.19v-10.38c0-2.84-1.42-4.46-3.91-4.46s-4.12,1.7-4.12,4.53v10.31h-4.19v-18.26Z"/>
      <path class="st1" d="M491.65,110.38v-2.25c-1.25,1.49-3.15,2.63-5.92,2.63-3.46,0-6.5-1.97-6.5-5.64v-.07c0-4.05,3.15-5.98,7.4-5.98,2.21,0,3.63.31,5.05.76v-.35c0-2.53-1.59-3.91-4.5-3.91-2.04,0-3.56.45-5.22,1.14l-1.14-3.36c2.01-.9,3.98-1.52,6.95-1.52,5.4,0,8.03,2.84,8.03,7.71v10.83h-4.15ZM491.76,102.74c-1.07-.42-2.56-.73-4.19-.73-2.63,0-4.19,1.07-4.19,2.84v.07c0,1.73,1.56,2.7,3.53,2.7,2.77,0,4.84-1.56,4.84-3.84v-1.04Z"/>
      <path class="st1" d="M500.78,92.12h4.19v2.84c1.18-1.73,2.87-3.22,5.71-3.22,4.12,0,6.5,2.77,6.5,7.02v11.62h-4.19v-10.38c0-2.84-1.42-4.46-3.91-4.46s-4.12,1.7-4.12,4.53v10.31h-4.19v-18.26Z"/>
      <path class="st1" d="M521.29,101.28v-.07c0-6.05,4.12-9.48,8.48-9.48,3.01,0,4.91,1.52,6.23,3.22v-9.82h4.19v25.25h-4.19v-3.04c-1.35,1.9-3.25,3.42-6.23,3.42-4.29,0-8.48-3.42-8.48-9.48ZM536.06,101.28v-.07c0-3.53-2.49-5.85-5.29-5.85s-5.26,2.21-5.26,5.85v.07c0,3.53,2.42,5.85,5.26,5.85s5.29-2.35,5.29-5.85Z"/>
      <path class="st1" d="M556.26,86.17h17.95v3.8h-13.7v6.3h12.14v3.8h-12.14v6.5h13.87v3.8h-18.13v-24.21Z"/>
      <path class="st1" d="M584.07,101.11l-6.47-8.99h4.57l4.22,6.02,4.22-6.02h4.46l-6.47,8.89,6.75,9.37h-4.57l-4.5-6.4-4.46,6.4h-4.46l6.71-9.27Z"/>
      <path class="st1" d="M596.8,101.35v-.07c0-5.19,4.01-9.55,9.48-9.55,3.46,0,5.6,1.28,7.3,3.15l-2.59,2.8c-1.28-1.35-2.63-2.28-4.74-2.28-3.04,0-5.26,2.63-5.26,5.81v.07c0,3.25,2.25,5.88,5.47,5.88,1.97,0,3.42-.93,4.74-2.28l2.52,2.49c-1.8,2.01-3.91,3.42-7.47,3.42-5.43,0-9.44-4.25-9.44-9.44Z"/>
      <path class="st1" d="M616.03,101.32v-.07c0-5.22,3.7-9.51,8.92-9.51,5.81,0,8.75,4.57,8.75,9.82,0,.38-.03.76-.07,1.18h-13.42c.45,2.97,2.56,4.63,5.26,4.63,2.04,0,3.49-.76,4.95-2.18l2.46,2.18c-1.73,2.08-4.12,3.42-7.47,3.42-5.29,0-9.37-3.84-9.37-9.48ZM629.55,99.97c-.28-2.7-1.87-4.81-4.64-4.81-2.56,0-4.36,1.97-4.74,4.81h9.37Z"/>
      <path class="st1" d="M637.92,92.12h4.19v3.04c1.35-1.9,3.25-3.42,6.19-3.42,4.32,0,8.51,3.42,8.51,9.48v.07c0,6.05-4.15,9.48-8.51,9.48-3.01,0-4.91-1.52-6.19-3.22v8.37h-4.19v-23.8ZM652.55,101.28v-.07c0-3.53-2.39-5.85-5.22-5.85s-5.33,2.35-5.33,5.85v.07c0,3.53,2.49,5.85,5.33,5.85s5.22-2.25,5.22-5.85Z"/>
      <path class="st1" d="M661.96,105.33v-9.62h-2.32v-3.6h2.32v-5.02h4.19v5.02h4.91v3.6h-4.91v8.96c0,1.63.83,2.28,2.25,2.28.93,0,1.76-.21,2.59-.62v3.42c-1.04.59-2.21.93-3.77.93-3.08,0-5.26-1.35-5.26-5.36Z"/>
      <path class="st1" d="M675.34,85.34h4.5v3.98h-4.5v-3.98ZM675.52,92.12h4.19v18.26h-4.19v-18.26Z"/>
      <path class="st1" d="M684.16,101.35v-.07c0-5.22,4.15-9.55,9.75-9.55s9.72,4.25,9.72,9.48v.07c0,5.19-4.15,9.51-9.79,9.51s-9.69-4.25-9.69-9.44ZM699.45,101.35v-.07c0-3.22-2.32-5.88-5.6-5.88s-5.5,2.63-5.5,5.81v.07c0,3.18,2.32,5.88,5.57,5.88s5.53-2.66,5.53-5.81Z"/>
      <path class="st1" d="M707.89,92.12h4.19v2.84c1.18-1.73,2.87-3.22,5.71-3.22,4.12,0,6.5,2.77,6.5,7.02v11.62h-4.19v-10.38c0-2.84-1.42-4.46-3.91-4.46s-4.12,1.7-4.12,4.53v10.31h-4.19v-18.26Z"/>
      <path class="st1" d="M740.51,110.38v-2.25c-1.25,1.49-3.15,2.63-5.92,2.63-3.46,0-6.5-1.97-6.5-5.64v-.07c0-4.05,3.15-5.98,7.4-5.98,2.21,0,3.63.31,5.05.76v-.35c0-2.53-1.59-3.91-4.5-3.91-2.04,0-3.56.45-5.22,1.14l-1.14-3.36c2.01-.9,3.98-1.52,6.95-1.52,5.4,0,8.03,2.84,8.03,7.71v10.83h-4.15ZM740.61,102.74c-1.07-.42-2.56-.73-4.19-.73-2.63,0-4.19,1.07-4.19,2.84v.07c0,1.73,1.56,2.7,3.53,2.7,2.77,0,4.84-1.56,4.84-3.84v-1.04Z"/>
      <path class="st1" d="M749.88,85.13h4.19v25.25h-4.19v-25.25Z"/>
      <path class="st1" d="M776.34,90.11h-7.68v-3.94h19.65v3.94h-7.68v20.27h-4.29v-20.27Z"/>
      <path class="st1" d="M799.55,110.38v-2.25c-1.25,1.49-3.15,2.63-5.92,2.63-3.46,0-6.5-1.97-6.5-5.64v-.07c0-4.05,3.15-5.98,7.4-5.98,2.21,0,3.63.31,5.05.76v-.35c0-2.53-1.59-3.91-4.5-3.91-2.04,0-3.56.45-5.22,1.14l-1.14-3.36c2.01-.9,3.98-1.52,6.95-1.52,5.4,0,8.03,2.84,8.03,7.71v10.83h-4.15ZM799.65,102.74c-1.07-.42-2.56-.73-4.19-.73-2.63,0-4.19,1.07-4.19,2.84v.07c0,1.73,1.56,2.7,3.53,2.7,2.77,0,4.84-1.56,4.84-3.84v-1.04Z"/>
      <path class="st1" d="M808.92,85.13h4.19v25.25h-4.19v-25.25Z"/>
      <path class="st1" d="M817.57,101.32v-.07c0-5.22,3.7-9.51,8.92-9.51,5.81,0,8.75,4.57,8.75,9.82,0,.38-.03.76-.07,1.18h-13.42c.45,2.97,2.56,4.63,5.26,4.63,2.04,0,3.49-.76,4.95-2.18l2.46,2.18c-1.73,2.08-4.12,3.42-7.47,3.42-5.29,0-9.37-3.84-9.37-9.48ZM831.09,99.97c-.28-2.7-1.87-4.81-4.64-4.81-2.56,0-4.36,1.97-4.74,4.81h9.37Z"/>
      <path class="st1" d="M839.46,92.12h4.19v2.84c1.18-1.73,2.87-3.22,5.71-3.22,4.12,0,6.5,2.77,6.5,7.02v11.62h-4.19v-10.38c0-2.84-1.42-4.46-3.91-4.46s-4.12,1.7-4.12,4.53v10.31h-4.19v-18.26Z"/>
      <path class="st1" d="M861.77,105.33v-9.62h-2.32v-3.6h2.32v-5.02h4.19v5.02h4.91v3.6h-4.91v8.96c0,1.63.83,2.28,2.25,2.28.93,0,1.76-.21,2.59-.62v3.42c-1.04.59-2.21.93-3.77.93-3.08,0-5.26-1.35-5.26-5.36Z"/>
    </g>
    <g>
      <path class="st0" d="M31.84,3.76c5.27,7.7,14.94,15.34,24.49,19.1-1.16,1.16-2.89,3.42-3.71,4.92-2.55-1.22-5.09-2.61-7.53-4.23v4.57h-13.43v7.87h15.92v4.81h-15.92v8.57h22.17v4.92H4.4v-4.92h21.48v-8.57h-15.75v-4.81h15.75v-7.87h-13.08v-4.75c-2.55,1.79-5.15,3.36-7.58,4.63-.81-1.39-2.2-3.3-3.42-4.46,6.95-3.07,14.94-8.8,20.61-14.7h-9.26V3.76h18.7ZM28.89,8.86c-4.17,5.04-10.02,10.25-15.86,14.36h31.61c-6.08-4.05-11.58-9.15-15.75-14.36Z"/>
      <path class="st0" d="M71.2,42.67v-15.17h-6.19v-5.04h6.19v-11.64h-6.6v-5.09h18.12v5.09h-6.37v11.64h5.44v5.04h-5.44v13.66l6.66-2.03.69,4.28c3.88-3.13,9.2-7.58,14.13-11.92v-14.65h-13.84v-4.98h13.84V2.14h5.27v9.73h14.82v4.98h-14.82v2.14c.69,4.05,1.51,7.58,2.55,10.65,2.49-3.07,5.21-6.89,6.95-9.84l4.75,2.49c-3.07,4.11-6.83,8.8-9.9,11.98,2.55,5.33,6.19,9.38,11.46,13.08-1.27.98-2.72,2.66-3.42,4.17-5.73-4.28-9.61-8.97-12.39-15.11v12.97c0,2.95-.69,4.46-2.49,5.38-1.79.93-4.57,1.1-9.03,1.1-.23-1.45-1.16-3.82-1.91-5.27,3.13.12,5.96.06,6.89.06.87,0,1.27-.29,1.27-1.27v-11.93c-4.46,4.52-9.15,8.92-12.97,12.45l-3.3-4.8.69-.52-17.19,5.44-1.22-5.27,7.35-2.08ZM88.86,20.09c2.43,3.24,5.04,7.58,6.08,10.48l-4.57,2.14c-.87-2.89-3.36-7.41-5.73-10.71l4.23-1.91ZM108.54,2.6c2.49,1.62,5.5,4.17,6.95,5.91l-3.24,3.24c-1.39-1.91-4.28-4.52-6.77-6.31l3.07-2.84Z"/>
      <path class="st0" d="M148.95,7.18c-2.2.87-4.81,1.62-7.58,2.26v8.92h8.16v5.15h-8.16v.75c1.62,1.68,6.72,7.82,7.87,9.38l-3.3,4.28c-.87-1.79-2.84-5.04-4.57-7.76v25.59h-5.33v-23.56c-2.2,5.27-4.81,10.25-7.47,13.55-.52-1.51-1.79-3.76-2.66-5.09,3.53-3.94,7.18-10.94,9.38-17.14h-8.57v-5.15h9.32v-7.82c-2.49.46-4.98.87-7.35,1.16-.17-1.22-.93-3.07-1.51-4.23,6.54-1.04,14.01-2.78,18.58-4.75l3.18,4.46ZM168,36.41V2.02h5.38v33.46l6.37-1.04.81,5.09-7.18,1.21v14.99h-5.38v-14.07l-18.41,3.13-.87-5.21,19.28-3.18ZM154.28,20.96c3.59,2.32,7.99,5.85,10.02,8.34l-3.71,3.59c-1.97-2.55-6.19-6.25-9.78-8.74l3.47-3.18ZM156.53,5.85c3.36,2.26,7.41,5.67,9.32,8.16l-3.82,3.47c-1.74-2.49-5.67-6.08-9.03-8.51l3.53-3.13Z"/>
      <path class="st0" d="M201.86,2.08v11.4h6.08v5.09h-6.08v10.25l5.91-1.56.69,4.98-6.6,1.91v15.34c0,2.84-.64,4.28-2.32,5.09-1.74.87-4.34,1.04-8.34.98-.23-1.33-.93-3.53-1.62-4.98,2.55.06,5.04.06,5.79,0,.75,0,1.1-.29,1.1-1.1v-13.84l-6.43,1.79-1.45-5.27c2.2-.52,4.92-1.16,7.87-1.91v-11.69h-7.18v-5.09h7.18V2.08h5.38ZM227.33,2.08v8.74h13.55v5.09h-13.55v7.93h8.22l.98-.23,3.53,1.51c-2.32,8.05-6.31,14.36-11.4,19.28,3.99,3.07,8.8,5.33,14.36,6.77-1.22,1.1-2.72,3.3-3.53,4.69-5.85-1.74-10.88-4.4-15.11-7.87-4.75,3.47-10.19,6.02-16.04,7.76-.52-1.45-1.85-3.76-2.89-4.92,5.44-1.39,10.54-3.59,14.99-6.66-3.82-4.17-6.77-9.21-9.03-15.05l.98-.29h-2.55v-4.98h12.04v-7.93h-13.14v-5.09h13.14V2.08h5.44ZM224.61,40.87c3.59-3.3,6.54-7.35,8.51-12.04h-16.33c1.85,4.57,4.46,8.62,7.81,12.04Z"/>
      <path class="st0" d="M266.93,2.37l2.49,4.46c-2.55.98-5.56,1.97-8.34,2.78l.17,6.14h7.29v4.57h-7.12l.17,6.14h7.12v4.57h-6.95l.17,6.19h31.9l.35-5.96h-6.83v-4.57h7.06l.17-6.25h-6.89v-4.52h7l.12-6.31h-7.7v-4.75h12.74c-.06,10.3-.35,23.68-.87,32.36h5.38v5.09h-52.91v-5.09h5.56l-1.04-30.45c3.65-1.21,8.05-2.95,10.94-4.4ZM272.78,46.02c-4.86,3.53-11.98,7.29-17.66,9.73-.75-1.16-2.14-3.01-3.18-4.17,5.5-2.14,12.56-5.96,16.33-8.97l4.52,3.42ZM276.89,24.31c-.52,3.94-1.62,7.87-3.36,10.48-.75-.64-2.55-1.74-3.59-2.2,1.68-2.43,2.32-5.67,2.72-9.03l4.23.75ZM275.96,2.49v4.8h9.44v4.57h-9.44v5.33l7.18.06h1.79v15.11c0,2.03-.41,2.95-1.79,3.59-1.39.58-3.53.58-6.37.58-.17-1.1-.75-2.49-1.27-3.53,1.85.12,3.53.12,4.11.06.58,0,.69-.17.69-.69v-10.83h-9.03V2.49h4.69ZM286.03,42.32c6.14,2.84,12.85,6.43,16.85,9.09l-3.59,4.17c-3.82-2.72-10.3-6.54-16.27-9.44l3.01-3.82Z"/>
      <path class="st0" d="M334.08,5.61v5.15h-6.77v36.82c0,3.07-.64,4.52-2.55,5.44-1.91.87-4.92.98-9.38.98-.23-1.45-.98-3.82-1.68-5.33,3.07.12,6.08.06,7,.06.93-.06,1.22-.35,1.22-1.22V10.77h-8.74v-5.15h20.9ZM347.74,48.11c-3.76,2.95-9.78,5.91-14.82,7.58-.75-1.1-2.32-2.72-3.42-3.82,4.92-1.56,10.77-4.4,13.66-6.83l4.57,3.07ZM346.3,14.18c.41-1.56.75-3.3,1.04-4.92h-12.39v-4.69h31.84v4.69h-13.2l-1.79,4.92h13.08v30.39h-28.02V14.18h9.44ZM341.95,23.04h17.54v-4.75h-17.54v4.75ZM341.95,31.72h17.54v-4.81h-17.54v4.81ZM341.95,40.47h17.54v-4.86h-17.54v4.86ZM356.37,45.27c3.76,2.03,8.92,5.15,11.64,7.35l-4.4,3.24c-2.37-2.14-7.41-5.44-11.35-7.64l4.11-2.95Z"/>
      <path class="st0" d="M405.23,25.76c-.17,2.03-.41,3.99-.75,5.85h23.68v4.92h-21.77c3.71,8.1,10.94,12.74,22.75,14.3-1.16,1.16-2.55,3.42-3.18,4.98-12.04-2.2-19.22-7.24-23.62-16.21-3.07,7.64-9.38,13.14-23.5,16.15-.52-1.39-1.85-3.53-2.89-4.69,13.72-2.66,19.1-7.58,21.54-14.53h-20.96v-4.92h22.17c.29-1.85.52-3.76.69-5.85h5.85ZM392.55,8.51c-2.78,6.43-7.29,12.91-11.58,17.08-.98-.93-3.13-2.61-4.34-3.42,4.28-3.65,8.39-9.38,10.71-15.11l5.21,1.45ZM404.82,2.08v21.94h-5.73V2.08h5.73ZM415.76,6.95c4.75,4.63,10.13,11.06,12.5,15.57l-5.04,2.66c-2.14-4.34-7.29-11.06-12.04-15.86l4.57-2.37Z"/>
      <path class="st0" d="M467.4,2.2c-.06,2.26-.12,5.27-.41,8.74.81,7.29,4.4,30.62,24.84,39.71-1.62,1.27-3.24,3.18-4.05,4.69-13.72-6.48-20.15-19.34-23.21-29.87-2.95,11-9.15,22.81-22.35,30.16-.93-1.45-2.72-3.18-4.52-4.4,23.91-12.39,23.27-39.71,23.45-49.03h6.25Z"/>
      <path class="st0" d="M537.85,2.08v11.64h14.42v5.62h-14.42v28.66c0,3.65-.87,5.21-3.18,6.14-2.26.93-5.91,1.04-11.69,1.04-.23-1.62-1.1-4.17-1.91-5.79,3.88.17,7.99.12,9.09.12,1.22-.06,1.68-.41,1.68-1.56v-26.86c-6.6,10.94-17.25,22.06-27.79,28.14-.98-1.56-2.72-3.65-4.28-4.92,10.07-5.09,20.2-14.99,26.46-24.95h-24.6v-5.62h30.22V2.08h6.02Z"/>
      <path class="st0" d="M599.68,3.18c-.69,2.66-1.51,5.33-2.43,7.93h16.96v2.61c-.87,26.4-1.56,35.49-3.94,38.38-1.45,1.97-2.89,2.49-5.09,2.78-2.03.23-5.5.17-8.8,0-.12-1.5-.81-3.82-1.85-5.33,3.76.35,7.24.35,8.68.35,1.16,0,1.79-.17,2.49-.93,1.79-1.97,2.61-10.77,3.3-32.82h-13.72c-1.62,3.76-3.47,7.12-5.38,9.78-.87-.81-2.95-2.2-4.23-3.01v26.86h-15.86v4.46h-5.04V11.4h6.6c.75-2.84,1.62-6.6,1.97-9.44l5.96.98c-.93,2.89-2.08,5.96-3.07,8.45h9.44v11c3.82-5.04,6.95-12.79,8.74-20.44l5.27,1.22ZM569.81,27.27h10.83v-11h-10.83v11ZM580.63,44.86v-12.85h-10.83v12.85h10.83ZM595.92,24.49c3.07,4.05,7,9.61,8.86,13.03l-4.63,2.89c-1.68-3.53-5.44-9.26-8.51-13.49l4.28-2.43Z"/>
      <path class="st0" d="M653.81,20.15v17.6h-20.2l-.35,2.32h21.94v15.28h-4.81v-2.03h-12.62v2.14h-4.63v-14.65c-.81,4.52-2.2,9.03-4.46,12.74-.98-.75-3.36-1.79-4.69-2.26,4.57-7.18,5.09-17.14,5.09-23.85v-7.29h24.72ZM645.87,4.17l-.98,1.5c4.4,2.61,9.61,5.73,12.39,7.87l-2.89,4.57c-2.78-2.26-8.05-5.73-12.56-8.57-1.51,1.68-3.13,3.24-4.86,4.69h11.12v3.42h-12.1v-2.6c-2.84,2.32-5.96,4.34-8.97,5.9-.52-1.22-1.97-3.88-2.95-5.15,6.6-2.95,13.2-7.82,16.79-13.55l5.04,1.91ZM634.01,33.87h14.82v-3.3h-14.65l-.17,3.3ZM648.83,27.15v-3.13h-14.59v3.13h14.59ZM650.39,49.15v-5.21h-12.62v5.21h12.62ZM664.69,8.28v32.25h-5.15V8.28h5.15ZM675.57,2.31v46.6c0,3.18-.69,4.75-2.55,5.62-1.85.93-4.92,1.1-9.67,1.1-.23-1.51-.98-3.94-1.74-5.5,3.36.12,6.43.12,7.35.06.98,0,1.33-.29,1.33-1.33V2.31h5.27Z"/>
      <path class="st0" d="M696.3,39.42c-1.45,4.17-3.82,8.8-5.96,11.81-.81-.69-2.6-2.03-3.71-2.55,2.14-2.78,4.11-6.77,5.38-10.48l4.28,1.22ZM710.77,13.6c-.98,2.55-2.03,5.27-3.01,7.47h6.83v4.57h-10.71v5.33h9.9v4.69h-9.9v19.86h-5.33v-19.86h-11.29v-4.69h11.29v-5.33h-11.58v-4.57h6.37c-.23-1.97-1.04-5.04-2.03-7.35l4.46-1.04c.98,2.26,1.91,5.27,2.2,7.18l-4.4,1.22h9.26c1.04-2.49,2.26-6.02,2.89-8.51l5.04,1.04ZM701.91,1.62c1.04,1.97,2.2,4.4,2.89,6.37h8.86v4.52h-25.76v-4.52h10.71c-.64-1.68-1.39-3.47-2.14-4.98l5.44-1.39ZM709.55,37.69c1.85,2.78,3.88,6.43,4.81,8.8l-3.76,2.26c-.93-2.43-2.95-6.25-4.69-9.09l3.65-1.97ZM734.97,2.89l4.28,4.05c-4.81,1.85-11.12,3.24-17.08,4.28v10.19h18.12v5.09h-5.96v29h-5.33v-29h-6.83v1.45c0,8.45-.75,20.15-5.96,27.61-.87-.98-3.07-2.66-4.23-3.24,4.69-6.83,5.04-16.73,5.04-24.37V7.64c6.48-1.1,13.72-2.89,17.95-4.75Z"/>
      <path class="st0" d="M775.9,38.73c3.53-3.36,6.25-7.47,8.1-12.45l5.56,1.62c-2.37,5.73-5.56,10.42-9.55,14.3,5.85,4.11,13.26,6.95,22.23,8.34-1.16,1.16-2.66,3.42-3.36,4.92-9.44-1.74-17.02-4.98-23.04-9.73-6.31,4.75-14.07,7.93-23.1,10.13-.58-1.27-2.26-3.71-3.3-4.92,8.92-1.79,16.44-4.57,22.35-8.8-3.71-3.88-6.72-8.57-9.03-14.01l4.92-1.56c1.91,4.69,4.69,8.8,8.22,12.16ZM769.99,18.47c-3.99,4.98-10.19,10.25-15.28,13.49-1.04-1.1-3.13-3.18-4.34-4.05,5.15-2.78,10.88-7.24,14.3-11.52l5.33,2.08ZM775.72,1.45c1.56,2.37,3.47,5.67,4.23,7.76l-1.5.58h22.46v5.33h-50.48v-5.33h23.5c-.81-2.03-2.14-4.52-3.42-6.54l5.21-1.79ZM786.32,16.21c5.15,3.47,11.75,8.74,14.94,12.39l-4.63,3.59c-2.89-3.65-9.38-9.15-14.65-12.85l4.34-3.13Z"/>
      <path class="st0" d="M839.8,4.46v4.69h-28.02v-4.69h28.02ZM838.82,26.8v23.39c0,2.08-.35,3.36-1.79,4.11-1.33.64-3.42.75-6.37.75-.12-1.27-.69-3.01-1.22-4.23,1.85.06,3.65.06,4.17.06.58-.06.75-.23.75-.75v-19.16h-17.48v24.72h-4.23v-28.89h26.17ZM837.03,11.92v12.16h-22.4v-12.16h22.4ZM832.8,33.17c-1.16,2.2-2.37,4.69-3.53,6.71h3.36v3.53h-4.98v10.59h-3.99v-10.59h-5.21v-3.53h7.29c1.27-2.37,2.84-5.79,3.59-8.1l3.47,1.39ZM821.8,32.07c1.33,1.97,2.66,4.69,3.13,6.43l-3.13,1.21c-.41-1.79-1.74-4.51-2.95-6.6l2.95-1.04ZM819.25,20.26h12.85v-4.52h-12.85v4.52ZM849.59,13.37V2.66h4.8v10.71h8.22v22.75h-8.22v11.23l4.52-.7c-.64-2.37-1.39-4.75-2.14-6.83l3.82-.87c1.97,5.09,3.88,11.75,4.46,15.69l-4.11,1.16c-.17-1.33-.46-2.89-.87-4.69-6.54,1.27-13.26,2.49-18.41,3.36l-1.22-4.98,9.15-1.33v-12.04h-8.28V13.37h8.28ZM845.3,31.38h4.69v-13.32h-4.69v13.32ZM853.99,31.38h4.46v-13.32h-4.46v13.32Z"/>
    </g>
  </g>
  <g>
    <path class="st1" d="M1.63,186.65h9.36c.07,4.68,2.53,6.83,6.46,6.83,4.16,0,6.17-2.45,6.17-5.79,0-9.44-20.95-10.18-20.95-25.86,0-7.73,5.5-13.52,14.71-13.52s14.93,5.72,15.01,15.01h-9.36c-.07-4.16-2.15-6.17-5.65-6.17s-5.42,1.93-5.42,4.9c0,9.06,21.17,9.36,21.17,25.71,0,8.17-5.72,14.64-15.75,14.64s-15.68-5.72-15.75-15.75Z"/>
    <path class="st1" d="M65.9,188.96c-.74,8.4-5.94,13.3-14.41,13.3s-13.74-5.65-13.74-15.16v-11.07c0-9.44,5.2-14.93,13.89-14.93s14.12,5.5,14.12,14.93v8.77h-19.24v2.3c0,4.68,1.86,6.76,5.13,6.76,3.49,0,4.75-1.49,5.42-4.9h8.84ZM46.51,175.95v2.6h10.55v-2.6c0-4.61-1.86-6.69-5.35-6.69s-5.2,2.08-5.2,6.69Z"/>
    <path class="st1" d="M100.37,176.55v10.48c0,9.44-5.05,15.3-12.63,15.3-2.53,0-4.9-.97-6.69-2.6v15.01h-8.54v-52.75h6.09l.52,3.64c1.93-2.45,5.27-4.46,8.62-4.46,7.58,0,12.63,5.94,12.63,15.38ZM91.45,176.55c0-4.75-1.86-7.06-5.05-7.06s-5.35,2.38-5.35,7.06v10.48c0,4.46,1.93,6.98,5.35,6.98s5.05-2.23,5.05-6.98v-10.48Z"/>
    <path class="st1" d="M121.32,178.48h25.78v7.58h-25.78v-7.58Z"/>
    <path class="st1" d="M169.9,149.36h13.6c10.33,0,16.34,6.17,16.34,16.79v18.2c0,10.7-6.02,17.01-16.2,17.01h-13.74v-52.01ZM183.65,192.67c4.53,0,6.98-2.9,6.98-8.4v-18.13c0-5.35-2.45-8.1-6.98-8.1h-4.61v34.62h4.61Z"/>
    <path class="st1" d="M233.65,188.96c-.74,8.4-5.94,13.3-14.41,13.3s-13.74-5.65-13.74-15.16v-11.07c0-9.44,5.2-14.93,13.89-14.93s14.12,5.5,14.12,14.93v8.77h-19.24v2.3c0,4.68,1.86,6.76,5.13,6.76,3.49,0,4.75-1.49,5.42-4.9h8.84ZM214.26,175.95v2.6h10.55v-2.6c0-4.61-1.86-6.69-5.35-6.69s-5.2,2.08-5.2,6.69Z"/>
    <path class="st1" d="M239.37,187.62v-11.96c0-9.14,5.13-14.56,13.67-14.56,8.99,0,13.82,5.42,14.12,14.56h-8.84c-.15-4.09-1.93-6.17-5.13-6.17s-4.98,2.08-4.98,6.17v11.96c0,4.16,1.78,6.24,4.98,6.24s4.98-2.08,5.2-6.24h8.84c-.22,9.21-5.57,14.64-14.19,14.64s-13.67-5.42-13.67-14.64Z"/>
    <path class="st1" d="M286.17,195.72c0-16.79,18.95-24.07,18.95-33.73,0-2.75-1.56-5.28-4.98-5.28-3.12,0-5.05,2.23-5.2,6.24h-8.32c.45-9.36,5.35-14.49,13.45-14.49,9.29,0,13.74,6.61,13.74,13.15,0,13.67-18.5,22.07-18.5,31.65h18.8v8.1h-27.94v-5.65Z"/>
    <path class="st1" d="M319.68,186.95v-23.03c0-9.51,5.42-15.3,14.34-15.3s14.49,5.79,14.49,15.3v23.03c0,9.44-5.42,15.16-14.49,15.16s-14.34-5.72-14.34-15.16ZM339.96,187.02v-23.03c0-4.68-2.08-7.13-5.94-7.13s-5.87,2.45-5.87,7.13v23.03c0,4.53,2.08,6.98,5.87,6.98s5.94-2.45,5.94-6.98Z"/>
    <path class="st1" d="M353.63,195.72c0-16.79,18.95-24.07,18.95-33.73,0-2.75-1.56-5.28-4.98-5.28-3.12,0-5.05,2.23-5.2,6.24h-8.32c.45-9.36,5.35-14.49,13.45-14.49,9.29,0,13.74,6.61,13.74,13.15,0,13.67-18.5,22.07-18.5,31.65h18.8v8.1h-27.94v-5.65Z"/>
    <path class="st1" d="M414.1,180.26v6.39c0,10.1-5.35,15.6-13.6,15.6s-13.3-5.5-13.52-14.56h8.69c.22,4.38,1.78,6.02,4.83,6.02s4.75-1.71,4.75-7.28v-5.57c0-5.13-1.56-6.83-4.46-6.83-2.67,0-4.23,1.71-4.83,4.53h-8.25v-29.2h24.67v7.8h-16.27v10.33c1.71-1.11,3.86-1.78,6.31-1.78,6.76,0,11.66,5.13,11.66,14.56Z"/>
    <path class="st1" d="M452.81,141.33h2.38v63.75h-2.38v-63.75Z"/>
    <path class="st1" d="M522.65,158.05h-10.48v43.31h-9.36v-43.31h-10.48v-8.69h30.31v8.69Z"/>
    <path class="st1" d="M548.35,175.88v25.48h-7.06l-.52-3.71c-1.56,2.75-4.31,4.75-8.69,4.75-7.21,0-11.81-5.05-11.81-12.26,0-8.17,5.94-12.18,14.64-12.18h4.61v-2.08c0-4.01-1.19-6.31-4.46-6.31-2.45,0-4.53,1.26-4.9,4.31h-8.77c.37-7.95,5.5-12.78,13.82-12.78,8.92,0,13.15,5.2,13.15,14.78ZM539.51,185.09h-4.46c-3.71,0-5.87,1.71-5.87,5.05,0,2.67,1.63,4.61,4.98,4.61s5.35-2.08,5.35-5.65v-4.01Z"/>
    <path class="st1" d="M555.63,150.84c0-2.97,2.08-5.13,5.05-5.13s5.13,2.16,5.13,5.13c0,2.75-2.23,5.13-5.13,5.13s-5.05-2.23-5.05-5.13ZM556.3,162.06h8.77v39.3h-8.77v-39.3Z"/>
    <path class="st1" d="M600.95,176.55v10.48c0,9.44-5.05,15.3-12.63,15.3-2.53,0-4.9-.97-6.69-2.6v15.01h-8.54v-52.75h6.09l.52,3.64c1.93-2.45,5.27-4.46,8.62-4.46,7.58,0,12.63,5.94,12.63,15.38ZM592.04,176.55c0-4.75-1.86-7.06-5.05-7.06s-5.35,2.38-5.35,7.06v10.48c0,4.46,1.93,6.98,5.35,6.98s5.05-2.23,5.05-6.98v-10.48Z"/>
    <path class="st1" d="M635.27,188.96c-.74,8.4-5.94,13.3-14.41,13.3s-13.74-5.65-13.74-15.16v-11.07c0-9.44,5.2-14.93,13.89-14.93s14.12,5.5,14.12,14.93v8.77h-19.24v2.3c0,4.68,1.86,6.76,5.13,6.76,3.49,0,4.75-1.49,5.42-4.9h8.84ZM615.88,175.95v2.6h10.55v-2.6c0-4.61-1.86-6.69-5.35-6.69s-5.2,2.08-5.2,6.69Z"/>
    <path class="st1" d="M641.22,150.84c0-2.97,2.08-5.13,5.05-5.13s5.13,2.16,5.13,5.13c0,2.75-2.23,5.13-5.13,5.13s-5.05-2.23-5.05-5.13ZM641.88,162.06h8.77v39.3h-8.77v-39.3Z"/>
    <path class="st1" d="M657.93,193.19h8.4l-4.68,18.57h-5.2l1.49-18.57Z"/>
    <path class="st1" d="M714.99,158.05h-10.48v43.31h-9.36v-43.31h-10.48v-8.69h30.31v8.69Z"/>
    <path class="st1" d="M740.69,175.88v25.48h-7.06l-.52-3.71c-1.56,2.75-4.31,4.75-8.69,4.75-7.21,0-11.81-5.05-11.81-12.26,0-8.17,5.94-12.18,14.64-12.18h4.61v-2.08c0-4.01-1.19-6.31-4.46-6.31-2.45,0-4.53,1.26-4.9,4.31h-8.77c.37-7.95,5.5-12.78,13.82-12.78,8.92,0,13.15,5.2,13.15,14.78ZM731.85,185.09h-4.46c-3.71,0-5.87,1.71-5.87,5.05,0,2.67,1.63,4.61,4.98,4.61s5.35-2.08,5.35-5.65v-4.01Z"/>
    <path class="st1" d="M747.97,150.84c0-2.97,2.08-5.13,5.05-5.13s5.13,2.16,5.13,5.13c0,2.75-2.23,5.13-5.13,5.13s-5.05-2.23-5.05-5.13ZM748.64,162.06h8.77v39.3h-8.77v-39.3Z"/>
    <path class="st1" d="M809.71,162.06l-9.14,39.3h-9.44l-2.6-11.29c-1.34-5.79-2.38-12.33-2.67-16.64h-.37c-.37,4.31-1.41,10.85-2.67,16.64l-2.6,11.29h-9.51l-9.14-39.3h9.06l2.75,15.53c.74,4.53,1.78,11.14,2.08,14.12h.37c.45-3.49,1.41-9.14,2.23-13.75l2.97-15.16h9.29l2.9,15.16c.82,4.61,1.78,10.25,2.23,13.75h.37c.3-2.97,1.34-9.58,2.08-14.12l2.75-15.53h9.06Z"/>
    <path class="st1" d="M838.76,175.88v25.48h-7.06l-.52-3.71c-1.56,2.75-4.31,4.75-8.69,4.75-7.21,0-11.81-5.05-11.81-12.26,0-8.17,5.94-12.18,14.64-12.18h4.61v-2.08c0-4.01-1.19-6.31-4.46-6.31-2.45,0-4.53,1.26-4.9,4.31h-8.77c.37-7.95,5.5-12.78,13.82-12.78,8.92,0,13.15,5.2,13.15,14.78ZM829.92,185.09h-4.46c-3.71,0-5.87,1.71-5.87,5.05,0,2.67,1.63,4.61,4.98,4.61s5.35-2.08,5.35-5.65v-4.01Z"/>
    <path class="st1" d="M874.2,176.99v24.37h-8.77v-24.15c0-5.57-1.56-7.73-4.61-7.73-3.27,0-5.35,2.53-5.35,7.28v24.59h-8.77v-39.3h5.94l.74,4.23c2.01-3.34,5.2-5.2,9.51-5.2,7.06,0,11.29,5.2,11.29,15.9Z"/>
  </g>
</svg>