<?xml version="1.0" encoding="UTF-8"?>
<svg id="_圖層_1" data-name="圖層_1" xmlns="http://www.w3.org/2000/svg" xmlns:xlink="http://www.w3.org/1999/xlink" version="1.1" viewBox="0 0 620 85">
  <!-- Generator: Adobe Illustrator 29.7.1, SVG Export Plug-In . SVG Version: 2.1.1 Build 8)  -->
  <defs>
    <style>
      .st0 {
        fill: #fff;
      }

      .st1 {
        clip-path: url(#clippath);
      }
    </style>
    <clipPath id="clippath">
      <path class="st0" d="M73.04,22.11C34.45,22.78,1.79,33.48.07,46c-1.1,8.01,10.73,14.82,29.49,18.52-13.44-3.9-17.53-10.1-16.62-16.74,1.72-12.52,30.51-22.84,69.09-23.52,13.91-.25,26.68.85,37.25,2.94-11.08-3.22-25.87-5.13-42.46-5.13-1.25,0-2.52.01-3.79.03"/>
    </clipPath>
  </defs>
  <g>
    <g>
      <path class="st0" d="M73.04,22.11C34.45,22.78,1.79,33.48.07,46c-1.1,8.01,10.73,14.82,29.49,18.52-13.44-3.9-17.53-10.1-16.62-16.74,1.72-12.52,30.51-22.84,69.09-23.52,13.91-.25,26.68.85,37.25,2.94-11.08-3.22-25.87-5.13-42.46-5.13-1.25,0-2.52.01-3.79.03"/>
      <g class="st1">
        <rect class="st0" x="-1.03" y="22.08" width="120.32" height="42.45"/>
      </g>
    </g>
    <path class="st0" d="M43.33,34.8c-3.98-.07-5.46,1.63-6.44,2.6-2.67,2.97-2.79,5.94-3.01,9.02-.55,6.76,12.45,4.16,11.73,8.65-.21,1.56-.89,3.38-2.5,3.86-1.04.4-2.8.54-4.76.57v.02h-8.79l-.9,2.8c-.43,1.19.23,2.19,1.45,2.19h14.32c2.46-.11,4.2-.8,6.01-2.13,3.01-2.49,4.41-10.84,2.59-13.07-2.29-2.59-6.57-2.97-8.94-3.56-3.01-.97-2.38-2.6-1.95-4.23.68-2.37,2.71-1.89,4.53-2h6.86c.42.11.98,0,1.27-.19.21-.11.55-.48.55-.78l.97-3.75h-13.01Z"/>
    <path class="st0" d="M105.72,36.02c-1.45-.96-2.75-1.22-5.42-1.22h-15.2l-6.09,21.65-1.6,5.69h0l-.15.53c-.22.86.13,1.04.34,1.34.34.3.77.39,1.31.5h8.05c-.68-.11-1.23-.2-1.44-.5-.21-.3-.55-.74-.43-1.34l2.38-8.27h7.95c2.92,0,4.45-.56,5.97-1.34,5.08-2.37,7.87-14,4.32-17.04M96.82,48.31c-.68.56-1.87,1.04-3.05,1.15h-4.88l2.93-10.17h4.87c.76,0,1.51.08,2.08.63.76.78.13,6.8-1.95,8.39"/>
    <path class="st0" d="M62.49,34.85h-2.94c-.29,0-.72.07-.93.18-.21.07-.55.37-.55.67l-.99,4.08h.86c.24-.04.49-.04.69-.04h6.65l-6.57,23.71c0,.37.21.67.43.75.09,0,.51.31.72.31h8.05c.3,0-.85-.2-.94-.38,0-.11-.21-.48-.21-.67l6.27-23.71h7.37c.55,0,.85-.19,1.06-.3.21-.07.34-.37.55-.74l.97-3.84h-20.49v-.02Z"/>
    <path class="st0" d="M119.41,36.25h0s.38-1.41.38-1.41h-1.68s-6.39,0-6.39,0l-.27,1c-.01.13-.04.26-.08.41l-7.29,26.61c-.21,1.08,0,.96.34,1.26.21.18.76.39,1.1.39h7.92c-.34,0-.89-.39-.97-.57-.26-.29-.34-.11-.26-1.15l7.19-26.54Z"/>
  </g>
  <g>
    <g>
      <g>
        <g>
          <polygon class="st0" points="193.66 9.39 184.34 9.39 186.67 4.7 191.33 4.7 193.66 9.39"/>
          <polygon class="st0" points="198.32 18.78 179.68 18.78 182.01 14.09 196 14.09 196 14.11 198.32 18.78 198.32 18.78"/>
          <polygon class="st0" points="179.68 0 189 0 186.67 4.7 179.68 4.7 179.68 0"/>
          <polygon class="st0" points="198.33 0 198.33 4.7 191.33 4.7 189 0 198.33 0"/>
          <polygon class="st0" points="179.68 9.39 184.34 9.39 182.01 14.09 179.68 14.09 179.68 9.39"/>
          <polygon class="st0" points="199.48 9.39 199.48 14.09 196 14.09 193.66 9.39 199.48 9.39"/>
        </g>
        <polygon class="st0" points="161.22 0 161.22 18.72 155.97 14.4 147.29 7.27 147.29 18.72 142.64 15.96 142.64 0 147.29 0 156.07 7.8 156.07 0 161.22 0"/>
        <g>
          <path class="st0" d="M217.01,18.75h-8.53c-2.24,0-4.07-1.7-4.3-3.87-.02-.15-.02-.3-.02-.46v-.37h7.63l.86.83,4.37,3.87Z"/>
          <path class="st0" d="M216.81,6.58c-.36,4.21-3.23,6.04-6.35,6.35h0s-6.47-6.93-6.47-6.93l-.5-.54v-.75h-.7l-.94-1.01L198.33,0h18.48c.13,2.9.13,4.95,0,6.58Z"/>
          <rect class="st0" x="198.36" y="4.71" width="5.13" height="14.07"/>
        </g>
        <g>
          <path class="st0" d="M179.68,0c-2.96.66-4.48,2.17-5.13,4.63h-8.19c-.65-2.46-2.17-3.97-5.13-4.63h18.46Z"/>
          <path class="st0" d="M179.68,18.72h-18.46c3.76-.69,4.49-1.95,5.13-4.69.38-1.62.16-5.45.05-6.23h8.1c-.12.85-.02,5.35.05,6.23.21,2.63,1.38,4.01,5.13,4.69Z"/>
        </g>
      </g>
      <g>
        <g>
          <polygon class="st0" points="193.66 9.39 184.34 9.39 186.67 4.7 191.33 4.7 193.66 9.39"/>
          <polygon class="st0" points="198.32 18.78 179.68 18.78 182.01 14.09 196 14.09 196 14.11 198.32 18.78 198.32 18.78"/>
          <polygon class="st0" points="179.68 0 189 0 186.67 4.7 179.68 4.7 179.68 0"/>
          <polygon class="st0" points="198.33 0 198.33 4.7 191.33 4.7 189 0 198.33 0"/>
          <polygon class="st0" points="179.68 9.39 184.34 9.39 182.01 14.09 179.68 14.09 179.68 9.39"/>
          <path class="st0" d="M216.81,6.58c-.36,4.21-3.24,6.04-6.36,6.35l-6.46-6.93-.51-.54v13.32h-5.13v-4.69h-2.36l-2.33-4.69h4.69v-4.68h4.43l-.94-1.01-3.52-3.7h18.49c.13,2.91.13,4.95,0,6.58Z"/>
        </g>
        <polygon class="st0" points="161.22 0 161.22 18.72 155.97 14.4 147.29 7.27 147.29 18.72 142.64 15.96 142.64 0 147.29 0 156.07 7.8 156.07 0 161.22 0"/>
        <path class="st0" d="M217.01,18.75h-8.53c-2.24,0-4.07-1.7-4.3-3.87-.02-.15-.02-.3-.02-.46v-.37h7.63l.86.83,4.37,3.87Z"/>
        <g>
          <path class="st0" d="M179.68,0c-2.96.66-4.48,2.17-5.13,4.63h-8.19c-.65-2.46-2.17-3.97-5.13-4.63h18.46Z"/>
          <path class="st0" d="M179.68,18.72h-18.46c3.76-.69,4.49-1.95,5.13-4.69.38-1.62.16-5.45.05-6.23h8.1c-.12.85-.02,5.35.05,6.23.21,2.63,1.38,4.01,5.13,4.69Z"/>
        </g>
      </g>
      <g>
        <path class="st0" d="M243.08,1.83v14.89h-1.96v-.7h-10.36v.7h-1.88V1.83h14.21ZM241.11,14.25V3.61h-2.03c.52.27,1.07.63,1.37.95l-.67.7h.8v1.4h-2.98c.08.93.18,1.8.32,2.55.33-.63.58-1.33.78-2.08l1.52.3c-.4,1.45-1,2.73-1.75,3.81.22.52.47.83.75.9.2.05.33-.6.4-1.57.3.3.9.75,1.23.93-.27,2.05-1.13,2.68-2.23,2.18-.5-.17-.92-.55-1.25-1.1-.53.53-1.1,1.02-1.73,1.42-.22-.3-.75-.93-1.08-1.2.18-.1.37-.22.55-.33-1.33.2-2.65.38-3.75.57l-.18-1.45c1.22-.12,2.95-.33,4.68-.57l.03.85c.3-.27.57-.55.83-.85-.35-1.2-.57-2.71-.72-4.36h-4.63v-1.4h4.51c-.03-.47-.05-.93-.08-1.42h1.63c.02.48.03.95.07,1.42h1.8c-.35-.3-.85-.65-1.28-.88l.77-.77h-8.03v10.64h10.36ZM235.5,10.53h-3.71v-3.16h3.71v3.16ZM234.17,8.42h-1.12v1.07h1.12v-1.07Z"/>
        <path class="st0" d="M260.84,8.39c-.67.52-1.42,1.05-2.15,1.55.65,1.96,1.98,3.61,3.9,4.38-.45.37-1.03,1.13-1.32,1.62-2-.95-3.31-2.73-4.13-5-.17.12-.35.22-.52.32.47,2,.07,3.91-.78,4.61-.58.6-1.12.77-1.98.78-.37.02-.87,0-1.35-.02-.03-.55-.2-1.33-.53-1.88.58.07,1.12.08,1.5.08s.67-.05.9-.4c.28-.27.48-.88.48-1.68-1.9,1.3-4.51,2.53-6.73,3.2-.22-.48-.65-1.2-1.03-1.65,2.63-.57,5.83-2,7.48-3.4-.07-.2-.15-.42-.25-.63-1.67,1.05-4.1,2.13-6,2.71-.22-.45-.63-1.12-.98-1.53,2.05-.43,4.78-1.48,6.23-2.45-.15-.18-.3-.37-.47-.55-1.45.77-3.06,1.33-4.63,1.75-.18-.38-.68-1.17-1-1.55,1.88-.38,3.85-1.02,5.35-1.83h-2.86v-1.68h9.31v1.68h-3.7c-.3.27-.63.53-1,.77.65.6,1.13,1.3,1.47,2.01,1.15-.78,2.35-1.71,3.15-2.53l1.65,1.32ZM249.44,6.19h-1.95v-3.76h6.03c-.12-.32-.27-.63-.4-.88l2.1-.6c.27.45.55,1,.72,1.48h5.93v3.76h-2.03v-1.96h-10.39v1.96Z"/>
        <path class="st0" d="M280.61,5.79v1.42h-3.01l-.13,1.3h-9.58l.17-1.3h-2.61v-1.42h2.81l.17-1.27h9.43l-.12,1.27h2.88ZM276.18,14.38c1.47.4,2.93.83,3.91,1.15l-1.35,1.22c-1.2-.45-3.15-1.12-5.06-1.62l.68-.75h-3.05l1,.73c-1.4.72-3.73,1.37-5.66,1.65-.23-.38-.7-.98-1.05-1.35,1.47-.2,3.18-.58,4.38-1.03h-2.38v-5.39h10.86v5.39h-2.28ZM267.69,5.36h-1.78v-2.9h6.08c-.13-.35-.32-.7-.48-1l1.73-.48c.28.45.58,1,.77,1.48h6.08v2.9h-1.85v-1.37h-10.54v1.37ZM269.52,10.47h6.93v-.48h-6.93v.48ZM269.52,11.93h6.93v-.52h-6.93v.52ZM269.52,13.4h6.93v-.53h-6.93v.53ZM269.79,7.52h2.18l.08-.53h-2.2l-.07.53ZM270.04,5.52l-.07.48h2.18l.05-.48h-2.16ZM275.75,7.52l.05-.53h-2.13l-.07.53h2.15ZM275.92,5.52h-2.1l-.03.48h2.1l.03-.48Z"/>
        <path class="st0" d="M283.07,15.16c.32-.97.57-2.5.68-3.6l1,.35c-.12,1.1-.33,2.68-.62,3.61l-1.07-.37ZM293.03,11.82c-.1.43-.22.87-.35,1.28.6.37,1.23.85,1.57,1.22l-.97,1.28c-.27-.28-.72-.68-1.18-1.03-.4.83-.88,1.55-1.43,2.11-.25-.28-.87-.78-1.25-1.07-.05.17-.1.28-.17.37-.25.37-.53.5-.92.55-.33.07-.85.08-1.38.07-.02-.45-.18-1.07-.38-1.47.42.05.77.05.93.05.18,0,.3-.02.42-.18.1-.17.17-.57.23-1.43l-.58.22c-.12-.6-.42-1.48-.67-2.15l.7-.23c.2.48.43,1.1.58,1.6.03-.53.05-1.18.08-1.98h-4.35V1.74h5.76v1.62h-1.7v1.1h1.43v.38c1.77-.98,3.38-2.5,4.26-3.95l1.77.62c-.1.18-.22.35-.33.52,1,.88,2.45,1.76,3.73,2.25-.28.45-.62,1.33-.73,1.82-.52-.25-1.03-.57-1.55-.92v1.1h-4.9v-.83c-.38.25-.75.48-1.15.72-.23-.32-.73-.85-1.08-1.15l-.02.92h-1.43v.98h1.48v1.45h-1.48v1.05h1.85s0,.43-.02.63c-.08,3.1-.17,4.7-.37,5.46.98-.93,1.62-2.38,1.92-3.98l1.67.3ZM285.72,11.85c.1.97.15,2.2.15,3.03l-.87.1c.03-.83,0-2.1-.08-3.06l.8-.07ZM285.46,3.36v1.1h1.03v-1.1h-1.03ZM286.49,5.92h-1.03v.98h1.03v-.98ZM285.46,9.4h1.03v-1.05h-1.03v1.05ZM286.71,11.67c.2.87.42,1.96.48,2.68l-.83.17c-.05-.73-.23-1.86-.45-2.71l.8-.13ZM290.27,7.15h3.56v4.05h-3.56v-4.05ZM291.55,9.95h.92v-1.57h-.92v1.57ZM296,4.77c-.65-.48-1.28-.98-1.85-1.52-.48.55-1.03,1.05-1.62,1.52h3.46ZM297.2,11.75c-.12.67-.27,1.32-.47,1.93.7.47,1.5,1.05,1.93,1.47l-1.15,1.35c-.32-.35-.88-.82-1.45-1.25-.28.53-.62,1.03-.98,1.43-.28-.3-1.02-.85-1.43-1.1.97-.95,1.53-2.46,1.78-4.13l1.77.3ZM294.37,7.15h3.7v4.05h-3.7v-4.05ZM295.65,9.95h1.05v-1.57h-1.05v1.57Z"/>
        <path class="st0" d="M304.99,3.69c-.23,1.12-.53,2.25-.9,3.31h3.11v7.66h-3.18v1.22h-1.65v-5.16c-.22.32-.43.62-.67.9-.07-.53-.42-1.8-.68-2.36,1.02-1.37,1.7-3.38,2.11-5.56h-1.77v-1.8h6.05v1.8h-2.43ZM305.53,8.75h-1.5v4.16h1.5v-4.16ZM316.72,9.75h-1.75v6.93h-1.88v-6.93h-1.9c-.1,2.45-.58,5.23-2.3,7.04-.33-.35-1.05-.9-1.5-1.15,1.43-1.55,1.85-3.86,1.95-5.89h-1.55v-1.86h1.58V3.77h-1.15v-1.83h8.16v1.83h-1.42v4.11h1.75v1.86ZM313.09,7.89V3.77h-1.87v4.11h1.87Z"/>
        <path class="st0" d="M332.14,14.43c.38,0,.45-.3.52-2.36.4.35,1.32.68,1.87.85-.2,2.73-.72,3.46-2.15,3.46h-1.57c-1.63,0-2.15-.58-2.15-2.53v-2.15h-2.18c-.42,1.95-1.87,3.96-6.18,5.08-.32-.52-.93-1.27-1.4-1.7,3.45-.87,4.85-2.11,5.35-3.38h-4.08v-1.83h4.36v-1.83h2.1v1.83h4.11v3.96c0,.53.07.6.45.6h.95ZM321.48,5.97h-2v-3.4h6.08c-.12-.42-.23-.83-.35-1.18l2.1-.33c.17.47.35,1.02.5,1.52h6.06v3.25h-2.08v-1.47h-2.35v2.13c0,.43.07.62.5.62h2.02c.45,0,1.13-.03,1.45-.13.05.53.1,1.2.17,1.67-.32.1-.97.13-1.53.13h-2.25c-1.88,0-2.33-.67-2.33-2.3v-2.11h-1.72c-.32,2.36-1.27,3.78-5.08,4.58-.17-.5-.63-1.23-1.03-1.62,3.15-.52,3.8-1.4,4.05-2.96h-2.2v1.62Z"/>
        <path class="st0" d="M343.02,2.42c-.43,1.4-.98,3.06-1.45,4.36,1,1.3,1.22,2.48,1.22,3.45,0,1.08-.22,1.8-.75,2.2-.25.2-.57.3-.95.37-.3.05-.68.05-1.07.03,0-.48-.17-1.22-.43-1.7.28.02.53.03.72.02.17,0,.32-.03.45-.13.2-.15.28-.52.28-1,0-.8-.2-1.86-1.15-3.05.33-1,.67-2.35.93-3.45h-1.33v13.09h-1.73V1.76h3.68l.28-.08,1.3.75ZM350.83,14.76c.25,0,.33-.28.37-1.98.37.32,1.13.6,1.62.73-.15,2.28-.62,2.91-1.78,2.91h-1.15c-1.47,0-1.8-.57-1.8-2.21v-3.4h-1.1c-.25,2.8-1.02,4.73-4.25,5.84-.18-.5-.7-1.22-1.1-1.6,2.65-.82,3.25-2.16,3.45-4.25h-2v-1.76h9.49v1.76h-2.61v3.41c0,.47.03.53.27.53h.6ZM344.34,6.34h-1.3v-3.28h3.86c-.18-.53-.43-1.1-.68-1.58l1.88-.53c.38.65.77,1.5.95,2.11h3.45v3.28h-1.32v1.48h-6.84v-1.48ZM344.87,4.76v1.35h5.73v-1.35h-5.73Z"/>
      </g>
    </g>
    <g>
      <g>
        <path class="st0" d="M154.12,51.51c-.43-1-1.29-2.51-2.15-3.94v14.54h-4.12v-12.89c-1.18,2.76-2.51,5.3-3.9,7.09-.39-1.22-1.32-2.97-1.97-4.05,2.01-2.29,4.01-6.12,5.3-9.6h-4.84v-3.98h5.41v-4.05c-1.4.22-2.72.43-4.05.57-.14-.97-.68-2.36-1.15-3.29,4.08-.64,8.56-1.72,11.53-2.94l2.4,3.47c-1.4.54-2.97.97-4.62,1.32v4.91h4.73v3.98h-4.73v.29c1.04,1,3.98,4.37,4.66,5.19l-2.51,3.37ZM171.77,53.05v9.02h-4.19v-8.27l-10.82,1.86-.68-4.05,11.5-1.97v-20.98h4.19v20.27l3.55-.61.68,3.97-4.23.75ZM162.78,48.08c-1.11-1.58-3.62-3.87-5.69-5.48l2.72-2.43c2.04,1.43,4.69,3.65,5.87,5.19l-2.9,2.72ZM163.71,38.62c-1-1.54-3.33-3.83-5.34-5.37l2.79-2.44c1.94,1.47,4.44,3.58,5.52,5.16l-2.97,2.65Z"/>
        <path class="st0" d="M191.9,47.79c-1.25.36-2.54.72-3.83,1.04v8.56c0,2.08-.39,3.08-1.61,3.76-1.18.64-2.9.75-5.44.75-.14-1.07-.68-2.76-1.18-3.87,1.4.03,2.87.03,3.33.03.5,0,.68-.18.68-.72v-7.38l-3.47.86-1.11-4.05c1.32-.29,2.86-.61,4.58-1.04v-6.34h-4.12v-3.94h4.12v-6.77h4.23v6.77h3.51v3.94h-3.51v5.3l3.29-.82.54,3.9ZM211.74,42.95c-1.36,4.94-3.65,8.88-6.7,11.89,2.36,1.65,5.12,2.83,8.31,3.62-.89.86-2.11,2.58-2.72,3.69-3.47-1.04-6.41-2.54-8.92-4.51-2.79,1.93-5.95,3.37-9.46,4.4-.47-1.15-1.47-2.94-2.26-3.87,3.15-.75,6.05-1.9,8.56-3.51-2.08-2.4-3.76-5.23-5.09-8.52l1.07-.32h-1.86v-3.83h7.06v-4.3h-7.7v-3.94h7.7v-5.12h4.23v5.12h8.02v3.94h-8.02v4.3h4.3l.75-.18,2.72,1.15ZM197.63,45.82c1,2.36,2.44,4.51,4.23,6.34,1.86-1.76,3.44-3.9,4.51-6.34h-8.74Z"/>
        <path class="st0" d="M248.1,39.12c-.82,5.51-2.11,10.06-4.15,13.79,1.76,2.36,3.98,4.26,6.7,5.51-.97.86-2.29,2.51-2.9,3.65-2.62-1.36-4.69-3.22-6.41-5.44-1.93,2.22-4.3,4.08-7.31,5.55-.36-.97-1.61-2.87-2.4-3.76,3.12-1.36,5.52-3.22,7.31-5.55-1.22-2.36-2.15-4.98-2.94-7.88-.39.61-.82,1.22-1.25,1.76-.43-.5-1.18-1.25-1.97-1.93v.32h-4.08v7.34c1.68-.36,3.37-.72,5.05-1.07l.36,3.9c-5.87,1.36-12.21,2.72-16.8,3.76l-.75-4.33,1.86-.32v-15.25h3.83v14.57l2.29-.43v-18.44h-7.16v-4.08h16.4v4.08h-5.09v6.27h4.08v.89c2.22-3.47,3.65-8.31,4.44-13.36l4.23.64c-.32,2-.79,3.97-1.33,5.87h10.21v3.94h-2.22ZM238.68,39.59c.61,3.26,1.54,6.3,2.72,9.02,1.18-2.72,1.93-5.84,2.4-9.49h-4.94l-.18.47Z"/>
        <path class="st0" d="M284.67,50.26c0,1.79-.36,2.65-1.65,3.19-1.22.5-2.83.54-4.76.54,2.72,1.4,6.05,2.54,9.6,3.19-.89.93-2.11,2.65-2.69,3.76-4.58-1.15-8.63-3.4-11.6-5.8v7.02h-4.58v-7.13c-3.26,2.83-7.41,4.94-11.89,6.16-.57-1.08-1.76-2.72-2.65-3.58,5.95-1.18,11.5-3.87,14.54-7.34v-2.51h-6.84v6.34h-4.51v-9.96h11.36v-1.72h-13.65v-3.65h9.67c-.75-1.04-2.26-2.44-3.44-3.51l1.36-1.18h-2.11c-1.11,1.83-2.4,3.4-3.69,4.66-.61-.72-2.01-2.22-2.83-2.86,2.08-1.86,4.08-4.69,5.19-7.52l3.76,1.08c-.18.46-.39.93-.61,1.4h7.81v3.26h-5.09c.93.82,1.86,1.72,2.4,2.36l-2.51,2.33h3.72v-1.93h3.15c-.79-.61-1.72-1.36-2.4-1.75,1.97-1.68,3.58-4.19,4.48-6.73l3.87.97c-.18.5-.39,1.04-.61,1.54h9.85v3.22h-6.2c.97.75,1.9,1.61,2.47,2.26l-2.83,2.44c-.75-.97-2.36-2.4-3.65-3.4l1.5-1.29h-2.9c-.64,1.07-1.4,2.04-2.15,2.83v1.86h12.89v3.65h-12.89v1.72h11.1v6.12ZM273.57,50.91c1.18,1.04,2.69,2.04,4.48,2.97-.29-1.04-.9-2.29-1.36-3.19,1.15.11,2.61.07,3.01.07.43,0,.57-.11.57-.5v-2.51h-6.7v3.15Z"/>
        <path class="st0" d="M299.35,34.22c-.5,2.4-1.15,4.83-1.93,7.13h6.7v16.47h-6.84v2.61h-3.55v-11.1c-.47.68-.93,1.33-1.43,1.93-.14-1.15-.89-3.87-1.47-5.08,2.18-2.94,3.65-7.27,4.55-11.96h-3.8v-3.87h13v3.87h-5.23ZM300.5,45.1h-3.22v8.95h3.22v-8.95ZM324.57,47.25h-3.76v14.9h-4.05v-14.9h-4.08c-.21,5.26-1.25,11.24-4.94,15.15-.72-.75-2.26-1.93-3.22-2.47,3.08-3.33,3.98-8.31,4.19-12.68h-3.33v-4.01h3.4v-8.85h-2.47v-3.94h17.55v3.94h-3.04v8.85h3.76v4.01ZM316.76,43.24v-8.85h-4.01v8.85h4.01Z"/>
        <path class="st0" d="M356.01,57.31c.82,0,.97-.64,1.11-5.08.86.75,2.83,1.47,4.01,1.83-.43,5.87-1.54,7.45-4.62,7.45h-3.37c-3.51,0-4.62-1.25-4.62-5.44v-4.62h-4.69c-.9,4.19-4.01,8.52-13.29,10.92-.68-1.11-2.01-2.72-3.01-3.65,7.41-1.86,10.42-4.55,11.5-7.27h-8.77v-3.94h9.38v-3.94h4.51v3.94h8.85v8.52c0,1.15.14,1.29.97,1.29h2.04ZM333.09,39.12h-4.3v-7.31h13.07c-.25-.89-.5-1.79-.75-2.54l4.51-.72c.36,1,.75,2.18,1.07,3.26h13.04v6.98h-4.48v-3.15h-5.05v4.58c0,.93.14,1.33,1.07,1.33h4.33c.97,0,2.44-.07,3.12-.29.11,1.15.22,2.58.36,3.58-.68.21-2.08.29-3.29.29h-4.84c-4.05,0-5.01-1.43-5.01-4.94v-4.55h-3.69c-.68,5.08-2.72,8.13-10.92,9.85-.36-1.07-1.36-2.65-2.22-3.47,6.77-1.11,8.17-3.01,8.7-6.37h-4.73v3.47Z"/>
        <path class="st0" d="M397.89,53.91h-10.1c3.37,1.58,6.95,3.44,9.13,4.8l-2.83,3.26c-2.29-1.58-6.23-3.87-9.78-5.59l1.9-2.47h-10.64l3.01,2.47c-3.08,2.04-7.52,4.26-11.03,5.69-.57-.89-1.61-2.29-2.4-3.19,3.15-1.18,7.27-3.22,9.67-4.98h-9.78v-3.94h3.22l-.61-18.48c2.26-.72,5.01-1.79,6.84-2.65l1.83,3.47c-1.5.54-3.19.97-4.8,1.4l.11,3.22h4.08v3.47h-3.98l.11,3.08h3.98v3.47h-3.87l.11,3.01h18.7c.07-.93.11-1.86.18-2.9h-3.62v-3.51h3.76c.04-1,.07-2.04.11-3.08h-3.62v-3.51h3.72c0-1.04,0-2.04.03-3.08h-4.12v-3.65h8.02c0,6.37-.18,14.36-.46,19.73h3.12v3.94ZM380.8,42.27c-.25,2.36-.82,4.69-1.79,6.2-.57-.46-1.97-1.29-2.72-1.68.89-1.32,1.18-3.15,1.36-5.05l3.15.54ZM382.52,40.88h-5.41v-11.89h3.62v2.43h5.62v3.51h-5.62v2.61h3.98v.04h1.36v9.09c0,1.47-.29,2.08-1.25,2.54-.93.43-2.33.43-4.08.43-.14-.82-.57-1.86-.93-2.61.93.07,1.97.07,2.29.04.32,0,.43-.07.43-.39v-5.8Z"/>
        <path class="st0" d="M423.98,35.04c1.93,1.9,5.73,2.79,10.57,3.05-.86.82-1.86,2.36-2.36,3.4-4.01-.5-7.13-1.65-9.38-3.62-1.36,1.58-4.33,2.97-10.35,3.65-.29-.68-.86-1.58-1.43-2.33h-9.49v-3.26h10.82v2.18c6.84-.72,7.74-2.33,7.74-3.65v-.54h-2.15c-.75,1.18-1.61,2.26-2.51,3.08-.68-.64-2.26-1.68-3.15-2.18,1.9-1.58,3.37-3.94,4.19-6.37l3.72.82c-.18.54-.39,1.08-.61,1.58h10.17l.64-.18,2.9.89c-.93,1.97-2.15,4.23-3.29,5.66l-3.3-1.22c.39-.57.86-1.32,1.25-2.08h-3.98v1.11ZM424.95,56.1c3.29,1.22,6.81,2.65,8.92,3.69l-3.83,2.29c-2.04-1.18-5.77-2.94-9.31-4.23l2.18-1.76h-10.1l3.12,1.43c-2.94,1.86-7.56,3.65-11.17,4.66-.72-.82-2.22-2.4-3.15-3.12,3.44-.64,7.27-1.72,9.78-2.97h-5.16v-14.54h23.96v14.54h-5.23ZM411.52,33.54h-9.17v-3.12h9.17v3.12ZM410.34,45.64h15.51v-1.54h-15.51v1.54ZM410.34,49.58h15.51v-1.54h-15.51v1.54ZM410.34,53.59h15.51v-1.61h-15.51v1.61Z"/>
        <path class="st0" d="M451.76,37.94h-13.15v-3.37h5.7c-.46-1.36-1.36-3.15-2.11-4.51l3.04-1.54c.86,1.47,1.9,3.44,2.4,4.76l-2.18,1.29h6.3v3.37ZM440.08,42.78v-3.22h10.39v3.22h-10.39ZM440.08,44.35h10.46v3.22h-10.46v-3.22ZM450.54,60.14h-7.16v1.5h-3.26v-12.35h10.42v10.85ZM443.37,52.69v4.01h3.8v-4.01h-3.8ZM468.3,30.49c-.32,11.78-.29,26.46,1.04,26.89.18.07.36-2.26.47-4.55.57,1.11,1.61,2.79,2.22,3.44-.54,5.23-2.36,6.34-4.58,5.41-3.4-1.43-3.44-13.82-3.4-27.14h-4.33v9.45h3.44v3.97h-3.44v14.11h-3.98v-14.11h-4.01v-3.97h4.01v-9.45h-3.51v-4.05h16.08Z"/>
        <path class="st0" d="M505.28,34.86v17.87h-4.48v-1.79h-8.09v11.17h-4.51v-11.17h-8.06v1.97h-4.3v-18.05h12.36v-6.2h4.51v6.2h12.57ZM488.2,46.75v-7.7h-8.06v7.7h8.06ZM500.8,46.75v-7.7h-8.09v7.7h8.09Z"/>
        <path class="st0" d="M516.9,41.77c-.5,4.62-1.4,10.82-2.61,14.86l-4.3-1.72c1.25-3.8,2.29-9.17,2.76-13.93l4.15.79ZM523.63,38.87v16.62c0,1.68.29,1.97,2.01,1.97h5.12c1.79,0,2.11-1.15,2.36-6.73,1,.75,2.83,1.5,4.01,1.79-.5,6.8-1.65,8.92-6.02,8.92h-5.98c-4.66,0-5.95-1.43-5.95-5.94v-16.62h4.44ZM523.31,29.24c3.22,2.04,7.77,5.19,9.92,7.41l-3.15,3.33c-1.93-2.18-6.34-5.59-9.67-7.84l2.9-2.9ZM538.93,39.84c2.01,4.26,3.87,9.63,4.62,13.32l-4.33,1.79c-.54-3.65-2.4-9.31-4.26-13.5l3.98-1.61Z"/>
      </g>
      <g>
        <path class="st0" d="M147.49,81.86c-.85,0-1.67-.13-2.45-.38-.78-.26-1.4-.59-1.86-.99l.7-1.66c.44.36.98.66,1.62.9.64.24,1.3.36,1.98.36.57,0,1.03-.07,1.39-.2.35-.13.61-.31.78-.53.17-.22.25-.48.25-.76,0-.35-.12-.63-.36-.85-.24-.21-.55-.38-.93-.51-.38-.13-.8-.24-1.26-.35-.46-.11-.93-.24-1.39-.38-.46-.15-.88-.34-1.26-.58-.38-.23-.69-.55-.93-.94-.24-.39-.36-.9-.36-1.51s.16-1.19.48-1.71c.32-.52.8-.94,1.45-1.25.65-.31,1.47-.47,2.47-.47.66,0,1.3.09,1.95.26.64.17,1.21.43,1.68.75l-.64,1.66c-.49-.31-.99-.53-1.51-.68-.52-.15-1.02-.22-1.5-.22-.56,0-1.02.07-1.36.21-.35.14-.6.33-.76.56-.16.23-.24.49-.24.79,0,.35.12.63.35.85.23.21.54.38.92.5.38.12.8.24,1.27.35.47.12.93.24,1.4.38.46.14.88.33,1.26.56.38.23.69.54.92.94.23.39.35.89.35,1.49s-.16,1.18-.48,1.7c-.32.52-.8.94-1.46,1.25-.66.31-1.48.47-2.48.47Z"/>
        <path class="st0" d="M157.31,81.82c-.87,0-1.65-.2-2.33-.58-.68-.39-1.21-.92-1.6-1.6-.38-.68-.58-1.45-.58-2.31s.19-1.65.58-2.32c.38-.67.92-1.2,1.6-1.58.68-.38,1.46-.57,2.33-.57.81,0,1.53.17,2.14.52.62.35,1.09.85,1.41,1.52l-1.5.92c-.25-.42-.55-.72-.91-.92-.36-.2-.75-.3-1.16-.3-.48,0-.91.11-1.29.33-.38.22-.69.53-.91.94-.22.41-.33.9-.33,1.47s.11,1.06.33,1.47c.22.41.52.73.91.94.38.22.82.33,1.29.33.42,0,.8-.1,1.16-.29.36-.2.66-.5.91-.92l1.5.92c-.32.66-.79,1.16-1.41,1.52-.62.36-1.33.53-2.14.53Z"/>
        <path class="st0" d="M163.16,71.49c-.36,0-.66-.12-.9-.36-.23-.24-.35-.53-.35-.87s.12-.64.35-.88c.23-.23.53-.35.9-.35s.66.11.9.34c.23.22.35.51.35.85,0,.36-.11.66-.34.91-.23.25-.53.37-.9.37ZM162.18,81.7v-8.76h1.95v8.76h-1.95Z"/>
        <path class="st0" d="M170.22,81.82c-.93,0-1.73-.2-2.42-.58-.69-.39-1.23-.92-1.61-1.6-.38-.68-.57-1.45-.57-2.31s.18-1.65.55-2.32c.37-.67.88-1.2,1.53-1.58.65-.38,1.39-.57,2.22-.57s1.53.19,2.17.56c.63.37,1.13.9,1.5,1.58.36.68.55,1.48.55,2.4,0,.09,0,.19,0,.3,0,.11-.01.21-.02.31h-6.94v-1.36h5.91l-.76.43c.01-.5-.09-.95-.3-1.33-.21-.38-.49-.68-.85-.9-.36-.22-.77-.33-1.24-.33s-.9.11-1.26.33c-.36.22-.64.52-.84.91-.2.39-.3.85-.3,1.37v.33c0,.52.11.99.34,1.39.23.41.55.72.97.94.42.22.89.33,1.43.33.47,0,.89-.08,1.26-.23.37-.15.71-.39,1-.72l1.04,1.26c-.37.46-.84.81-1.41,1.06-.57.25-1.21.37-1.94.37Z"/>
        <path class="st0" d="M175.62,81.7v-8.76h1.86v2.36l-.33-.72c.29-.56.71-.99,1.27-1.29.56-.3,1.2-.45,1.93-.45.67,0,1.26.14,1.79.41.52.27.94.69,1.24,1.25.3.56.45,1.29.45,2.18v5.02h-1.95v-4.76c0-.78-.17-1.36-.52-1.74-.35-.38-.83-.57-1.46-.57-.46,0-.86.1-1.22.3-.35.2-.63.49-.82.88-.19.39-.29.88-.29,1.47v4.43h-1.95Z"/>
        <path class="st0" d="M189.74,81.82c-.87,0-1.65-.2-2.33-.58-.68-.39-1.21-.92-1.6-1.6-.38-.68-.58-1.45-.58-2.31s.19-1.65.58-2.32c.38-.67.92-1.2,1.6-1.58.68-.38,1.46-.57,2.33-.57.81,0,1.53.17,2.14.52.62.35,1.09.85,1.41,1.52l-1.5.92c-.25-.42-.55-.72-.91-.92-.36-.2-.75-.3-1.16-.3-.48,0-.91.11-1.29.33-.38.22-.69.53-.91.94-.22.41-.33.9-.33,1.47s.11,1.06.33,1.47c.22.41.52.73.91.94.38.22.82.33,1.29.33.42,0,.8-.1,1.16-.29.36-.2.66-.5.91-.92l1.5.92c-.32.66-.79,1.16-1.41,1.52-.62.36-1.33.53-2.14.53Z"/>
        <path class="st0" d="M198.51,81.82c-.93,0-1.73-.2-2.42-.58-.69-.39-1.23-.92-1.61-1.6-.38-.68-.57-1.45-.57-2.31s.18-1.65.55-2.32c.37-.67.88-1.2,1.53-1.58.65-.38,1.39-.57,2.22-.57s1.53.19,2.17.56c.63.37,1.13.9,1.5,1.58.36.68.55,1.48.55,2.4,0,.09,0,.19,0,.3,0,.11-.01.21-.02.31h-6.94v-1.36h5.91l-.76.43c.01-.5-.09-.95-.3-1.33-.21-.38-.49-.68-.85-.9-.36-.22-.77-.33-1.24-.33s-.9.11-1.26.33c-.36.22-.64.52-.84.91-.2.39-.3.85-.3,1.37v.33c0,.52.11.99.34,1.39.23.41.55.72.97.94.42.22.89.33,1.43.33.47,0,.89-.08,1.26-.23.37-.15.71-.39,1-.72l1.04,1.26c-.37.46-.84.81-1.41,1.06-.57.25-1.21.37-1.94.37Z"/>
        <path class="st0" d="M216.2,81.88l-6.24-6.3c-.35-.36-.64-.69-.86-1-.22-.31-.37-.6-.47-.89-.09-.29-.14-.59-.14-.89,0-.53.13-1.01.39-1.42.26-.41.63-.73,1.11-.95.48-.22,1.03-.34,1.67-.34.59,0,1.1.1,1.54.3.43.2.77.49,1.01.87.24.38.37.83.37,1.35,0,.46-.11.88-.33,1.27-.22.39-.56.76-1.02,1.11-.46.35-1.08.72-1.85,1.1-.57.3-1.02.58-1.36.84-.33.26-.57.52-.72.79-.15.26-.22.55-.22.87s.09.6.27.84c.18.24.44.43.77.57.33.14.72.2,1.17.2.67,0,1.27-.16,1.82-.47.55-.31,1.01-.78,1.38-1.4.37-.62.64-1.39.81-2.31l1.57.54c-.22,1.1-.6,2.05-1.13,2.85-.54.79-1.19,1.4-1.97,1.83-.78.43-1.65.64-2.62.64-.76,0-1.44-.13-2.04-.39-.6-.26-1.08-.62-1.42-1.08-.34-.46-.52-.99-.52-1.59,0-.55.11-1.04.34-1.48.23-.44.59-.86,1.09-1.25.5-.4,1.14-.8,1.92-1.21.61-.32,1.09-.6,1.44-.84.35-.24.59-.47.73-.69.14-.22.21-.45.21-.69,0-.33-.11-.59-.33-.8-.22-.2-.53-.3-.94-.3-.44,0-.78.11-1.02.34-.24.22-.37.52-.37.88,0,.19.03.37.1.54.07.17.19.37.37.59.18.22.43.5.76.84l5.77,5.83-1.08,1.33Z"/>
        <path class="st0" d="M224.76,81.7v-9.68h-3.62v-1.81h9.26v1.81h-3.62v9.68h-2.03Z"/>
        <path class="st0" d="M234.11,81.82c-.93,0-1.73-.2-2.42-.58-.69-.39-1.23-.92-1.61-1.6-.38-.68-.57-1.45-.57-2.31s.18-1.65.55-2.32c.37-.67.88-1.2,1.53-1.58.65-.38,1.39-.57,2.22-.57s1.53.19,2.17.56c.63.37,1.13.9,1.5,1.58.36.68.55,1.48.55,2.4,0,.09,0,.19,0,.3,0,.11-.01.21-.02.31h-6.94v-1.36h5.91l-.76.43c.01-.5-.09-.95-.3-1.33-.21-.38-.49-.68-.85-.9-.36-.22-.77-.33-1.24-.33s-.9.11-1.26.33c-.36.22-.64.52-.84.91-.2.39-.3.85-.3,1.37v.33c0,.52.11.99.34,1.39.23.41.55.72.97.94.42.22.89.33,1.43.33.47,0,.89-.08,1.26-.23.37-.15.71-.39,1-.72l1.04,1.26c-.37.46-.84.81-1.41,1.06-.57.25-1.21.37-1.94.37Z"/>
        <path class="st0" d="M243.42,81.82c-.87,0-1.65-.2-2.33-.58-.68-.39-1.21-.92-1.6-1.6-.38-.68-.58-1.45-.58-2.31s.19-1.65.58-2.32c.38-.67.92-1.2,1.6-1.58.68-.38,1.46-.57,2.33-.57.81,0,1.53.17,2.14.52.62.35,1.09.85,1.41,1.52l-1.5.92c-.25-.42-.55-.72-.91-.92-.36-.2-.75-.3-1.16-.3-.48,0-.91.11-1.29.33-.38.22-.69.53-.9.94-.22.41-.33.9-.33,1.47s.11,1.06.33,1.47c.22.41.52.73.9.94.38.22.82.33,1.29.33.42,0,.8-.1,1.16-.29.36-.2.66-.5.91-.92l1.5.92c-.32.66-.79,1.16-1.41,1.52-.62.36-1.33.53-2.14.53Z"/>
        <path class="st0" d="M248.3,81.7v-12.18h1.95v5.78l-.42-.72c.29-.56.71-.99,1.27-1.29.56-.3,1.2-.45,1.93-.45.67,0,1.26.14,1.79.41.52.27.94.69,1.24,1.25.3.56.45,1.29.45,2.18v5.02h-1.95v-4.76c0-.78-.17-1.36-.52-1.74s-.83-.57-1.46-.57c-.46,0-.86.1-1.22.3-.35.2-.63.49-.82.88-.19.39-.29.88-.29,1.47v4.43h-1.95Z"/>
        <path class="st0" d="M258.54,81.7v-8.76h1.86v2.36l-.33-.72c.29-.56.71-.99,1.27-1.29.56-.3,1.2-.45,1.93-.45.67,0,1.26.14,1.79.41.52.27.94.69,1.24,1.25.3.56.45,1.29.45,2.18v5.02h-1.95v-4.76c0-.78-.17-1.36-.52-1.74-.35-.38-.83-.57-1.46-.57-.46,0-.86.1-1.22.3-.35.2-.63.49-.82.88-.19.39-.29.88-.29,1.47v4.43h-1.95Z"/>
        <path class="st0" d="M272.59,81.82c-.85,0-1.61-.2-2.28-.58-.67-.39-1.19-.92-1.58-1.6-.38-.68-.58-1.45-.58-2.31s.19-1.65.58-2.32c.38-.67.91-1.2,1.58-1.58.67-.38,1.42-.57,2.28-.57s1.63.19,2.3.57c.67.38,1.2.91,1.58,1.58.38.67.57,1.44.57,2.33s-.19,1.64-.57,2.31c-.38.68-.9,1.21-1.58,1.6-.67.39-1.44.58-2.3.58ZM272.59,80.06c.48,0,.9-.11,1.28-.33.37-.22.67-.54.88-.95.21-.42.32-.9.32-1.46s-.11-1.06-.32-1.47c-.21-.41-.51-.72-.88-.94-.37-.22-.79-.33-1.26-.33s-.9.11-1.27.33c-.37.22-.66.53-.88.94-.22.41-.33.9-.33,1.47s.11,1.04.33,1.46c.22.42.51.73.88.95.37.22.79.33,1.26.33Z"/>
        <path class="st0" d="M278.53,81.7v-12.18h1.95v12.18h-1.95Z"/>
        <path class="st0" d="M286.44,81.82c-.85,0-1.61-.2-2.28-.58-.67-.39-1.19-.92-1.58-1.6-.38-.68-.58-1.45-.58-2.31s.19-1.65.58-2.32c.38-.67.91-1.2,1.58-1.58.67-.38,1.42-.57,2.28-.57s1.63.19,2.3.57c.67.38,1.2.91,1.58,1.58.38.67.57,1.44.57,2.33s-.19,1.64-.57,2.31c-.38.68-.91,1.21-1.58,1.6-.67.39-1.44.58-2.3.58ZM286.44,80.06c.48,0,.91-.11,1.28-.33.37-.22.67-.54.88-.95.21-.42.32-.9.32-1.46s-.11-1.06-.32-1.47c-.21-.41-.51-.72-.88-.94-.37-.22-.8-.33-1.26-.33s-.9.11-1.27.33c-.37.22-.66.53-.88.94-.22.41-.33.9-.33,1.47s.11,1.04.33,1.46c.22.42.51.73.88.95.37.22.79.33,1.26.33Z"/>
        <path class="st0" d="M295.99,81.31c-.79,0-1.51-.18-2.14-.53-.64-.36-1.14-.85-1.51-1.48-.37-.63-.55-1.38-.55-2.23s.18-1.58.55-2.22c.37-.63.87-1.13,1.51-1.48.64-.35,1.35-.53,2.14-.53.71,0,1.34.15,1.9.44.56.3,1.01.75,1.35,1.38.34.63.51,1.42.51,2.4s-.17,1.77-.51,2.4c-.34.63-.79,1.09-1.35,1.4-.56.3-1.2.45-1.9.45ZM296.24,85c-.77,0-1.52-.11-2.25-.32-.73-.21-1.33-.52-1.8-.93l.87-1.54c.36.32.82.57,1.38.76.56.19,1.12.29,1.69.29.92,0,1.59-.22,2.01-.66.43-.44.64-1.11.64-1.99v-1.56l.16-1.99-.06-1.99v-2.13h1.86v7.43c0,1.59-.38,2.76-1.15,3.5-.77.75-1.88,1.12-3.34,1.12ZM296.28,79.57c.49,0,.93-.11,1.31-.32.38-.21.68-.51.9-.89.21-.38.32-.81.32-1.31s-.11-.93-.32-1.3c-.21-.38-.51-.67-.9-.87-.38-.2-.82-.3-1.31-.3s-.93.1-1.32.3c-.39.2-.69.49-.9.87-.21.38-.32.81-.32,1.3s.11.93.32,1.31c.21.38.51.67.9.89.39.21.83.32,1.32.32Z"/>
        <path class="st0" d="M303.68,85c-.41,0-.81-.07-1.22-.21-.41-.14-.74-.34-1.01-.59l.78-1.51c.2.19.42.33.67.44.25.11.5.16.76.16.35,0,.64-.09.86-.28.22-.19.42-.5.61-.94l.48-1.15.16-.25,3.15-7.75h1.87l-3.9,9.47c-.26.66-.55,1.18-.86,1.56-.32.38-.67.65-1.06.8-.39.15-.82.23-1.29.23ZM305.39,82.01l-3.76-9.08h2.03l3.06,7.56-1.33,1.51Z"/>
        <path class="st0" d="M315.72,81.7v-11.49h4.49c.97,0,1.8.16,2.49.49.69.33,1.22.8,1.6,1.41.37.61.56,1.34.56,2.18s-.19,1.57-.56,2.18c-.37.61-.91,1.08-1.6,1.41-.69.33-1.52.49-2.49.49h-3.37l.9-1v4.32h-2.03ZM317.74,77.61l-.9-1.03h3.27c.89,0,1.57-.2,2.02-.6.45-.4.68-.96.68-1.68s-.23-1.3-.68-1.69c-.45-.39-1.13-.59-2.02-.59h-3.27l.9-1.05v6.65Z"/>
        <path class="st0" d="M330.11,81.82c-.85,0-1.61-.2-2.28-.58-.67-.39-1.19-.92-1.58-1.6-.38-.68-.58-1.45-.58-2.31s.19-1.65.58-2.32c.38-.67.91-1.2,1.58-1.58.67-.38,1.42-.57,2.28-.57s1.63.19,2.3.57c.67.38,1.2.91,1.58,1.58.38.67.57,1.44.57,2.33s-.19,1.64-.57,2.31c-.38.68-.9,1.21-1.58,1.6-.67.39-1.44.58-2.3.58ZM330.11,80.06c.48,0,.91-.11,1.28-.33.37-.22.67-.54.88-.95.21-.42.32-.9.32-1.46s-.11-1.06-.32-1.47c-.21-.41-.51-.72-.88-.94-.37-.22-.79-.33-1.26-.33s-.9.11-1.27.33c-.37.22-.66.53-.88.94-.22.41-.33.9-.33,1.47s.11,1.04.33,1.46c.22.42.51.73.88.95.37.22.79.33,1.26.33Z"/>
        <path class="st0" d="M336.06,81.7v-12.18h1.95v12.18h-1.95Z"/>
        <path class="st0" d="M341.11,71.49c-.36,0-.66-.12-.9-.36-.23-.24-.35-.53-.35-.87s.12-.64.35-.88c.23-.23.53-.35.9-.35s.66.11.9.34c.23.22.35.51.35.85,0,.36-.11.66-.34.91-.23.25-.53.37-.91.37ZM340.13,81.7v-8.76h1.95v8.76h-1.95Z"/>
        <path class="st0" d="M348.08,81.82c-.87,0-1.65-.2-2.33-.58-.68-.39-1.21-.92-1.6-1.6-.38-.68-.58-1.45-.58-2.31s.19-1.65.58-2.32c.38-.67.92-1.2,1.6-1.58.68-.38,1.46-.57,2.33-.57.81,0,1.53.17,2.14.52.62.35,1.09.85,1.41,1.52l-1.5.92c-.25-.42-.55-.72-.91-.92-.36-.2-.75-.3-1.16-.3-.48,0-.91.11-1.29.33-.38.22-.69.53-.91.94-.22.41-.33.9-.33,1.47s.11,1.06.33,1.47c.22.41.52.73.91.94.38.22.82.33,1.29.33.42,0,.8-.1,1.16-.29.36-.2.66-.5.91-.92l1.5.92c-.32.66-.79,1.16-1.41,1.52-.62.36-1.33.53-2.14.53Z"/>
        <path class="st0" d="M353.8,85c-.41,0-.81-.07-1.22-.21-.41-.14-.74-.34-1.01-.59l.78-1.51c.2.19.42.33.67.44.25.11.5.16.76.16.35,0,.64-.09.86-.28.22-.19.42-.5.61-.94l.48-1.15.16-.25,3.15-7.75h1.87l-3.9,9.47c-.26.66-.55,1.18-.86,1.56-.32.38-.67.65-1.06.8-.39.15-.82.23-1.29.23ZM355.52,82.01l-3.76-9.08h2.03l3.06,7.56-1.33,1.51Z"/>
        <path class="st0" d="M365.84,81.7v-11.49h4.48c1.46,0,2.6.36,3.42,1.08.83.72,1.24,1.72,1.24,3,0,.84-.19,1.57-.56,2.17-.37.61-.91,1.07-1.6,1.4-.69.32-1.52.48-2.49.48h-3.37l.9-.97v4.32h-2.03ZM367.87,77.61l-.9-1.02h3.27c.89,0,1.57-.2,2.02-.61.45-.41.68-.97.68-1.69s-.23-1.3-.68-1.69c-.45-.39-1.13-.59-2.02-.59h-3.27l.9-1.05v6.65ZM372.98,81.7l-2.76-4.17h2.17l2.78,4.17h-2.18Z"/>
        <path class="st0" d="M380.61,81.82c-.93,0-1.73-.2-2.42-.58-.69-.39-1.23-.92-1.61-1.6-.38-.68-.57-1.45-.57-2.31s.18-1.65.55-2.32c.37-.67.88-1.2,1.53-1.58.65-.38,1.39-.57,2.22-.57s1.53.19,2.17.56c.63.37,1.13.9,1.5,1.58.36.68.55,1.48.55,2.4,0,.09,0,.19,0,.3,0,.11-.01.21-.02.31h-6.94v-1.36h5.91l-.76.43c.01-.5-.09-.95-.3-1.33-.21-.38-.49-.68-.85-.9-.36-.22-.77-.33-1.24-.33s-.9.11-1.26.33c-.36.22-.64.52-.84.91-.2.39-.3.85-.3,1.37v.33c0,.52.11.99.34,1.39.23.41.55.72.97.94.42.22.89.33,1.43.33.47,0,.89-.08,1.26-.23.37-.15.71-.39,1-.72l1.04,1.26c-.37.46-.84.81-1.41,1.06-.57.25-1.21.37-1.94.37Z"/>
        <path class="st0" d="M388.72,81.82c-.7,0-1.36-.1-2-.29-.64-.19-1.15-.42-1.52-.7l.75-1.56c.37.25.82.46,1.34.62.52.16,1.04.25,1.56.25.61,0,1.06-.09,1.33-.26.28-.17.41-.41.41-.71,0-.24-.09-.42-.28-.55-.19-.13-.43-.22-.73-.29-.3-.07-.64-.13-1.01-.18-.37-.06-.74-.13-1.11-.22-.37-.09-.7-.23-1.01-.41-.3-.18-.55-.42-.73-.73s-.28-.71-.28-1.22c0-.56.15-1.04.45-1.45.3-.41.72-.73,1.27-.95.55-.22,1.19-.34,1.94-.34.56,0,1.13.07,1.7.2.57.13,1.04.32,1.42.56l-.75,1.56c-.39-.25-.79-.42-1.19-.52-.4-.09-.8-.14-1.19-.14-.59,0-1.03.09-1.32.28-.29.19-.43.42-.43.71,0,.26.09.46.28.59s.43.24.73.31c.3.08.64.14,1.01.19.37.05.74.12,1.1.22.36.1.7.23,1.01.4.31.17.55.41.74.71s.28.71.28,1.2c0,.55-.15,1.02-.46,1.43-.31.41-.74.72-1.3.94-.56.22-1.23.34-2.01.34Z"/>
        <path class="st0" d="M397.84,81.82c-.93,0-1.73-.2-2.42-.58-.69-.39-1.23-.92-1.61-1.6-.38-.68-.57-1.45-.57-2.31s.18-1.65.55-2.32c.37-.67.88-1.2,1.53-1.58.65-.38,1.39-.57,2.22-.57s1.53.19,2.17.56c.63.37,1.13.9,1.5,1.58.36.68.55,1.48.55,2.4,0,.09,0,.19,0,.3,0,.11-.01.21-.02.31h-6.94v-1.36h5.91l-.76.43c.01-.5-.09-.95-.3-1.33-.21-.38-.49-.68-.85-.9-.36-.22-.77-.33-1.24-.33s-.9.11-1.26.33c-.36.22-.64.52-.84.91-.2.39-.3.85-.3,1.37v.33c0,.52.11.99.34,1.39.23.41.55.72.97.94.42.22.89.33,1.43.33.47,0,.89-.08,1.26-.23.37-.15.71-.39,1-.72l1.04,1.26c-.37.46-.84.81-1.41,1.06-.57.25-1.21.37-1.94.37Z"/>
        <path class="st0" d="M405.72,81.82c-.62,0-1.17-.11-1.64-.34-.47-.22-.83-.54-1.08-.94-.26-.4-.38-.85-.38-1.35s.11-.94.34-1.33c.22-.39.59-.71,1.1-.94.51-.23,1.18-.35,2.03-.35h2.42v1.36h-2.28c-.67,0-1.11.11-1.34.34-.23.22-.34.5-.34.83,0,.37.14.67.42.89.28.22.67.33,1.17.33s.91-.12,1.29-.35c.38-.23.65-.57.82-1.02l.33,1.23c-.19.52-.52.92-1.01,1.2-.48.28-1.09.43-1.83.43ZM408.34,81.7v-1.77l-.11-.38v-3.1c0-.6-.17-1.07-.51-1.4-.34-.33-.86-.5-1.56-.5-.47,0-.93.08-1.38.23-.45.15-.83.37-1.15.64l-.76-1.49c.45-.36.98-.63,1.6-.81.62-.18,1.26-.27,1.93-.27,1.21,0,2.14.3,2.8.91.66.61.99,1.55.99,2.81v5.14h-1.84Z"/>
        <path class="st0" d="M412.23,81.7v-8.76h1.86v2.41l-.22-.71c.25-.59.64-1.04,1.18-1.34.54-.31,1.2-.46,2-.46v1.95c-.08-.02-.16-.04-.23-.04-.07,0-.15,0-.22,0-.74,0-1.33.23-1.76.68-.44.45-.66,1.13-.66,2.03v4.25h-1.95Z"/>
        <path class="st0" d="M422.09,81.82c-.87,0-1.65-.2-2.33-.58-.68-.39-1.21-.92-1.6-1.6-.38-.68-.58-1.45-.58-2.31s.19-1.65.58-2.32c.38-.67.92-1.2,1.6-1.58.68-.38,1.46-.57,2.33-.57.81,0,1.53.17,2.14.52.62.35,1.09.85,1.41,1.52l-1.5.92c-.25-.42-.55-.72-.91-.92-.36-.2-.75-.3-1.16-.3-.48,0-.91.11-1.29.33-.38.22-.69.53-.91.94-.22.41-.33.9-.33,1.47s.11,1.06.33,1.47c.22.41.52.73.91.94.38.22.82.33,1.29.33.42,0,.8-.1,1.16-.29.36-.2.66-.5.91-.92l1.5.92c-.32.66-.79,1.16-1.41,1.52-.62.36-1.33.53-2.14.53Z"/>
        <path class="st0" d="M426.97,81.7v-12.18h1.95v5.78l-.42-.72c.29-.56.71-.99,1.27-1.29.56-.3,1.2-.45,1.93-.45.67,0,1.26.14,1.79.41.52.27.94.69,1.24,1.25.3.56.45,1.29.45,2.18v5.02h-1.95v-4.76c0-.78-.17-1.36-.52-1.74s-.83-.57-1.46-.57c-.46,0-.86.1-1.22.3-.35.2-.63.49-.82.88-.19.39-.29.88-.29,1.47v4.43h-1.95Z"/>
        <path class="st0" d="M443.68,81.82c-.62,0-1.17-.11-1.64-.34-.47-.22-.83-.54-1.08-.94-.26-.4-.38-.85-.38-1.35s.11-.94.34-1.33c.22-.39.59-.71,1.1-.94.51-.23,1.18-.35,2.03-.35h2.42v1.36h-2.28c-.67,0-1.11.11-1.34.34-.23.22-.34.5-.34.83,0,.37.14.67.42.89.28.22.67.33,1.17.33s.91-.12,1.29-.35c.38-.23.65-.57.82-1.02l.33,1.23c-.19.52-.52.92-1.01,1.2-.48.28-1.09.43-1.83.43ZM446.3,81.7v-1.77l-.11-.38v-3.1c0-.6-.17-1.07-.51-1.4-.34-.33-.86-.5-1.56-.5-.47,0-.93.08-1.38.23-.45.15-.83.37-1.15.64l-.76-1.49c.45-.36.98-.63,1.6-.81.62-.18,1.26-.27,1.93-.27,1.21,0,2.14.3,2.8.91.66.61.99,1.55.99,2.81v5.14h-1.84Z"/>
        <path class="st0" d="M450.19,81.7v-8.76h1.86v2.36l-.33-.72c.29-.56.71-.99,1.27-1.29.56-.3,1.2-.45,1.93-.45.67,0,1.26.14,1.79.41.52.27.94.69,1.24,1.25.3.56.45,1.29.45,2.18v5.02h-1.95v-4.76c0-.78-.17-1.36-.52-1.74-.35-.38-.83-.57-1.46-.57-.46,0-.86.1-1.22.3-.35.2-.63.49-.82.88-.19.39-.29.88-.29,1.47v4.43h-1.95Z"/>
        <path class="st0" d="M464.05,81.82c-.8,0-1.52-.19-2.16-.57-.64-.38-1.14-.9-1.51-1.57-.36-.67-.55-1.45-.55-2.36s.18-1.7.55-2.36c.36-.67.87-1.19,1.51-1.56.64-.37,1.36-.56,2.16-.56.7,0,1.32.16,1.87.48.55.32.99.81,1.31,1.47.32.66.48,1.5.48,2.53s-.16,1.86-.47,2.52c-.31.66-.74,1.16-1.29,1.49-.55.33-1.19.49-1.9.49ZM464.28,80.06c.47,0,.89-.11,1.26-.33.37-.22.66-.54.89-.95.22-.42.34-.9.34-1.46s-.11-1.06-.34-1.47c-.22-.41-.52-.72-.89-.94-.37-.22-.79-.33-1.26-.33s-.89.11-1.26.33c-.37.22-.67.53-.89.94-.22.41-.34.9-.34,1.47s.11,1.04.34,1.46c.22.42.52.73.89.95.37.22.79.33,1.26.33ZM466.81,81.7v-2.07l.08-2.33-.16-2.33v-5.45h1.93v12.18h-1.86Z"/>
        <path class="st0" d="M474.95,81.7v-11.49h2.03v11.49h-2.03Z"/>
        <path class="st0" d="M479.29,81.7v-8.76h1.86v2.36l-.33-.72c.29-.56.71-.99,1.27-1.29.56-.3,1.2-.45,1.93-.45.67,0,1.26.14,1.79.41.52.27.94.69,1.24,1.25.3.56.45,1.29.45,2.18v5.02h-1.95v-4.76c0-.78-.17-1.36-.52-1.74s-.83-.57-1.46-.57c-.46,0-.86.1-1.22.3-.35.2-.63.49-.82.88-.19.39-.29.88-.29,1.47v4.43h-1.95Z"/>
        <path class="st0" d="M488.4,74.64v-1.64h5.55v1.64h-5.55ZM489.77,81.7v-9.26c0-.92.26-1.66.77-2.21.51-.55,1.25-.83,2.21-.83.34,0,.67.04.98.12.31.08.56.2.77.36l-.53,1.54c-.15-.12-.31-.21-.5-.27-.19-.06-.38-.09-.58-.09-.41,0-.71.12-.92.35-.21.23-.31.59-.31,1.06v.98l.06.92v7.32h-1.95Z"/>
        <path class="st0" d="M498.64,81.82c-.85,0-1.61-.2-2.28-.58-.67-.39-1.19-.92-1.58-1.6-.38-.68-.58-1.45-.58-2.31s.19-1.65.58-2.32c.38-.67.91-1.2,1.58-1.58.67-.38,1.42-.57,2.28-.57s1.63.19,2.3.57c.67.38,1.2.91,1.58,1.58.38.67.57,1.44.57,2.33s-.19,1.64-.57,2.31c-.38.68-.9,1.21-1.58,1.6-.67.39-1.44.58-2.3.58ZM498.64,80.06c.48,0,.9-.11,1.28-.33.37-.22.67-.54.88-.95.21-.42.32-.9.32-1.46s-.11-1.06-.32-1.47c-.21-.41-.51-.72-.88-.94-.37-.22-.79-.33-1.26-.33s-.9.11-1.27.33c-.37.22-.66.53-.88.94-.22.41-.33.9-.33,1.47s.11,1.04.33,1.46c.22.42.51.73.88.95.37.22.79.33,1.26.33Z"/>
        <path class="st0" d="M504.59,81.7v-8.76h1.86v2.41l-.22-.71c.25-.59.64-1.04,1.18-1.34.54-.31,1.2-.46,2-.46v1.95c-.08-.02-.16-.04-.23-.04-.07,0-.15,0-.22,0-.74,0-1.33.23-1.76.68-.44.45-.65,1.13-.65,2.03v4.25h-1.95Z"/>
        <path class="st0" d="M510.58,81.7v-8.76h1.86v2.33l-.33-.69c.28-.57.69-1,1.22-1.3.54-.29,1.15-.44,1.83-.44.78,0,1.46.2,2.04.61.58.41.96,1.02,1.15,1.84l-.76-.28c.27-.66.72-1.18,1.34-1.58.62-.39,1.35-.59,2.17-.59.67,0,1.25.14,1.77.41.51.27.92.69,1.21,1.25.29.56.44,1.29.44,2.18v5.02h-1.95v-4.76c0-.78-.16-1.36-.48-1.74-.32-.38-.79-.57-1.39-.57-.43,0-.8.1-1.13.3-.33.2-.58.49-.76.87-.18.38-.27.87-.27,1.46v4.45h-1.95v-4.76c0-.78-.16-1.36-.48-1.74-.32-.38-.79-.57-1.39-.57-.43,0-.8.1-1.13.3-.33.2-.58.49-.76.87-.18.38-.27.87-.27,1.46v4.45h-1.95Z"/>
        <path class="st0" d="M529.07,81.82c-.62,0-1.17-.11-1.64-.34-.47-.22-.83-.54-1.08-.94-.25-.4-.38-.85-.38-1.35s.11-.94.34-1.33c.22-.39.59-.71,1.1-.94.51-.23,1.18-.35,2.03-.35h2.42v1.36h-2.28c-.67,0-1.11.11-1.34.34-.23.22-.34.5-.34.83,0,.37.14.67.42.89.28.22.67.33,1.17.33s.91-.12,1.29-.35c.38-.23.65-.57.82-1.02l.33,1.23c-.19.52-.52.92-1.01,1.2-.48.28-1.09.43-1.83.43ZM531.69,81.7v-1.77l-.11-.38v-3.1c0-.6-.17-1.07-.51-1.4-.34-.33-.86-.5-1.56-.5-.47,0-.93.08-1.38.23-.45.15-.83.37-1.15.64l-.76-1.49c.45-.36.98-.63,1.6-.81.62-.18,1.26-.27,1.93-.27,1.21,0,2.14.3,2.8.91.66.61.99,1.55.99,2.81v5.14h-1.84Z"/>
        <path class="st0" d="M534.4,74.58v-1.64h5.55v1.64h-5.55ZM538.64,81.82c-.92,0-1.62-.25-2.12-.75-.5-.5-.75-1.23-.75-2.21v-7.86h1.95v7.81c0,.42.1.74.3.97.2.23.49.34.85.34.44,0,.8-.12,1.09-.36l.55,1.46c-.23.2-.51.35-.84.44-.33.1-.68.15-1.03.15Z"/>
        <path class="st0" d="M542.6,71.49c-.36,0-.66-.12-.9-.36-.23-.24-.35-.53-.35-.87s.12-.64.35-.88c.23-.23.53-.35.9-.35s.66.11.9.34c.23.22.35.51.35.85,0,.36-.11.66-.34.91-.23.25-.53.37-.9.37ZM541.62,81.7v-8.76h1.95v8.76h-1.95Z"/>
        <path class="st0" d="M549.49,81.82c-.85,0-1.61-.2-2.28-.58-.67-.39-1.19-.92-1.58-1.6-.38-.68-.58-1.45-.58-2.31s.19-1.65.58-2.32c.38-.67.91-1.2,1.58-1.58.67-.38,1.42-.57,2.28-.57s1.63.19,2.3.57c.67.38,1.2.91,1.58,1.58.38.67.57,1.44.57,2.33s-.19,1.64-.57,2.31c-.38.68-.9,1.21-1.58,1.6-.67.39-1.44.58-2.3.58ZM549.49,80.06c.48,0,.9-.11,1.28-.33.37-.22.67-.54.88-.95.21-.42.32-.9.32-1.46s-.11-1.06-.32-1.47c-.21-.41-.51-.72-.88-.94-.37-.22-.79-.33-1.26-.33s-.9.11-1.27.33c-.37.22-.66.53-.88.94-.22.41-.33.9-.33,1.47s.11,1.04.33,1.46c.22.42.51.73.88.95.37.22.79.33,1.26.33Z"/>
        <path class="st0" d="M555.45,81.7v-8.76h1.86v2.36l-.33-.72c.29-.56.71-.99,1.27-1.29.56-.3,1.2-.45,1.93-.45.67,0,1.26.14,1.79.41.52.27.94.69,1.24,1.25.3.56.45,1.29.45,2.18v5.02h-1.95v-4.76c0-.78-.17-1.36-.52-1.74-.35-.38-.83-.57-1.46-.57-.46,0-.86.1-1.22.3-.35.2-.63.49-.82.88-.19.39-.29.88-.29,1.47v4.43h-1.95Z"/>
        <path class="st0" d="M574.89,81.86c-.83,0-1.6-.14-2.32-.43-.71-.29-1.33-.7-1.86-1.23-.53-.53-.93-1.16-1.22-1.88-.29-.72-.44-1.51-.44-2.36s.14-1.64.44-2.36c.29-.72.7-1.35,1.23-1.88.53-.53,1.15-.94,1.86-1.23.71-.29,1.48-.44,2.32-.44.89,0,1.71.16,2.45.49.74.32,1.36.8,1.87,1.44l-1.31,1.3c-.4-.45-.84-.79-1.33-1.01-.49-.22-1.02-.34-1.59-.34s-1.09.1-1.57.3c-.47.2-.88.48-1.23.84-.35.36-.62.79-.81,1.28-.19.49-.29,1.03-.29,1.62s.1,1.13.29,1.62c.19.49.46.92.81,1.28.35.36.76.64,1.23.84.47.2,1,.29,1.57.29s1.1-.11,1.59-.34c.49-.22.93-.57,1.33-1.03l1.31,1.31c-.51.62-1.13,1.1-1.87,1.43-.74.33-1.56.49-2.46.49Z"/>
        <path class="st0" d="M584.35,81.82c-.93,0-1.73-.2-2.42-.58-.69-.39-1.23-.92-1.61-1.6-.38-.68-.57-1.45-.57-2.31s.18-1.65.55-2.32c.37-.67.88-1.2,1.53-1.58.65-.38,1.39-.57,2.22-.57s1.53.19,2.17.56c.63.37,1.13.9,1.5,1.58.36.68.55,1.48.55,2.4,0,.09,0,.19,0,.3,0,.11-.01.21-.02.31h-6.94v-1.36h5.91l-.76.43c.01-.5-.09-.95-.3-1.33-.21-.38-.49-.68-.85-.9-.36-.22-.77-.33-1.24-.33s-.9.11-1.26.33c-.36.22-.64.52-.84.91-.2.39-.3.85-.3,1.37v.33c0,.52.11.99.34,1.39.23.41.55.72.97.94.42.22.89.33,1.43.33.47,0,.89-.08,1.26-.23.37-.15.71-.39,1-.72l1.04,1.26c-.37.46-.84.81-1.41,1.06-.57.25-1.21.37-1.94.37Z"/>
        <path class="st0" d="M589.75,81.7v-8.76h1.86v2.36l-.33-.72c.29-.56.71-.99,1.27-1.29.56-.3,1.2-.45,1.93-.45.67,0,1.26.14,1.79.41.52.27.94.69,1.24,1.25.3.56.45,1.29.45,2.18v5.02h-1.95v-4.76c0-.78-.17-1.36-.52-1.74s-.83-.57-1.46-.57c-.46,0-.86.1-1.22.3-.35.2-.63.49-.82.88-.19.39-.29.88-.29,1.47v4.43h-1.95Z"/>
        <path class="st0" d="M598.79,74.58v-1.64h5.55v1.64h-5.55ZM603.03,81.82c-.92,0-1.62-.25-2.12-.75-.5-.5-.75-1.23-.75-2.21v-7.86h1.95v7.81c0,.42.1.74.3.97.2.23.49.34.85.34.44,0,.8-.12,1.09-.36l.55,1.46c-.23.2-.51.35-.84.44-.33.1-.68.15-1.03.15Z"/>
        <path class="st0" d="M609.79,81.82c-.93,0-1.73-.2-2.42-.58-.69-.39-1.23-.92-1.61-1.6-.38-.68-.57-1.45-.57-2.31s.18-1.65.55-2.32c.37-.67.88-1.2,1.53-1.58.65-.38,1.39-.57,2.22-.57s1.53.19,2.17.56c.63.37,1.13.9,1.5,1.58.36.68.55,1.48.55,2.4,0,.09,0,.19,0,.3,0,.11-.01.21-.02.31h-6.94v-1.36h5.91l-.76.43c.01-.5-.09-.95-.3-1.33-.21-.38-.49-.68-.85-.9-.36-.22-.77-.33-1.24-.33s-.9.11-1.26.33c-.36.22-.64.52-.84.91-.2.39-.3.85-.3,1.37v.33c0,.52.11.99.34,1.39.23.41.55.72.97.94.42.22.89.33,1.43.33.47,0,.89-.08,1.26-.23.37-.15.71-.39,1-.72l1.04,1.26c-.37.46-.84.81-1.41,1.06-.57.25-1.21.37-1.94.37Z"/>
        <path class="st0" d="M615.18,81.7v-8.76h1.86v2.41l-.22-.71c.25-.59.64-1.04,1.18-1.34.54-.31,1.2-.46,2-.46v1.95c-.08-.02-.16-.04-.23-.04-.07,0-.15,0-.22,0-.74,0-1.33.23-1.76.68-.44.45-.66,1.13-.66,2.03v4.25h-1.95Z"/>
      </g>
    </g>
  </g>
</svg>