<?xml version="1.0" encoding="UTF-8"?>
<svg id="_圖層_1" data-name="圖層_1" xmlns="http://www.w3.org/2000/svg" version="1.1" viewBox="0 0 887.2 235.94">
  <!-- Generator: Adobe Illustrator 29.8.1, SVG Export Plug-In . SVG Version: 2.1.1 Build 2)  -->
  <defs>
    <style>
      .st0 {
        fill: #ff3a6e;
      }

      .st1 {
        fill: #fff;
      }
    </style>
  </defs>
  <g>
    <path class="st1" d="M104.71,37.13v51.73c0,5.21-1.04,8.24-4.48,10.01-3.55,1.77-8.24,1.98-14.71,1.98-.63-3.13-2.4-7.82-3.96-10.64,3.75.21,8.03.21,9.39.1,1.36,0,1.77-.42,1.77-1.67v-9.28h-18.46c-1.25,7.93-3.55,15.85-7.82,21.8-1.88-1.98-6.78-5.74-9.39-7.09,6.57-9.39,7.2-22.63,7.2-32.85v-24.09h40.47ZM139.13,6.88c-2.5,4.07-5.32,8.13-7.82,11.79h21.17v11.37H57.57v-11.37h22.32c-1.88-3.55-5.01-8.03-7.93-11.47l11.89-4.17c3.75,4.07,8.03,9.7,9.8,13.66l-5.74,1.98h29.1c3.13-4.8,6.47-10.95,8.55-15.85l13.56,4.07ZM75.4,63.41l-.21,6.78h17.52v-6.78h-17.31ZM92.72,47.03h-17.31v7.09h17.31v-7.09ZM125.15,38.27v42.76h-11.47v-42.76h11.47ZM146.85,35.35v52.04c0,6.15-1.15,9.28-5.21,11.26-4.07,1.88-9.7,2.19-17.31,2.09-.63-3.34-2.61-8.55-4.48-11.79,5.32.21,10.85.21,12.52.1,1.67,0,2.19-.42,2.19-1.77v-51.94h12.31Z"/>
    <path class="st1" d="M233.72,41.51c1.36,2.71,2.92,6.15,4.07,8.86h19.92v7.3h-48.29c-.83,14.5-3.13,31.08-8.55,43.28-2.09-1.88-7.3-5.01-10.01-6.05,6.99-15.75,7.61-38.28,7.61-53.09v-3.75l-2.82,2.4c-.83-2.19-2.71-5.63-4.38-8.03v50.79h-17.21v9.18h-10.53V8.45h27.74v20.96c9.28-7.72,15.54-17.73,18.98-26.28l11.37,2.09-1.88,4.28h18.15l1.88-.42,7.72,5.11c-1.36,2.61-3.23,5.53-5.21,8.24h16.06v8.87h-12.52v4.28c0,1.98.1,2.92,1.77,2.92h3.44c1.36,0,4.17-.1,5.53-.63.21,2.61.31,4.69.73,7.3-1.25.42-4.07.62-6.05.62h-7.09c-7.3,0-8.55-3.75-8.55-10.33v-4.17h-5.63c-1.15,7.93-4.69,13.04-15.75,15.23-.63-1.98-2.61-5.01-4.38-6.67v1.98l-.1,8.55h16.37l-2.4-5.53,10.01-3.34ZM180.63,19.08h-6.57v10.74h6.57v-10.74ZM174.06,40.05v11.06h6.57v-11.06h-6.57ZM174.06,61.43v11.16h6.57v-11.16h-6.57ZM209.84,39.32c6.47-1.36,8.76-3.86,9.59-8.03h-9.59v8.03ZM253.85,80.3v20.65h-11.37v-3.44h-19.5v3.55h-10.95v-20.75h41.82ZM212.44,22.42h17.31c.94-1.46,1.88-3.13,2.71-4.69h-17l-3.02,4.69ZM253.01,60.8v6.57h-39.84v-6.57h39.84ZM253.01,70.5v6.47h-39.84v-6.47h39.84ZM242.48,90.94v-4.38h-19.5v4.38h19.5Z"/>
    <path class="st1" d="M306.3,14.29c-4.07,1.46-8.66,2.82-13.45,3.96v14.29h13.77v11.58h-13.77v.94c2.92,2.71,11.58,12.72,13.56,15.23l-7.2,9.8c-1.36-2.92-3.86-7.41-6.36-11.47v42.45h-12.1v-37.55c-3.34,8.03-7.3,15.44-11.37,20.65-1.15-3.55-3.86-8.76-5.84-11.89,5.84-6.78,11.79-18.04,15.54-28.16h-14.18v-11.58h15.85v-11.89c-3.96.63-8.03,1.25-11.79,1.67-.42-2.71-1.98-6.99-3.34-9.7,11.89-1.77,25.03-4.9,33.69-8.55l6.99,10.22ZM338.43,64.66V3.13h12.41v59.34l10.33-1.77,1.98,11.79-12.31,2.19v26.28h-12.41v-24.2l-31.6,5.53-1.98-11.89,33.58-5.74ZM315.79,36.81c6.05,4.28,13.66,10.64,17.21,15.12l-8.55,8.13c-3.23-4.69-10.64-11.47-16.69-16.06l8.03-7.2ZM319.76,9.49c5.74,4.17,12.93,10.43,16.17,15.02l-8.76,7.82c-2.92-4.49-9.8-11.26-15.54-15.85l8.13-6.99Z"/>
    <path class="st1" d="M394.32,3.13v19.92h10.32v11.58h-10.32v15.54l9.59-2.4,1.56,11.47-11.16,3.02v25.03c0,6.05-1.15,9.07-4.69,11.06-3.55,1.88-8.55,2.19-15.96,2.19-.42-3.13-1.98-8.13-3.55-11.37,4.17.1,8.55.1,9.91.1,1.46,0,1.98-.52,1.98-2.09v-21.69l-10.22,2.61-3.23-11.99c3.86-.73,8.45-1.77,13.45-2.92v-18.56h-12.1v-11.58h12.1V3.13h12.31ZM440.84,3.13v14.91h23.47v11.58h-23.47v12.51h12.62l2.09-.42,8.03,3.23c-3.96,14.6-10.64,26.07-19.5,34.94,6.78,4.69,14.91,8.24,24.3,10.53-2.71,2.5-6.26,7.61-8.03,10.74-10.22-2.92-18.88-7.3-26.18-13.14-8.03,5.63-17.31,9.8-27.53,12.83-1.36-3.23-4.28-8.55-6.67-11.26,9.28-2.19,17.73-5.53,25.13-10.22-6.15-7.09-11.06-15.44-15.02-25.03l3.23-.94h-5.53v-11.26h20.65v-12.51h-22.42v-11.58h22.42V3.13h12.41ZM434.58,71.96c5.53-5.21,10.12-11.37,13.25-18.56h-25.55c3.02,6.99,7.09,13.25,12.31,18.56Z"/>
    <path class="st1" d="M508,75.4c-6.05,7.93-15.44,16.48-23.05,21.69-2.5-2.29-7.72-6.36-10.85-8.24,7.82-4.38,16.27-11.47,21.28-18.04l12.62,4.59ZM547.32,42.45c7.3,7.4,15.96,17.21,20.44,23.57l-10.64,6.47c-1.36-2.09-3.23-4.69-5.32-7.4l-22.74,1.77v20.86c0,6.15-1.25,9.39-5.84,11.37-4.48,1.88-10.43,1.98-18.15,1.98-.63-3.65-2.71-8.97-4.59-12.2,5.42.21,11.79.21,13.56.21,1.77-.1,2.29-.42,2.29-1.67v-19.5c-23.78,2.09-28.58,2.82-32.12,4.17-.52-2.4-2.29-8.24-3.65-11.47,4.17-.52,8.13-2.19,14.5-5.21,3.23-1.46,9.28-4.59,16.58-8.76-16.79,1.15-20.34,1.77-22.84,2.71-.63-2.4-2.29-8.34-3.65-11.47,2.82-.52,5.32-1.56,8.87-3.55,2.82-1.36,9.7-5.32,16.58-10.43-9.91,1.98-20.02,3.44-29.62,4.69-.42-3.13-2.19-7.93-3.55-10.64,24.09-3.13,50.58-8.66,66.54-15.44l9.28,9.91c-8.76,3.44-18.98,6.36-29.93,8.87l5.53,3.55c-5.53,4.17-11.58,8.13-17.83,11.68l17.94-.83c3.86-2.71,7.72-5.53,11.26-8.45l9.28,8.34c-11.06,8.24-23.05,15.44-35.15,21.48l29.2-1.98-6.57-7.4,10.33-5.21ZM544.82,69.35c8.03,5.42,18.36,13.56,23.57,19.29l-11.16,7.4c-4.59-5.63-14.6-14.18-22.63-20.02l10.22-6.67Z"/>
    <path class="st1" d="M631.9,7.82v11.58h-22.94c-1.04,3.86-2.29,7.72-3.65,11.58h14.81l2.19-.42,7.82,2.61c-5.21,34.52-19.19,57.05-38.48,68.21-1.88-2.61-6.47-7.3-9.39-9.07,9.39-5.01,17.21-12.2,23.26-21.9-3.75-3.23-9.6-7.3-14.6-10.53-1.98,2.71-4.07,5.11-6.26,7.3-2.19-2.29-6.26-6.15-8.97-8.03,10.01-9.59,16.79-25.55,20.34-39.74h-15.96V7.82h51.83ZM600.82,42.45c-1.25,2.71-2.5,5.42-3.96,7.93,4.69,2.82,10.33,6.36,14.18,9.18,2.09-5.11,3.86-10.85,5.21-17.1h-15.44ZM646.92,14.91v57.47h-12.31V14.91h12.31ZM671.43,5.11v81.14c0,7.09-1.46,10.43-5.63,12.41-4.28,1.98-10.74,2.4-20.23,2.4-.52-3.44-2.4-9.07-4.17-12.52,6.36.21,12.83.21,14.91.21,1.98-.1,2.71-.73,2.71-2.61V5.11h12.41Z"/>
    <path class="st1" d="M700.1,2.71c2.92,4.38,6.15,10.12,7.72,13.98l-6.88,3.75h15.02v9.91h-34.1v-9.91h15.33c-1.56-3.86-4.28-9.18-6.67-13.14l9.59-4.59ZM713.56,63.62v31.71h-18.36v4.38h-10.01v-36.08h28.37ZM712.93,35.04v9.39h-27.12v-9.39h27.12ZM712.93,49.12v9.49h-27.12v-9.49h27.12ZM695.2,85.31h8.24v-11.79h-8.24v11.79ZM755.38,8.97l-1.98,3.44c6.05,8.34,16.48,15.85,27.53,19.5-2.82,2.61-6.57,7.82-8.55,11.26-3.02-1.25-5.94-2.92-8.76-4.8v4.38h-34.63v-4.59c-3.13,2.29-6.26,4.38-9.39,6.05-1.56-3.44-4.69-8.66-7.4-11.68,13.14-5.53,26.91-17.73,33.58-30.04l9.6,6.47ZM772.9,48.49v40.57c0,4.69-.42,7.61-3.02,9.28-2.5,1.77-5.63,1.88-9.6,1.88-.31-2.92-1.36-7.4-2.61-10.33,1.77.21,3.55.21,4.17.1.73,0,.94-.31.94-1.15v-9.49h-5.53v18.77h-8.34v-18.77h-5.21v18.77h-8.45v-18.77h-5.11v21.8h-10.01v-52.67h52.77ZM735.25,69.14v-10.43h-5.11v10.43h5.11ZM755.9,32.22c-3.44-3.13-6.57-6.78-9.28-10.53-3.13,3.65-6.67,7.3-10.33,10.53h19.61ZM748.91,69.14v-10.43h-5.21v10.43h5.21ZM762.78,69.14v-10.43h-5.53v10.43h5.53Z"/>
    <path class="st1" d="M797.09,72.27v-32.33h-9.6v-11.89h9.6V4.59h11.58v23.47h7.72v11.89h-7.72v28.26l8.55-3.02,2.4,11.47c-10.22,4.28-21.07,8.76-29.93,12.2l-4.07-12.83c3.23-.94,7.2-2.29,11.47-3.75ZM883.03,90.21v9.18h-71.02v-9.18h71.02ZM847.78,1.56c2.71,2.92,5.53,6.88,6.99,10.01h27.64v9.07h-68v-9.07h27.12c-1.15-1.88-2.4-3.75-3.65-5.32l9.91-4.69ZM877.82,23.57v34.1h-58.51V23.57h58.51ZM874.17,60.7v26.39h-51.73v-26.39h51.73ZM829.32,50.58h37.75v-19.92h-37.75v19.92ZM862.8,33.68v13.98h-29.2v-13.98h29.2ZM833.8,70.81h28.37v-3.65h-28.37v3.65ZM833.8,80.51h28.37v-3.55h-28.37v3.55ZM841.63,42.45h12.72v-3.55h-12.72v3.55Z"/>
    <path class="st1" d="M59.58,163.34h38.79v8.34h-29.64v14.22h26.29v8.34h-26.29v21.22h-9.16v-52.12Z"/>
    <path class="st1" d="M106.93,201.17v-25.02h9.01v22.34c0,6.11,3.05,9.61,8.41,9.61s8.86-3.65,8.86-9.75v-22.19h9.01v39.32h-9.01v-6.11c-2.53,3.72-6.18,6.92-12.29,6.92-8.86,0-14-5.96-14-15.12Z"/>
    <path class="st1" d="M155.41,204.6v-20.7h-4.99v-7.74h4.99v-10.8h9.01v10.8h10.57v7.74h-10.57v19.29c0,3.5,1.79,4.91,4.84,4.91,2.01,0,3.8-.45,5.58-1.34v7.37c-2.23,1.27-4.77,2.01-8.12,2.01-6.63,0-11.32-2.9-11.32-11.54Z"/>
    <path class="st1" d="M183.63,201.17v-25.02h9.01v22.34c0,6.11,3.05,9.61,8.41,9.61s8.86-3.65,8.86-9.75v-22.19h9.01v39.32h-9.01v-6.11c-2.53,3.72-6.18,6.92-12.29,6.92-8.86,0-14-5.96-14-15.12Z"/>
    <path class="st1" d="M230.24,176.15h9.01v8.86c2.46-5.88,7-9.9,13.92-9.61v9.53h-.52c-7.89,0-13.4,5.14-13.4,15.56v14.97h-9.01v-39.32Z"/>
    <path class="st1" d="M257.49,195.96v-.15c0-11.24,7.97-20.48,19.21-20.48,12.51,0,18.84,9.83,18.84,21.15,0,.82-.07,1.64-.15,2.53h-28.89c.97,6.4,5.51,9.98,11.32,9.98,4.39,0,7.52-1.64,10.65-4.69l5.29,4.69c-3.72,4.47-8.86,7.37-16.08,7.37-11.39,0-20.18-8.27-20.18-20.4ZM286.61,193.06c-.6-5.81-4.02-10.35-9.98-10.35-5.51,0-9.38,4.24-10.2,10.35h20.18Z"/>
    <path class="st1" d="M318.47,171.83h-16.53v-8.49h42.29v8.49h-16.53v43.63h-9.23v-43.63Z"/>
    <path class="st1" d="M342.23,195.96v-.15c0-11.24,7.97-20.48,19.21-20.48,12.51,0,18.84,9.83,18.84,21.15,0,.82-.07,1.64-.15,2.53h-28.89c.97,6.4,5.51,9.98,11.32,9.98,4.39,0,7.52-1.64,10.65-4.69l5.29,4.69c-3.72,4.47-8.86,7.37-16.08,7.37-11.39,0-20.18-8.27-20.18-20.4ZM371.34,193.06c-.6-5.81-4.02-10.35-9.98-10.35-5.51,0-9.38,4.24-10.2,10.35h20.18Z"/>
    <path class="st1" d="M387.2,196.03v-.15c0-11.17,8.64-20.55,20.4-20.55,7.45,0,12.06,2.75,15.71,6.78l-5.58,6.03c-2.76-2.9-5.66-4.91-10.2-4.91-6.55,0-11.32,5.66-11.32,12.51v.15c0,7,4.84,12.66,11.77,12.66,4.24,0,7.37-2.01,10.2-4.92l5.44,5.36c-3.87,4.32-8.41,7.37-16.08,7.37-11.69,0-20.33-9.16-20.33-20.33Z"/>
    <path class="st1" d="M431.87,161.11h9.01v21.15c2.53-3.72,6.18-6.92,12.29-6.92,8.86,0,14,5.96,14,15.12v25.02h-9.01v-22.34c0-6.11-3.05-9.61-8.41-9.61s-8.86,3.65-8.86,9.75v22.19h-9.01v-54.36Z"/>
    <path class="st1" d="M501.42,163.34h38.8v8.34h-29.64v14.22h26.29v8.34h-26.29v21.22h-9.16v-52.12Z"/>
    <path class="st1" d="M545.94,196.03v-.15c0-11.24,8.94-20.55,21-20.55s20.92,9.16,20.92,20.4v.15c0,11.17-8.94,20.48-21.07,20.48s-20.85-9.16-20.85-20.33ZM578.86,196.03v-.15c0-6.92-4.99-12.66-12.06-12.66s-11.84,5.66-11.84,12.51v.15c0,6.85,4.99,12.66,11.99,12.66s11.91-5.73,11.91-12.51Z"/>
    <path class="st1" d="M597.02,176.15h9.01v8.86c2.46-5.88,7-9.9,13.92-9.61v9.53h-.52c-7.89,0-13.4,5.14-13.4,15.56v14.97h-9.01v-39.32Z"/>
    <path class="st1" d="M627.33,201.17v-25.02h9.01v22.34c0,6.11,3.05,9.61,8.41,9.61s8.86-3.65,8.86-9.75v-22.19h9.01v39.32h-9.01v-6.11c-2.53,3.72-6.18,6.92-12.29,6.92-8.86,0-14-5.96-14-15.12Z"/>
    <path class="st1" d="M673.94,176.15h9.01v5.96c2.53-3.5,5.96-6.78,11.99-6.78,5.66,0,9.61,2.75,11.69,6.92,3.2-4.17,7.37-6.92,13.33-6.92,8.56,0,13.78,5.44,13.78,15.04v25.09h-9.01v-22.34c0-6.25-2.9-9.61-7.97-9.61s-8.41,3.42-8.41,9.75v22.19h-9.01v-22.41c0-6.11-2.98-9.53-7.97-9.53s-8.41,3.72-8.41,9.83v22.12h-9.01v-39.32Z"/>
  </g>
  <rect class="st0" y=".47" width="9.94" height="215"/>
</svg>