<?xml version="1.0" encoding="UTF-8"?>
<svg id="_圖層_1" xmlns="http://www.w3.org/2000/svg" xmlns:xlink="http://www.w3.org/1999/xlink" version="1.1" viewBox="0 0 896.63 204">
  <!-- Generator: Adobe Illustrator 29.8.1, SVG Export Plug-In . SVG Version: 2.1.1 Build 2)  -->
  <defs>
    <style>
      .st0 {
        filter: url(#outer-glow-1);
      }

      .st1 {
        fill: #fff;
      }

      .st2 {
        fill: #ff3a6e;
        filter: url(#outer-glow-2);
      }
    </style>
    <filter id="outer-glow-1" x="57" y="0" width="841" height="204" filterUnits="userSpaceOnUse">
      <feOffset dx="0" dy="0"/>
      <feGaussianBlur result="blur" stdDeviation="2"/>
      <feFlood flood-color="#fff" flood-opacity=".75"/>
      <feComposite in2="blur" operator="in"/>
      <feComposite in="SourceGraphic"/>
    </filter>
    <filter id="outer-glow-2" x="0" y="0" width="22" height="204" filterUnits="userSpaceOnUse">
      <feOffset dx="0" dy="0"/>
      <feGaussianBlur result="blur1" stdDeviation="2"/>
      <feFlood flood-color="#ff1d68" flood-opacity=".75"/>
      <feComposite in2="blur1" operator="in"/>
      <feComposite in="SourceGraphic"/>
    </filter>
  </defs>
  <g class="st0">
    <g>
      <path class="st1" d="M108.4,87.65c0,4.99-.98,7.73-4.31,9.39-3.13,1.66-7.63,1.86-13.6,1.86-.59-2.94-2.25-7.24-3.72-9.88,3.62.2,7.53.2,8.81.1,1.17,0,1.57-.39,1.57-1.57v-8.71h-17.22c-1.08,7.44-3.33,14.78-7.24,20.35-1.76-1.86-6.36-5.38-8.71-6.56,6.07-8.81,6.65-21.14,6.65-30.73v-22.41h37.77s0,48.16,0,48.16ZM152.92,22.28v10.47h-88.56v-10.47h20.84c-1.76-3.33-4.6-7.53-7.34-10.76l11.06-3.82c3.52,3.72,7.44,9,9.1,12.72l-5.38,1.86h27.2c2.94-4.5,6.07-10.27,8.02-14.78l12.62,3.72c-2.35,3.82-4.99,7.63-7.44,11.06,0,0,19.88,0,19.88,0ZM97.14,70.32v-6.36h-16.05c0,2.06-.1,4.11-.29,6.36h16.34ZM81.1,48.6v6.75h16.05v-6.75s-16.05,0-16.05,0ZM127.48,80.4h-10.67v-39.92h10.67v39.92ZM136.29,37.74h11.45v48.63c0,5.77-1.08,8.61-4.99,10.47-3.72,1.76-9,2.05-16.05,1.96-.59-3.13-2.45-7.93-4.21-10.96,4.99.2,10.08.2,11.74.1,1.57,0,2.06-.39,2.06-1.76v-48.44h0Z"/>
      <path class="st1" d="M240.49,34.02v4.01c0,1.86.2,2.74,1.66,2.74h3.23c1.27,0,3.91-.2,5.19-.59.2,2.35.2,4.31.69,6.75-1.27.39-3.82.59-5.68.59h-6.56c-6.85,0-8.02-3.42-8.02-9.59v-3.91h-5.19c-1.08,7.34-4.4,12.04-14.78,14.09-.59-1.96-2.45-4.7-4.11-6.16v1.86c0,2.45,0,5.09-.1,8.02h15.36c-.78-1.76-1.47-3.62-2.15-5.09l9.2-3.13c1.37,2.54,2.74,5.58,3.82,8.22h18.59v6.75h-45.11c-.78,13.6-2.94,29.06-7.83,40.51-2.06-1.86-6.95-4.79-9.3-5.68,6.36-14.78,7.05-35.72,7.05-49.61v-3.52c-.88.78-1.76,1.47-2.74,2.25-.69-1.96-2.45-5.09-4.01-7.34v47.36h-16.15v8.51h-9.79V12.69h25.93v19.67c8.71-7.24,14.48-16.54,17.71-24.56l10.57,1.86c-.59,1.37-1.17,2.74-1.76,4.11h17.03l1.66-.49,7.34,4.79c-1.37,2.45-3.13,5.19-4.99,7.73h15.07v8.22h-11.84,0,0ZM173.56,22.57v10.08h6.26v-10.08s-6.26,0-6.26,0ZM173.56,52.52h6.26v-10.27h-6.26v10.27ZM179.82,72.58v-10.47h-6.26v10.47h6.26ZM206.93,41.56c6.07-1.17,8.22-3.62,9.1-7.53h-9.1v7.53ZM209.08,79.72h39.04v19.38h-10.67v-3.33h-18.2v3.33h-10.18v-19.38h0ZM212.12,21.4c-.78,1.47-1.66,2.94-2.74,4.4h16.24c.88-1.37,1.76-2.84,2.54-4.4h-16.05.01ZM247.34,67.58h-37.19v-6.07h37.19v6.07ZM210.16,70.62h37.19v5.97h-37.19v-5.97h0ZM219.26,85.59v4.11h18.2v-4.11h-18.2Z"/>
      <path class="st1" d="M290.88,70.23c-1.17-2.74-3.52-6.85-5.87-10.76v39.73h-11.25v-35.23c-3.23,7.53-6.85,14.48-10.67,19.38-1.08-3.33-3.62-8.12-5.38-11.06,5.48-6.26,10.96-16.73,14.48-26.23h-13.21v-10.86h14.78v-11.06c-3.82.59-7.44,1.17-11.06,1.57-.39-2.64-1.86-6.46-3.13-9,11.16-1.76,23.39-4.7,31.51-8.02l6.56,9.49c-3.82,1.47-8.12,2.64-12.62,3.62v13.41h12.92v10.86h-12.92v.78c2.84,2.74,10.86,11.94,12.72,14.19l-6.85,9.2h-.01ZM339.12,74.44v24.66h-11.45v-22.6l-29.55,5.09-1.86-11.06,31.41-5.38V7.8h11.45v55.39l9.69-1.66,1.86,10.86-11.55,2.06h0ZM314.56,60.83c-3.03-4.31-9.88-10.57-15.56-14.97l7.44-6.65c5.58,3.91,12.82,9.98,16.05,14.19l-7.93,7.44h0ZM317.11,35c-2.74-4.21-9.1-10.47-14.58-14.68l7.63-6.65c5.28,4.01,12.13,9.79,15.07,14.09l-8.12,7.24h0Z"/>
      <path class="st1" d="M390.68,60.05c-3.42.98-6.95,1.96-10.47,2.84v23.39c0,5.68-1.08,8.42-4.4,10.27-3.23,1.76-7.93,2.06-14.87,2.06-.39-2.94-1.86-7.53-3.23-10.57,3.82.1,7.83.1,9.1.1,1.37,0,1.86-.49,1.86-1.96v-20.16l-9.49,2.35-3.03-11.06c3.62-.78,7.83-1.66,12.53-2.84v-17.32h-11.25v-10.76h11.25V7.9h11.55v18.49h9.59v10.76h-9.59v14.48l9-2.25,1.47,10.67h-.02ZM444.9,46.84c-3.72,13.5-9.98,24.27-18.3,32.49,6.46,4.5,13.99,7.73,22.7,9.88-2.45,2.35-5.77,7.05-7.44,10.08-9.49-2.84-17.52-6.95-24.37-12.33-7.63,5.28-16.24,9.2-25.83,12.04-1.27-3.13-4.01-8.02-6.16-10.57,8.61-2.06,16.54-5.19,23.39-9.59-5.68-6.56-10.27-14.29-13.9-23.29l2.94-.88h-5.09v-10.47h19.28v-11.74h-21.04v-10.76h21.04V7.71h11.55v13.99h21.92v10.76h-21.92v11.74h11.74l2.05-.49s7.44,3.13,7.44,3.13ZM406.34,54.67c2.74,6.46,6.65,12.33,11.55,17.32,5.09-4.79,9.39-10.67,12.33-17.32h-23.88,0Z"/>
      <path class="st1" d="M486.87,75.12c-5.77,7.44-14.48,15.46-21.53,20.26-2.45-2.05-7.24-5.87-10.18-7.63,7.34-4.01,15.17-10.67,19.86-16.83l11.84,4.21h.01,0ZM506.44,67.29v19.38c0,5.77-1.17,8.71-5.48,10.57-4.11,1.76-9.69,1.86-16.93,1.86-.59-3.42-2.54-8.32-4.21-11.35,4.99.2,10.96.2,12.62.2,1.66-.1,2.15-.39,2.15-1.57v-18.1c-22.21,1.76-26.62,2.45-30.04,3.72-.49-2.05-2.15-7.63-3.43-10.47,3.91-.59,7.63-2.06,13.6-4.99,3.03-1.27,8.71-4.11,15.46-8.12-15.66,1.08-18.98,1.57-21.23,2.54-.59-2.25-2.25-7.73-3.42-10.76,2.64-.39,4.89-1.47,8.22-3.23,2.64-1.27,9.2-4.99,15.66-9.88-9.39,1.86-18.89,3.33-27.89,4.5-.39-2.94-1.96-7.44-3.23-9.88,22.51-3.03,47.17-8.12,62.14-14.48l8.61,9.2c-8.12,3.23-17.81,5.97-28.08,8.22l5.28,3.42c-5.28,3.91-10.86,7.63-16.64,10.96l16.93-.88c3.62-2.54,7.05-5.09,10.37-7.83l8.61,7.73c-10.37,7.83-21.72,14.58-33.08,20.16l27.6-1.86c-2.06-2.45-4.21-4.79-6.26-6.95l9.69-4.89c6.95,6.95,14.97,16.05,19.08,22.02l-9.88,5.97c-1.27-1.96-2.94-4.31-4.99-6.85l-21.23,1.66v-.02h0ZM521.12,69.64c7.54,4.99,17.22,12.53,21.92,17.91l-10.27,6.85c-4.21-5.19-13.6-13.11-21.14-18.59l9.49-6.16h0Z"/>
      <path class="st1" d="M554.58,12.1h48.34v10.86h-21.33c-.98,3.52-2.15,7.14-3.42,10.76h13.9l1.96-.29,7.34,2.35c-4.89,32.19-17.91,53.23-35.91,63.7-1.76-2.54-6.07-6.85-8.71-8.51,8.71-4.6,16.05-11.45,21.63-20.45-3.52-3.03-9-6.85-13.6-9.88-1.76,2.45-3.72,4.79-5.87,6.85-2.05-2.15-5.77-5.68-8.32-7.54,9.39-8.9,15.66-23.78,18.98-36.99h-14.97v-10.86h-.02ZM573.95,44.39c-1.08,2.54-2.35,5.09-3.62,7.44,4.31,2.64,9.59,5.87,13.21,8.51,1.96-4.79,3.62-10.18,4.89-15.95h-14.48ZM617.01,72.38h-11.45V18.66h11.45s0,53.72,0,53.72ZM639.91,9.66v75.74c0,6.56-1.37,9.69-5.28,11.45-4.01,1.96-10.08,2.35-18.89,2.25-.49-3.23-2.25-8.42-3.82-11.64,5.87.2,11.94.2,13.8.2,1.86-.1,2.64-.68,2.64-2.35V9.66h11.55Z"/>
      <path class="st1" d="M682.07,33.14h-31.9v-9.2h14.29c-1.47-3.72-4.01-8.61-6.26-12.33l9-4.21c2.74,4.01,5.77,9.39,7.14,13.01l-6.36,3.52h14.09v9.2h0ZM679.72,93.81h-17.12v4.11h-9.39v-33.76h26.52v29.65s-.01,0-.01,0ZM679.14,46.35h-25.25v-8.81h25.25v8.81ZM653.89,50.66h25.25v8.81h-25.25v-8.81ZM662.6,73.46v10.96h7.73v-10.96h-7.73ZM718.77,13.28c-.59,1.08-1.27,2.15-1.96,3.23,5.77,7.83,15.36,14.78,25.74,18.2-2.64,2.35-6.16,7.14-7.93,10.37-2.84-1.17-5.48-2.74-8.12-4.5v4.21h-32.29v-4.31c-2.94,2.15-5.87,4.11-8.71,5.68-1.57-3.33-4.4-8.02-6.95-10.86,12.23-5.28,25.05-16.64,31.31-28.08l8.9,6.07h.01ZM735.01,87.94c0,4.4-.39,6.95-2.74,8.61-2.25,1.66-5.19,1.86-9,1.86-.29-2.84-1.27-6.95-2.25-9.69,1.57.1,3.23.1,3.82.1s.78-.29.78-1.08v-8.9h-5.19v17.52h-7.73v-17.52h-4.79v17.52h-7.93v-17.52h-4.79v20.35h-9.39v-49.12h49.22v37.87h-.01ZM699.98,69.35v-9.79h-4.79v9.79h4.79ZM719.26,34.9c-3.23-3.03-6.17-6.26-8.71-9.88-2.94,3.52-6.16,6.75-9.59,9.88h18.3ZM712.7,69.35v-9.79h-4.79v9.79h4.79ZM725.62,69.35v-9.79h-5.19v9.79h5.19Z"/>
      <path class="st1" d="M779.14,76.2c-9.39,4.11-19.47,8.22-27.79,11.45l-3.82-11.94c3.03-.88,6.65-2.06,10.67-3.42v-30.24h-8.9v-11.06h8.9V9.17h10.86v21.82h7.14v11.06h-7.14v26.42l7.93-2.84,2.15,10.57h0ZM838.44,88.92v8.61h-66.15v-8.61h66.15ZM837.75,24.14h-63.31v-8.42h25.25c-1.08-1.76-2.35-3.62-3.52-4.99l9.3-4.4c2.45,2.74,5.09,6.46,6.56,9.39h25.83l-.1,8.42h-.01ZM833.45,58.68h-54.5v-31.8h54.5v31.8ZM781.88,86.08v-24.66h48.14v24.66h-48.14ZM823.56,33.43h-35.23v18.59h35.23v-18.59ZM819.45,49.38h-27.2v-13.11h27.2v13.11ZM792.35,70.81h26.62v-3.33h-26.62v3.33ZM792.35,80.01h26.62v-3.43h-26.62v3.43ZM811.62,41.16h-11.94v3.33h11.94s0-3.33,0-3.33Z"/>
    </g>
    <path class="st1" d="M63.98,196.68v-62.3h45.48v9.79h-33.91v52.51h-11.57ZM74.66,172.74v-9.61h30.97v9.61h-30.97Z"/>
    <path class="st1" d="M138.38,197.3c-4.04,0-7.6-.76-10.68-2.27-3.09-1.51-5.5-3.83-7.25-6.94-1.75-3.12-2.63-7.04-2.63-11.79v-27.15h11.21v25.72c0,4.21.98,7.37,2.94,9.48s4.69,3.16,8.19,3.16c2.61,0,4.9-.53,6.85-1.6s3.47-2.67,4.54-4.81c1.07-2.14,1.6-4.78,1.6-7.92v-24.03h11.12v47.53h-10.59v-12.9l1.87,4c-1.6,3.03-3.95,5.37-7.03,7.03-3.09,1.66-6.47,2.49-10.15,2.49h0Z"/>
    <path class="st1" d="M172.56,158.05v-8.9h31.68v8.9h-31.68ZM196.76,197.3c-5.22,0-9.26-1.35-12.1-4.05-2.85-2.7-4.27-6.66-4.27-11.88v-42.72h11.04v42.36c0,2.26.59,4,1.78,5.25s2.85,1.87,4.98,1.87c2.43,0,4.45-.65,6.05-1.96l3.2,7.92c-1.37,1.07-3,1.87-4.9,2.4s-3.83.8-5.79.8h.01Z"/>
    <path class="st1" d="M236.72,197.3c-4.04,0-7.6-.76-10.68-2.27-3.09-1.51-5.5-3.83-7.25-6.94-1.75-3.12-2.63-7.04-2.63-11.79v-27.15h11.21v25.72c0,4.21.98,7.37,2.94,9.48s4.69,3.16,8.19,3.16c2.61,0,4.9-.53,6.85-1.6s3.47-2.67,4.54-4.81c1.07-2.14,1.6-4.78,1.6-7.92v-24.03h11.12v47.53h-10.59v-12.9l1.87,4c-1.6,3.03-3.95,5.37-7.03,7.03-3.09,1.66-6.47,2.49-10.15,2.49h0Z"/>
    <path class="st1" d="M277.31,196.68v-47.53h10.59v13.08l-1.25-3.83c1.36-3.2,3.59-5.65,6.68-7.34,3.08-1.69,6.85-2.54,11.3-2.54v10.59c-.42-.06-.83-.1-1.25-.13s-.8-.04-1.16-.04c-4.27,0-7.65,1.22-10.15,3.65-2.49,2.43-3.74,6.14-3.74,11.12v22.96h-11.04.02Z"/>
    <path class="st1" d="M336.05,197.3c-5.28,0-9.89-1.05-13.84-3.16-3.95-2.11-7-4.98-9.17-8.63-2.17-3.65-3.25-7.85-3.25-12.59s1.05-8.94,3.16-12.59c2.11-3.65,5.01-6.53,8.72-8.63,3.71-2.11,7.93-3.16,12.68-3.16s8.75,1.02,12.37,3.07,6.47,4.91,8.54,8.59c2.08,3.68,3.12,8.04,3.12,13.08,0,.42-.02.93-.04,1.56-.03.62-.08,1.17-.13,1.65h-39.6v-7.39h33.73l-4.45,2.31c.06-2.67-.49-5.06-1.65-7.16-1.16-2.11-2.75-3.74-4.76-4.9-2.02-1.16-4.39-1.74-7.12-1.74s-5.06.58-7.16,1.74c-2.11,1.16-3.72,2.8-4.85,4.94s-1.69,4.6-1.69,7.39v1.78c0,2.85.64,5.37,1.91,7.56,1.28,2.2,3.1,3.9,5.47,5.12s5.13,1.82,8.28,1.82c2.67,0,5.07-.44,7.21-1.33,2.14-.89,4.03-2.19,5.7-3.92l6.05,6.94c-2.2,2.49-4.91,4.39-8.14,5.7s-6.93,1.96-11.08,1.96h0Z"/>
    <path class="st1" d="M374.32,196.68v-52.51h-20.65v-9.79h52.87v9.79h-20.65v52.51h-11.57Z"/>
    <path class="st1" d="M431.64,197.3c-5.28,0-9.89-1.05-13.84-3.16-3.95-2.11-7-4.98-9.17-8.63-2.17-3.65-3.25-7.85-3.25-12.59s1.05-8.94,3.16-12.59c2.11-3.65,5.01-6.53,8.72-8.63,3.71-2.11,7.93-3.16,12.68-3.16s8.75,1.02,12.37,3.07,6.47,4.91,8.54,8.59c2.08,3.68,3.12,8.04,3.12,13.08,0,.42-.02.93-.04,1.56-.03.62-.08,1.17-.13,1.65h-39.6v-7.39h33.73l-4.45,2.31c.06-2.67-.49-5.06-1.65-7.16-1.16-2.11-2.75-3.74-4.76-4.9-2.02-1.16-4.39-1.74-7.12-1.74s-5.06.58-7.16,1.74c-2.11,1.16-3.72,2.8-4.85,4.94s-1.69,4.6-1.69,7.39v1.78c0,2.85.64,5.37,1.91,7.56,1.28,2.2,3.1,3.9,5.47,5.12s5.13,1.82,8.28,1.82c2.67,0,5.07-.44,7.21-1.33,2.14-.89,4.03-2.19,5.7-3.92l6.05,6.94c-2.2,2.49-4.91,4.39-8.14,5.7s-6.93,1.96-11.08,1.96h0Z"/>
    <path class="st1" d="M486.46,197.3c-4.98,0-9.42-1.05-13.31-3.16-3.89-2.11-6.93-4.98-9.12-8.63-2.2-3.65-3.29-7.85-3.29-12.59s1.1-9.02,3.29-12.64,5.24-6.48,9.12-8.59c3.89-2.11,8.32-3.16,13.31-3.16,4.57,0,8.63.95,12.19,2.85,3.56,1.9,6.23,4.66,8.01,8.28l-8.46,4.98c-1.42-2.19-3.16-3.84-5.21-4.94s-4.26-1.65-6.63-1.65c-2.73,0-5.19.61-7.39,1.82-2.2,1.22-3.92,2.94-5.16,5.16-1.25,2.23-1.87,4.85-1.87,7.88s.62,5.67,1.87,7.92c1.25,2.26,2.97,3.99,5.16,5.21s4.66,1.82,7.39,1.82c2.37,0,4.58-.55,6.63-1.65,2.05-1.1,3.78-2.77,5.21-5.03l8.46,4.98c-1.78,3.56-4.45,6.31-8.01,8.23-3.56,1.93-7.62,2.89-12.19,2.89v.02h0Z"/>
    <path class="st1" d="M516.01,196.68v-66.04h11.04v31.42l-2.31-4c1.6-3.03,3.99-5.37,7.16-7.03s6.84-2.49,10.99-2.49c3.86,0,7.25.74,10.19,2.23,2.94,1.48,5.28,3.77,7.03,6.85,1.75,3.09,2.63,7.03,2.63,11.84v27.23h-11.12v-25.81c0-4.21-.98-7.36-2.94-9.43-1.96-2.08-4.75-3.11-8.37-3.11-2.61,0-4.93.53-6.94,1.6-2.02,1.07-3.58,2.66-4.67,4.76-1.1,2.11-1.65,4.76-1.65,7.97v24.03h-11.04v-.02h0Z"/>
    <path class="st1" d="M602.51,196.68v-62.3h45.48v9.79h-33.91v52.51h-11.57ZM613.19,172.74v-9.61h30.97v9.61h-30.97Z"/>
    <path class="st1" d="M678.16,197.3c-4.81,0-9.12-1.05-12.95-3.16s-6.84-5-9.03-8.68c-2.2-3.68-3.29-7.86-3.29-12.55s1.1-9.02,3.29-12.64,5.19-6.48,8.99-8.59,8.13-3.16,12.99-3.16,9.3,1.05,13.13,3.16,6.82,4.97,8.99,8.59,3.25,7.83,3.25,12.64-1.08,8.94-3.25,12.59-5.18,6.53-9.03,8.63c-3.86,2.11-8.22,3.16-13.08,3.16h0ZM678.16,187.87c2.73,0,5.16-.61,7.3-1.82,2.14-1.22,3.81-2.97,5.03-5.25,1.22-2.28,1.82-4.91,1.82-7.88s-.61-5.65-1.82-7.88c-1.22-2.22-2.89-3.94-5.03-5.16s-4.54-1.82-7.21-1.82-5.07.61-7.21,1.82c-2.14,1.22-3.83,2.94-5.07,5.16-1.25,2.23-1.87,4.85-1.87,7.88s.62,5.59,1.87,7.88c1.25,2.29,2.94,4.04,5.07,5.25,2.14,1.22,4.51,1.82,7.12,1.82h0Z"/>
    <path class="st1" d="M714.3,196.68v-47.53h10.59v13.08l-1.25-3.83c1.36-3.2,3.59-5.65,6.68-7.34,3.08-1.69,6.85-2.54,11.3-2.54v10.59c-.42-.06-.83-.1-1.25-.13s-.8-.04-1.16-.04c-4.27,0-7.65,1.22-10.15,3.65-2.49,2.43-3.74,6.14-3.74,11.12v22.96h-11.04.02,0Z"/>
    <path class="st1" d="M771.7,197.3c-4.04,0-7.6-.76-10.68-2.27-3.09-1.51-5.5-3.83-7.25-6.94-1.75-3.12-2.63-7.04-2.63-11.79v-27.15h11.21v25.72c0,4.21.98,7.37,2.94,9.48s4.69,3.16,8.19,3.16c2.61,0,4.9-.53,6.85-1.6s3.47-2.67,4.54-4.81,1.6-4.78,1.6-7.92v-24.03h11.12v47.53h-10.59v-12.9l1.87,4c-1.6,3.03-3.95,5.37-7.03,7.03-3.09,1.66-6.47,2.49-10.15,2.49h.01Z"/>
    <path class="st1" d="M812.29,196.68v-47.53h10.59v12.73l-1.96-3.83c1.6-3.03,3.93-5.37,6.99-7.03s6.57-2.49,10.55-2.49c4.45,0,8.31,1.1,11.57,3.29,3.26,2.2,5.43,5.58,6.5,10.15l-4.27-1.6c1.48-3.5,4-6.35,7.56-8.54,3.56-2.19,7.68-3.29,12.37-3.29,3.8,0,7.16.74,10.1,2.23,2.94,1.48,5.24,3.77,6.9,6.85,1.66,3.09,2.49,7.03,2.49,11.84v27.23h-11.04v-25.81c0-4.21-.93-7.36-2.8-9.43-1.87-2.08-4.52-3.11-7.97-3.11-2.43,0-4.58.53-6.45,1.6s-3.32,2.66-4.36,4.76c-1.04,2.11-1.56,4.73-1.56,7.88v24.12h-11.04v-25.81c0-4.21-.93-7.36-2.8-9.43-1.87-2.08-4.52-3.11-7.97-3.11-2.43,0-4.58.53-6.45,1.6s-3.32,2.66-4.36,4.76c-1.04,2.11-1.56,4.73-1.56,7.88v24.12h-11.04v-.03h0Z"/>
  </g>
  <rect class="st2" x="6" y="6.49" width="9.32" height="191.44"/>
</svg>