<?xml version="1.0" encoding="UTF-8"?>
<svg id="_圖層_1" xmlns="http://www.w3.org/2000/svg" xmlns:xlink="http://www.w3.org/1999/xlink" version="1.1" viewBox="0 0 1340 300">
  <!-- Generator: Adobe Illustrator 29.8.1, SVG Export Plug-In . SVG Version: 2.1.1 Build 2)  -->
  <defs>
    <style>
      .st0 {
        filter: url(#outer-glow-2);
      }

      .st1 {
        filter: url(#outer-glow-3);
      }

      .st2 {
        filter: url(#outer-glow-1);
      }

      .st3 {
        fill: #fff;
      }

      .st4 {
        fill: #ff4178;
      }
    </style>
    <filter id="outer-glow-1" x=".79" y="109.79" width="1341" height="57" filterUnits="userSpaceOnUse">
      <feOffset dx="0" dy="0"/>
      <feGaussianBlur result="blur" stdDeviation="1.4"/>
      <feFlood flood-color="#fff" flood-opacity=".75"/>
      <feComposite in2="blur" operator="in"/>
      <feComposite in="SourceGraphic"/>
    </filter>
    <filter id="outer-glow-2" x="-1.21" y="-3.21" width="1334" height="94" filterUnits="userSpaceOnUse">
      <feOffset dx="0" dy="0"/>
      <feGaussianBlur result="blur1" stdDeviation="1.4"/>
      <feFlood flood-color="#ff1f7a" flood-opacity=".75"/>
      <feComposite in2="blur1" operator="in"/>
      <feComposite in="SourceGraphic"/>
    </filter>
    <filter id="outer-glow-3" x="-1.21" y="182.79" width="1343" height="122" filterUnits="userSpaceOnUse">
      <feOffset dx="0" dy="0"/>
      <feGaussianBlur result="blur2" stdDeviation="1.4"/>
      <feFlood flood-color="#fff" flood-opacity=".75"/>
      <feComposite in2="blur2" operator="in"/>
      <feComposite in="SourceGraphic"/>
    </filter>
  </defs>
  <g>
    <g class="st2">
      <path class="st3" d="M5.55,116.17h16.66c4.25,0,7.59,1.16,9.71,3.29,1.64,1.64,2.5,3.66,2.5,6.16v.11c0,4.46-2.55,6.84-5.3,8.28,4.35,1.48,7.37,3.98,7.37,9.02v.11c0,6.63-5.46,10.19-13.74,10.19H5.55v-37.15ZM20.89,131.83c4.19,0,7-1.64,7-5.04v-.11c0-2.91-2.34-4.72-6.53-4.72h-9.39v9.87h8.91,0ZM22.8,147.53c4.46,0,7.16-1.75,7.16-5.09v-.11c0-3.13-2.5-4.98-7.64-4.98h-10.35v10.19h10.82Z"/>
      <path class="st3" d="M43.11,125.3h6.42v6.32c1.75-4.19,4.98-7.05,9.92-6.84v6.79h-.37c-5.62,0-9.55,3.66-9.55,11.09v10.66h-6.42v-28.01h0Z"/>
      <path class="st3" d="M65.13,114.9h6.89v6.1h-6.89v-6.1ZM65.4,125.3h6.42v28.01h-6.42v-28.01Z"/>
      <path class="st3" d="M78.77,139.36v-.11c0-9.28,6.32-14.53,13-14.53,4.62,0,7.53,2.34,9.55,4.93v-15.07h6.42v38.73h-6.42v-4.67c-2.07,2.91-4.98,5.25-9.55,5.25-6.58,0-13-5.25-13-14.53h0ZM101.42,139.36v-.11c0-5.41-3.82-8.96-8.12-8.96s-8.07,3.39-8.07,8.96v.11c0,5.41,3.71,8.96,8.07,8.96s8.12-3.61,8.12-8.96Z"/>
      <path class="st3" d="M115.68,158.57l2.39-4.82c2.97,1.86,6.16,2.97,9.98,2.97,5.73,0,8.86-2.97,8.86-8.59v-2.18c-2.34,3.02-5.25,5.14-9.87,5.14-6.58,0-12.73-4.88-12.73-13.1v-.11c0-8.28,6.21-13.16,12.73-13.16,4.72,0,7.64,2.18,9.82,4.77v-4.19h6.42v22.28c0,4.72-1.22,8.23-3.55,10.55-2.55,2.55-6.48,3.77-11.51,3.77-4.62,0-8.91-1.16-12.52-3.34h0ZM136.96,137.98v-.11c0-4.62-3.77-7.75-8.23-7.75s-7.96,3.07-7.96,7.69v.11c0,4.62,3.55,7.75,7.96,7.75s8.23-3.18,8.23-7.69Z"/>
      <path class="st3" d="M151.38,114.9h6.89v6.1h-6.89v-6.1ZM151.65,125.3h6.42v28.01h-6.42v-28.01Z"/>
      <path class="st3" d="M166.45,125.3h6.42v4.35c1.8-2.66,4.41-4.93,8.75-4.93,6.32,0,9.98,4.25,9.98,10.77v17.83h-6.42v-15.92c0-4.35-2.18-6.84-6-6.84s-6.32,2.6-6.32,6.95v15.81h-6.42v-28.01h0Z"/>
      <path class="st3" d="M199.29,158.57l2.39-4.82c2.97,1.86,6.16,2.97,9.98,2.97,5.73,0,8.86-2.97,8.86-8.59v-2.18c-2.34,3.02-5.25,5.14-9.87,5.14-6.58,0-12.73-4.88-12.73-13.1v-.11c0-8.28,6.21-13.16,12.73-13.16,4.72,0,7.64,2.18,9.82,4.77v-4.19h6.42v22.28c0,4.72-1.22,8.23-3.55,10.55-2.55,2.55-6.48,3.77-11.51,3.77-4.62,0-8.91-1.16-12.52-3.34h0ZM220.56,137.98v-.11c0-4.62-3.77-7.75-8.23-7.75s-7.96,3.07-7.96,7.69v.11c0,4.62,3.55,7.75,7.96,7.75s8.23-3.18,8.23-7.69Z"/>
      <path class="st3" d="M249.9,134.85v-.11c0-10.39,7.96-19.21,19.15-19.21,6.48,0,10.45,1.8,14.27,5.04l-4.14,4.93c-2.86-2.44-5.68-3.98-10.39-3.98-6.84,0-12.05,6-12.05,13.11v.11c0,7.64,5.04,13.26,12.62,13.26,3.5,0,6.68-1.11,8.96-2.82v-6.95h-9.5v-5.68h15.81v15.6c-3.66,3.13-8.91,5.78-15.49,5.78-11.62,0-19.26-8.28-19.26-19.1h0Z"/>
      <path class="st3" d="M292.76,114.58h6.42v38.73h-6.42v-38.73Z"/>
      <path class="st3" d="M306.02,139.47v-.11c0-8.01,6.37-14.64,14.96-14.64s14.91,6.53,14.91,14.53v.11c0,7.96-6.37,14.59-15.01,14.59s-14.85-6.53-14.85-14.48h0ZM329.47,139.47v-.11c0-4.93-3.55-9.02-8.59-9.02s-8.44,4.03-8.44,8.91v.11c0,4.88,3.55,9.02,8.54,9.02s8.49-4.09,8.49-8.91h0Z"/>
      <path class="st3" d="M348.82,148.96v4.35h-6.42v-38.73h6.42v15.39c2.07-2.91,4.98-5.25,9.5-5.25,6.63,0,13.05,5.25,13.05,14.53v.11c0,9.28-6.37,14.53-13.05,14.53-4.62,0-7.53-2.34-9.5-4.93h0ZM364.85,139.36v-.11c0-5.41-3.66-8.96-8.01-8.96s-8.17,3.61-8.17,8.96v.11c0,5.41,3.82,8.96,8.17,8.96s8.01-3.45,8.01-8.96Z"/>
      <path class="st3" d="M395.09,153.31v-3.45c-1.91,2.28-4.82,4.03-9.07,4.03-5.3,0-9.98-3.02-9.98-8.64v-.11c0-6.21,4.82-9.18,11.35-9.18,3.39,0,5.57.48,7.75,1.16v-.53c0-3.87-2.44-6-6.89-6-3.13,0-5.46.69-8.01,1.75l-1.75-5.14c3.07-1.38,6.1-2.34,10.66-2.34,8.28,0,12.3,4.35,12.3,11.83v16.6h-6.37v.02h0ZM395.25,141.59c-1.64-.64-3.93-1.11-6.42-1.11-4.03,0-6.42,1.64-6.42,4.35v.11c0,2.66,2.39,4.14,5.41,4.14,4.25,0,7.43-2.39,7.43-5.89v-1.59h0Z"/>
      <path class="st3" d="M409.46,114.58h6.42v38.73h-6.42v-38.73Z"/>
      <path class="st3" d="M441.29,116.17h6.53v37.13h-6.53v-37.13Z"/>
      <path class="st3" d="M456.99,125.3h6.42v4.35c1.8-2.66,4.41-4.93,8.75-4.93,6.32,0,9.98,4.25,9.98,10.77v17.83h-6.42v-15.92c0-4.35-2.18-6.84-6-6.84s-6.32,2.6-6.32,6.95v15.81h-6.42v-28.01h0Z"/>
      <path class="st3" d="M489.88,125.3h6.42v4.35c1.8-2.66,4.41-4.93,8.75-4.93,6.32,0,9.98,4.25,9.98,10.77v17.83h-6.42v-15.92c0-4.35-2.18-6.84-6-6.84s-6.32,2.6-6.32,6.95v15.81h-6.42v-28.01h0Z"/>
      <path class="st3" d="M521.23,139.47v-.11c0-8.01,6.37-14.64,14.96-14.64s14.91,6.53,14.91,14.53v.11c0,7.96-6.37,14.59-15.01,14.59s-14.85-6.53-14.85-14.48h0ZM544.68,139.47v-.11c0-4.93-3.55-9.02-8.59-9.02s-8.44,4.03-8.44,8.91v.11c0,4.88,3.55,9.02,8.54,9.02s8.49-4.09,8.49-8.91h0Z"/>
      <path class="st3" d="M553.38,125.3h6.89l7.53,20.58,7.59-20.58h6.73l-11.46,28.23h-5.78s-11.51-28.23-11.51-28.23Z"/>
      <path class="st3" d="M603.4,153.31v-3.45c-1.91,2.28-4.82,4.03-9.07,4.03-5.3,0-9.98-3.02-9.98-8.64v-.11c0-6.21,4.82-9.18,11.35-9.18,3.39,0,5.57.48,7.75,1.16v-.53c0-3.87-2.44-6-6.89-6-3.13,0-5.46.69-8.01,1.75l-1.75-5.14c3.07-1.38,6.1-2.34,10.66-2.34,8.28,0,12.3,4.35,12.3,11.83v16.6h-6.37v.02h0ZM603.56,141.59c-1.64-.64-3.93-1.11-6.42-1.11-4.03,0-6.42,1.64-6.42,4.35v.11c0,2.66,2.39,4.14,5.41,4.14,4.25,0,7.43-2.39,7.43-5.89v-1.59h0Z"/>
      <path class="st3" d="M618.46,145.57v-14.75h-3.55v-5.52h3.55v-7.69h6.42v7.69h7.53v5.52h-7.53v13.74c0,2.5,1.27,3.5,3.45,3.5,1.43,0,2.71-.32,3.98-.95v5.25c-1.59.91-3.39,1.43-5.78,1.43-4.72,0-8.07-2.07-8.07-8.23h0Z"/>
      <path class="st3" d="M638.99,114.9h6.89v6.1h-6.89v-6.1ZM639.26,125.3h6.42v28.01h-6.42v-28.01Z"/>
      <path class="st3" d="M652.52,139.47v-.11c0-8.01,6.37-14.64,14.96-14.64s14.91,6.53,14.91,14.53v.11c0,7.96-6.37,14.59-15.01,14.59s-14.85-6.53-14.85-14.48h0ZM675.98,139.47v-.11c0-4.93-3.55-9.02-8.59-9.02s-8.44,4.03-8.44,8.91v.11c0,4.88,3.55,9.02,8.54,9.02s8.49-4.09,8.49-8.91h0Z"/>
      <path class="st3" d="M688.91,125.3h6.42v4.35c1.8-2.66,4.41-4.93,8.75-4.93,6.32,0,9.98,4.25,9.98,10.77v17.83h-6.42v-15.92c0-4.35-2.18-6.84-6-6.84s-6.32,2.6-6.32,6.95v15.81h-6.42v-28.01h0Z"/>
      <path class="st3" d="M754.85,153.31v-3.45c-1.91,2.28-4.82,4.03-9.07,4.03-5.3,0-9.98-3.02-9.98-8.64v-.11c0-6.21,4.82-9.18,11.35-9.18,3.39,0,5.57.48,7.75,1.16v-.53c0-3.87-2.44-6-6.89-6-3.13,0-5.46.69-8.01,1.75l-1.75-5.14c3.07-1.38,6.1-2.34,10.66-2.34,8.28,0,12.3,4.35,12.3,11.83v16.6h-6.37v.02h0ZM755.01,141.59c-1.64-.64-3.93-1.11-6.42-1.11-4.03,0-6.42,1.64-6.42,4.35v.11c0,2.66,2.39,4.14,5.41,4.14,4.25,0,7.43-2.39,7.43-5.89v-1.59h0Z"/>
      <path class="st3" d="M768.86,125.3h6.42v4.35c1.8-2.66,4.41-4.93,8.75-4.93,6.32,0,9.98,4.25,9.98,10.77v17.83h-6.42v-15.92c0-4.35-2.18-6.84-6-6.84s-6.32,2.6-6.32,6.95v15.81h-6.42v-28.01h0Z"/>
      <path class="st3" d="M800.31,139.36v-.11c0-9.28,6.32-14.53,13-14.53,4.62,0,7.53,2.34,9.55,4.93v-15.07h6.42v38.73h-6.42v-4.67c-2.07,2.91-4.98,5.25-9.55,5.25-6.58,0-13-5.25-13-14.53h0ZM822.97,139.36v-.11c0-5.41-3.82-8.96-8.12-8.96s-8.07,3.39-8.07,8.96v.11c0,5.41,3.71,8.96,8.07,8.96s8.12-3.61,8.12-8.96Z"/>
      <path class="st3" d="M853.94,116.17h27.53v5.84h-21.01v9.66h18.62v5.84h-18.62v9.98h21.28v5.84h-27.8v-37.15Z"/>
      <path class="st3" d="M896.6,139.09l-9.92-13.8h7l6.48,9.23,6.48-9.23h6.84l-9.92,13.64,10.35,14.37h-7l-6.89-9.82-6.84,9.82h-6.84l10.3-14.21h-.02Z"/>
      <path class="st3" d="M916.11,139.47v-.11c0-7.96,6.16-14.64,14.53-14.64,5.3,0,8.59,1.96,11.19,4.82l-3.98,4.3c-1.96-2.07-4.03-3.5-7.27-3.5-4.67,0-8.07,4.03-8.07,8.91v.11c0,4.98,3.45,9.02,8.39,9.02,3.02,0,5.25-1.43,7.27-3.5l3.87,3.82c-2.76,3.07-6,5.25-11.46,5.25-8.33,0-14.48-6.53-14.48-14.48h0Z"/>
      <path class="st3" d="M945.61,139.41v-.11c0-8.01,5.68-14.59,13.69-14.59,8.91,0,13.42,7,13.42,15.07,0,.59-.05,1.16-.11,1.8h-20.58c.69,4.57,3.93,7.11,8.07,7.11,3.13,0,5.36-1.16,7.59-3.34l3.77,3.34c-2.66,3.18-6.32,5.25-11.46,5.25-8.12,0-14.37-5.89-14.37-14.53h0ZM966.36,137.34c-.43-4.14-2.86-7.37-7.11-7.37-3.93,0-6.68,3.02-7.27,7.37h14.38Z"/>
      <path class="st3" d="M979.19,125.3h6.42v4.67c2.07-2.91,4.98-5.25,9.5-5.25,6.63,0,13.05,5.25,13.05,14.53v.11c0,9.28-6.37,14.53-13.05,14.53-4.62,0-7.53-2.34-9.5-4.93v12.84h-6.42v-36.51h0ZM1001.63,139.36v-.11c0-5.41-3.66-8.96-8.01-8.96s-8.17,3.61-8.17,8.96v.11c0,5.41,3.82,8.96,8.17,8.96s8.01-3.45,8.01-8.96Z"/>
      <path class="st3" d="M1016.05,145.57v-14.75h-3.55v-5.52h3.55v-7.69h6.42v7.69h7.53v5.52h-7.53v13.74c0,2.5,1.27,3.5,3.45,3.5,1.43,0,2.71-.32,3.98-.95v5.25c-1.59.91-3.39,1.43-5.78,1.43-4.72,0-8.07-2.07-8.07-8.23h0Z"/>
      <path class="st3" d="M1036.59,114.9h6.89v6.1h-6.89v-6.1ZM1036.85,125.3h6.42v28.01h-6.42v-28.01Z"/>
      <path class="st3" d="M1050.11,139.47v-.11c0-8.01,6.37-14.64,14.96-14.64s14.91,6.53,14.91,14.53v.11c0,7.96-6.37,14.59-15.01,14.59s-14.85-6.53-14.85-14.48h0ZM1073.56,139.47v-.11c0-4.93-3.55-9.02-8.59-9.02s-8.44,4.03-8.44,8.91v.11c0,4.88,3.55,9.02,8.54,9.02s8.49-4.09,8.49-8.91h0Z"/>
      <path class="st3" d="M1086.5,125.3h6.42v4.35c1.8-2.66,4.41-4.93,8.75-4.93,6.32,0,9.98,4.25,9.98,10.77v17.83h-6.42v-15.92c0-4.35-2.18-6.84-6-6.84s-6.32,2.6-6.32,6.95v15.81h-6.42v-28.01h0Z"/>
      <path class="st3" d="M1136.53,153.31v-3.45c-1.91,2.28-4.82,4.03-9.07,4.03-5.3,0-9.98-3.02-9.98-8.64v-.11c0-6.21,4.82-9.18,11.35-9.18,3.39,0,5.57.48,7.75,1.16v-.53c0-3.87-2.44-6-6.89-6-3.13,0-5.46.69-8.01,1.75l-1.75-5.14c3.07-1.38,6.1-2.34,10.66-2.34,8.28,0,12.3,4.35,12.3,11.83v16.6h-6.37v.02h0ZM1136.69,141.59c-1.64-.64-3.93-1.11-6.42-1.11-4.03,0-6.42,1.64-6.42,4.35v.11c0,2.66,2.39,4.14,5.41,4.14,4.25,0,7.43-2.39,7.43-5.89v-1.59h0Z"/>
      <path class="st3" d="M1150.9,114.58h6.42v38.73h-6.42v-38.73Z"/>
      <path class="st3" d="M1191.48,122.22h-11.78v-6.05h30.13v6.05h-11.78v31.09h-6.58v-31.09h0Z"/>
      <path class="st3" d="M1227.09,153.31v-3.45c-1.91,2.28-4.82,4.03-9.07,4.03-5.3,0-9.98-3.02-9.98-8.64v-.11c0-6.21,4.82-9.18,11.35-9.18,3.39,0,5.57.48,7.75,1.16v-.53c0-3.87-2.44-6-6.89-6-3.13,0-5.46.69-8.01,1.75l-1.75-5.14c3.07-1.38,6.1-2.34,10.66-2.34,8.28,0,12.3,4.35,12.3,11.83v16.6h-6.37v.02h0ZM1227.24,141.59c-1.64-.64-3.93-1.11-6.42-1.11-4.03,0-6.42,1.64-6.42,4.35v.11c0,2.66,2.39,4.14,5.41,4.14,4.25,0,7.43-2.39,7.43-5.89v-1.59h0Z"/>
      <path class="st3" d="M1241.46,114.58h6.42v38.73h-6.42v-38.73Z"/>
      <path class="st3" d="M1254.72,139.41v-.11c0-8.01,5.68-14.59,13.69-14.59,8.91,0,13.42,7,13.42,15.07,0,.59-.05,1.16-.11,1.8h-20.58c.69,4.57,3.93,7.11,8.07,7.11,3.13,0,5.36-1.16,7.59-3.34l3.77,3.34c-2.66,3.18-6.32,5.25-11.46,5.25-8.12,0-14.37-5.89-14.37-14.53h-.01ZM1275.46,137.34c-.43-4.14-2.86-7.37-7.11-7.37-3.93,0-6.68,3.02-7.27,7.37h14.38Z"/>
      <path class="st3" d="M1288.29,125.3h6.42v4.35c1.8-2.66,4.41-4.93,8.75-4.93,6.32,0,9.98,4.25,9.98,10.77v17.83h-6.43v-15.92c0-4.35-2.18-6.84-6-6.84s-6.32,2.6-6.32,6.95v15.81h-6.42v-28.01h0Z"/>
      <path class="st3" d="M1322.51,145.57v-14.75h-3.55v-5.52h3.55v-7.69h6.42v7.69h7.53v5.52h-7.53v13.74c0,2.5,1.27,3.5,3.45,3.5,1.43,0,2.71-.32,3.98-.95v5.25c-1.59.91-3.39,1.43-5.78,1.43-4.72,0-8.07-2.07-8.07-8.23h0Z"/>
    </g>
    <g class="st0">
      <path class="st4" d="M49.62,5.12c8.08,11.81,22.91,23.53,37.56,29.3-1.78,1.77-4.44,5.24-5.68,7.55-3.91-1.86-7.81-4-11.54-6.49v7.01h-20.6v12.08h24.42v7.37h-24.42v13.14h34.01v7.55H7.53v-7.55h32.95v-13.14h-24.16v-7.37h24.15v-12.08h-20.06v-7.28c-3.91,2.76-7.9,5.15-11.63,7.1-1.24-2.13-3.37-5.06-5.24-6.83,10.65-4.71,22.91-13.5,31.61-22.55h-14.2v-7.82s28.68,0,28.68,0ZM45.09,12.94c-6.4,7.73-15.36,15.72-24.33,22.02h48.48c-9.32-6.22-17.76-14.03-24.15-22.02Z"/>
      <path class="st4" d="M109.99,64.79v-23.27h-9.5v-7.73h9.5V15.95h-10.13v-7.82h27.79v7.82h-9.77v17.85h8.35v7.73h-8.35v20.96l10.22-3.1,1.06,6.57c5.95-4.79,14.12-11.63,21.67-18.29v-22.46h-21.22v-7.64h21.22V2.63h8.08v14.92h22.73v7.64h-22.73v3.28c1.06,6.22,2.31,11.63,3.91,16.33,3.82-4.71,7.99-10.56,10.65-15.09l7.28,3.82c-4.71,6.31-10.47,13.5-15.18,18.38,3.91,8.17,9.5,14.38,17.58,20.06-1.95,1.51-4.18,4.09-5.24,6.4-8.79-6.58-14.74-13.77-19-23.18v19.88c0,4.53-1.06,6.83-3.82,8.26-2.76,1.42-7.01,1.69-13.86,1.69-.36-2.22-1.78-5.86-2.93-8.08,4.79.18,9.14.09,10.56.09,1.33,0,1.95-.45,1.95-1.95v-18.29c-6.83,6.92-14.03,13.68-19.88,19.09l-5.06-7.37,1.06-.8-26.37,8.35-1.86-8.08,11.28-3.19h0ZM137.08,30.16c3.73,4.97,7.73,11.63,9.32,16.07l-7.01,3.28c-1.33-4.44-5.15-11.37-8.79-16.42l6.49-2.93ZM167.27,3.35c3.82,2.49,8.44,6.4,10.65,9.06l-4.97,4.97c-2.13-2.93-6.58-6.92-10.38-9.68l4.71-4.35h0Z"/>
      <path class="st4" d="M229.24,10.36c-3.37,1.33-7.37,2.49-11.63,3.46v13.68h12.52v7.9h-12.52v1.15c2.49,2.58,10.3,11.99,12.08,14.38l-5.06,6.58c-1.33-2.76-4.35-7.73-7.01-11.9v39.24h-8.17v-36.14c-3.37,8.08-7.37,15.72-11.46,20.78-.8-2.31-2.76-5.77-4.09-7.82,5.41-6.04,11.01-16.78,14.38-26.28h-13.14v-7.9h14.29v-11.99c-3.82.71-7.64,1.33-11.28,1.77-.27-1.86-1.42-4.71-2.31-6.49,10.04-1.6,21.49-4.27,28.5-7.28l4.88,6.83h0ZM258.44,55.21V2.45h8.26v51.32l9.77-1.6,1.24,7.82-11.01,1.86v23h-8.26v-21.58l-28.24,4.79-1.33-7.99,29.56-4.88h0ZM237.4,31.49c5.5,3.55,12.26,8.97,15.36,12.78l-5.68,5.5c-3.01-3.91-9.5-9.59-15.01-13.41l5.33-4.88h0ZM240.87,8.32c5.15,3.46,11.37,8.7,14.29,12.52l-5.86,5.32c-2.67-3.82-8.7-9.32-13.86-13.05l5.42-4.79h0Z"/>
      <path class="st4" d="M310.39,2.54v17.49h9.32v7.82h-9.32v15.72l9.06-2.4,1.06,7.64-10.13,2.93v23.54c0,4.35-.97,6.58-3.55,7.82-2.67,1.33-6.65,1.6-12.78,1.51-.36-2.04-1.42-5.41-2.49-7.64,3.91.09,7.73.09,8.88,0,1.15,0,1.69-.45,1.69-1.69v-21.22l-9.86,2.76-2.22-8.08c3.37-.8,7.55-1.78,12.08-2.93v-17.93h-11.01v-7.82h11.01V2.54h8.26,0ZM349.45,2.54v13.41h20.78v7.82h-20.78v12.17h12.61l1.51-.36,5.42,2.31c-3.55,12.34-9.68,22.02-17.49,29.56,6.13,4.71,13.5,8.17,22.02,10.38-1.86,1.69-4.17,5.06-5.41,7.19-8.97-2.67-16.69-6.74-23.18-12.08-7.28,5.33-15.63,9.23-24.6,11.9-.8-2.22-2.84-5.77-4.44-7.55,8.35-2.13,16.16-5.5,23-10.21-5.86-6.4-10.38-14.12-13.86-23.09l1.51-.45h-3.91v-7.64h18.47v-12.17h-20.15v-7.82h20.15V2.54h8.35-.02ZM345.28,62.04c5.5-5.06,10.04-11.28,13.05-18.47h-25.04c2.84,7.01,6.83,13.23,11.99,18.47h0Z"/>
      <path class="st4" d="M410.19,2.99l3.82,6.83c-3.91,1.51-8.52,3.01-12.78,4.26l.27,9.41h11.19v7.01h-10.92l.27,9.41h10.92v7.01h-10.65l.27,9.5h48.92l.54-9.14h-10.47v-7.01h10.83l.27-9.59h-10.56v-6.92h10.74l.18-9.68h-11.81v-7.28h19.54c-.09,15.81-.54,36.32-1.33,49.64h8.26v7.82h-81.16v-7.82h8.52l-1.6-46.7c5.59-1.86,12.34-4.53,16.78-6.74h-.02,0ZM419.15,69.94c-7.46,5.41-18.38,11.19-27.09,14.92-1.15-1.77-3.28-4.62-4.88-6.4,8.44-3.28,19.27-9.14,25.04-13.76l6.92,5.24h0ZM425.46,36.64c-.8,6.04-2.49,12.08-5.15,16.07-1.15-.97-3.91-2.67-5.5-3.37,2.58-3.73,3.55-8.7,4.18-13.86l6.49,1.15h0ZM424.03,3.17v7.37h14.47v7.01h-14.47v8.17l11.01.09h2.76v23.18c0,3.1-.62,4.53-2.76,5.5-2.13.89-5.41.89-9.77.89-.27-1.69-1.15-3.82-1.95-5.41,2.84.18,5.42.18,6.31.09.89,0,1.06-.27,1.06-1.06v-16.6h-13.86V3.17h7.19,0ZM439.48,64.26c9.41,4.35,19.72,9.86,25.83,13.94l-5.5,6.4c-5.86-4.17-15.81-10.04-24.95-14.47l4.62-5.86h0Z"/>
      <path class="st4" d="M513.18,7.97v7.9h-10.38v56.47c0,4.71-.97,6.92-3.91,8.35-2.93,1.33-7.55,1.51-14.38,1.51-.36-2.22-1.51-5.86-2.58-8.17,4.71.18,9.32.09,10.74.09,1.42-.09,1.86-.53,1.86-1.86V15.86h-13.41v-7.9s32.06,0,32.06,0ZM534.13,73.14c-5.77,4.53-15.01,9.06-22.73,11.63-1.15-1.69-3.55-4.17-5.24-5.86,7.55-2.4,16.51-6.74,20.96-10.47,0,0,7.01,4.71,7.01,4.71ZM531.91,21.11c.62-2.4,1.15-5.06,1.6-7.55h-19v-7.19h48.83v7.19h-20.24l-2.76,7.55h20.06v46.61h-42.97V21.11h14.47ZM525.26,34.69h26.91v-7.28h-26.91v7.28ZM525.26,48.01h26.91v-7.37h-26.91v7.37ZM525.26,61.41h26.91v-7.46h-26.91v7.46ZM547.36,68.78c5.77,3.1,13.68,7.9,17.85,11.28l-6.74,4.97c-3.64-3.28-11.37-8.35-17.41-11.72l6.31-4.53h0Z"/>
      <path class="st4" d="M622.29,38.86c-.27,3.1-.62,6.13-1.15,8.96h36.32v7.55h-33.38c5.68,12.43,16.78,19.54,34.89,21.93-1.78,1.78-3.91,5.24-4.88,7.64-18.47-3.37-29.48-11.1-36.23-24.86-4.71,11.72-14.38,20.15-36.05,24.77-.8-2.13-2.84-5.41-4.44-7.19,21.04-4.09,29.3-11.63,33.03-22.29h-32.14v-7.55h34.01c.45-2.84.8-5.77,1.06-8.96h8.96-.01ZM602.86,12.4c-4.26,9.86-11.19,19.8-17.76,26.19-1.51-1.42-4.79-4-6.65-5.24,6.57-5.59,12.87-14.38,16.42-23.18l7.99,2.22h0ZM621.68,2.54v33.65h-8.79V2.54h8.79ZM638.46,10c7.28,7.1,15.54,16.96,19.18,23.88l-7.73,4.09c-3.28-6.65-11.19-16.96-18.47-24.33l7.01-3.64s0,0,0,0Z"/>
      <path class="st4" d="M717.66,2.72c-.09,3.46-.18,8.08-.62,13.41,1.24,11.19,6.74,46.97,38.09,60.91-2.49,1.95-4.97,4.88-6.22,7.19-21.04-9.95-30.9-29.65-35.6-45.82-4.53,16.87-14.03,34.98-34.28,46.26-1.42-2.22-4.17-4.88-6.92-6.74,36.68-19,35.69-60.91,35.96-75.2h9.59Z"/>
      <path class="st4" d="M825.71,2.54v17.85h22.11v8.61h-22.11v43.96c0,5.59-1.33,7.99-4.88,9.41-3.46,1.42-9.06,1.6-17.93,1.6-.36-2.49-1.69-6.4-2.93-8.88,5.95.27,12.26.18,13.94.18,1.86-.09,2.58-.62,2.58-2.4V31.67c-10.13,16.78-26.46,33.83-42.62,43.15-1.51-2.4-4.17-5.59-6.57-7.55,15.45-7.82,30.99-23,40.57-38.27h-37.74v-8.61h46.34V2.54h9.25,0Z"/>
      <path class="st4" d="M920.54,4.24c-1.06,4.09-2.31,8.17-3.73,12.17h26.01v4c-1.33,40.49-2.4,54.43-6.04,58.87-2.22,3.01-4.44,3.82-7.82,4.26-3.1.36-8.44.27-13.5,0-.18-2.31-1.24-5.86-2.84-8.17,5.77.54,11.1.54,13.32.54,1.78,0,2.76-.27,3.82-1.42,2.76-3.01,4-16.51,5.06-50.34h-21.04c-2.49,5.77-5.33,10.92-8.26,15-1.33-1.24-4.53-3.37-6.49-4.62v41.2h-24.33v6.83h-7.73V16.85h10.13c1.15-4.35,2.49-10.13,3.01-14.47l9.14,1.51c-1.42,4.44-3.19,9.14-4.71,12.96h14.47v16.87c5.86-7.73,10.65-19.63,13.41-31.34l8.08,1.86h.02,0ZM874.72,41.17h16.6v-16.87h-16.6v16.87ZM891.33,68.17v-19.72h-16.6v19.72h16.6ZM914.76,36.91c4.71,6.22,10.74,14.74,13.59,19.98l-7.1,4.44c-2.58-5.41-8.35-14.2-13.05-20.69l6.57-3.73h0Z"/>
      <path class="st4" d="M1003.55,30.25v27h-30.99l-.54,3.55h33.65v23.44h-7.37v-3.1h-19.36v3.28h-7.1v-22.46c-1.24,6.92-3.37,13.86-6.83,19.54-1.51-1.15-5.15-2.76-7.19-3.46,7.01-11.01,7.82-26.28,7.82-36.59v-11.19s37.91,0,37.91,0ZM991.39,5.75l-1.51,2.31c6.74,4,14.74,8.79,19,12.08l-4.44,7.01c-4.26-3.46-12.34-8.79-19.27-13.14-2.31,2.58-4.79,4.97-7.46,7.19h17.05v5.24h-18.56v-4c-4.35,3.55-9.14,6.65-13.77,9.05-.8-1.86-3.02-5.95-4.53-7.9,10.13-4.53,20.24-11.99,25.75-20.78,0,0,7.73,2.93,7.73,2.93ZM973.18,51.3h22.73v-5.06h-22.46l-.27,5.06h0ZM995.91,40.99v-4.79h-22.37v4.79h22.37ZM998.31,74.73v-7.99h-19.36v7.99h19.36ZM1020.24,12.05v49.46h-7.9V12.05h7.9ZM1036.93,2.9v71.48c0,4.88-1.06,7.28-3.91,8.61-2.84,1.42-7.55,1.69-14.83,1.69-.36-2.31-1.51-6.04-2.67-8.44,5.15.18,9.86.18,11.28.09,1.51,0,2.04-.45,2.04-2.04V2.9h8.09Z"/>
      <path class="st4" d="M1068.73,59.82c-2.22,6.4-5.86,13.5-9.14,18.11-1.24-1.06-4-3.1-5.68-3.91,3.28-4.26,6.31-10.38,8.26-16.07l6.57,1.86h0ZM1090.92,20.22c-1.51,3.91-3.1,8.08-4.62,11.45h10.47v7.01h-16.42v8.17h15.18v7.19h-15.18v30.46h-8.17v-30.46h-17.32v-7.19h17.32v-8.17h-17.76v-7.01h9.77c-.36-3.02-1.6-7.73-3.1-11.28l6.83-1.6c1.51,3.46,2.93,8.08,3.37,11.01l-6.74,1.86h14.2c1.6-3.82,3.46-9.23,4.44-13.05l7.73,1.6h0ZM1077.33,1.84c1.6,3.02,3.37,6.74,4.44,9.77h13.59v6.92h-39.51v-6.92h16.42c-.97-2.58-2.13-5.33-3.28-7.64l8.35-2.13ZM1089.06,57.15c2.84,4.26,5.95,9.86,7.37,13.5l-5.77,3.46c-1.42-3.73-4.53-9.59-7.19-13.94l5.59-3.01h0ZM1128.03,3.79l6.58,6.22c-7.37,2.84-17.05,4.97-26.19,6.58v15.63h27.79v7.81h-9.14v44.48h-8.17v-44.48h-10.47v2.22c0,12.96-1.15,30.9-9.14,42.36-1.33-1.51-4.71-4.08-6.49-4.97,7.19-10.47,7.73-25.66,7.73-37.38V11.07c9.95-1.69,21.04-4.44,27.52-7.28h-.02Z"/>
      <path class="st4" d="M1190.81,58.76c5.41-5.15,9.59-11.46,12.43-19.09l8.52,2.49c-3.64,8.79-8.52,15.99-14.65,21.93,8.97,6.31,20.33,10.65,34.1,12.78-1.78,1.78-4.09,5.24-5.15,7.55-14.47-2.67-26.1-7.64-35.34-14.92-9.68,7.28-21.58,12.17-35.43,15.54-.89-1.95-3.46-5.68-5.06-7.55,13.68-2.76,25.22-7.01,34.28-13.5-5.68-5.95-10.3-13.14-13.86-21.49l7.55-2.4c2.93,7.19,7.19,13.5,12.61,18.64h0ZM1181.75,27.67c-6.13,7.64-15.63,15.72-23.45,20.69-1.6-1.69-4.79-4.88-6.65-6.22,7.9-4.26,16.69-11.1,21.93-17.67l8.17,3.19h0ZM1190.54,1.57c2.4,3.64,5.33,8.7,6.49,11.9l-2.31.89h34.45v8.17h-77.43v-8.17h36.05c-1.24-3.1-3.28-6.92-5.24-10.04l7.99-2.76h0ZM1206.78,24.21c7.9,5.33,18.02,13.41,22.91,19l-7.1,5.51c-4.44-5.59-14.38-14.03-22.46-19.72l6.65-4.79Z"/>
      <path class="st4" d="M1288.83,6.18v7.19h-42.97v-7.19s42.97,0,42.97,0ZM1287.32,40.46v35.87c0,3.19-.54,5.15-2.76,6.31-2.04.97-5.24,1.15-9.77,1.15-.18-1.95-1.06-4.62-1.86-6.49,2.84.09,5.59.09,6.4.09.89-.09,1.15-.36,1.15-1.15v-29.39h-26.82v37.91h-6.49v-44.31h40.14,0ZM1284.56,17.64v18.65h-34.36v-18.65s34.36,0,34.36,0ZM1278.09,50.23c-1.78,3.37-3.64,7.19-5.41,10.3h5.15v5.41h-7.64v16.25h-6.13v-16.25h-7.99v-5.41h11.19c1.95-3.64,4.35-8.88,5.5-12.43l5.33,2.13h0ZM1261.21,48.54c2.04,3.02,4.09,7.19,4.79,9.86l-4.79,1.86c-.62-2.76-2.67-6.92-4.53-10.13l4.53-1.6h0ZM1257.31,30.43h19.72v-6.92h-19.72v6.92ZM1303.83,19.86V3.44h7.37v16.42h12.61v34.89h-12.61v17.23l6.92-1.06c-.97-3.64-2.13-7.28-3.28-10.47l5.86-1.33c3.02,7.82,5.95,18.02,6.83,24.06l-6.31,1.78c-.27-2.04-.71-4.44-1.33-7.19-10.04,1.95-20.33,3.82-28.24,5.15l-1.86-7.64,14.03-2.04v-18.47h-12.7V19.86h12.71ZM1297.26,47.48h7.19v-20.42h-7.19v20.42ZM1310.58,47.48h6.83v-20.42h-6.83v20.42Z"/>
    </g>
  </g>
  <g class="st1">
    <path class="st3" d="M178.48,236.73h39.38v11.58h-39.38v-11.58Z"/>
    <path class="st3" d="M254.26,199.34h20.77c15.78,0,24.97,9.42,24.97,25.65v27.8c0,16.34-9.19,25.99-24.74,25.99h-21v-79.44h0ZM275.26,265.51c6.92,0,10.66-4.43,10.66-12.82v-27.69c0-8.18-3.74-12.37-10.66-12.37h-7.03v52.89h7.03Z"/>
    <path class="st3" d="M351.64,259.83c-1.13,12.82-9.08,20.31-22.01,20.31s-21-8.62-21-23.15v-16.91c0-14.41,7.95-22.81,21.22-22.81s21.57,8.4,21.57,22.81v13.39h-29.39v3.52c0,7.15,2.83,10.33,7.83,10.33,5.33,0,7.26-2.27,8.29-7.49h13.51ZM322.02,239.97v3.97h16.11v-3.97c0-7.03-2.83-10.22-8.17-10.22s-7.95,3.17-7.95,10.22h0Z"/>
    <path class="st3" d="M360.38,257.79v-18.27c0-13.96,7.83-22.24,20.88-22.24,13.74,0,21.11,8.29,21.57,22.24h-13.51c-.23-6.24-2.95-9.42-7.83-9.42s-7.6,3.18-7.6,9.42v18.27c0,6.36,2.73,9.53,7.6,9.53s7.6-3.17,7.95-9.53h13.51c-.34,14.08-8.51,22.36-21.68,22.36s-20.88-8.29-20.88-22.36h0Z"/>
    <path class="st3" d="M438.18,270.16c0-25.65,28.94-36.77,28.94-51.53,0-4.2-2.39-8.06-7.6-8.06-4.76,0-7.72,3.4-7.95,9.53h-12.71c.68-14.3,8.17-22.13,20.54-22.13,14.18,0,21,10.1,21,20.08,0,20.88-28.26,33.7-28.26,48.34h28.72v12.37h-42.67v-8.62h0Z"/>
    <path class="st3" d="M489.36,256.77v-35.18c0-14.52,8.29-23.38,21.9-23.38s22.13,8.85,22.13,23.38v35.18c0,14.41-8.29,23.15-22.13,23.15s-21.9-8.74-21.9-23.15ZM520.34,256.88v-35.18c0-7.15-3.18-10.89-9.08-10.89s-8.96,3.75-8.96,10.89v35.18c0,6.92,3.17,10.66,8.96,10.66s9.08-3.74,9.08-10.66Z"/>
    <path class="st3" d="M541.22,270.16c0-25.65,28.94-36.77,28.94-51.53,0-4.2-2.39-8.06-7.6-8.06-4.76,0-7.72,3.4-7.95,9.53h-12.71c.68-14.3,8.17-22.13,20.54-22.13,14.18,0,21,10.1,21,20.08,0,20.88-28.26,33.7-28.26,48.34h28.72v12.37h-42.67v-8.62h0Z"/>
    <path class="st3" d="M633.6,246.55v9.76c0,15.44-8.17,23.83-20.77,23.83s-20.31-8.4-20.65-22.24h13.28c.34,6.69,2.73,9.19,7.38,9.19s7.26-2.61,7.26-11.12v-8.51c0-7.83-2.39-10.44-6.81-10.44-4.09,0-6.47,2.61-7.38,6.92h-12.59v-44.6h37.68v11.92h-24.86v15.78c2.61-1.7,5.9-2.73,9.65-2.73,10.33,0,17.82,7.83,17.82,22.24h0Z"/>
    <path class="st3" d="M692.73,187.09h3.63v97.37h-3.63v-97.37h0Z"/>
    <path class="st3" d="M799.41,212.62h-16.01v66.17h-14.3v-66.17h-16.01v-13.28h46.3v13.28h.01Z"/>
    <path class="st3" d="M838.68,239.86v38.92h-10.78l-.8-5.67c-2.39,4.2-6.59,7.26-13.28,7.26-11.01,0-18.04-7.72-18.04-18.73,0-12.48,9.08-18.61,22.36-18.61h7.03v-3.17c0-6.13-1.82-9.65-6.81-9.65-3.74,0-6.92,1.93-7.49,6.59h-13.39c.57-12.15,8.4-19.52,21.11-19.52,13.62,0,20.08,7.95,20.08,22.58h.01ZM825.17,253.93h-6.81c-5.67,0-8.96,2.61-8.96,7.72,0,4.09,2.5,7.03,7.6,7.03s8.18-3.17,8.18-8.62v-6.13h0Z"/>
    <path class="st3" d="M849.8,201.61c0-4.54,3.17-7.83,7.72-7.83s7.83,3.29,7.83,7.83c0,4.2-3.4,7.83-7.83,7.83s-7.72-3.4-7.72-7.83ZM850.81,218.75h13.39v60.03h-13.39v-60.03h0Z"/>
    <path class="st3" d="M919.02,240.88v16.01c0,14.41-7.72,23.38-19.3,23.38-3.86,0-7.49-1.47-10.22-3.97v22.93h-13.05v-80.57h9.31l.8,5.56c2.95-3.74,8.06-6.8,13.16-6.8,11.58,0,19.3,9.08,19.3,23.5v-.02ZM905.4,240.88c0-7.26-2.83-10.78-7.72-10.78s-8.18,3.63-8.18,10.78v16.01c0,6.81,2.95,10.66,8.18,10.66s7.72-3.4,7.72-10.66v-16.01h0Z"/>
    <path class="st3" d="M971.45,259.83c-1.13,12.82-9.08,20.31-22.01,20.31s-21-8.62-21-23.15v-16.91c0-14.41,7.95-22.81,21.22-22.81s21.57,8.4,21.57,22.81v13.39h-29.39v3.52c0,7.15,2.83,10.33,7.83,10.33,5.33,0,7.26-2.27,8.29-7.49h13.51,0ZM941.83,239.97v3.97h16.11v-3.97c0-7.03-2.83-10.22-8.17-10.22s-7.95,3.17-7.95,10.22Z"/>
    <path class="st3" d="M980.53,201.61c0-4.54,3.17-7.83,7.72-7.83s7.83,3.29,7.83,7.83c0,4.2-3.4,7.83-7.83,7.83s-7.72-3.4-7.72-7.83ZM981.55,218.75h13.39v60.03h-13.39v-60.03h0Z"/>
    <path class="st3" d="M1006.07,266.3h12.82l-7.15,28.37h-7.95l2.27-28.37h0Z"/>
    <path class="st3" d="M1093.23,212.62h-16.01v66.17h-14.3v-66.17h-16.01v-13.28h46.3v13.28h0Z"/>
    <path class="st3" d="M1132.49,239.86v38.92h-10.78l-.8-5.67c-2.39,4.2-6.59,7.26-13.28,7.26-11.01,0-18.04-7.72-18.04-18.73,0-12.48,9.08-18.61,22.36-18.61h7.03v-3.17c0-6.13-1.82-9.65-6.81-9.65-3.74,0-6.92,1.93-7.49,6.59h-13.39c.57-12.15,8.4-19.52,21.11-19.52,13.62,0,20.08,7.95,20.08,22.58h.01ZM1118.98,253.93h-6.81c-5.67,0-8.96,2.61-8.96,7.72,0,4.09,2.5,7.03,7.6,7.03s8.18-3.17,8.18-8.62v-6.13h0Z"/>
    <path class="st3" d="M1143.61,201.61c0-4.54,3.17-7.83,7.72-7.83s7.83,3.29,7.83,7.83c0,4.2-3.4,7.83-7.83,7.83s-7.72-3.4-7.72-7.83ZM1144.63,218.75h13.39v60.03h-13.39v-60.03h0Z"/>
    <path class="st3" d="M1237.92,218.75l-13.96,60.03h-14.41l-3.97-17.25c-2.04-8.85-3.63-18.84-4.09-25.43h-.57c-.57,6.59-2.16,16.57-4.09,25.43l-3.97,17.25h-14.52l-13.96-60.03h13.85l4.2,23.71c1.13,6.92,2.73,17.02,3.18,21.57h.57c.68-5.33,2.16-13.96,3.4-21l4.54-23.15h14.18l4.43,23.15c1.25,7.03,2.73,15.66,3.4,21h.57c.46-4.54,2.04-14.64,3.18-21.57l4.2-23.71h13.85,0Z"/>
    <path class="st3" d="M1282.29,239.86v38.92h-10.78l-.8-5.67c-2.39,4.2-6.59,7.26-13.28,7.26-11.01,0-18.04-7.72-18.04-18.73,0-12.48,9.08-18.61,22.36-18.61h7.03v-3.17c0-6.13-1.82-9.65-6.81-9.65-3.74,0-6.92,1.93-7.49,6.59h-13.39c.57-12.15,8.4-19.52,21.11-19.52,13.62,0,20.08,7.95,20.08,22.58h.01ZM1268.78,253.93h-6.81c-5.67,0-8.96,2.61-8.96,7.72,0,4.09,2.5,7.03,7.6,7.03s8.18-3.17,8.18-8.62v-6.13h0Z"/>
    <path class="st3" d="M1336.43,241.56v37.22h-13.39v-36.88c0-8.51-2.39-11.81-7.03-11.81-4.99,0-8.18,3.86-8.18,11.12v37.56h-13.39v-60.03h9.08l1.13,6.47c3.06-5.1,7.95-7.95,14.52-7.95,10.78,0,17.25,7.95,17.25,24.28v.02Z"/>
    <g>
      <path class="st3" d="M3.53,253.23v-28.4c0-16.81,9.31-26.92,25.1-26.92s24.99,10.11,24.99,26.92v28.4c0,16.81-9.31,26.92-24.99,26.92s-25.1-10.11-25.1-26.92ZM39.2,253.23v-28.4c0-8.63-3.52-13.4-10.56-13.4s-10.67,4.77-10.67,13.4v28.4c0,8.63,3.63,13.4,10.67,13.4s10.56-4.77,10.56-13.4Z"/>
      <path class="st3" d="M62.25,257.78v-18.28c0-13.98,7.84-22.26,20.9-22.26,13.75,0,21.13,8.3,21.58,22.26h-13.52c-.23-6.25-2.95-9.43-7.84-9.43s-7.61,3.18-7.61,9.43v18.28c0,6.36,2.73,9.54,7.61,9.54s7.61-3.18,7.95-9.54h13.52c-.34,14.09-8.51,22.37-21.69,22.37s-20.9-8.3-20.9-22.37h0Z"/>
      <path class="st3" d="M141.31,266.98v12.6h-4.55c-12.49,0-20.1-8.07-20.1-21.01v-27.71h-8.07v-12.16h8.07v-14.31h13.29v14.31h10.45v12.16h-10.45v27.83c0,5.68,2.39,8.3,7.61,8.3h3.75Z"/>
    </g>
  </g>
</svg>