<?xml version="1.0" encoding="UTF-8"?>
<svg id="_圖層_1" data-name="圖層_1" xmlns="http://www.w3.org/2000/svg" xmlns:xlink="http://www.w3.org/1999/xlink" version="1.1" viewBox="0 0 503.82 69.09">
  <!-- Generator: Adobe Illustrator 29.6.1, SVG Export Plug-In . SVG Version: 2.1.1 Build 9)  -->
  <defs>
    <style>
      .st0 {
        fill: #fff;
      }

      .st1 {
        clip-path: url(#clippath);
      }
    </style>
    <clipPath id="clippath">
      <path class="st0" d="M59.35,17.97C28,18.52,1.45,27.21.06,37.39c-.89,6.51,8.72,12.05,23.97,15.06-10.92-3.17-14.24-8.21-13.5-13.6,1.4-10.17,24.79-18.57,56.15-19.11,11.3-.2,21.68.69,30.27,2.39-9-2.61-21.02-4.17-34.51-4.17-1.02,0-2.05,0-3.08.03"/>
    </clipPath>
  </defs>
  <g>
    <g>
      <path class="st0" d="M59.35,17.97C28,18.52,1.45,27.21.06,37.39c-.89,6.51,8.72,12.05,23.97,15.06-10.92-3.17-14.24-8.21-13.5-13.6,1.4-10.17,24.79-18.57,56.15-19.11,11.3-.2,21.68.69,30.27,2.39-9-2.61-21.02-4.17-34.51-4.17-1.02,0-2.05,0-3.08.03"/>
      <g class="st1">
        <rect class="st0" x="-.83" y="17.94" width="97.77" height="34.5"/>
      </g>
    </g>
    <path class="st0" d="M35.21,28.28c-3.23-.06-4.44,1.33-5.23,2.11-2.17,2.41-2.27,4.83-2.44,7.33-.45,5.49,10.12,3.38,9.53,7.03-.17,1.27-.72,2.74-2.03,3.14-.85.32-2.27.44-3.86.46v.02h-7.15l-.73,2.28c-.35.96.19,1.78,1.18,1.78h11.63c2-.09,3.41-.65,4.89-1.73,2.45-2.02,3.58-8.81,2.1-10.62-1.86-2.11-5.34-2.41-7.26-2.89-2.45-.79-1.93-2.11-1.58-3.44.55-1.93,2.2-1.54,3.68-1.63h5.58c.35.09.79,0,1.04-.15.17-.09.45-.39.45-.63l.79-3.05h-10.57Z"/>
    <path class="st0" d="M85.91,29.28c-1.18-.78-2.24-1-4.4-1h-12.35l-4.95,17.6-1.3,4.63h0l-.12.43c-.18.7.1.85.27,1.09.28.24.62.31,1.07.4h6.54c-.55-.09-1-.16-1.17-.4-.17-.24-.45-.6-.35-1.09l1.94-6.73h6.46c2.38,0,3.62-.45,4.85-1.09,4.13-1.93,6.4-11.38,3.51-13.85M78.68,39.26c-.55.45-1.52.84-2.48.94h-3.96l2.38-8.27h3.96c.62,0,1.23.07,1.69.51.62.63.1,5.52-1.58,6.82"/>
    <path class="st0" d="M50.78,28.32h-2.39c-.24,0-.59.06-.76.15-.17.06-.45.3-.45.54l-.81,3.32h.7c.19-.03.4-.03.56-.03h5.4l-5.34,19.27c0,.3.17.54.35.61.07,0,.41.25.59.25h6.54c.24,0-.69-.16-.76-.31,0-.09-.17-.39-.17-.54l5.09-19.27h5.99c.45,0,.69-.15.86-.24.17-.06.27-.3.45-.6l.79-3.12h-16.65Z"/>
    <path class="st0" d="M97.03,29.46h0s.31-1.14.31-1.14h-1.36s-5.19,0-5.19,0l-.22.82c-.01.1-.03.21-.06.33l-5.92,21.63c-.17.87,0,.78.28,1.03.17.15.62.31.89.31h6.44c-.28,0-.72-.31-.79-.47-.21-.24-.28-.09-.21-.93l5.84-21.57Z"/>
  </g>
  <g>
    <g>
      <g>
        <g>
          <polygon class="st0" points="157.37 7.63 149.8 7.63 151.69 3.82 155.48 3.82 157.37 7.63"/>
          <polygon class="st0" points="161.16 15.27 146.01 15.27 147.9 11.45 159.27 11.45 159.28 11.47 161.16 15.26 161.16 15.27"/>
          <polygon class="st0" points="146.01 0 153.59 0 151.69 3.82 146.01 3.82 146.01 0"/>
          <polygon class="st0" points="161.16 0 161.16 3.82 155.48 3.82 153.59 0 161.16 0"/>
          <polygon class="st0" points="146.01 7.63 149.8 7.63 147.9 11.45 146.01 11.45 146.01 7.63"/>
          <polygon class="st0" points="162.1 7.63 162.1 11.45 159.27 11.45 157.37 7.63 162.1 7.63"/>
        </g>
        <polygon class="st0" points="131.01 0 131.01 15.21 126.74 11.71 119.69 5.91 119.69 15.21 115.91 12.97 115.91 0 119.69 0 126.83 6.34 126.83 0 131.01 0"/>
        <g>
          <path class="st0" d="M176.34,15.24h-6.93c-1.82,0-3.31-1.38-3.5-3.15-.01-.12-.02-.25-.02-.37v-.3h6.2l.7.67,3.55,3.15Z"/>
          <path class="st0" d="M176.18,5.35c-.29,3.42-2.63,4.91-5.16,5.16h0s-5.25-5.63-5.25-5.63l-.41-.44v-.61h-.57l-.77-.82L161.16,0h15.02c.1,2.36.1,4.02,0,5.35Z"/>
          <rect class="st0" x="161.19" y="3.83" width="4.17" height="11.44"/>
        </g>
        <g>
          <path class="st0" d="M146.01,0c-2.41.54-3.64,1.76-4.17,3.76h-6.66c-.53-2-1.76-3.22-4.17-3.76h15Z"/>
          <path class="st0" d="M146.01,15.21h-15c3.05-.56,3.65-1.59,4.17-3.82.31-1.32.13-4.43.04-5.06h6.58c-.1.69-.02,4.35.04,5.06.17,2.14,1.12,3.26,4.17,3.82Z"/>
        </g>
      </g>
      <g>
        <g>
          <polygon class="st0" points="157.37 7.63 149.8 7.63 151.69 3.82 155.48 3.82 157.37 7.63"/>
          <polygon class="st0" points="161.16 15.27 146.01 15.27 147.9 11.45 159.27 11.45 159.28 11.47 161.16 15.26 161.16 15.27"/>
          <polygon class="st0" points="146.01 0 153.59 0 151.69 3.82 146.01 3.82 146.01 0"/>
          <polygon class="st0" points="161.16 0 161.16 3.82 155.48 3.82 153.59 0 161.16 0"/>
          <polygon class="st0" points="146.01 7.63 149.8 7.63 147.9 11.45 146.01 11.45 146.01 7.63"/>
          <path class="st0" d="M176.18,5.35c-.29,3.42-2.63,4.91-5.17,5.16l-5.25-5.63-.41-.44v10.82h-4.17v-3.82h-1.92l-1.89-3.82h3.81v-3.81h3.6l-.76-.82-2.86-3.01h15.02c.1,2.36.1,4.03,0,5.35Z"/>
        </g>
        <polygon class="st0" points="131.01 0 131.01 15.21 126.74 11.71 119.69 5.91 119.69 15.21 115.91 12.97 115.91 0 119.69 0 126.83 6.34 126.83 0 131.01 0"/>
        <path class="st0" d="M176.34,15.24h-6.93c-1.82,0-3.31-1.38-3.5-3.15-.01-.12-.02-.25-.02-.37v-.3h6.2l.7.67,3.55,3.15Z"/>
        <g>
          <path class="st0" d="M146.01,0c-2.41.54-3.64,1.76-4.17,3.76h-6.66c-.53-2-1.76-3.22-4.17-3.76h15Z"/>
          <path class="st0" d="M146.01,15.21h-15c3.05-.56,3.65-1.59,4.17-3.82.31-1.32.13-4.43.04-5.06h6.58c-.1.69-.02,4.35.04,5.06.17,2.14,1.12,3.26,4.17,3.82Z"/>
        </g>
      </g>
      <g>
        <path class="st0" d="M197.53,1.48v12.1h-1.6v-.57h-8.42v.57h-1.53V1.48h11.54ZM195.93,11.58V2.93h-1.65c.42.22.87.51,1.11.77l-.54.57h.65v1.14h-2.42c.07.76.15,1.46.26,2.07.27-.51.47-1.08.64-1.69l1.23.24c-.32,1.18-.81,2.22-1.42,3.1.18.42.38.68.61.73.16.04.27-.49.32-1.27.24.24.73.61,1,.76-.22,1.66-.92,2.18-1.81,1.77-.41-.14-.74-.45-1.01-.89-.43.43-.89.83-1.41,1.15-.18-.24-.61-.76-.88-.97.15-.08.3-.18.45-.27-1.08.16-2.15.31-3.05.46l-.15-1.18c.99-.09,2.4-.27,3.8-.46l.03.69c.24-.22.46-.45.68-.69-.28-.97-.46-2.21-.58-3.55h-3.76v-1.14h3.67c-.03-.38-.04-.76-.07-1.15h1.33c.01.39.03.77.05,1.15h1.46c-.28-.24-.69-.53-1.04-.72l.62-.62h-6.52v8.65h8.42ZM191.37,8.56h-3.02v-2.57h3.02v2.57ZM190.29,6.84h-.91v.87h.91v-.87Z"/>
        <path class="st0" d="M211.96,6.82c-.54.42-1.15.85-1.75,1.26.53,1.6,1.61,2.94,3.17,3.56-.37.3-.84.92-1.07,1.31-1.62-.77-2.69-2.22-3.36-4.06-.14.09-.28.18-.42.26.38,1.62.05,3.18-.64,3.75-.47.49-.91.62-1.61.64-.3.01-.7,0-1.1-.01-.03-.45-.16-1.08-.43-1.53.47.05.91.07,1.22.07s.54-.04.73-.32c.23-.22.39-.72.39-1.37-1.54,1.06-3.67,2.06-5.47,2.6-.18-.39-.53-.97-.84-1.34,2.14-.46,4.74-1.62,6.08-2.76-.05-.16-.12-.34-.2-.51-1.35.85-3.33,1.73-4.87,2.21-.18-.37-.51-.91-.8-1.24,1.66-.35,3.88-1.2,5.06-1.99-.12-.15-.24-.3-.38-.45-1.18.62-2.49,1.08-3.76,1.42-.15-.31-.55-.95-.81-1.26,1.53-.31,3.13-.83,4.34-1.49h-2.33v-1.37h7.56v1.37h-3c-.24.22-.51.43-.81.62.53.49.92,1.06,1.19,1.64.93-.64,1.91-1.39,2.56-2.06l1.34,1.07ZM202.7,5.03h-1.58V1.97h4.9c-.09-.26-.22-.51-.32-.72l1.71-.49c.22.37.45.81.58,1.2h4.82v3.06h-1.65v-1.6h-8.44v1.6Z"/>
        <path class="st0" d="M228.03,4.7v1.15h-2.45l-.11,1.06h-7.78l.14-1.06h-2.12v-1.15h2.29l.14-1.03h7.66l-.09,1.03h2.34ZM224.43,11.69c1.19.32,2.38.68,3.18.93l-1.1.99c-.97-.37-2.56-.91-4.11-1.31l.56-.61h-2.48l.81.6c-1.14.58-3.03,1.11-4.6,1.34-.19-.31-.57-.8-.85-1.1,1.19-.16,2.59-.47,3.56-.84h-1.94v-4.38h8.82v4.38h-1.85ZM217.53,4.35h-1.45V2h4.94c-.11-.28-.26-.57-.39-.81l1.41-.39c.23.37.47.81.62,1.2h4.94v2.35h-1.5v-1.11h-8.57v1.11ZM219.02,8.51h5.63v-.39h-5.63v.39ZM219.02,9.7h5.63v-.42h-5.63v.42ZM219.02,10.89h5.63v-.43h-5.63v.43ZM219.23,6.11h1.77l.07-.43h-1.79l-.05.43ZM219.44,4.49l-.05.39h1.77l.04-.39h-1.76ZM224.08,6.11l.04-.43h-1.73l-.05.43h1.75ZM224.21,4.49h-1.71l-.03.39h1.71l.03-.39Z"/>
        <path class="st0" d="M230.03,12.32c.26-.79.46-2.03.55-2.92l.81.28c-.09.89-.27,2.18-.5,2.94l-.87-.3ZM238.12,9.6c-.08.35-.18.7-.28,1.04.49.3,1,.69,1.27.99l-.79,1.04c-.22-.23-.58-.55-.96-.84-.32.68-.72,1.26-1.16,1.72-.2-.23-.7-.64-1.01-.87-.04.14-.08.23-.14.3-.2.3-.43.41-.74.45-.27.05-.69.07-1.12.05-.01-.37-.15-.87-.31-1.19.34.04.62.04.76.04.15,0,.24-.01.34-.15.08-.14.14-.46.19-1.16l-.47.18c-.09-.49-.34-1.2-.54-1.75l.57-.19c.16.39.35.89.47,1.3.03-.43.04-.96.07-1.61h-3.53V1.42h4.68v1.31h-1.38v.89h1.16v.31c1.43-.8,2.75-2.03,3.46-3.21l1.43.5c-.08.15-.18.28-.27.42.81.72,1.99,1.43,3.03,1.83-.23.37-.5,1.08-.6,1.48-.42-.2-.84-.46-1.26-.74v.89h-3.98v-.68c-.31.2-.61.39-.93.58-.19-.26-.6-.69-.88-.93v.74h-1.18v.8h1.2v1.18h-1.2v.85h1.5s0,.35-.01.51c-.07,2.52-.14,3.82-.3,4.44.8-.76,1.31-1.94,1.56-3.23l1.35.24ZM232.18,9.63c.08.79.12,1.79.12,2.46l-.7.08c.03-.68,0-1.71-.07-2.49l.65-.05ZM231.97,2.73v.89h.84v-.89h-.84ZM232.8,4.81h-.84v.8h.84v-.8ZM231.97,7.64h.84v-.85h-.84v.85ZM232.98,9.48c.16.7.34,1.6.39,2.18l-.68.14c-.04-.6-.19-1.52-.37-2.21l.65-.11ZM235.88,5.81h2.9v3.29h-2.9v-3.29ZM236.92,8.09h.74v-1.27h-.74v1.27ZM240.53,3.88c-.53-.39-1.04-.8-1.5-1.23-.39.45-.84.85-1.31,1.23h2.81ZM241.51,9.55c-.09.54-.22,1.07-.38,1.57.57.38,1.22.85,1.57,1.19l-.93,1.1c-.26-.28-.72-.66-1.18-1.01-.23.43-.5.84-.8,1.16-.23-.24-.83-.69-1.16-.89.79-.77,1.24-2,1.45-3.36l1.43.24ZM239.21,5.81h3v3.29h-3v-3.29ZM240.25,8.09h.85v-1.27h-.85v1.27Z"/>
        <path class="st0" d="M247.84,3c-.19.91-.43,1.83-.73,2.69h2.53v6.23h-2.58v.99h-1.34v-4.2c-.18.26-.35.5-.54.73-.05-.43-.34-1.46-.55-1.92.83-1.11,1.38-2.75,1.72-4.52h-1.43v-1.46h4.91v1.46h-1.98ZM248.28,7.11h-1.22v3.38h1.22v-3.38ZM257.37,7.93h-1.42v5.63h-1.53v-5.63h-1.54c-.08,1.99-.47,4.25-1.87,5.72-.27-.28-.85-.73-1.22-.93,1.16-1.26,1.5-3.14,1.58-4.79h-1.26v-1.52h1.29v-3.34h-.93v-1.49h6.63v1.49h-1.15v3.34h1.42v1.52ZM254.42,6.41v-3.34h-1.52v3.34h1.52Z"/>
        <path class="st0" d="M269.9,11.73c.31,0,.37-.24.42-1.92.33.28,1.07.55,1.52.69-.16,2.22-.58,2.81-1.75,2.81h-1.27c-1.33,0-1.75-.47-1.75-2.06v-1.75h-1.77c-.34,1.58-1.52,3.22-5.02,4.13-.26-.42-.76-1.03-1.14-1.38,2.8-.7,3.94-1.72,4.34-2.75h-3.32v-1.49h3.55v-1.49h1.71v1.49h3.34v3.22c0,.43.05.49.37.49h.77ZM261.24,4.85h-1.62v-2.76h4.94c-.09-.34-.19-.68-.28-.96l1.71-.27c.14.38.28.83.41,1.23h4.93v2.64h-1.69v-1.19h-1.91v1.73c0,.35.05.5.41.5h1.64c.37,0,.92-.03,1.18-.11.04.43.08.97.14,1.35-.26.08-.79.11-1.25.11h-1.83c-1.53,0-1.89-.54-1.89-1.87v-1.72h-1.39c-.26,1.92-1.03,3.07-4.13,3.72-.14-.41-.51-1-.84-1.31,2.56-.42,3.09-1.14,3.29-2.41h-1.79v1.31Z"/>
        <path class="st0" d="M278.74,1.97c-.35,1.14-.8,2.49-1.18,3.55.81,1.06.99,2.02.99,2.8,0,.88-.18,1.46-.61,1.79-.2.16-.46.24-.77.3-.24.04-.56.04-.87.03,0-.39-.14-.99-.35-1.38.23.01.43.03.58.01.14,0,.26-.03.37-.11.16-.12.23-.42.23-.81,0-.65-.16-1.52-.93-2.48.27-.81.54-1.91.76-2.8h-1.08v10.64h-1.41V1.43h2.99l.23-.07,1.06.61ZM285.09,12c.2,0,.27-.23.3-1.61.3.26.92.49,1.31.6-.12,1.85-.5,2.37-1.45,2.37h-.93c-1.19,0-1.46-.46-1.46-1.8v-2.76h-.89c-.2,2.27-.83,3.84-3.45,4.75-.15-.41-.57-.99-.89-1.3,2.15-.66,2.64-1.76,2.8-3.45h-1.62v-1.43h7.71v1.43h-2.12v2.77c0,.38.03.43.22.43h.49ZM279.81,5.15h-1.06v-2.67h3.14c-.15-.43-.35-.89-.56-1.29l1.53-.43c.31.53.62,1.22.77,1.72h2.8v2.67h-1.07v1.2h-5.56v-1.2ZM280.25,3.87v1.1h4.66v-1.1h-4.66Z"/>
      </g>
    </g>
    <g>
      <g>
        <path class="st0" d="M125.24,41.87c-.35-.81-1.05-2.04-1.75-3.2v11.82h-3.35v-10.48c-.96,2.24-2.04,4.31-3.17,5.76-.32-.99-1.08-2.42-1.6-3.29,1.63-1.86,3.26-4.98,4.31-7.8h-3.93v-3.23h4.39v-3.29c-1.13.18-2.21.35-3.29.47-.12-.79-.55-1.92-.93-2.68,3.32-.52,6.96-1.4,9.37-2.39l1.95,2.82c-1.13.44-2.42.79-3.75,1.08v3.99h3.84v3.23h-3.84v.23c.84.81,3.23,3.55,3.78,4.22l-2.04,2.74ZM139.59,43.12v7.33h-3.41v-6.72l-8.79,1.51-.55-3.29,9.34-1.6v-17.05h3.41v16.47l2.88-.49.55,3.23-3.43.61ZM132.28,39.08c-.9-1.28-2.94-3.14-4.63-4.45l2.21-1.98c1.66,1.16,3.81,2.97,4.77,4.22l-2.36,2.21ZM133.04,31.39c-.81-1.25-2.71-3.11-4.34-4.36l2.27-1.98c1.57,1.19,3.61,2.91,4.48,4.19l-2.42,2.15Z"/>
        <path class="st0" d="M155.94,38.84c-1.02.29-2.07.58-3.11.84v6.96c0,1.69-.32,2.5-1.31,3.06-.96.52-2.36.61-4.42.61-.12-.87-.55-2.24-.96-3.14,1.14.03,2.33.03,2.71.03.41,0,.55-.15.55-.58v-6l-2.82.7-.9-3.29c1.08-.23,2.33-.49,3.73-.84v-5.15h-3.35v-3.2h3.35v-5.5h3.43v5.5h2.85v3.2h-2.85v4.31l2.68-.67.44,3.17ZM172.06,34.91c-1.11,4.02-2.97,7.22-5.44,9.66,1.92,1.34,4.16,2.3,6.75,2.94-.73.7-1.72,2.09-2.21,3-2.82-.84-5.21-2.07-7.25-3.67-2.27,1.57-4.83,2.74-7.68,3.58-.38-.93-1.19-2.39-1.83-3.14,2.56-.61,4.92-1.54,6.96-2.85-1.69-1.95-3.06-4.25-4.13-6.93l.87-.26h-1.51v-3.11h5.73v-3.49h-6.26v-3.2h6.26v-4.16h3.43v4.16h6.52v3.2h-6.52v3.49h3.49l.61-.15,2.21.93ZM160.6,37.24c.81,1.92,1.98,3.67,3.43,5.15,1.51-1.43,2.79-3.17,3.67-5.15h-7.1Z"/>
        <path class="st0" d="M201.61,31.8c-.67,4.48-1.72,8.18-3.38,11.21,1.43,1.92,3.23,3.46,5.44,4.48-.79.7-1.86,2.04-2.36,2.97-2.13-1.11-3.81-2.62-5.21-4.42-1.57,1.8-3.49,3.32-5.94,4.51-.29-.79-1.31-2.33-1.95-3.06,2.53-1.11,4.48-2.62,5.94-4.51-.99-1.92-1.75-4.05-2.39-6.4-.32.49-.67.99-1.02,1.43-.35-.41-.96-1.02-1.6-1.57v.26h-3.32v5.97c1.37-.29,2.74-.58,4.1-.87l.29,3.17c-4.77,1.11-9.92,2.21-13.65,3.06l-.61-3.52,1.51-.26v-12.4h3.11v11.85l1.86-.35v-14.99h-5.82v-3.32h13.33v3.32h-4.13v5.09h3.32v.73c1.8-2.82,2.97-6.75,3.61-10.86l3.43.52c-.26,1.63-.64,3.23-1.08,4.77h8.3v3.2h-1.8ZM193.96,32.18c.49,2.65,1.25,5.12,2.21,7.33.96-2.21,1.57-4.75,1.95-7.71h-4.02l-.15.38Z"/>
        <path class="st0" d="M231.33,40.85c0,1.46-.29,2.15-1.34,2.59-.99.41-2.3.44-3.87.44,2.21,1.14,4.92,2.07,7.8,2.59-.73.76-1.72,2.15-2.18,3.06-3.73-.93-7.01-2.76-9.43-4.71v5.7h-3.73v-5.79c-2.65,2.3-6.03,4.02-9.66,5.01-.47-.87-1.43-2.21-2.15-2.91,4.83-.96,9.34-3.14,11.82-5.97v-2.04h-5.56v5.15h-3.67v-8.09h9.23v-1.4h-11.09v-2.97h7.86c-.61-.84-1.83-1.98-2.79-2.85l1.11-.96h-1.72c-.9,1.48-1.95,2.77-3,3.78-.5-.58-1.63-1.8-2.3-2.33,1.69-1.51,3.32-3.81,4.22-6.11l3.06.87c-.15.38-.32.76-.49,1.13h6.35v2.65h-4.13c.76.67,1.51,1.4,1.95,1.92l-2.04,1.89h3.03v-1.57h2.56c-.64-.49-1.4-1.11-1.95-1.43,1.6-1.37,2.91-3.41,3.64-5.47l3.14.79c-.15.41-.32.84-.49,1.25h8v2.62h-5.04c.79.61,1.54,1.31,2.01,1.83l-2.3,1.98c-.61-.79-1.92-1.95-2.97-2.77l1.22-1.05h-2.36c-.52.87-1.13,1.66-1.75,2.3v1.51h10.48v2.97h-10.48v1.4h9.02v4.98ZM222.31,41.37c.96.84,2.18,1.66,3.64,2.42-.23-.84-.73-1.86-1.11-2.59.93.09,2.12.06,2.45.06.35,0,.47-.09.47-.41v-2.04h-5.44v2.56Z"/>
        <path class="st0" d="M243.26,27.81c-.41,1.95-.93,3.93-1.57,5.79h5.44v13.39h-5.56v2.12h-2.88v-9.02c-.38.55-.76,1.08-1.17,1.57-.12-.93-.73-3.14-1.19-4.13,1.78-2.39,2.97-5.91,3.7-9.72h-3.08v-3.14h10.57v3.14h-4.25ZM244.19,36.66h-2.62v7.28h2.62v-7.28ZM263.75,38.41h-3.06v12.11h-3.29v-12.11h-3.32c-.17,4.28-1.02,9.14-4.02,12.31-.58-.61-1.83-1.57-2.62-2.01,2.5-2.71,3.23-6.75,3.4-10.3h-2.71v-3.26h2.77v-7.19h-2.01v-3.2h14.26v3.2h-2.47v7.19h3.06v3.26ZM257.4,35.15v-7.19h-3.26v7.19h3.26Z"/>
        <path class="st0" d="M289.3,46.58c.67,0,.79-.52.9-4.13.7.61,2.3,1.19,3.26,1.48-.35,4.77-1.25,6.05-3.76,6.05h-2.74c-2.85,0-3.75-1.02-3.75-4.42v-3.76h-3.81c-.73,3.41-3.26,6.93-10.8,8.88-.55-.9-1.63-2.21-2.44-2.97,6.02-1.51,8.47-3.7,9.34-5.91h-7.13v-3.2h7.63v-3.2h3.67v3.2h7.19v6.93c0,.93.12,1.05.79,1.05h1.66ZM270.68,31.8h-3.49v-5.94h10.62c-.2-.73-.41-1.45-.61-2.07l3.67-.58c.29.81.61,1.78.87,2.65h10.59v5.68h-3.64v-2.56h-4.1v3.73c0,.76.12,1.08.87,1.08h3.52c.79,0,1.98-.06,2.53-.23.09.93.18,2.1.29,2.91-.55.17-1.69.23-2.68.23h-3.93c-3.29,0-4.07-1.17-4.07-4.02v-3.7h-3c-.55,4.13-2.21,6.61-8.88,8-.29-.87-1.11-2.15-1.8-2.82,5.5-.9,6.64-2.44,7.07-5.18h-3.84v2.82Z"/>
        <path class="st0" d="M323.33,43.82h-8.21c2.74,1.28,5.65,2.79,7.42,3.9l-2.3,2.65c-1.86-1.28-5.06-3.14-7.95-4.54l1.54-2.01h-8.64l2.45,2.01c-2.5,1.66-6.11,3.46-8.96,4.63-.47-.73-1.31-1.86-1.95-2.59,2.56-.96,5.91-2.62,7.86-4.05h-7.95v-3.2h2.62l-.49-15.02c1.83-.58,4.07-1.46,5.56-2.15l1.48,2.82c-1.22.44-2.59.79-3.9,1.13l.09,2.62h3.32v2.82h-3.23l.09,2.5h3.23v2.82h-3.14l.09,2.45h15.19c.06-.76.09-1.51.15-2.36h-2.94v-2.85h3.06c.03-.81.06-1.66.09-2.5h-2.94v-2.85h3.03c0-.84,0-1.66.03-2.5h-3.35v-2.97h6.52c0,5.18-.14,11.67-.38,16.04h2.53v3.2ZM309.44,34.36c-.2,1.92-.67,3.81-1.45,5.04-.47-.38-1.6-1.05-2.21-1.37.73-1.08.96-2.56,1.11-4.1l2.56.44ZM310.84,33.23h-4.39v-9.66h2.94v1.98h4.57v2.85h-4.57v2.12h3.23v.03h1.1v7.39c0,1.19-.23,1.69-1.02,2.07-.76.35-1.89.35-3.32.35-.12-.67-.47-1.51-.76-2.12.76.06,1.6.06,1.86.03.26,0,.35-.06.35-.32v-4.71Z"/>
        <path class="st0" d="M344.54,28.48c1.57,1.54,4.66,2.27,8.59,2.48-.7.67-1.51,1.92-1.92,2.77-3.26-.41-5.79-1.34-7.63-2.94-1.11,1.28-3.52,2.42-8.41,2.97-.23-.55-.7-1.28-1.16-1.89h-7.71v-2.65h8.79v1.78c5.56-.58,6.29-1.89,6.29-2.97v-.44h-1.75c-.61.96-1.31,1.83-2.04,2.5-.55-.52-1.83-1.37-2.56-1.78,1.54-1.28,2.74-3.2,3.41-5.18l3.03.67c-.15.44-.32.87-.49,1.28h8.27l.52-.15,2.36.73c-.76,1.6-1.75,3.44-2.68,4.6l-2.68-.99c.32-.47.7-1.08,1.02-1.69h-3.23v.9ZM345.32,45.59c2.68.99,5.53,2.15,7.25,3l-3.11,1.86c-1.66-.96-4.69-2.39-7.57-3.43l1.78-1.43h-8.21l2.53,1.17c-2.39,1.51-6.14,2.97-9.08,3.78-.58-.67-1.8-1.95-2.56-2.53,2.79-.52,5.91-1.4,7.95-2.42h-4.19v-11.82h19.47v11.82h-4.25ZM334.41,27.26h-7.45v-2.53h7.45v2.53ZM333.45,37.1h12.6v-1.25h-12.6v1.25ZM333.45,40.3h12.6v-1.25h-12.6v1.25ZM333.45,43.56h12.6v-1.31h-12.6v1.31Z"/>
        <path class="st0" d="M367.1,30.84h-10.68v-2.74h4.63c-.38-1.11-1.11-2.56-1.72-3.67l2.47-1.25c.7,1.19,1.54,2.79,1.95,3.87l-1.78,1.05h5.12v2.74ZM357.62,34.77v-2.62h8.44v2.62h-8.44ZM357.62,36.05h8.5v2.62h-8.5v-2.62ZM366.11,48.88h-5.82v1.22h-2.65v-10.04h8.47v8.82ZM360.29,42.83v3.26h3.09v-3.26h-3.09ZM380.55,24.78c-.26,9.58-.23,21.51.84,21.86.15.06.29-1.83.38-3.7.47.9,1.31,2.27,1.8,2.79-.44,4.25-1.92,5.15-3.73,4.4-2.77-1.17-2.79-11.24-2.77-22.06h-3.52v7.68h2.79v3.23h-2.79v11.47h-3.23v-11.47h-3.26v-3.23h3.26v-7.68h-2.85v-3.29h13.07Z"/>
        <path class="st0" d="M410.6,28.34v14.52h-3.64v-1.46h-6.58v9.08h-3.67v-9.08h-6.55v1.6h-3.49v-14.67h10.04v-5.04h3.67v5.04h10.22ZM396.72,38v-6.26h-6.55v6.26h6.55ZM406.96,38v-6.26h-6.58v6.26h6.58Z"/>
        <path class="st0" d="M420.04,33.95c-.41,3.76-1.13,8.79-2.12,12.08l-3.49-1.4c1.02-3.08,1.86-7.45,2.24-11.32l3.38.64ZM425.51,31.59v13.51c0,1.37.23,1.6,1.63,1.6h4.16c1.46,0,1.72-.93,1.92-5.47.81.61,2.3,1.22,3.26,1.46-.41,5.53-1.34,7.25-4.89,7.25h-4.86c-3.78,0-4.83-1.17-4.83-4.83v-13.51h3.61ZM425.25,23.77c2.62,1.66,6.32,4.22,8.06,6.02l-2.56,2.71c-1.57-1.78-5.15-4.54-7.86-6.37l2.36-2.36ZM437.94,32.38c1.63,3.46,3.14,7.83,3.76,10.83l-3.52,1.46c-.44-2.97-1.95-7.57-3.46-10.97l3.23-1.31Z"/>
      </g>
      <g>
        <path class="st0" d="M119.85,66.54c-.69,0-1.36-.1-1.99-.31-.63-.21-1.14-.48-1.51-.81l.57-1.35c.35.29.79.54,1.32.73.52.2,1.06.29,1.61.29.46,0,.84-.05,1.13-.16.29-.11.5-.25.63-.43.13-.18.2-.39.2-.62,0-.28-.1-.51-.29-.69-.19-.17-.45-.31-.75-.41-.31-.1-.65-.2-1.03-.29-.38-.09-.75-.19-1.13-.31-.38-.12-.72-.28-1.03-.47-.31-.19-.56-.45-.75-.77-.19-.32-.29-.73-.29-1.23s.13-.97.39-1.39c.26-.42.65-.76,1.18-1.01.53-.25,1.2-.38,2.01-.38.53,0,1.06.07,1.58.21.52.14.98.35,1.37.61l-.52,1.35c-.4-.25-.81-.43-1.23-.55-.42-.12-.83-.18-1.22-.18-.46,0-.83.06-1.11.17-.28.12-.49.27-.62.45-.13.19-.2.4-.2.64,0,.28.09.51.28.69.19.17.44.31.75.41.31.1.65.19,1.03.29.38.09.76.2,1.13.31.38.12.72.27,1.03.45.31.19.56.44.75.76.19.32.29.73.29,1.21s-.13.96-.39,1.38c-.26.42-.65.76-1.18,1.01-.53.25-1.2.38-2.01.38Z"/>
        <path class="st0" d="M127.83,66.5c-.71,0-1.34-.16-1.89-.47-.55-.32-.99-.75-1.3-1.3-.31-.55-.47-1.18-.47-1.88s.16-1.34.47-1.89c.31-.55.75-.98,1.3-1.29.55-.31,1.18-.47,1.89-.47.66,0,1.24.14,1.74.42.5.28.88.69,1.15,1.23l-1.22.75c-.2-.34-.45-.59-.74-.75-.29-.16-.61-.24-.94-.24-.39,0-.74.09-1.05.27-.31.18-.56.43-.74.77-.18.33-.27.73-.27,1.19s.09.86.27,1.19c.18.33.42.59.74.77.31.18.66.27,1.05.27.34,0,.65-.08.94-.24.29-.16.54-.41.74-.75l1.22.75c-.26.53-.64.95-1.15,1.23-.5.29-1.08.43-1.74.43Z"/>
        <path class="st0" d="M132.59,58.11c-.3,0-.54-.1-.73-.29-.19-.2-.29-.43-.29-.71s.1-.52.29-.71c.19-.19.43-.29.73-.29s.54.09.73.27c.19.18.28.41.28.69,0,.29-.09.54-.28.74-.19.2-.43.3-.74.3ZM131.79,66.41v-7.12h1.58v7.12h-1.58Z"/>
        <path class="st0" d="M138.32,66.5c-.75,0-1.41-.16-1.97-.47-.56-.32-1-.75-1.31-1.3-.31-.55-.46-1.18-.46-1.88s.15-1.34.45-1.89c.3-.55.71-.98,1.24-1.29.53-.31,1.13-.47,1.81-.47s1.25.15,1.76.45c.52.3.92.73,1.22,1.28.3.55.44,1.2.44,1.95,0,.07,0,.15,0,.24,0,.09-.01.17-.02.25h-5.64v-1.11h4.8l-.62.35c0-.41-.07-.77-.24-1.08-.17-.31-.4-.56-.69-.73-.29-.18-.63-.27-1.01-.27s-.73.09-1.02.27c-.29.18-.52.43-.68.74-.17.32-.25.69-.25,1.11v.27c0,.43.09.81.28,1.13.19.33.45.58.79.76.34.18.73.27,1.17.27.38,0,.72-.06,1.03-.19.3-.12.58-.32.81-.59l.85,1.03c-.3.37-.69.66-1.15.86-.46.2-.99.3-1.58.3Z"/>
        <path class="st0" d="M142.71,66.41v-7.12h1.51v1.92l-.27-.59c.24-.45.58-.8,1.03-1.05.45-.24.97-.37,1.56-.37.54,0,1.02.11,1.45.33.43.22.76.56,1.01,1.02.24.46.37,1.05.37,1.77v4.08h-1.58v-3.87c0-.63-.14-1.1-.42-1.41s-.68-.47-1.18-.47c-.37,0-.7.08-.99.24-.29.16-.51.4-.67.71-.16.32-.23.71-.23,1.19v3.6h-1.58Z"/>
        <path class="st0" d="M154.18,66.5c-.71,0-1.34-.16-1.89-.47-.55-.32-.99-.75-1.3-1.3-.31-.55-.47-1.18-.47-1.88s.16-1.34.47-1.89c.31-.55.75-.98,1.3-1.29.55-.31,1.18-.47,1.89-.47.66,0,1.24.14,1.74.42.5.28.88.69,1.15,1.23l-1.22.75c-.2-.34-.45-.59-.74-.75-.29-.16-.61-.24-.94-.24-.39,0-.74.09-1.05.27-.31.18-.56.43-.74.77-.18.33-.27.73-.27,1.19s.09.86.27,1.19c.18.33.42.59.74.77.31.18.66.27,1.05.27.34,0,.65-.08.94-.24.29-.16.54-.41.74-.75l1.22.75c-.26.53-.64.95-1.15,1.23-.5.29-1.08.43-1.74.43Z"/>
        <path class="st0" d="M161.31,66.5c-.75,0-1.41-.16-1.97-.47-.56-.32-1-.75-1.31-1.3-.31-.55-.46-1.18-.46-1.88s.15-1.34.45-1.89c.3-.55.71-.98,1.24-1.29.53-.31,1.13-.47,1.81-.47s1.25.15,1.76.45c.52.3.92.73,1.22,1.28.3.55.44,1.2.44,1.95,0,.07,0,.15,0,.24,0,.09-.01.17-.02.25h-5.64v-1.11h4.8l-.62.35c0-.41-.07-.77-.24-1.08-.17-.31-.4-.56-.69-.73-.29-.18-.63-.27-1.01-.27s-.73.09-1.02.27c-.29.18-.52.43-.68.74-.17.32-.25.69-.25,1.11v.27c0,.43.09.81.28,1.13.19.33.45.58.79.76.34.18.73.27,1.17.27.38,0,.72-.06,1.03-.19.3-.12.58-.32.81-.59l.85,1.03c-.3.37-.69.66-1.15.86-.46.2-.99.3-1.58.3Z"/>
        <path class="st0" d="M175.68,66.55l-5.07-5.12c-.29-.29-.52-.56-.7-.81-.18-.25-.3-.49-.38-.73-.08-.24-.11-.48-.11-.73,0-.43.11-.82.32-1.15.21-.33.51-.59.9-.77.39-.18.84-.27,1.36-.27.48,0,.9.08,1.25.25.35.16.62.4.82.71.2.31.3.67.3,1.1,0,.37-.09.72-.27,1.03-.18.32-.45.62-.83.9-.38.28-.88.58-1.5.89-.46.24-.83.47-1.1.68-.27.21-.46.43-.58.64-.12.21-.18.45-.18.71s.07.48.22.68c.15.2.36.35.63.46.27.11.59.17.95.17.54,0,1.03-.13,1.48-.38.44-.25.82-.63,1.12-1.14.3-.51.52-1.13.66-1.88l1.28.44c-.18.9-.48,1.67-.92,2.31-.44.65-.97,1.14-1.6,1.49-.63.35-1.34.52-2.13.52-.62,0-1.17-.11-1.66-.32-.49-.21-.87-.51-1.15-.88-.28-.37-.42-.81-.42-1.29,0-.44.09-.84.28-1.2.19-.36.48-.7.89-1.02.41-.32.93-.65,1.56-.98.5-.26.89-.49,1.17-.68.28-.2.48-.38.6-.56.11-.18.17-.36.17-.56,0-.27-.09-.48-.27-.65-.18-.16-.43-.25-.76-.25-.36,0-.63.09-.83.27-.2.18-.3.42-.3.71,0,.15.03.3.08.44.06.14.15.3.3.48.14.18.35.41.62.68l4.69,4.73-.87,1.08Z"/>
        <path class="st0" d="M182.64,66.41v-7.87h-2.94v-1.47h7.53v1.47h-2.94v7.87h-1.65Z"/>
        <path class="st0" d="M190.24,66.5c-.75,0-1.41-.16-1.97-.47-.56-.32-1-.75-1.31-1.3-.31-.55-.46-1.18-.46-1.88s.15-1.34.45-1.89c.3-.55.71-.98,1.24-1.29.53-.31,1.13-.47,1.81-.47s1.25.15,1.76.45c.52.3.92.73,1.22,1.28.3.55.44,1.2.44,1.95,0,.07,0,.15,0,.24,0,.09-.01.17-.02.25h-5.64v-1.11h4.8l-.62.35c0-.41-.07-.77-.24-1.08-.17-.31-.4-.56-.69-.73-.29-.18-.63-.27-1.01-.27s-.73.09-1.02.27c-.29.18-.52.43-.68.74-.17.32-.25.69-.25,1.11v.27c0,.43.09.81.28,1.13.19.33.45.58.79.76.34.18.73.27,1.17.27.38,0,.72-.06,1.03-.19.3-.12.57-.32.81-.59l.85,1.03c-.3.37-.69.66-1.15.86-.46.2-.99.3-1.58.3Z"/>
        <path class="st0" d="M197.81,66.5c-.71,0-1.34-.16-1.89-.47-.55-.32-.99-.75-1.3-1.3-.31-.55-.47-1.18-.47-1.88s.16-1.34.47-1.89c.31-.55.75-.98,1.3-1.29.55-.31,1.18-.47,1.89-.47.66,0,1.24.14,1.74.42.5.28.88.69,1.15,1.23l-1.22.75c-.2-.34-.45-.59-.74-.75-.29-.16-.61-.24-.94-.24-.39,0-.74.09-1.05.27-.31.18-.56.43-.74.77-.18.33-.27.73-.27,1.19s.09.86.27,1.19c.18.33.42.59.74.77.31.18.66.27,1.05.27.34,0,.65-.08.94-.24.29-.16.54-.41.74-.75l1.22.75c-.26.53-.64.95-1.15,1.23-.5.29-1.08.43-1.74.43Z"/>
        <path class="st0" d="M201.77,66.41v-9.9h1.58v4.7l-.34-.59c.24-.45.58-.8,1.03-1.05.45-.24.97-.37,1.56-.37.54,0,1.02.11,1.45.33.43.22.76.56,1.01,1.02.24.46.37,1.05.37,1.77v4.08h-1.58v-3.87c0-.63-.14-1.1-.42-1.41s-.68-.47-1.18-.47c-.37,0-.7.08-.99.24-.29.16-.51.4-.67.71-.16.32-.23.71-.23,1.19v3.6h-1.58Z"/>
        <path class="st0" d="M210.1,66.41v-7.12h1.51v1.92l-.27-.59c.24-.45.58-.8,1.03-1.05.45-.24.97-.37,1.56-.37.54,0,1.02.11,1.45.33.43.22.76.56,1.01,1.02.24.46.37,1.05.37,1.77v4.08h-1.58v-3.87c0-.63-.14-1.1-.42-1.41-.28-.31-.68-.47-1.18-.47-.37,0-.7.08-.99.24-.29.16-.51.4-.67.71-.16.32-.23.71-.23,1.19v3.6h-1.58Z"/>
        <path class="st0" d="M221.51,66.5c-.69,0-1.31-.16-1.85-.47-.54-.32-.97-.75-1.28-1.3-.31-.55-.47-1.18-.47-1.88s.16-1.34.47-1.89c.31-.55.74-.98,1.28-1.29.54-.31,1.16-.47,1.85-.47s1.32.16,1.87.47c.54.31.97.74,1.28,1.28.31.54.46,1.17.46,1.89s-.15,1.33-.46,1.88c-.31.55-.74.99-1.28,1.3-.54.31-1.17.47-1.87.47ZM221.51,65.07c.39,0,.74-.09,1.04-.27.3-.18.54-.44.72-.77.17-.34.26-.73.26-1.19s-.09-.86-.26-1.19c-.17-.33-.41-.59-.72-.77-.3-.18-.65-.27-1.03-.27s-.73.09-1.03.27c-.3.18-.54.43-.72.77-.18.33-.27.73-.27,1.19s.09.85.27,1.19c.18.34.42.6.72.77.3.18.64.27,1.02.27Z"/>
        <path class="st0" d="M226.34,66.41v-9.9h1.58v9.9h-1.58Z"/>
        <path class="st0" d="M232.77,66.5c-.69,0-1.31-.16-1.85-.47-.54-.32-.97-.75-1.28-1.3-.31-.55-.47-1.18-.47-1.88s.16-1.34.47-1.89c.31-.55.74-.98,1.28-1.29.54-.31,1.16-.47,1.85-.47s1.32.16,1.87.47c.54.31.97.74,1.28,1.28.31.54.46,1.17.46,1.89s-.15,1.33-.46,1.88c-.31.55-.74.99-1.28,1.3-.54.31-1.17.47-1.87.47ZM232.77,65.07c.39,0,.74-.09,1.04-.27.3-.18.54-.44.72-.77.17-.34.26-.73.26-1.19s-.09-.86-.26-1.19c-.17-.33-.41-.59-.72-.77-.3-.18-.65-.27-1.03-.27s-.73.09-1.03.27c-.3.18-.54.43-.72.77-.18.33-.27.73-.27,1.19s.09.85.27,1.19c.18.34.42.6.72.77.3.18.64.27,1.02.27Z"/>
        <path class="st0" d="M240.52,66.08c-.64,0-1.22-.14-1.74-.43-.52-.29-.93-.69-1.23-1.21-.3-.52-.45-1.12-.45-1.81s.15-1.28.45-1.8c.3-.52.71-.92,1.23-1.2.52-.29,1.1-.43,1.74-.43.57,0,1.09.12,1.55.36.46.24.82.61,1.1,1.12.27.51.41,1.16.41,1.95s-.14,1.44-.41,1.95c-.27.51-.64.89-1.1,1.13-.46.24-.97.37-1.55.37ZM240.73,69.09c-.63,0-1.24-.09-1.83-.26-.6-.17-1.08-.43-1.46-.75l.71-1.25c.3.26.67.46,1.12.62.45.16.91.23,1.37.23.74,0,1.29-.18,1.63-.54.35-.36.52-.9.52-1.62v-1.27l.13-1.61-.05-1.61v-1.73h1.51v6.04c0,1.29-.31,2.24-.94,2.85-.63.61-1.53.91-2.71.91ZM240.77,64.67c.4,0,.75-.09,1.06-.26.31-.17.56-.41.73-.72.17-.31.26-.66.26-1.06s-.09-.75-.26-1.06c-.17-.31-.42-.54-.73-.71-.31-.16-.67-.25-1.06-.25s-.75.08-1.07.25c-.32.16-.56.4-.73.71-.17.31-.26.66-.26,1.06s.09.75.26,1.06c.17.31.42.55.73.72.32.17.67.26,1.07.26Z"/>
        <path class="st0" d="M246.77,69.09c-.33,0-.66-.06-.99-.17-.33-.11-.6-.27-.82-.48l.63-1.23c.16.15.34.27.55.36.2.09.41.13.62.13.29,0,.52-.08.7-.23.18-.15.34-.41.49-.76l.39-.93.13-.2,2.56-6.3h1.52l-3.17,7.7c-.21.53-.45.96-.7,1.27-.26.31-.55.53-.86.65-.32.12-.66.19-1.05.19ZM248.17,66.66l-3.05-7.38h1.65l2.48,6.15-1.08,1.23Z"/>
        <path class="st0" d="M256.56,66.41v-9.34h3.65c.79,0,1.46.13,2.02.4.56.27.99.65,1.3,1.15.3.5.46,1.09.46,1.77s-.15,1.28-.46,1.77c-.3.5-.74.88-1.3,1.15-.56.27-1.24.4-2.02.4h-2.74l.73-.81v3.51h-1.65ZM258.2,63.08l-.73-.84h2.66c.73,0,1.27-.16,1.64-.49.37-.32.55-.78.55-1.37s-.18-1.05-.55-1.37c-.37-.32-.91-.48-1.64-.48h-2.66l.73-.85v5.4Z"/>
        <path class="st0" d="M268.26,66.5c-.69,0-1.31-.16-1.85-.47-.54-.32-.97-.75-1.28-1.3-.31-.55-.47-1.18-.47-1.88s.16-1.34.47-1.89c.31-.55.74-.98,1.28-1.29.54-.31,1.16-.47,1.85-.47s1.32.16,1.87.47c.54.31.97.74,1.28,1.28.31.54.46,1.17.46,1.89s-.15,1.33-.46,1.88c-.31.55-.74.99-1.28,1.3-.54.31-1.17.47-1.87.47ZM268.26,65.07c.39,0,.74-.09,1.04-.27.3-.18.54-.44.72-.77.17-.34.26-.73.26-1.19s-.09-.86-.26-1.19c-.17-.33-.41-.59-.72-.77-.3-.18-.65-.27-1.03-.27s-.73.09-1.03.27c-.3.18-.54.43-.72.77-.18.33-.27.73-.27,1.19s.09.85.27,1.19c.18.34.42.6.72.77.3.18.64.27,1.02.27Z"/>
        <path class="st0" d="M273.09,66.41v-9.9h1.58v9.9h-1.58Z"/>
        <path class="st0" d="M277.19,58.11c-.3,0-.54-.1-.73-.29-.19-.2-.29-.43-.29-.71s.1-.52.29-.71c.19-.19.43-.29.73-.29s.54.09.73.27c.19.18.28.41.28.69,0,.29-.09.54-.28.74-.19.2-.43.3-.74.3ZM276.4,66.41v-7.12h1.58v7.12h-1.58Z"/>
        <path class="st0" d="M282.85,66.5c-.71,0-1.34-.16-1.89-.47-.55-.32-.99-.75-1.3-1.3-.31-.55-.47-1.18-.47-1.88s.16-1.34.47-1.89c.31-.55.75-.98,1.3-1.29.55-.31,1.18-.47,1.89-.47.66,0,1.24.14,1.74.42.5.28.88.69,1.15,1.23l-1.22.75c-.2-.34-.45-.59-.74-.75-.29-.16-.61-.24-.94-.24-.39,0-.74.09-1.05.27-.31.18-.56.43-.74.77-.18.33-.27.73-.27,1.19s.09.86.27,1.19c.18.33.42.59.74.77.31.18.66.27,1.05.27.34,0,.65-.08.94-.24.29-.16.54-.41.74-.75l1.22.75c-.26.53-.64.95-1.15,1.23-.5.29-1.08.43-1.74.43Z"/>
        <path class="st0" d="M287.51,69.09c-.33,0-.66-.06-.99-.17-.33-.11-.6-.27-.82-.48l.63-1.23c.16.15.34.27.55.36.2.09.41.13.62.13.29,0,.52-.08.7-.23.18-.15.34-.41.49-.76l.39-.93.13-.2,2.56-6.3h1.52l-3.17,7.7c-.21.53-.45.96-.7,1.27-.26.31-.55.53-.86.65-.32.12-.66.19-1.05.19ZM288.9,66.66l-3.05-7.38h1.65l2.48,6.15-1.08,1.23Z"/>
        <path class="st0" d="M297.29,66.41v-9.34h3.64c1.18,0,2.11.29,2.78.88.67.59,1.01,1.4,1.01,2.44,0,.68-.15,1.27-.46,1.77-.3.49-.74.87-1.3,1.13-.56.26-1.24.39-2.02.39h-2.74l.73-.79v3.51h-1.65ZM298.94,63.08l-.73-.83h2.66c.73,0,1.27-.16,1.64-.49.37-.33.55-.79.55-1.37s-.18-1.05-.55-1.37c-.37-.32-.91-.48-1.64-.48h-2.66l.73-.85v5.4ZM303.09,66.41l-2.24-3.39h1.76l2.26,3.39h-1.77Z"/>
        <path class="st0" d="M309.29,66.5c-.75,0-1.41-.16-1.97-.47-.56-.32-1-.75-1.31-1.3-.31-.55-.46-1.18-.46-1.88s.15-1.34.45-1.89c.3-.55.71-.98,1.24-1.29.53-.31,1.13-.47,1.81-.47s1.25.15,1.76.45c.52.3.92.73,1.22,1.28.3.55.44,1.2.44,1.95,0,.07,0,.15,0,.24,0,.09-.01.17-.02.25h-5.64v-1.11h4.8l-.62.35c0-.41-.07-.77-.24-1.08-.17-.31-.4-.56-.69-.73-.29-.18-.63-.27-1.01-.27s-.73.09-1.02.27c-.29.18-.52.43-.68.74-.17.32-.25.69-.25,1.11v.27c0,.43.09.81.28,1.13.19.33.45.58.79.76.34.18.73.27,1.17.27.38,0,.72-.06,1.03-.19.3-.12.57-.32.81-.59l.85,1.03c-.3.37-.69.66-1.15.86-.46.2-.99.3-1.58.3Z"/>
        <path class="st0" d="M315.88,66.5c-.57,0-1.11-.08-1.63-.23-.52-.16-.93-.34-1.24-.57l.61-1.27c.3.2.67.37,1.09.51.42.13.84.2,1.27.2.5,0,.86-.07,1.08-.21.22-.14.34-.33.34-.57,0-.2-.08-.34-.23-.45-.15-.1-.35-.18-.6-.23-.25-.05-.52-.1-.82-.15-.3-.04-.6-.1-.9-.18-.3-.08-.57-.19-.82-.33-.25-.15-.44-.34-.6-.59s-.23-.58-.23-.99c0-.45.12-.85.37-1.18.24-.33.59-.59,1.03-.77.44-.18.97-.27,1.58-.27.46,0,.92.05,1.38.16.46.11.85.26,1.15.45l-.61,1.27c-.32-.2-.64-.34-.97-.42-.33-.08-.65-.11-.97-.11-.48,0-.84.08-1.07.23-.23.15-.35.34-.35.57,0,.21.08.37.23.48s.35.19.6.25c.25.06.52.11.82.15.3.04.6.1.89.18.3.08.57.19.82.33.25.14.45.33.6.58s.23.57.23.97c0,.45-.12.83-.37,1.16-.25.33-.6.58-1.06.77-.46.18-1,.27-1.63.27Z"/>
        <path class="st0" d="M323.29,66.5c-.75,0-1.41-.16-1.97-.47-.56-.32-1-.75-1.31-1.3-.31-.55-.46-1.18-.46-1.88s.15-1.34.45-1.89c.3-.55.71-.98,1.24-1.29.53-.31,1.13-.47,1.81-.47s1.25.15,1.76.45c.52.3.92.73,1.22,1.28.3.55.44,1.2.44,1.95,0,.07,0,.15,0,.24,0,.09-.01.17-.02.25h-5.64v-1.11h4.8l-.62.35c0-.41-.07-.77-.24-1.08-.17-.31-.4-.56-.69-.73-.29-.18-.63-.27-1.01-.27s-.73.09-1.02.27c-.29.18-.52.43-.68.74-.17.32-.25.69-.25,1.11v.27c0,.43.09.81.28,1.13.19.33.45.58.79.76.34.18.73.27,1.17.27.38,0,.72-.06,1.03-.19.3-.12.57-.32.81-.59l.85,1.03c-.3.37-.69.66-1.15.86-.46.2-.99.3-1.58.3Z"/>
        <path class="st0" d="M329.69,66.5c-.51,0-.95-.09-1.33-.27-.38-.18-.67-.44-.88-.76-.21-.32-.31-.69-.31-1.1s.09-.76.27-1.08c.18-.32.48-.57.89-.76.41-.19.96-.28,1.65-.28h1.96v1.11h-1.85c-.54,0-.9.09-1.09.27-.19.18-.28.41-.28.67,0,.3.11.54.34.72.23.18.54.27.95.27s.74-.09,1.05-.28c.31-.19.53-.46.66-.83l.27,1c-.15.42-.42.74-.82.97-.39.23-.89.35-1.49.35ZM331.82,66.41v-1.44l-.09-.31v-2.52c0-.49-.14-.87-.42-1.14-.28-.27-.7-.41-1.27-.41-.38,0-.75.06-1.12.19-.37.13-.68.3-.93.52l-.62-1.21c.36-.29.8-.51,1.3-.66.5-.15,1.02-.22,1.56-.22.98,0,1.74.25,2.27.74.54.49.8,1.26.8,2.29v4.18h-1.5Z"/>
        <path class="st0" d="M334.98,66.41v-7.12h1.51v1.96l-.18-.57c.2-.48.52-.84.96-1.09.44-.25.98-.37,1.63-.37v1.59c-.07-.02-.13-.03-.19-.03-.06,0-.12,0-.18,0-.6,0-1.08.18-1.43.55-.35.37-.53.92-.53,1.65v3.46h-1.58Z"/>
        <path class="st0" d="M343,66.5c-.71,0-1.34-.16-1.89-.47-.55-.32-.99-.75-1.3-1.3-.31-.55-.47-1.18-.47-1.88s.16-1.34.47-1.89c.31-.55.75-.98,1.3-1.29.55-.31,1.18-.47,1.89-.47.66,0,1.24.14,1.74.42.5.28.88.69,1.15,1.23l-1.22.75c-.2-.34-.45-.59-.74-.75-.29-.16-.61-.24-.94-.24-.39,0-.74.09-1.05.27-.31.18-.56.43-.74.77-.18.33-.27.73-.27,1.19s.09.86.27,1.19c.18.33.42.59.74.77.31.18.66.27,1.05.27.34,0,.65-.08.94-.24.29-.16.54-.41.74-.75l1.22.75c-.26.53-.64.95-1.15,1.23-.5.29-1.08.43-1.74.43Z"/>
        <path class="st0" d="M346.96,66.41v-9.9h1.58v4.7l-.34-.59c.24-.45.58-.8,1.03-1.05.45-.24.97-.37,1.57-.37.54,0,1.02.11,1.45.33.43.22.76.56,1.01,1.02.24.46.37,1.05.37,1.77v4.08h-1.58v-3.87c0-.63-.14-1.1-.42-1.41s-.68-.47-1.18-.47c-.37,0-.7.08-.99.24-.29.16-.51.4-.67.71-.16.32-.23.71-.23,1.19v3.6h-1.58Z"/>
        <path class="st0" d="M360.54,66.5c-.51,0-.95-.09-1.33-.27-.38-.18-.67-.44-.88-.76-.21-.32-.31-.69-.31-1.1s.09-.76.27-1.08c.18-.32.48-.57.89-.76.41-.19.96-.28,1.65-.28h1.96v1.11h-1.85c-.54,0-.9.09-1.09.27-.19.18-.28.41-.28.67,0,.3.11.54.34.72.23.18.54.27.95.27s.74-.09,1.05-.28c.31-.19.53-.46.66-.83l.27,1c-.15.42-.42.74-.82.97-.39.23-.89.35-1.49.35ZM362.67,66.41v-1.44l-.09-.31v-2.52c0-.49-.14-.87-.42-1.14-.28-.27-.7-.41-1.27-.41-.38,0-.75.06-1.12.19-.37.13-.68.3-.93.52l-.62-1.21c.36-.29.8-.51,1.3-.66.5-.15,1.02-.22,1.56-.22.98,0,1.74.25,2.27.74.54.49.8,1.26.8,2.29v4.18h-1.5Z"/>
        <path class="st0" d="M365.83,66.41v-7.12h1.51v1.92l-.27-.59c.24-.45.58-.8,1.03-1.05.45-.24.97-.37,1.56-.37.54,0,1.02.11,1.45.33.43.22.76.56,1.01,1.02.24.46.37,1.05.37,1.77v4.08h-1.58v-3.87c0-.63-.14-1.1-.42-1.41-.28-.31-.68-.47-1.18-.47-.37,0-.7.08-.99.24-.29.16-.51.4-.67.71-.16.32-.23.71-.23,1.19v3.6h-1.58Z"/>
        <path class="st0" d="M377.09,66.5c-.65,0-1.24-.15-1.75-.46-.52-.31-.93-.73-1.22-1.27-.3-.54-.44-1.18-.44-1.92s.15-1.38.44-1.92c.3-.54.7-.96,1.22-1.27.52-.3,1.1-.45,1.75-.45.57,0,1.07.13,1.52.39.45.26.8.66,1.06,1.19.26.53.39,1.22.39,2.05s-.13,1.51-.38,2.05c-.25.54-.6.94-1.05,1.21-.45.27-.96.4-1.55.4ZM377.28,65.07c.38,0,.72-.09,1.02-.27.3-.18.54-.44.72-.77.18-.34.27-.73.27-1.19s-.09-.86-.27-1.19c-.18-.33-.42-.59-.72-.77-.3-.18-.64-.27-1.02-.27s-.72.09-1.02.27c-.3.18-.54.43-.72.77-.18.33-.27.73-.27,1.19s.09.85.27,1.19c.18.34.42.6.72.77.3.18.64.27,1.02.27ZM379.34,66.41v-1.68l.06-1.89-.13-1.89v-4.43h1.57v9.9h-1.51Z"/>
        <path class="st0" d="M385.95,66.41v-9.34h1.65v9.34h-1.65Z"/>
        <path class="st0" d="M389.48,66.41v-7.12h1.51v1.92l-.27-.59c.24-.45.58-.8,1.03-1.05.45-.24.97-.37,1.56-.37.54,0,1.02.11,1.45.33.43.22.76.56,1.01,1.02.24.46.37,1.05.37,1.77v4.08h-1.58v-3.87c0-.63-.14-1.1-.42-1.41s-.68-.47-1.18-.47c-.37,0-.7.08-.99.24-.29.16-.51.4-.67.71-.16.32-.23.71-.23,1.19v3.6h-1.58Z"/>
        <path class="st0" d="M396.88,60.67v-1.33h4.51v1.33h-4.51ZM397.99,66.41v-7.52c0-.75.21-1.35.63-1.79.42-.45,1.02-.67,1.79-.67.28,0,.54.03.79.09.25.06.46.16.63.29l-.43,1.25c-.12-.1-.25-.17-.41-.22-.15-.05-.31-.07-.47-.07-.33,0-.58.09-.75.29-.17.19-.25.48-.25.86v.8l.05.75v5.95h-1.58Z"/>
        <path class="st0" d="M405.2,66.5c-.69,0-1.31-.16-1.85-.47-.54-.32-.97-.75-1.28-1.3-.31-.55-.47-1.18-.47-1.88s.16-1.34.47-1.89c.31-.55.74-.98,1.28-1.29.54-.31,1.16-.47,1.85-.47s1.32.16,1.87.47c.54.31.97.74,1.28,1.28.31.54.46,1.17.46,1.89s-.15,1.33-.46,1.88c-.31.55-.74.99-1.28,1.3-.54.31-1.17.47-1.87.47ZM405.2,65.07c.39,0,.74-.09,1.04-.27.3-.18.54-.44.72-.77.17-.34.26-.73.26-1.19s-.09-.86-.26-1.19c-.17-.33-.41-.59-.72-.77-.3-.18-.65-.27-1.03-.27s-.73.09-1.03.27c-.3.18-.54.43-.72.77-.18.33-.27.73-.27,1.19s.09.85.27,1.19c.18.34.42.6.72.77.3.18.64.27,1.02.27Z"/>
        <path class="st0" d="M410.04,66.41v-7.12h1.51v1.96l-.18-.57c.2-.48.52-.84.96-1.09.44-.25.98-.37,1.63-.37v1.59c-.07-.02-.13-.03-.19-.03-.06,0-.12,0-.18,0-.6,0-1.08.18-1.43.55-.35.37-.53.92-.53,1.65v3.46h-1.58Z"/>
        <path class="st0" d="M414.91,66.41v-7.12h1.51v1.89l-.27-.56c.23-.46.56-.81.99-1.05.44-.24.93-.36,1.49-.36.63,0,1.18.16,1.65.49.47.33.78.83.93,1.49l-.62-.23c.22-.53.58-.96,1.09-1.28.51-.32,1.09-.48,1.76-.48.54,0,1.02.11,1.44.33.42.22.75.56.98,1.02.24.46.36,1.05.36,1.77v4.08h-1.58v-3.87c0-.63-.13-1.1-.39-1.41-.26-.31-.64-.47-1.13-.47-.35,0-.65.08-.92.24-.27.16-.47.4-.62.71-.15.31-.22.71-.22,1.19v3.62h-1.58v-3.87c0-.63-.13-1.1-.39-1.41-.26-.31-.64-.47-1.13-.47-.35,0-.65.08-.92.24-.27.16-.47.4-.62.71-.15.31-.22.71-.22,1.19v3.62h-1.58Z"/>
        <path class="st0" d="M429.93,66.5c-.51,0-.95-.09-1.33-.27-.38-.18-.67-.44-.88-.76-.21-.32-.31-.69-.31-1.1s.09-.76.27-1.08c.18-.32.48-.57.89-.76.41-.19.96-.28,1.65-.28h1.96v1.11h-1.85c-.54,0-.9.09-1.09.27-.19.18-.28.41-.28.67,0,.3.11.54.34.72.23.18.54.27.95.27s.74-.09,1.05-.28c.31-.19.53-.46.66-.83l.27,1c-.15.42-.42.74-.82.97-.39.23-.89.35-1.49.35ZM432.06,66.41v-1.44l-.09-.31v-2.52c0-.49-.14-.87-.42-1.14-.28-.27-.7-.41-1.27-.41-.38,0-.75.06-1.12.19-.37.13-.68.3-.93.52l-.62-1.21c.36-.29.8-.51,1.3-.66.5-.15,1.02-.22,1.56-.22.98,0,1.74.25,2.27.74.54.49.8,1.26.8,2.29v4.18h-1.5Z"/>
        <path class="st0" d="M434.26,60.62v-1.33h4.51v1.33h-4.51ZM437.71,66.5c-.74,0-1.32-.2-1.72-.61-.41-.41-.61-1-.61-1.79v-6.39h1.58v6.35c0,.34.08.6.25.79.17.19.39.28.69.28.35,0,.65-.1.89-.29l.44,1.19c-.19.16-.41.28-.68.36-.27.08-.55.12-.84.12Z"/>
        <path class="st0" d="M440.93,58.11c-.3,0-.54-.1-.73-.29-.19-.2-.29-.43-.29-.71s.1-.52.29-.71c.19-.19.43-.29.73-.29s.54.09.73.27c.19.18.28.41.28.69,0,.29-.09.54-.28.74-.19.2-.43.3-.74.3ZM440.13,66.41v-7.12h1.58v7.12h-1.58Z"/>
        <path class="st0" d="M446.53,66.5c-.69,0-1.31-.16-1.85-.47-.54-.32-.97-.75-1.28-1.3-.31-.55-.47-1.18-.47-1.88s.16-1.34.47-1.89c.31-.55.74-.98,1.28-1.29.54-.31,1.16-.47,1.85-.47s1.32.16,1.87.47c.54.31.97.74,1.28,1.28.31.54.46,1.17.46,1.89s-.15,1.33-.46,1.88c-.31.55-.74.99-1.28,1.3-.54.31-1.17.47-1.87.47ZM446.53,65.07c.39,0,.74-.09,1.04-.27.3-.18.54-.44.72-.77.17-.34.26-.73.26-1.19s-.09-.86-.26-1.19c-.17-.33-.41-.59-.72-.77-.3-.18-.65-.27-1.03-.27s-.73.09-1.03.27c-.3.18-.54.43-.72.77-.18.33-.27.73-.27,1.19s.09.85.27,1.19c.18.34.42.6.72.77.3.18.64.27,1.02.27Z"/>
        <path class="st0" d="M451.36,66.41v-7.12h1.51v1.92l-.27-.59c.24-.45.58-.8,1.03-1.05.45-.24.97-.37,1.56-.37.54,0,1.02.11,1.45.33.43.22.76.56,1.01,1.02.24.46.37,1.05.37,1.77v4.08h-1.58v-3.87c0-.63-.14-1.1-.42-1.41-.28-.31-.68-.47-1.18-.47-.37,0-.7.08-.99.24-.29.16-.51.4-.67.71-.16.32-.23.71-.23,1.19v3.6h-1.58Z"/>
        <path class="st0" d="M467.17,66.54c-.68,0-1.3-.12-1.88-.35-.58-.24-1.08-.57-1.51-1-.43-.43-.76-.94-.99-1.53-.24-.59-.35-1.23-.35-1.92s.12-1.33.35-1.92c.24-.59.57-1.1,1-1.53.43-.43.93-.77,1.51-1,.57-.24,1.2-.35,1.89-.35.73,0,1.39.13,1.99.39.6.26,1.11.65,1.52,1.17l-1.06,1.05c-.32-.36-.68-.64-1.08-.82-.4-.18-.83-.27-1.29-.27s-.89.08-1.27.24c-.38.16-.72.39-1,.68-.28.29-.5.64-.66,1.04-.16.4-.23.84-.23,1.32s.08.92.23,1.32c.16.4.38.75.66,1.04.28.29.62.52,1,.68.38.16.81.24,1.27.24s.9-.09,1.29-.27c.4-.18.76-.46,1.08-.83l1.06,1.07c-.41.51-.92.89-1.52,1.16-.6.27-1.27.4-2,.4Z"/>
        <path class="st0" d="M474.85,66.5c-.75,0-1.41-.16-1.97-.47-.56-.32-1-.75-1.31-1.3-.31-.55-.46-1.18-.46-1.88s.15-1.34.45-1.89c.3-.55.71-.98,1.24-1.29.53-.31,1.13-.47,1.81-.47s1.25.15,1.76.45c.52.3.92.73,1.22,1.28.3.55.44,1.2.44,1.95,0,.07,0,.15,0,.24,0,.09-.01.17-.02.25h-5.64v-1.11h4.8l-.62.35c0-.41-.07-.77-.24-1.08-.17-.31-.4-.56-.69-.73-.29-.18-.63-.27-1.01-.27s-.73.09-1.02.27c-.29.18-.52.43-.68.74-.17.32-.25.69-.25,1.11v.27c0,.43.09.81.28,1.13.19.33.45.58.79.76.34.18.73.27,1.17.27.38,0,.72-.06,1.03-.19.3-.12.57-.32.81-.59l.85,1.03c-.3.37-.69.66-1.15.86-.46.2-.99.3-1.58.3Z"/>
        <path class="st0" d="M479.24,66.41v-7.12h1.51v1.92l-.27-.59c.24-.45.58-.8,1.03-1.05.45-.24.97-.37,1.57-.37.54,0,1.02.11,1.45.33.43.22.76.56,1.01,1.02.24.46.37,1.05.37,1.77v4.08h-1.58v-3.87c0-.63-.14-1.1-.42-1.41s-.68-.47-1.18-.47c-.37,0-.7.08-.99.24-.29.16-.51.4-.67.71-.16.32-.23.71-.23,1.19v3.6h-1.58Z"/>
        <path class="st0" d="M486.58,60.62v-1.33h4.51v1.33h-4.51ZM490.03,66.5c-.74,0-1.32-.2-1.72-.61-.41-.41-.61-1-.61-1.79v-6.39h1.58v6.35c0,.34.08.6.25.79.17.19.39.28.69.28.35,0,.65-.1.89-.29l.44,1.19c-.19.16-.41.28-.68.36-.27.08-.55.12-.84.12Z"/>
        <path class="st0" d="M495.52,66.5c-.75,0-1.41-.16-1.97-.47-.56-.32-1-.75-1.31-1.3-.31-.55-.46-1.18-.46-1.88s.15-1.34.45-1.89c.3-.55.71-.98,1.24-1.29.53-.31,1.13-.47,1.81-.47s1.25.15,1.76.45c.52.3.92.73,1.22,1.28.3.55.44,1.2.44,1.95,0,.07,0,.15,0,.24,0,.09-.01.17-.02.25h-5.64v-1.11h4.8l-.62.35c0-.41-.07-.77-.24-1.08-.17-.31-.4-.56-.69-.73-.29-.18-.63-.27-1.01-.27s-.73.09-1.02.27c-.29.18-.52.43-.68.74-.17.32-.25.69-.25,1.11v.27c0,.43.09.81.28,1.13.19.33.45.58.79.76.34.18.73.27,1.17.27.38,0,.72-.06,1.03-.19.3-.12.57-.32.81-.59l.85,1.03c-.3.37-.69.66-1.15.86-.46.2-.99.3-1.58.3Z"/>
        <path class="st0" d="M499.91,66.41v-7.12h1.51v1.96l-.18-.57c.2-.48.52-.84.96-1.09.44-.25.98-.37,1.63-.37v1.59c-.07-.02-.13-.03-.19-.03-.06,0-.12,0-.18,0-.6,0-1.08.18-1.43.55-.35.37-.53.92-.53,1.65v3.46h-1.58Z"/>
      </g>
    </g>
  </g>
</svg>