<?xml version="1.0" encoding="UTF-8"?>
<svg id="_圖層_1" xmlns="http://www.w3.org/2000/svg" version="1.1" viewBox="0 0 1340 300">
  <!-- Generator: Adobe Illustrator 29.8.1, SVG Export Plug-In . SVG Version: 2.1.1 Build 2)  -->
  <defs>
    <style>
      .st0 {
        fill: #fff;
      }

      .st1 {
        fill: #ff4178;
      }
    </style>
  </defs>
  <g>
    <g>
      <path class="st0" d="M2.03,115.99h16.75c4.27,0,7.63,1.17,9.76,3.31,1.65,1.65,2.51,3.68,2.51,6.19v.11c0,4.48-2.56,6.88-5.33,8.32,4.37,1.49,7.41,4,7.41,9.07v.11c0,6.67-5.49,10.24-13.81,10.24H2.03v-37.35ZM17.45,131.73c4.21,0,7.04-1.65,7.04-5.07v-.11c0-2.93-2.35-4.75-6.56-4.75h-9.44v9.92h8.96,0ZM19.37,147.51c4.48,0,7.2-1.76,7.2-5.12v-.11c0-3.15-2.51-5.01-7.68-5.01h-10.4v10.24h10.88Z"/>
      <path class="st0" d="M39.79,125.17h6.45v6.35c1.76-4.21,5.01-7.09,9.97-6.88v6.83h-.37c-5.65,0-9.6,3.68-9.6,11.15v10.72h-6.45v-28.16h0Z"/>
      <path class="st0" d="M61.92,114.71h6.93v6.13h-6.93v-6.13ZM62.19,125.17h6.45v28.16h-6.45v-28.16Z"/>
      <path class="st0" d="M75.63,139.3v-.11c0-9.33,6.35-14.61,13.07-14.61,4.64,0,7.57,2.35,9.6,4.96v-15.15h6.45v38.94h-6.45v-4.69c-2.08,2.93-5.01,5.28-9.6,5.28-6.61,0-13.07-5.28-13.07-14.61h0ZM98.4,139.3v-.11c0-5.44-3.84-9.01-8.16-9.01s-8.11,3.41-8.11,9.01v.11c0,5.44,3.73,9.01,8.11,9.01s8.16-3.63,8.16-9.01Z"/>
      <path class="st0" d="M112.74,158.61l2.4-4.85c2.99,1.87,6.19,2.99,10.03,2.99,5.76,0,8.91-2.99,8.91-8.64v-2.19c-2.35,3.04-5.28,5.17-9.92,5.17-6.61,0-12.8-4.91-12.8-13.17v-.11c0-8.32,6.24-13.23,12.8-13.23,4.75,0,7.68,2.19,9.87,4.8v-4.21h6.45v22.4c0,4.75-1.23,8.27-3.57,10.61-2.56,2.56-6.51,3.79-11.57,3.79-4.64,0-8.96-1.17-12.59-3.36h0ZM134.13,137.91v-.11c0-4.64-3.79-7.79-8.27-7.79s-8,3.09-8,7.73v.11c0,4.64,3.57,7.79,8,7.79s8.27-3.2,8.27-7.73Z"/>
      <path class="st0" d="M148.63,114.71h6.93v6.13h-6.93v-6.13ZM148.9,125.17h6.45v28.16h-6.45v-28.16Z"/>
      <path class="st0" d="M163.78,125.17h6.45v4.37c1.81-2.67,4.43-4.96,8.8-4.96,6.35,0,10.03,4.27,10.03,10.83v17.92h-6.45v-16c0-4.37-2.19-6.88-6.03-6.88s-6.35,2.61-6.35,6.99v15.89h-6.45v-28.16h0Z"/>
      <path class="st0" d="M196.79,158.61l2.4-4.85c2.99,1.87,6.19,2.99,10.03,2.99,5.76,0,8.91-2.99,8.91-8.64v-2.19c-2.35,3.04-5.28,5.17-9.92,5.17-6.61,0-12.8-4.91-12.8-13.17v-.11c0-8.32,6.24-13.23,12.8-13.23,4.75,0,7.68,2.19,9.87,4.8v-4.21h6.45v22.4c0,4.75-1.23,8.27-3.57,10.61-2.56,2.56-6.51,3.79-11.57,3.79-4.64,0-8.96-1.17-12.59-3.36h0ZM218.18,137.91v-.11c0-4.64-3.79-7.79-8.27-7.79s-8,3.09-8,7.73v.11c0,4.64,3.57,7.79,8,7.79s8.27-3.2,8.27-7.73Z"/>
      <path class="st0" d="M247.67,134.77v-.11c0-10.45,8-19.31,19.25-19.31,6.51,0,10.51,1.81,14.35,5.07l-4.16,4.96c-2.88-2.45-5.71-4-10.45-4-6.88,0-12.11,6.03-12.11,13.18v.11c0,7.68,5.07,13.33,12.69,13.33,3.52,0,6.72-1.12,9.01-2.83v-6.99h-9.55v-5.71h15.89v15.68c-3.68,3.15-8.96,5.81-15.57,5.81-11.68,0-19.36-8.32-19.36-19.2h.01Z"/>
      <path class="st0" d="M290.76,114.39h6.45v38.94h-6.45v-38.94Z"/>
      <path class="st0" d="M304.09,139.41v-.11c0-8.05,6.4-14.72,15.04-14.72s14.99,6.56,14.99,14.61v.11c0,8-6.4,14.67-15.09,14.67s-14.93-6.56-14.93-14.56h-.01ZM327.66,139.41v-.11c0-4.96-3.57-9.07-8.64-9.07s-8.48,4.05-8.48,8.96v.11c0,4.91,3.57,9.07,8.59,9.07s8.53-4.11,8.53-8.96h0Z"/>
      <path class="st0" d="M347.12,148.95v4.37h-6.45v-38.94h6.45v15.47c2.08-2.93,5.01-5.28,9.55-5.28,6.67,0,13.12,5.28,13.12,14.61v.11c0,9.33-6.4,14.61-13.12,14.61-4.64,0-7.57-2.35-9.55-4.96h0ZM363.23,139.3v-.11c0-5.44-3.68-9.01-8.05-9.01s-8.21,3.63-8.21,9.01v.11c0,5.44,3.84,9.01,8.21,9.01s8.05-3.47,8.05-9.01Z"/>
      <path class="st0" d="M393.63,153.33v-3.47c-1.92,2.29-4.85,4.05-9.12,4.05-5.33,0-10.03-3.04-10.03-8.69v-.11c0-6.24,4.85-9.23,11.41-9.23,3.41,0,5.6.48,7.79,1.17v-.53c0-3.89-2.45-6.03-6.93-6.03-3.15,0-5.49.69-8.05,1.76l-1.76-5.17c3.09-1.39,6.13-2.35,10.72-2.35,8.32,0,12.37,4.37,12.37,11.89v16.69h-6.4v.02ZM393.79,141.54c-1.65-.64-3.95-1.12-6.45-1.12-4.05,0-6.45,1.65-6.45,4.37v.11c0,2.67,2.4,4.16,5.44,4.16,4.27,0,7.47-2.4,7.47-5.92v-1.6h0Z"/>
      <path class="st0" d="M408.08,114.39h6.45v38.94h-6.45v-38.94Z"/>
      <path class="st0" d="M440.08,115.99h6.56v37.33h-6.56v-37.33Z"/>
      <path class="st0" d="M455.86,125.17h6.45v4.37c1.81-2.67,4.43-4.96,8.8-4.96,6.35,0,10.03,4.27,10.03,10.83v17.92h-6.45v-16c0-4.37-2.19-6.88-6.03-6.88s-6.35,2.61-6.35,6.99v15.89h-6.45v-28.16h0Z"/>
      <path class="st0" d="M488.92,125.17h6.45v4.37c1.81-2.67,4.43-4.96,8.8-4.96,6.35,0,10.03,4.27,10.03,10.83v17.92h-6.45v-16c0-4.37-2.19-6.88-6.03-6.88s-6.35,2.61-6.35,6.99v15.89h-6.45v-28.16h0Z"/>
      <path class="st0" d="M520.44,139.41v-.11c0-8.05,6.4-14.72,15.04-14.72s14.99,6.56,14.99,14.61v.11c0,8-6.4,14.67-15.09,14.67s-14.93-6.56-14.93-14.56h0ZM544.02,139.41v-.11c0-4.96-3.57-9.07-8.64-9.07s-8.48,4.05-8.48,8.96v.11c0,4.91,3.57,9.07,8.59,9.07s8.53-4.11,8.53-8.96h0Z"/>
      <path class="st0" d="M552.76,125.17h6.93l7.57,20.69,7.63-20.69h6.77l-11.52,28.38h-5.81s-11.57-28.38-11.57-28.38Z"/>
      <path class="st0" d="M603.05,153.33v-3.47c-1.92,2.29-4.85,4.05-9.12,4.05-5.33,0-10.03-3.04-10.03-8.69v-.11c0-6.24,4.85-9.23,11.41-9.23,3.41,0,5.6.48,7.79,1.17v-.53c0-3.89-2.45-6.03-6.93-6.03-3.15,0-5.49.69-8.05,1.76l-1.76-5.17c3.09-1.39,6.13-2.35,10.72-2.35,8.32,0,12.37,4.37,12.37,11.89v16.69h-6.4v.02ZM603.21,141.54c-1.65-.64-3.95-1.12-6.45-1.12-4.05,0-6.45,1.65-6.45,4.37v.11c0,2.67,2.4,4.16,5.44,4.16,4.27,0,7.47-2.4,7.47-5.92v-1.6h0Z"/>
      <path class="st0" d="M618.19,145.54v-14.83h-3.57v-5.55h3.57v-7.73h6.45v7.73h7.57v5.55h-7.57v13.81c0,2.51,1.28,3.52,3.47,3.52,1.44,0,2.72-.32,4-.96v5.28c-1.6.91-3.41,1.44-5.81,1.44-4.75,0-8.11-2.08-8.11-8.27h0Z"/>
      <path class="st0" d="M638.83,114.71h6.93v6.13h-6.93v-6.13ZM639.1,125.17h6.45v28.16h-6.45v-28.16Z"/>
      <path class="st0" d="M652.43,139.41v-.11c0-8.05,6.4-14.72,15.04-14.72s14.99,6.56,14.99,14.61v.11c0,8-6.4,14.67-15.09,14.67s-14.93-6.56-14.93-14.56h0ZM676.01,139.41v-.11c0-4.96-3.57-9.07-8.64-9.07s-8.48,4.05-8.48,8.96v.11c0,4.91,3.57,9.07,8.59,9.07s8.53-4.11,8.53-8.96h0Z"/>
      <path class="st0" d="M689.01,125.17h6.45v4.37c1.81-2.67,4.43-4.96,8.8-4.96,6.35,0,10.03,4.27,10.03,10.83v17.92h-6.45v-16c0-4.37-2.19-6.88-6.03-6.88s-6.35,2.61-6.35,6.99v15.89h-6.45v-28.16h0Z"/>
      <path class="st0" d="M755.3,153.33v-3.47c-1.92,2.29-4.85,4.05-9.12,4.05-5.33,0-10.03-3.04-10.03-8.69v-.11c0-6.24,4.85-9.23,11.41-9.23,3.41,0,5.6.48,7.79,1.17v-.53c0-3.89-2.45-6.03-6.93-6.03-3.15,0-5.49.69-8.05,1.76l-1.76-5.17c3.09-1.39,6.13-2.35,10.72-2.35,8.32,0,12.37,4.37,12.37,11.89v16.69h-6.4v.02ZM755.46,141.54c-1.65-.64-3.95-1.12-6.45-1.12-4.05,0-6.45,1.65-6.45,4.37v.11c0,2.67,2.4,4.16,5.44,4.16,4.27,0,7.47-2.4,7.47-5.92v-1.6h0Z"/>
      <path class="st0" d="M769.38,125.17h6.45v4.37c1.81-2.67,4.43-4.96,8.8-4.96,6.35,0,10.03,4.27,10.03,10.83v17.92h-6.45v-16c0-4.37-2.19-6.88-6.03-6.88s-6.35,2.61-6.35,6.99v15.89h-6.45v-28.16h0Z"/>
      <path class="st0" d="M801,139.3v-.11c0-9.33,6.35-14.61,13.07-14.61,4.64,0,7.57,2.35,9.6,4.96v-15.15h6.45v38.94h-6.45v-4.69c-2.08,2.93-5.01,5.28-9.6,5.28-6.61,0-13.07-5.28-13.07-14.61h0ZM823.78,139.3v-.11c0-5.44-3.84-9.01-8.16-9.01s-8.11,3.41-8.11,9.01v.11c0,5.44,3.73,9.01,8.11,9.01s8.16-3.63,8.16-9.01Z"/>
      <path class="st0" d="M854.92,115.99h27.68v5.87h-21.12v9.71h18.72v5.87h-18.72v10.03h21.39v5.87h-27.95v-37.35Z"/>
      <path class="st0" d="M897.8,139.03l-9.97-13.87h7.04l6.51,9.28,6.51-9.28h6.88l-9.97,13.71,10.4,14.45h-7.04l-6.93-9.87-6.88,9.87h-6.88l10.35-14.29h-.02Z"/>
      <path class="st0" d="M917.42,139.41v-.11c0-8,6.19-14.72,14.61-14.72,5.33,0,8.64,1.97,11.25,4.85l-4,4.32c-1.97-2.08-4.05-3.52-7.31-3.52-4.69,0-8.11,4.05-8.11,8.96v.11c0,5.01,3.47,9.07,8.43,9.07,3.04,0,5.28-1.44,7.31-3.52l3.89,3.84c-2.77,3.09-6.03,5.28-11.52,5.28-8.37,0-14.56-6.56-14.56-14.56h.01Z"/>
      <path class="st0" d="M947.07,139.35v-.11c0-8.05,5.71-14.67,13.76-14.67,8.96,0,13.49,7.04,13.49,15.15,0,.59-.05,1.17-.11,1.81h-20.69c.69,4.59,3.95,7.15,8.11,7.15,3.15,0,5.39-1.17,7.63-3.36l3.79,3.36c-2.67,3.2-6.35,5.28-11.52,5.28-8.16,0-14.45-5.92-14.45-14.61h0ZM967.93,137.27c-.43-4.16-2.88-7.41-7.15-7.41-3.95,0-6.72,3.04-7.31,7.41h14.46Z"/>
      <path class="st0" d="M980.83,125.17h6.45v4.69c2.08-2.93,5.01-5.28,9.55-5.28,6.67,0,13.12,5.28,13.12,14.61v.11c0,9.33-6.4,14.61-13.12,14.61-4.64,0-7.57-2.35-9.55-4.96v12.91h-6.45v-36.7h0ZM1003.39,139.3v-.11c0-5.44-3.68-9.01-8.05-9.01s-8.21,3.63-8.21,9.01v.11c0,5.44,3.84,9.01,8.21,9.01s8.05-3.47,8.05-9.01Z"/>
      <path class="st0" d="M1017.89,145.54v-14.83h-3.57v-5.55h3.57v-7.73h6.45v7.73h7.57v5.55h-7.57v13.81c0,2.51,1.28,3.52,3.47,3.52,1.44,0,2.72-.32,4-.96v5.28c-1.6.91-3.41,1.44-5.81,1.44-4.75,0-8.11-2.08-8.11-8.27h0Z"/>
      <path class="st0" d="M1038.53,114.71h6.93v6.13h-6.93v-6.13ZM1038.8,125.17h6.45v28.16h-6.45v-28.16Z"/>
      <path class="st0" d="M1052.13,139.41v-.11c0-8.05,6.4-14.72,15.04-14.72s14.99,6.56,14.99,14.61v.11c0,8-6.4,14.67-15.09,14.67s-14.93-6.56-14.93-14.56h-.01ZM1075.7,139.41v-.11c0-4.96-3.57-9.07-8.64-9.07s-8.48,4.05-8.48,8.96v.11c0,4.91,3.57,9.07,8.59,9.07s8.53-4.11,8.53-8.96h0Z"/>
      <path class="st0" d="M1088.71,125.17h6.45v4.37c1.81-2.67,4.43-4.96,8.8-4.96,6.35,0,10.03,4.27,10.03,10.83v17.92h-6.45v-16c0-4.37-2.19-6.88-6.03-6.88s-6.35,2.61-6.35,6.99v15.89h-6.45v-28.16h0Z"/>
      <path class="st0" d="M1139,153.33v-3.47c-1.92,2.29-4.85,4.05-9.12,4.05-5.33,0-10.03-3.04-10.03-8.69v-.11c0-6.24,4.85-9.23,11.41-9.23,3.41,0,5.6.48,7.79,1.17v-.53c0-3.89-2.45-6.03-6.93-6.03-3.15,0-5.49.69-8.05,1.76l-1.76-5.17c3.09-1.39,6.13-2.35,10.72-2.35,8.32,0,12.37,4.37,12.37,11.89v16.69h-6.4v.02ZM1139.16,141.54c-1.65-.64-3.95-1.12-6.45-1.12-4.05,0-6.45,1.65-6.45,4.37v.11c0,2.67,2.4,4.16,5.44,4.16,4.27,0,7.47-2.4,7.47-5.92v-1.6h-.01Z"/>
      <path class="st0" d="M1153.45,114.39h6.45v38.94h-6.45v-38.94Z"/>
      <path class="st0" d="M1194.25,122.07h-11.84v-6.08h30.29v6.08h-11.84v31.25h-6.61v-31.25h0Z"/>
      <path class="st0" d="M1230.04,153.33v-3.47c-1.92,2.29-4.85,4.05-9.12,4.05-5.33,0-10.03-3.04-10.03-8.69v-.11c0-6.24,4.85-9.23,11.41-9.23,3.41,0,5.6.48,7.79,1.17v-.53c0-3.89-2.45-6.03-6.93-6.03-3.15,0-5.49.69-8.05,1.76l-1.76-5.17c3.09-1.39,6.13-2.35,10.72-2.35,8.32,0,12.37,4.37,12.37,11.89v16.69h-6.4v.02ZM1230.2,141.54c-1.65-.64-3.95-1.12-6.45-1.12-4.05,0-6.45,1.65-6.45,4.37v.11c0,2.67,2.4,4.16,5.44,4.16,4.27,0,7.47-2.4,7.47-5.92v-1.6h-.01Z"/>
      <path class="st0" d="M1244.49,114.39h6.45v38.94h-6.45v-38.94Z"/>
      <path class="st0" d="M1257.82,139.35v-.11c0-8.05,5.71-14.67,13.76-14.67,8.96,0,13.49,7.04,13.49,15.15,0,.59-.05,1.17-.11,1.81h-20.69c.69,4.59,3.95,7.15,8.11,7.15,3.15,0,5.39-1.17,7.63-3.36l3.79,3.36c-2.67,3.2-6.35,5.28-11.52,5.28-8.16,0-14.45-5.92-14.45-14.61h-.01ZM1278.67,137.27c-.43-4.16-2.88-7.41-7.15-7.41-3.95,0-6.72,3.04-7.31,7.41h14.46Z"/>
      <path class="st0" d="M1291.57,125.17h6.45v4.37c1.81-2.67,4.43-4.96,8.8-4.96,6.35,0,10.03,4.27,10.03,10.83v17.92h-6.46v-16c0-4.37-2.19-6.88-6.03-6.88s-6.35,2.61-6.35,6.99v15.89h-6.45v-28.16h0Z"/>
      <path class="st0" d="M1325.97,145.54v-14.83h-3.57v-5.55h3.57v-7.73h6.45v7.73h7.57v5.55h-7.57v13.81c0,2.51,1.28,3.52,3.47,3.52,1.44,0,2.72-.32,4-.96v5.28c-1.6.91-3.41,1.44-5.81,1.44-4.75,0-8.11-2.08-8.11-8.27h0Z"/>
    </g>
    <g>
      <path class="st1" d="M46.33,4.35c8.12,11.87,23.03,23.65,37.76,29.46-1.79,1.78-4.46,5.27-5.71,7.59-3.93-1.87-7.85-4.02-11.6-6.52v7.05h-20.71v12.14h24.55v7.41h-24.55v13.21h34.19v7.59H4.02v-7.59h33.12v-13.21H12.85v-7.41h24.28v-12.14h-20.17v-7.32c-3.93,2.77-7.94,5.18-11.69,7.14C4.02,39.61,1.88,36.66,0,34.88c10.71-4.73,23.03-13.57,31.78-22.67h-14.28v-7.86s28.83,0,28.83,0ZM41.78,12.21c-6.43,7.77-15.44,15.8-24.46,22.14h48.74c-9.37-6.25-17.85-14.1-24.28-22.14Z"/>
      <path class="st1" d="M107.02,64.34v-23.39h-9.55v-7.77h9.55V15.24h-10.18v-7.86h27.94v7.86h-9.82v17.94h8.39v7.77h-8.39v21.07l10.27-3.12,1.07,6.6c5.98-4.82,14.19-11.69,21.78-18.39v-22.58h-21.33v-7.68h21.33V1.85h8.12v15h22.85v7.68h-22.85v3.3c1.07,6.25,2.32,11.69,3.93,16.42,3.84-4.73,8.03-10.62,10.71-15.17l7.32,3.84c-4.73,6.34-10.53,13.57-15.26,18.48,3.93,8.21,9.55,14.46,17.67,20.17-1.96,1.52-4.2,4.11-5.27,6.43-8.84-6.61-14.82-13.84-19.1-23.3v19.99c0,4.55-1.07,6.87-3.84,8.3-2.77,1.43-7.05,1.7-13.93,1.7-.36-2.23-1.79-5.89-2.95-8.12,4.82.18,9.19.09,10.62.09,1.34,0,1.96-.45,1.96-1.96v-18.39c-6.87,6.96-14.1,13.75-19.99,19.19l-5.09-7.41,1.07-.8-26.51,8.39-1.87-8.12,11.34-3.21h.01ZM134.25,29.52c3.75,5,7.77,11.69,9.37,16.16l-7.05,3.3c-1.34-4.46-5.18-11.43-8.84-16.51l6.52-2.95ZM164.6,2.57c3.84,2.5,8.48,6.43,10.71,9.11l-5,5c-2.14-2.95-6.61-6.96-10.44-9.73l4.73-4.37h0Z"/>
      <path class="st1" d="M226.9,9.62c-3.39,1.34-7.41,2.5-11.69,3.48v13.75h12.59v7.94h-12.59v1.16c2.5,2.59,10.35,12.05,12.14,14.46l-5.09,6.61c-1.34-2.77-4.37-7.77-7.05-11.96v39.45h-8.21v-36.33c-3.39,8.12-7.41,15.8-11.52,20.89-.8-2.32-2.77-5.8-4.11-7.86,5.44-6.07,11.07-16.87,14.46-26.42h-13.21v-7.94h14.37v-12.05c-3.84.71-7.68,1.34-11.34,1.78-.27-1.87-1.43-4.73-2.32-6.52,10.09-1.61,21.6-4.29,28.65-7.32l4.91,6.87h.01ZM256.26,54.7V1.67h8.3v51.59l9.82-1.61,1.25,7.86-11.07,1.87v23.12h-8.3v-21.69l-28.39,4.82-1.34-8.03,29.72-4.91h.01ZM235.11,30.86c5.53,3.57,12.32,9.02,15.44,12.85l-5.71,5.53c-3.03-3.93-9.55-9.64-15.09-13.48l5.36-4.91h0ZM238.59,7.57c5.18,3.48,11.43,8.75,14.37,12.59l-5.89,5.35c-2.68-3.84-8.75-9.37-13.93-13.12l5.45-4.82h0Z"/>
      <path class="st1" d="M308.48,1.76v17.58h9.37v7.86h-9.37v15.8l9.11-2.41,1.07,7.68-10.18,2.95v23.66c0,4.37-.98,6.61-3.57,7.86-2.68,1.34-6.69,1.61-12.85,1.52-.36-2.05-1.43-5.44-2.5-7.68,3.93.09,7.77.09,8.93,0,1.16,0,1.7-.45,1.7-1.7v-21.33l-9.91,2.77-2.23-8.12c3.39-.8,7.59-1.79,12.14-2.95v-18.03h-11.07v-7.86h11.07V1.76h8.3,0ZM347.75,1.76v13.48h20.89v7.86h-20.89v12.23h12.68l1.52-.36,5.45,2.32c-3.57,12.41-9.73,22.14-17.58,29.72,6.16,4.73,13.57,8.21,22.14,10.44-1.87,1.7-4.19,5.09-5.44,7.23-9.02-2.68-16.78-6.78-23.3-12.14-7.32,5.36-15.71,9.28-24.73,11.96-.8-2.23-2.86-5.8-4.46-7.59,8.39-2.14,16.25-5.53,23.12-10.26-5.89-6.43-10.44-14.19-13.93-23.21l1.52-.45h-3.93v-7.68h18.57v-12.23h-20.26v-7.86h20.26V1.76h8.39-.02ZM343.56,61.57c5.53-5.09,10.09-11.34,13.12-18.57h-25.17c2.86,7.05,6.87,13.3,12.05,18.57h0Z"/>
      <path class="st1" d="M408.81,2.21l3.84,6.87c-3.93,1.52-8.57,3.03-12.85,4.28l.27,9.46h11.25v7.05h-10.98l.27,9.46h10.98v7.05h-10.71l.27,9.55h49.18l.54-9.19h-10.53v-7.05h10.89l.27-9.64h-10.62v-6.96h10.8l.18-9.73h-11.87v-7.32h19.64c-.09,15.89-.54,36.51-1.34,49.9h8.3v7.86h-81.59v-7.86h8.57l-1.61-46.95c5.62-1.87,12.41-4.55,16.87-6.78h-.02ZM417.82,69.51c-7.5,5.44-18.48,11.25-27.23,15-1.16-1.78-3.3-4.64-4.91-6.43,8.48-3.3,19.37-9.19,25.17-13.83l6.96,5.27h.01ZM424.16,36.04c-.8,6.07-2.5,12.14-5.18,16.16-1.16-.98-3.93-2.68-5.53-3.39,2.59-3.75,3.57-8.75,4.2-13.93l6.52,1.16h-.01ZM422.73,2.39v7.41h14.55v7.05h-14.55v8.21l11.07.09h2.77v23.3c0,3.12-.62,4.55-2.77,5.53-2.14.89-5.44.89-9.82.89-.27-1.7-1.16-3.84-1.96-5.44,2.86.18,5.45.18,6.34.09.89,0,1.07-.27,1.07-1.07v-16.69h-13.93V2.39h7.23,0ZM438.26,63.8c9.46,4.37,19.82,9.91,25.97,14.01l-5.53,6.43c-5.89-4.19-15.89-10.09-25.08-14.55l4.64-5.89h0Z"/>
      <path class="st1" d="M512.35,7.21v7.94h-10.44v56.77c0,4.73-.98,6.96-3.93,8.39-2.95,1.34-7.59,1.52-14.46,1.52-.36-2.23-1.52-5.89-2.59-8.21,4.73.18,9.37.09,10.8.09,1.43-.09,1.87-.53,1.87-1.87V15.15h-13.48v-7.94h32.23ZM533.41,72.73c-5.8,4.55-15.09,9.11-22.85,11.69-1.16-1.7-3.57-4.19-5.27-5.89,7.59-2.41,16.6-6.78,21.07-10.53,0,0,7.05,4.73,7.05,4.73ZM531.18,20.42c.62-2.41,1.16-5.09,1.61-7.59h-19.1v-7.23h49.09v7.23h-20.35l-2.77,7.59h20.17v46.86h-43.2V20.42h14.55ZM524.49,34.08h27.05v-7.32h-27.05v7.32ZM524.49,47.47h27.05v-7.41h-27.05v7.41ZM524.49,60.94h27.05v-7.5h-27.05v7.5ZM546.71,68.35c5.8,3.12,13.75,7.94,17.94,11.34l-6.78,5c-3.66-3.3-11.43-8.39-17.5-11.78l6.34-4.55h0Z"/>
      <path class="st1" d="M622.04,38.27c-.27,3.12-.62,6.16-1.16,9.01h36.51v7.59h-33.56c5.71,12.5,16.87,19.64,35.08,22.05-1.79,1.79-3.93,5.27-4.91,7.68-18.57-3.39-29.64-11.16-36.42-24.99-4.73,11.78-14.46,20.26-36.24,24.9-.8-2.14-2.86-5.44-4.46-7.23,21.15-4.11,29.46-11.69,33.21-22.41h-32.31v-7.59h34.19c.45-2.86.8-5.8,1.07-9.01h9.01-.01ZM602.5,11.67c-4.28,9.91-11.25,19.91-17.85,26.33-1.52-1.43-4.82-4.02-6.69-5.27,6.6-5.62,12.94-14.46,16.51-23.3l8.03,2.23h0ZM621.42,1.76v33.83h-8.84V1.76h8.84ZM638.29,9.26c7.32,7.14,15.62,17.05,19.28,24.01l-7.77,4.11c-3.3-6.69-11.25-17.05-18.57-24.46l7.05-3.66h.01Z"/>
      <path class="st1" d="M717.91,1.94c-.09,3.48-.18,8.12-.62,13.48,1.25,11.25,6.78,47.22,38.29,61.23-2.5,1.96-5,4.91-6.25,7.23-21.15-10-31.06-29.81-35.79-46.06-4.55,16.96-14.1,35.17-34.46,46.51-1.43-2.23-4.19-4.91-6.96-6.78,36.87-19.1,35.88-61.23,36.15-75.6h9.64Z"/>
      <path class="st1" d="M826.54,1.76v17.94h22.23v8.66h-22.23v44.19c0,5.62-1.34,8.03-4.91,9.46-3.48,1.43-9.11,1.61-18.03,1.61-.36-2.5-1.7-6.43-2.95-8.93,5.98.27,12.32.18,14.01.18,1.87-.09,2.59-.62,2.59-2.41V31.04c-10.18,16.87-26.6,34.01-42.85,43.38-1.52-2.41-4.19-5.62-6.6-7.59,15.53-7.86,31.15-23.12,40.79-38.47h-37.94v-8.66h46.59V1.76h9.3Z"/>
      <path class="st1" d="M921.87,3.46c-1.07,4.11-2.32,8.21-3.75,12.23h26.15v4.02c-1.34,40.7-2.41,54.72-6.07,59.18-2.23,3.03-4.46,3.84-7.86,4.28-3.12.36-8.48.27-13.57,0-.18-2.32-1.25-5.89-2.86-8.21,5.8.54,11.16.54,13.39.54,1.79,0,2.77-.27,3.84-1.43,2.77-3.03,4.02-16.6,5.09-50.61h-21.15c-2.5,5.8-5.36,10.98-8.3,15.08-1.34-1.25-4.55-3.39-6.52-4.64v41.42h-24.46v6.87h-7.77V16.14h10.18c1.16-4.37,2.5-10.18,3.03-14.55l9.19,1.52c-1.43,4.46-3.21,9.19-4.73,13.03h14.55v16.96c5.89-7.77,10.71-19.73,13.48-31.51l8.12,1.87h.02ZM875.81,40.59h16.69v-16.96h-16.69v16.96ZM892.5,67.73v-19.82h-16.69v19.82h16.69ZM916.06,36.31c4.73,6.25,10.8,14.82,13.66,20.09l-7.14,4.46c-2.59-5.44-8.39-14.28-13.12-20.8l6.6-3.75h0Z"/>
      <path class="st1" d="M1005.32,29.61v27.14h-31.15l-.54,3.57h33.83v23.56h-7.41v-3.12h-19.46v3.3h-7.14v-22.58c-1.25,6.96-3.39,13.93-6.87,19.64-1.52-1.16-5.18-2.77-7.23-3.48,7.05-11.07,7.86-26.42,7.86-36.78v-11.25s38.11,0,38.11,0ZM993.09,4.98l-1.52,2.32c6.78,4.02,14.82,8.84,19.1,12.14l-4.46,7.05c-4.28-3.48-12.41-8.84-19.37-13.21-2.32,2.59-4.82,5-7.5,7.23h17.14v5.27h-18.66v-4.02c-4.37,3.57-9.19,6.69-13.84,9.1-.8-1.87-3.04-5.98-4.55-7.94,10.18-4.55,20.35-12.05,25.89-20.89,0,0,7.77,2.95,7.77,2.95ZM974.79,50.77h22.85v-5.09h-22.58l-.27,5.09h0ZM997.64,40.41v-4.82h-22.49v4.82h22.49ZM1000.05,74.33v-8.03h-19.46v8.03h19.46ZM1022.1,11.32v49.72h-7.94V11.32h7.94ZM1038.88,2.12v71.86c0,4.91-1.07,7.32-3.93,8.66-2.86,1.43-7.59,1.7-14.91,1.7-.36-2.32-1.52-6.07-2.68-8.48,5.18.18,9.91.18,11.34.09,1.52,0,2.05-.45,2.05-2.05V2.12h8.13Z"/>
      <path class="st1" d="M1070.84,59.34c-2.23,6.43-5.89,13.57-9.19,18.21-1.25-1.07-4.02-3.12-5.71-3.93,3.3-4.28,6.34-10.44,8.3-16.16l6.6,1.87h0ZM1093.15,19.53c-1.52,3.93-3.12,8.12-4.64,11.51h10.53v7.05h-16.51v8.21h15.26v7.23h-15.26v30.62h-8.21v-30.62h-17.41v-7.23h17.41v-8.21h-17.85v-7.05h9.82c-.36-3.04-1.61-7.77-3.12-11.34l6.87-1.61c1.52,3.48,2.95,8.12,3.39,11.07l-6.78,1.87h14.28c1.61-3.84,3.48-9.28,4.46-13.12l7.77,1.61h-.01ZM1079.49,1.05c1.61,3.04,3.39,6.78,4.46,9.82h13.66v6.96h-39.72v-6.96h16.51c-.98-2.59-2.14-5.36-3.3-7.68l8.39-2.14ZM1091.28,56.66c2.86,4.28,5.98,9.91,7.41,13.57l-5.8,3.48c-1.43-3.75-4.55-9.64-7.23-14.01l5.62-3.03h0ZM1130.46,3.01l6.61,6.25c-7.41,2.86-17.14,5-26.33,6.61v15.71h27.94v7.85h-9.19v44.72h-8.21v-44.72h-10.53v2.23c0,13.03-1.16,31.06-9.19,42.58-1.34-1.52-4.73-4.1-6.52-5,7.23-10.53,7.77-25.8,7.77-37.58V10.33c10-1.7,21.15-4.46,27.67-7.32h-.02Z"/>
      <path class="st1" d="M1193.57,58.27c5.44-5.18,9.64-11.52,12.5-19.19l8.57,2.5c-3.66,8.84-8.57,16.07-14.73,22.05,9.02,6.34,20.44,10.71,34.28,12.85-1.79,1.79-4.11,5.27-5.18,7.59-14.55-2.68-26.24-7.68-35.53-15-9.73,7.32-21.69,12.23-35.62,15.62-.89-1.96-3.48-5.71-5.09-7.59,13.75-2.77,25.35-7.05,34.46-13.57-5.71-5.98-10.35-13.21-13.93-21.6l7.59-2.41c2.95,7.23,7.23,13.57,12.68,18.74h0ZM1184.46,27.02c-6.16,7.68-15.71,15.8-23.57,20.8-1.61-1.7-4.82-4.91-6.69-6.25,7.94-4.28,16.78-11.16,22.05-17.76l8.21,3.21h0ZM1193.3.78c2.41,3.66,5.36,8.75,6.52,11.96l-2.32.89h34.63v8.21h-77.84v-8.21h36.24c-1.25-3.12-3.3-6.96-5.27-10.09l8.03-2.77h0ZM1209.63,23.54c7.94,5.36,18.12,13.48,23.03,19.1l-7.14,5.54c-4.46-5.62-14.46-14.1-22.58-19.82l6.69-4.82Z"/>
      <path class="st1" d="M1292.11,5.42v7.23h-43.2v-7.23s43.2,0,43.2,0ZM1290.59,39.88v36.06c0,3.21-.54,5.18-2.77,6.34-2.05.98-5.27,1.16-9.82,1.16-.18-1.96-1.07-4.64-1.87-6.52,2.86.09,5.62.09,6.43.09.89-.09,1.16-.36,1.16-1.16v-29.55h-26.96v38.11h-6.52v-44.54h40.35,0ZM1287.82,16.94v18.75h-34.54v-18.75s34.54,0,34.54,0ZM1281.31,49.7c-1.79,3.39-3.66,7.23-5.44,10.35h5.18v5.44h-7.68v16.34h-6.16v-16.34h-8.03v-5.44h11.25c1.96-3.66,4.37-8.93,5.53-12.5l5.36,2.14h-.01ZM1264.35,48c2.05,3.04,4.11,7.23,4.82,9.91l-4.82,1.87c-.62-2.77-2.68-6.96-4.55-10.18l4.55-1.61h0ZM1260.42,29.79h19.82v-6.96h-19.82v6.96ZM1307.19,19.17V2.66h7.41v16.51h12.68v35.08h-12.68v17.32l6.96-1.07c-.98-3.66-2.14-7.32-3.3-10.53l5.89-1.34c3.04,7.86,5.98,18.12,6.87,24.19l-6.34,1.79c-.27-2.05-.71-4.46-1.34-7.23-10.09,1.96-20.44,3.84-28.39,5.18l-1.87-7.68,14.1-2.05v-18.57h-12.77V19.17h12.78ZM1300.59,46.93h7.23v-20.53h-7.23v20.53ZM1313.98,46.93h6.87v-20.53h-6.87v20.53Z"/>
    </g>
  </g>
  <g>
    <path class="st0" d="M175.87,237.19h39.59v11.64h-39.59v-11.64Z"/>
    <path class="st0" d="M252.06,199.6h20.88c15.86,0,25.1,9.47,25.1,25.79v27.95c0,16.43-9.24,26.13-24.87,26.13h-21.11v-79.86ZM273.17,266.12c6.96,0,10.72-4.45,10.72-12.89v-27.84c0-8.22-3.76-12.44-10.72-12.44h-7.07v53.17h7.07Z"/>
    <path class="st0" d="M349.95,260.41c-1.14,12.89-9.13,20.42-22.13,20.42s-21.11-8.67-21.11-23.27v-17c0-14.49,7.99-22.93,21.33-22.93s21.68,8.44,21.68,22.93v13.46h-29.55v3.54c0,7.19,2.85,10.38,7.87,10.38,5.36,0,7.3-2.28,8.33-7.53h13.58ZM320.17,240.44v3.99h16.2v-3.99c0-7.07-2.85-10.27-8.21-10.27s-7.99,3.19-7.99,10.27Z"/>
    <path class="st0" d="M358.74,258.36v-18.37c0-14.03,7.87-22.36,20.99-22.36,13.81,0,21.22,8.33,21.68,22.36h-13.58c-.23-6.27-2.97-9.47-7.87-9.47s-7.64,3.2-7.64,9.47v18.37c0,6.39,2.74,9.58,7.64,9.58s7.64-3.19,7.99-9.58h13.58c-.34,14.15-8.56,22.48-21.79,22.48s-20.99-8.33-20.99-22.48Z"/>
    <path class="st0" d="M436.95,270.79c0-25.79,29.09-36.97,29.09-51.8,0-4.22-2.4-8.1-7.64-8.1-4.79,0-7.76,3.42-7.99,9.58h-12.78c.68-14.38,8.21-22.25,20.65-22.25,14.26,0,21.11,10.15,21.11,20.19,0,20.99-28.41,33.88-28.41,48.6h28.87v12.44h-42.9v-8.67Z"/>
    <path class="st0" d="M488.4,257.33v-35.37c0-14.6,8.33-23.5,22.02-23.5s22.25,8.9,22.25,23.5v35.37c0,14.49-8.33,23.27-22.25,23.27s-22.02-8.79-22.02-23.27ZM519.55,257.44v-35.37c0-7.19-3.2-10.95-9.13-10.95s-9.01,3.77-9.01,10.95v35.37c0,6.96,3.19,10.72,9.01,10.72s9.13-3.76,9.13-10.72Z"/>
    <path class="st0" d="M540.54,270.79c0-25.79,29.09-36.97,29.09-51.8,0-4.22-2.4-8.1-7.64-8.1-4.79,0-7.76,3.42-7.99,9.58h-12.78c.68-14.38,8.21-22.25,20.65-22.25,14.26,0,21.11,10.15,21.11,20.19,0,20.99-28.41,33.88-28.41,48.6h28.87v12.44h-42.9v-8.67Z"/>
    <path class="st0" d="M633.41,247.06v9.81c0,15.52-8.21,23.96-20.88,23.96s-20.42-8.44-20.76-22.36h13.35c.34,6.73,2.74,9.24,7.42,9.24s7.3-2.62,7.3-11.18v-8.56c0-7.87-2.4-10.5-6.85-10.5-4.11,0-6.5,2.62-7.42,6.96h-12.66v-44.84h37.88v11.98h-24.99v15.86c2.62-1.71,5.93-2.74,9.7-2.74,10.38,0,17.91,7.87,17.91,22.36Z"/>
    <path class="st0" d="M692.85,187.28h3.65v97.89h-3.65v-97.89Z"/>
    <path class="st0" d="M800.1,212.95h-16.09v66.52h-14.38v-66.52h-16.09v-13.35h46.55v13.35Z"/>
    <path class="st0" d="M839.57,240.33v39.13h-10.84l-.8-5.7c-2.4,4.22-6.62,7.3-13.35,7.3-11.07,0-18.14-7.76-18.14-18.83,0-12.55,9.13-18.71,22.48-18.71h7.07v-3.19c0-6.16-1.83-9.7-6.85-9.7-3.76,0-6.96,1.94-7.53,6.62h-13.46c.57-12.21,8.44-19.62,21.22-19.62,13.69,0,20.19,7.99,20.19,22.7ZM825.99,254.48h-6.85c-5.7,0-9.01,2.62-9.01,7.76,0,4.11,2.51,7.07,7.64,7.07s8.22-3.19,8.22-8.67v-6.16Z"/>
    <path class="st0" d="M850.75,201.88c0-4.56,3.19-7.87,7.76-7.87s7.87,3.31,7.87,7.87c0,4.22-3.42,7.87-7.87,7.87s-7.76-3.42-7.76-7.87ZM851.77,219.11h13.46v60.35h-13.46v-60.35Z"/>
    <path class="st0" d="M920.34,241.36v16.09c0,14.49-7.76,23.5-19.4,23.5-3.88,0-7.53-1.48-10.27-3.99v23.05h-13.12v-81h9.36l.8,5.59c2.97-3.76,8.1-6.84,13.23-6.84,11.64,0,19.4,9.13,19.4,23.62ZM906.65,241.36c0-7.3-2.85-10.84-7.76-10.84s-8.22,3.65-8.22,10.84v16.09c0,6.85,2.97,10.72,8.22,10.72s7.76-3.42,7.76-10.72v-16.09Z"/>
    <path class="st0" d="M973.05,260.41c-1.14,12.89-9.13,20.42-22.13,20.42s-21.11-8.67-21.11-23.27v-17c0-14.49,7.99-22.93,21.33-22.93s21.68,8.44,21.68,22.93v13.46h-29.55v3.54c0,7.19,2.85,10.38,7.87,10.38,5.36,0,7.3-2.28,8.33-7.53h13.58ZM943.27,240.44v3.99h16.2v-3.99c0-7.07-2.85-10.27-8.21-10.27s-7.99,3.19-7.99,10.27Z"/>
    <path class="st0" d="M982.18,201.88c0-4.56,3.19-7.87,7.76-7.87s7.87,3.31,7.87,7.87c0,4.22-3.42,7.87-7.87,7.87s-7.76-3.42-7.76-7.87ZM983.2,219.11h13.46v60.35h-13.46v-60.35Z"/>
    <path class="st0" d="M1007.85,266.91h12.89l-7.19,28.52h-7.99l2.28-28.52Z"/>
    <path class="st0" d="M1095.47,212.95h-16.09v66.52h-14.38v-66.52h-16.09v-13.35h46.55v13.35Z"/>
    <path class="st0" d="M1134.94,240.33v39.13h-10.84l-.8-5.7c-2.4,4.22-6.62,7.3-13.35,7.3-11.07,0-18.14-7.76-18.14-18.83,0-12.55,9.13-18.71,22.48-18.71h7.07v-3.19c0-6.16-1.83-9.7-6.85-9.7-3.76,0-6.96,1.94-7.53,6.62h-13.46c.57-12.21,8.44-19.62,21.22-19.62,13.69,0,20.19,7.99,20.19,22.7ZM1121.36,254.48h-6.85c-5.7,0-9.01,2.62-9.01,7.76,0,4.11,2.51,7.07,7.64,7.07s8.22-3.19,8.22-8.67v-6.16Z"/>
    <path class="st0" d="M1146.12,201.88c0-4.56,3.19-7.87,7.76-7.87s7.87,3.31,7.87,7.87c0,4.22-3.42,7.87-7.87,7.87s-7.76-3.42-7.76-7.87ZM1147.15,219.11h13.46v60.35h-13.46v-60.35Z"/>
    <path class="st0" d="M1240.93,219.11l-14.03,60.35h-14.49l-3.99-17.34c-2.05-8.9-3.65-18.94-4.11-25.56h-.57c-.57,6.62-2.17,16.66-4.11,25.56l-3.99,17.34h-14.6l-14.03-60.35h13.92l4.22,23.84c1.14,6.96,2.74,17.11,3.2,21.68h.57c.68-5.36,2.17-14.03,3.42-21.11l4.56-23.27h14.26l4.45,23.27c1.26,7.07,2.74,15.74,3.42,21.11h.57c.46-4.56,2.05-14.72,3.2-21.68l4.22-23.84h13.92Z"/>
    <path class="st0" d="M1285.54,240.33v39.13h-10.84l-.8-5.7c-2.4,4.22-6.62,7.3-13.35,7.3-11.07,0-18.14-7.76-18.14-18.83,0-12.55,9.13-18.71,22.48-18.71h7.07v-3.19c0-6.16-1.83-9.7-6.85-9.7-3.76,0-6.96,1.94-7.53,6.62h-13.46c.57-12.21,8.44-19.62,21.22-19.62,13.69,0,20.19,7.99,20.19,22.7ZM1271.96,254.48h-6.85c-5.7,0-9.01,2.62-9.01,7.76,0,4.11,2.51,7.07,7.64,7.07s8.22-3.19,8.22-8.67v-6.16Z"/>
    <path class="st0" d="M1339.96,242.04v37.42h-13.46v-37.08c0-8.56-2.4-11.87-7.07-11.87-5.02,0-8.22,3.88-8.22,11.18v37.76h-13.46v-60.35h9.13l1.14,6.5c3.08-5.13,7.99-7.99,14.6-7.99,10.84,0,17.34,7.99,17.34,24.41Z"/>
    <g>
      <path class="st0" d="M0,253.78v-28.55c0-16.9,9.36-27.06,25.23-27.06s25.12,10.16,25.12,27.06v28.55c0,16.9-9.36,27.06-25.12,27.06S0,270.68,0,253.78ZM35.85,253.78v-28.55c0-8.68-3.54-13.47-10.62-13.47s-10.73,4.8-10.73,13.47v28.55c0,8.68,3.65,13.47,10.73,13.47s10.62-4.8,10.62-13.47Z"/>
      <path class="st0" d="M59.03,258.35v-18.38c0-14.05,7.88-22.38,21.01-22.38,13.82,0,21.24,8.34,21.69,22.38h-13.59c-.23-6.28-2.97-9.48-7.88-9.48s-7.65,3.2-7.65,9.48v18.38c0,6.39,2.74,9.59,7.65,9.59s7.65-3.2,7.99-9.59h13.59c-.34,14.16-8.56,22.49-21.81,22.49s-21.01-8.34-21.01-22.49Z"/>
      <path class="st0" d="M138.51,267.6v12.67h-4.57c-12.56,0-20.21-8.11-20.21-21.12v-27.86h-8.11v-12.22h8.11v-14.39h13.36v14.39h10.51v12.22h-10.51v27.98c0,5.71,2.4,8.34,7.65,8.34h3.77Z"/>
    </g>
  </g>
</svg>