<?xml version="1.0" encoding="UTF-8"?>
<svg id="_圖層_1" xmlns="http://www.w3.org/2000/svg" version="1.1" viewBox="0 0 55.71 13.8">
  <!-- Generator: Adobe Illustrator 29.8.1, SVG Export Plug-In . SVG Version: 2.1.1 Build 2)  -->
  <defs>
    <style>
      .st0 {
        fill: #fff;
      }
    </style>
  </defs>
  <path class="st0" d="M2.7,2.32h-1.35v1.15h1.35v-1.15ZM2.21,3.1h-.4v-.39h.4v.39Z"/>
  <path class="st0" d="M.28.31v5.41h.69v-.25h3.77v.25h.72V.31H.28ZM4.74,4.83H.97V.96h2.92l-.28.28c.16.09.34.21.46.32h-.66c-.02-.17-.02-.34-.03-.51h-.6c.01.18.02.34.03.51h-1.64v.51h1.68c.06.6.14,1.15.26,1.59-.1.11-.19.21-.3.31v-.31c-.64.09-1.27.17-1.71.21l.07.53c.4-.07.88-.14,1.36-.21-.07.04-.14.09-.2.12.12.1.31.32.39.43.23-.15.44-.32.63-.51.12.2.27.34.45.4.4.18.72-.05.81-.79-.12-.07-.34-.23-.45-.34-.03.35-.08.59-.15.57-.1-.03-.19-.14-.27-.33.27-.39.49-.86.64-1.39l-.55-.11c-.07.27-.16.53-.28.76-.05-.27-.09-.59-.12-.92h1.09v-.51h-.29l.24-.25c-.11-.11-.31-.25-.49-.34h.74v3.87Z"/>
  <path class="st0" d="M9.72,1.73l.5-.45c-.18-.27-.61-.63-.93-.87l-.47.41c.34.26.73.65.9.91Z"/>
  <path class="st0" d="M6.37,4.73c.24-.3.46-.74.66-1.2v2.18h.7v-2.46c.15.24.29.49.36.66l.42-.57c-.12-.14-.61-.71-.79-.88v-.05h.8v-.67h-.8v-.83c.28-.06.55-.13.78-.22l-.4-.59c-.5.2-1.26.38-1.95.49.08.16.17.39.19.56.22-.03.44-.06.68-.1v.69h-.91v.67h.82c-.22.59-.56,1.23-.89,1.62.11.18.27.48.33.69Z"/>
  <path class="st0" d="M9.56,3.33l.49-.46c-.2-.26-.65-.64-.99-.88l-.46.41c.35.27.78.66.96.92Z"/>
  <polygon class="st0" points="8.09 3.91 8.09 3.91 8.09 3.91 8.09 3.91"/>
  <polygon class="st0" points="11.68 3.38 11.08 3.48 11.08 .05 10.37 .05 10.37 3.59 8.43 3.92 8.54 4.61 10.37 4.3 10.37 5.7 11.08 5.7 11.08 4.18 11.79 4.05 11.68 3.38"/>
  <path class="st0" d="M13.23,5.7h.71v-.16h2.12v.15h.74v-2.04h-3.56v2.06ZM13.94,4.1h2.12v.24h-2.12v-.24ZM13.94,4.82h2.12v.24h-2.12v-.24Z"/>
  <path class="st0" d="M12.89,1.91v1.52h4.21v-1.56c.13.04.25.08.37.11.1-.17.3-.42.45-.55-.96-.2-1.96-.61-2.51-1.1.03-.04.06-.08.09-.11l-.64-.23c-.55.7-1.63,1.21-2.74,1.48.12.12.32.41.39.55.12-.04.25-.08.37-.12ZM13.49,3v-.76h.68l-.46.13c.1.2.18.44.21.63h-.42ZM14.67,3h-.62l.39-.12c-.04-.18-.13-.43-.24-.64h.47v.76ZM15.25,3v-.76h.44c-.06.2-.15.48-.24.66l.36.1h-.57ZM16.45,3h-.49c.1-.17.21-.4.33-.65l-.47-.12h.63v.76ZM15.04.72c.15.13.33.27.51.39h-1.02c.18-.13.36-.26.52-.39ZM13.93,1.46v.12h2.13v-.16c.27.14.54.27.82.37h-3.68c.25-.1.49-.21.73-.33Z"/>
  <polygon class="st0" points="20.66 4.61 22.49 4.3 22.49 5.7 23.2 5.7 23.2 4.18 23.91 4.05 23.8 3.38 23.2 3.48 23.2 .05 22.49 .05 22.49 3.59 20.54 3.92 20.66 4.61"/>
  <polygon class="st0" points="20.21 3.91 20.21 3.91 20.21 3.91 20.21 3.91"/>
  <path class="st0" d="M21.84,1.73l.5-.45c-.18-.27-.61-.63-.93-.87l-.47.41c.34.26.73.65.9.91Z"/>
  <path class="st0" d="M18.49,4.73c.24-.3.46-.74.66-1.2v2.18h.7v-2.46c.15.24.29.49.36.66l.42-.57c-.12-.14-.61-.71-.79-.88v-.05h.8v-.67h-.8v-.83c.28-.06.55-.13.78-.22l-.4-.59c-.5.2-1.26.38-1.95.49.08.16.17.39.19.56.22-.03.44-.06.68-.1v.69h-.91v.67h.82c-.22.59-.56,1.23-.89,1.62.11.18.27.48.33.69Z"/>
  <path class="st0" d="M21.68,3.33l.49-.46c-.2-.26-.65-.64-.99-.88l-.46.41c.35.27.78.66.96.92Z"/>
  <path class="st0" d="M24.68,3.53c.23-.13.46-.27.68-.43h.63c-.17.16-.34.31-.5.42v.33c-.46.04-.88.07-1.22.1l.07.64c.33-.04.73-.08,1.15-.12v.52c0,.06-.02.08-.1.09-.08,0-.34,0-.58,0,.09.18.18.42.21.61.38,0,.67,0,.88-.1.21-.1.27-.26.27-.58v-.6c.35-.03.71-.07,1.06-.1v-.61c-.35.03-.71.06-1.06.09v-.15c.29-.23.6-.51.83-.78.15.13.32.28.4.37.1-.13.19-.27.28-.42.11.44.25.85.41,1.22-.31.44-.73.78-1.3,1.04.14.15.35.48.41.66.53-.27.94-.6,1.28-.99.26.39.6.72,1.01.97.11-.2.33-.48.49-.63-.44-.23-.8-.58-1.07-1,.32-.62.53-1.36.66-2.25h0s.36,0,.36,0v-.67h-1.61c.09-.32.16-.66.22-.99l-.73-.12c-.11.74-.31,1.46-.59,2.04v-.48h-.43c.25-.37.48-.77.67-1.22l-.66-.19c-.11.27-.24.54-.39.79v-.39h-.54V.05h-.67v.56h-.69v.61h.69v.4h-.92v.62h1.08c-.35.3-.73.56-1.15.76.14.13.38.4.48.55ZM28.84,1.82c-.07.53-.18.99-.32,1.41-.16-.43-.28-.9-.37-1.41h.69ZM27.15,2.23c-.09.17-.19.32-.29.44l-.21-.17-.13.04h-.5c.1-.1.19-.2.28-.31h.85ZM25.87,1.21h.4c-.09.14-.19.27-.3.4h-.1v-.4Z"/>
  <path class="st0" d="M31.21,2.74h3.89v.72h.72v-1.24h-.45c.05-.57.1-1.33.13-1.97h-1.51v.45h.81v.2h-.78v.45h.74v.21h-.77v.45h.72l-.03.21h-1.96c.16-.09.33-.19.49-.31.14.11.26.21.35.3l.36-.31c-.1-.09-.22-.18-.37-.28.12-.12.23-.24.32-.36l-.47-.14c-.07.08-.15.17-.24.25-.14-.08-.26-.15-.38-.21l-.33.28c.11.06.22.13.34.2-.13.09-.28.16-.42.23v-.31h-.75v-.21s.74,0,.74,0v-.45h-.77v-.18c.27-.06.58-.14.82-.23l-.3-.42c-.32.12-.86.28-1.22.34l.11,1.8h-.45v1.24h.68v-.72ZM32.36,2v-.07c.09.09.21.2.27.28h-.98v-.21s.71,0,.71,0Z"/>
  <path class="st0" d="M32.35.83c.11.08.29.24.37.32.16-.08.33-.18.49-.3.12.09.23.17.31.25h0l.34-.3c-.08-.07-.19-.16-.31-.24.12-.1.22-.22.3-.33l-.47-.14c-.06.09-.14.16-.22.24-.13-.07-.25-.14-.37-.19l-.32.28c.11.06.21.12.33.18-.15.09-.3.18-.46.24Z"/>
  <path class="st0" d="M35.9,4.58v-.57h-2.27c.41-.21.82-.45,1.16-.7l-.4-.37-.15.04h-2.64v.5h1.94c-.22.14-.45.27-.67.35v.18h-2.45v.57h2.45v.41c0,.07-.03.09-.13.09-.09,0-.45,0-.74,0,.09.17.19.41.22.61.45,0,.79,0,1.04-.09.25-.1.32-.25.32-.58v-.43h2.31Z"/>
  <path class="st0" d="M36.69,5.7h.72v-3.08h1.59V.29h-2.31v5.41ZM37.41.87h.92v.31h-.92v-.31ZM37.41,1.7h.92v.34h-.92v-.34Z"/>
  <path class="st0" d="M41.06,4.82c0,.12-.05.16-.17.16s-.57,0-.95-.02c.11.19.22.53.25.74.59,0,.98-.01,1.25-.13.27-.11.35-.32.35-.73V.29h-2.37v2.35h1.64v2.18ZM40.11.87h.96v.31h-.96v-.31ZM40.1,2.06v-.36h.96v.36h-.96Z"/>
  <path class="st0" d="M45.89,4.85c-.17.06-.39.09-.67.09-.33,0-.65-.06-.96-.17-.31-.12-.58-.25-.79-.42l-.34.77c.23.19.53.34.9.46.38.12.77.18,1.19.18h.02c.48,0,.88-.08,1.2-.22.32-.15.55-.33.71-.58.16-.24.23-.5.23-.78s-.06-.51-.17-.69c-.11-.18-.26-.32-.45-.43-.19-.11-.39-.19-.62-.26-.22-.07-.44-.13-.67-.18-.23-.05-.43-.1-.62-.16-.19-.06-.33-.14-.45-.23-.12-.1-.17-.23-.17-.39,0-.13.04-.25.12-.36.08-.11.2-.2.37-.26.17-.07.39-.1.66-.1.23,0,.47.04.73.1.25.07.5.17.74.31l.31-.77c-.23-.15-.5-.27-.82-.35-.32-.08-.63-.12-.95-.12-.48,0-.89.08-1.2.22-.32.15-.56.34-.71.58-.16.24-.23.51-.23.79s.06.52.17.7c.11.18.26.33.45.43.19.11.39.2.62.27.22.07.44.13.67.18.22.05.42.1.61.16.18.06.33.13.45.23.12.1.18.23.18.39,0,.13-.04.25-.12.35-.08.11-.21.19-.38.25Z"/>
  <rect class="st0" x="48.33" y=".38" width=".98" height="5.3"/>
  <path class="st0" d="M51.18,4.98c.26.25.56.44.9.57.35.14.73.2,1.14.2h0c.38.01.75-.05,1.12-.16.36-.12.68-.28.95-.5h0s0,0,0,0v-2.11h-.92v1.63c-.11.06-.22.12-.34.16-.25.09-.5.13-.76.13-.28,0-.54-.05-.77-.14s-.43-.22-.61-.39c-.17-.17-.3-.36-.4-.6s-.15-.47-.15-.75.05-.52.15-.75c.1-.23.23-.42.4-.59.17-.17.38-.3.61-.39.24-.09.49-.14.78-.14s.55.05.79.15.46.25.67.46l.62-.61c-.25-.28-.56-.49-.91-.64s-.78-.22-1.21-.22-.81.07-1.16.2-.65.32-.91.57c-.26.25-.46.54-.6.86-.14.33-.21.69-.21,1.09s.07.76.21,1.09c.14.33.34.62.6.86Z"/>
  <path class="st0" d="M2.08,10.92l-.45-.19-.12.03H.14v.63h1.09c-.26.66-.7,1.21-1.23,1.52.16.1.42.36.54.5.68-.46,1.27-1.33,1.53-2.49h0Z"/>
  <path class="st0" d="M3.75,11.62c.43-.28.94-.71,1.36-1.09l-.61-.45c-.27.33-.69.73-1.07,1.03-.16-.3-.29-.63-.4-.98v-.46c.14.06.26.12.35.18l.36-.62c-.47-.24-1.41-.54-2.06-.68l-.33.55c.52.14,1.17.35,1.64.57H.91v.64h1.4v2.67c0,.09-.04.12-.14.12-.1,0-.45,0-.73-.01.09.18.19.47.22.67.47,0,.81,0,1.04-.11.24-.11.31-.29.31-.66v-1.28c.42.77.99,1.37,1.81,1.73.1-.18.31-.45.46-.58-.65-.26-1.16-.68-1.56-1.21Z"/>
  <path class="st0" d="M6.43,12.26c.05.41.1.94.1,1.29l.47-.09c-.01-.35-.06-.87-.13-1.29l-.44.08Z"/>
  <path class="st0" d="M9.85,12.91h.73v-1.68h-2.83v1.68h.75c-.32.15-.75.3-1.06.4.08.14.18.34.23.46.41-.13.97-.34,1.41-.53l-.34-.33h.83l-.19.34c.43.16.91.36,1.21.5l.26-.46c-.25-.1-.64-.25-1.01-.37h0ZM8.32,11.58h1.63v.17h-1.63v-.17ZM8.32,11.99h1.63v.17h-1.63v-.17ZM8.32,12.58v-.18h1.63v.18h-1.63Z"/>
  <path class="st0" d="M7.36,12.04h0s-.41.12-.41.12c.1.32.21.75.26,1.03l.42-.15c-.05-.28-.17-.69-.27-1Z"/>
  <path class="st0" d="M7.53,11.06h3.22v-1.14h-3.22v1.14ZM9.82,10.33h.36v.34h-.36v-.34ZM8.97,10.33h.36v.34h-.36v-.34ZM8.07,10.33h.4v.34h-.4v-.34Z"/>
  <path class="st0" d="M6.4,10.61c-.15.24-.28.41-.34.49-.17.21-.28.34-.41.37.07.15.16.43.19.55.12-.06.3-.11,1.29-.25.02.1.03.19.04.27h.01s.47-.15.47-.15c-.04-.3-.17-.79-.3-1.17l-.44.12c.04.13.08.28.12.43l-.52.06c.4-.51.79-1.13,1.09-1.72l-.5-.31c-.11.26-.24.52-.36.76l-.36.03c.26-.4.5-.9.69-1.36l-.55-.21c-.18.59-.5,1.23-.61,1.38-.11.17-.2.28-.3.31.07.14.16.41.19.52.09-.04.2-.07.61-.12Z"/>
  <polygon class="st0" points="8.84 8.51 8.84 8.76 7.51 8.76 7.51 9.18 8.84 9.18 8.84 9.37 7.71 9.37 7.71 9.77 10.58 9.77 10.58 9.37 9.49 9.37 9.49 9.18 10.76 9.18 10.76 8.76 9.49 8.76 9.49 8.51 8.84 8.51"/>
  <polygon class="st0" points="6.35 12.27 6.35 12.27 6.36 12.27 6.35 12.27"/>
  <path class="st0" d="M5.61,13.55c.13.03.37.11.48.17.12-.36.21-.92.25-1.44l-.5-.08c-.04.48-.11,1-.24,1.35Z"/>
  <path class="st0" d="M14.52,11.39h1.85v-.66h-2.16v-.72h1.75v-.66h-1.75v-.83h-.71v.83h-1.7v.66h1.7v.72h-2.12v.66h1.81c-.49.62-1.25,1.22-2,1.53.16.14.38.41.49.58.65-.34,1.31-.88,1.82-1.5v1.75h.71v-1.78c.5.64,1.16,1.2,1.82,1.54.11-.17.32-.44.48-.58-.75-.32-1.5-.92-1.99-1.54Z"/>
  <path class="st0" d="M19.95,11.35c.16.09.34.21.44.29.14-.13.26-.29.37-.48.28.23.57.48.72.65h0l.46-.46c-.21-.19-.6-.48-.91-.73.08-.19.14-.39.19-.6l-.65-.12c-.11.53-.35,1.03-.71,1.35-.03-.05-.06-.09-.09-.13v-1.25h2.11v-.66h-2.11v-.69h-.7v.69h-2.04v.66h2.04v1.29c-.48.76-1.36,1.45-2.27,1.8.15.14.36.41.47.57.67-.31,1.29-.8,1.8-1.38v1.6h.7v-1.63c.5.6,1.14,1.11,1.81,1.42.12-.19.33-.47.49-.61-.84-.31-1.64-.9-2.14-1.57Z"/>
  <path class="st0" d="M18.61,10.01l-.65-.12c-.16.69-.49,1.27-.99,1.63.15.1.41.32.51.44.25-.2.46-.46.65-.77.15.15.29.29.37.39l.45-.46c-.13-.13-.34-.32-.55-.49.08-.19.15-.4.2-.61h0Z"/>
  <path class="st0" d="M26.74,12.23c.3-.57.49-1.26.61-2.09h.02s.33,0,.33,0v-.62h-1.49c.08-.29.15-.61.2-.91l-.68-.11c-.11.69-.29,1.36-.55,1.89v-.44h-.4c.24-.34.45-.72.62-1.13l-.61-.18c-.1.25-.22.49-.36.73v-.36h-.5v-.51h-.62v.51h-.64v.56h.64v.37h-.85v.57h.99c-.33.28-.68.52-1.07.7.13.12.35.37.44.5.22-.13.43-.25.63-.4h.58c-.15.15-.31.29-.46.39v.31c-.42.04-.82.07-1.13.1l.07.6c.31-.04.68-.07,1.07-.11v.48c0,.06-.03.08-.1.08-.07,0-.31,0-.53,0,.09.16.17.39.19.57.35,0,.62,0,.81-.1.2-.09.25-.24.25-.53v-.56c.32-.03.66-.06.98-.1v-.57c-.32.03-.66.06-.98.09v-.14c.27-.21.56-.47.77-.72.14.12.3.26.37.35.09-.12.17-.25.26-.39.1.41.23.78.38,1.13-.29.41-.68.72-1.21.96.12.14.32.45.38.61.48-.25.87-.55,1.19-.92.24.36.56.66.94.89.1-.18.31-.44.46-.58-.41-.21-.74-.53-.99-.93ZM24,9.96h-.09v-.37h.37c-.08.13-.18.25-.28.37ZM24.83,10.94l-.2-.16-.12.04h-.46c.1-.09.18-.19.26-.29h.78c-.08.15-.17.29-.27.41ZM26.36,11.45c-.15-.39-.26-.84-.34-1.3h.64c-.06.48-.16.92-.3,1.3Z"/>
  <path class="st0" d="M31.1,8.7l-.68-.26c-.14.19-.31.37-.47.55h-1.76v.58h1.13c-.11.09-.19.16-.25.2-.21.15-.35.24-.5.27.07.17.17.48.2.61.24-.09.57-.09,3.3-.2.11.11.2.21.27.3h-3.53v.88c0,.54-.05,1.26-.5,1.77.15.07.44.28.55.39.51-.58.61-1.49.61-2.15v-.35h2.5v.83l-.44.07.17-.37c-.44-.19-1.28-.38-1.91-.45l-.2.4c.58.09,1.31.28,1.76.45-.73.11-1.42.21-1.89.27l.2.59c.66-.13,1.48-.3,2.3-.48v.4c0,.09-.04.12-.15.12-.1,0-.56,0-.86-.02.07.17.14.39.16.57.54,0,.95.01,1.21-.07.27-.09.36-.23.36-.59v-2.27h-.24l.51-.32c-.22-.25-.62-.6-.98-.87h1.17v-.59h-2.32c.1-.1.18-.19.27-.29ZM31.4,9.57l-.23.14c.11.08.22.17.34.26h0l-1.86.05c.19-.14.37-.28.56-.44h1.2Z"/>
  <path class="st0" d="M38.05,12.94c0,.09-.04.12-.13.12s-.38,0-.67,0c.09.19.17.48.2.67.45,0,.77-.03.96-.14.21-.11.27-.29.27-.65v-4.41h-.64v4.41Z"/>
  <rect class="st0" x="37.04" y="9.09" width=".63" height="3.13"/>
  <path class="st0" d="M35.97,10.09v-.36c.24.16.46.3.61.42l.34-.56c-.26-.19-.72-.46-1.14-.7.04-.05.07-.09.1-.14l-.61-.24c-.36.54-1.01,1-1.66,1.27.11.14.29.48.35.64l.13-.07v.57c0,.66-.05,1.66-.49,2.37.16.05.45.17.58.25.16-.28.28-.63.36-.98v1.16h.56v-.17h1.04v.15h.58v-1.49h-2.11c.02-.06.02-.12.03-.17h1.94v-1.76h-2.36c.21-.12.4-.25.61-.4v.22h1.14ZM35.41,9.36c.17.11.35.23.53.34h-.89c.12-.11.25-.23.36-.34ZM35.11,12.66h1.04v.4h-1.04v-.4ZM34.71,10.73h1.27v.22h-1.27v-.22ZM34.7,11.34h1.28v.23h-1.29c0-.08.01-.16.01-.23Z"/>
  <path class="st0" d="M39.24,13.01c.13.07.34.22.44.3.2-.28.42-.74.57-1.15l-.51-.15c-.12.34-.3.73-.49.99Z"/>
  <path class="st0" d="M41.89,11.29h-.87v-.43h.96v-.55h-.58c.09-.18.17-.39.25-.61l-.45-.09h.7v-.55h-.8c-.07-.19-.17-.42-.25-.61l-.67.16c.06.14.12.29.17.44h-.96v.55h.76l-.46.11c.07.17.13.41.16.58h-.55v.55h1.08v.43h-1.04v.56h1.04v1.86h.65v-1.85h.87v-.56ZM40.81,10.3h-.81l.4-.11c-.03-.16-.1-.39-.19-.58h0s.83,0,.83,0c-.06.21-.16.49-.24.7Z"/>
  <path class="st0" d="M42.78,10.36v-.88c.55-.1,1.13-.23,1.59-.42l-.51-.49c-.41.19-1.09.36-1.7.47v1.99c0,.52-.02,1.12-.17,1.66-.1-.21-.27-.51-.42-.73l-.44.24c.16.26.35.62.44.84l.4-.25c-.06.2-.15.38-.25.55.14.07.4.28.52.4.48-.72.55-1.87.55-2.7v-.07h.52v2.75h.65v-2.75h.52v-.62h-1.69Z"/>
  <polygon class="st0" points="48.89 12.91 48.89 10.83 49.96 10.83 49.96 10.18 48.89 10.18 48.89 8.54 48.21 8.54 48.21 10.18 47.1 10.18 47.1 10.83 48.21 10.83 48.21 12.91 46.86 12.91 46.86 13.57 50.09 13.57 50.09 12.91 50.09 12.91 48.89 12.91"/>
  <path class="st0" d="M47.14,11.56c-.12-.11-.52-.5-.75-.7.26-.36.49-.76.65-1.17l-.35-.26-.11.03h-.52l.44-.26c-.1-.2-.31-.49-.51-.71l-.53.27c.18.21.35.48.45.69h-.98v.6h1.28c-.33.59-.88,1.14-1.44,1.45.08.12.21.49.25.68.22-.13.42-.3.64-.49v2.06h.66v-2.19c.16.19.31.4.41.55h0s.41-.55.41-.55Z"/>
  <path class="st0" d="M51.54,11.59c.05-.14.1-.28.14-.43h1.22v-.91h.27v-.56h-.27v-.92h-2.11v.56h.52c0,.12-.01.24-.02.36h-.8v.56h.75c-.02.12-.04.24-.06.35h-.41v.56h.27c-.14.43-.33.79-.62,1.07.13.12.35.38.42.51.08-.08.15-.16.21-.24v1.25h.61v-.27h1.34v-1.89h-1.46ZM51.93,9.33h.34v.36h-.37c.02-.12.03-.24.03-.36ZM51.84,10.24h.43v.35h-.49c.02-.12.04-.24.06-.35ZM52.34,12.91h-.69v-.75h.69v.75Z"/>
  <path class="st0" d="M55.71,12.51v-.62h-1.01v-.59h.8v-.61h-.8v-.52h.9v-.6h-.48c.13-.25.28-.59.42-.93l-.65-.15c-.07.29-.22.7-.34.96l.46.12h-1.23l.36-.13c-.06-.26-.21-.64-.38-.91l-.53.19c.14.26.27.61.33.86h-.34v.6h.82v.52h-.75v.61h.75v.59h-.94v.62h.94v1.23h.65v-1.23h1.01,0Z"/>
</svg>