<?xml version="1.0" encoding="UTF-8"?>
<svg id="_圖層_1" data-name="圖層_1" xmlns="http://www.w3.org/2000/svg" version="1.1" viewBox="0 0 24 24">
  <!-- Generator: Adobe Illustrator 29.6.1, SVG Export Plug-In . SVG Version: 2.1.1 Build 9)  -->
  <defs>
    <style>
      .st0 {
        fill: #fff;
      }
    </style>
  </defs>
  <path class="st0" d="M18,3c2.76,0,5,2.24,5,5v8c0,2.76-2.24,5-5,5H6c-2.76,0-5-2.24-5-5v-8c0-2.76,2.24-5,5-5h12ZM9,9v6c0,.55.45,1,1,1,.18,0,.36-.05.51-.14l5-3c.47-.28.63-.9.34-1.37-.08-.14-.2-.26-.34-.34l-5-3c-.47-.28-1.09-.13-1.37.34-.09.16-.14.33-.14.51Z"/>
</svg>