<?xml version="1.0" encoding="UTF-8"?>
<svg id="_圖層_1" xmlns="http://www.w3.org/2000/svg" version="1.1" viewBox="0 0 300 300">
  <!-- Generator: Adobe Illustrator 29.6.1, SVG Export Plug-In . SVG Version: 2.1.1 Build 9)  -->
  <defs>
    <style>
      .st0 {
        fill: #fff;
      }
    </style>
  </defs>
  <path class="st0" d="M200,175c-7.37,0-13.99,3.19-18.57,8.26l-56.9-28.45c.3-1.55.47-3.16.47-4.8,0-1.65-.16-3.26-.47-4.82l56.9-28.45c4.58,5.07,11.2,8.27,18.57,8.27,13.81,0,25-11.19,25-25s-11.19-25-25-25-25,11.19-25,25c0,1.65.16,3.26.47,4.82l-56.89,28.45c-4.57-5.07-11.19-8.26-18.57-8.27-13.81,0-25,11.18-25.01,24.99,0,13.81,11.18,25,24.99,25.01,7.38,0,14-3.19,18.58-8.27l56.9,28.45c-.31,1.56-.47,3.17-.47,4.82,0,13.81,11.19,25,25,25s25-11.19,25-25-11.19-25-25-25Z"/>
</svg>