<?xml version="1.0" encoding="UTF-8"?>
<svg id="_圖層_1" xmlns="http://www.w3.org/2000/svg" version="1.1" viewBox="0 0 300 300">
  <!-- Generator: Adobe Illustrator 29.6.1, SVG Export Plug-In . SVG Version: 2.1.1 Build 9)  -->
  <defs>
    <style>
      .st0 {
        fill: #06c755;
      }

      .st1 {
        fill: #fff;
      }
    </style>
  </defs>
  <rect class="st0" width="300" height="300" rx="60" ry="60"/>
  <path class="st1" d="M249.99,135c0-44.76-44.87-81.17-100.02-81.17s-100.02,36.42-100.02,81.17c0,40.13,35.62,73.73,83.64,80.08,3.26.7,7.7,2.15,8.81,4.93,1.01,2.53.67,6.5.33,9.05,0,0-1.17,7.06-1.43,8.56-.44,2.53-2.02,9.89,8.66,5.4s57.6-33.92,78.58-58.12h0c14.49-15.83,21.44-31.97,21.44-49.89Z"/>
  <path class="st0" d="M216.71,160.86h-28.12c-1.03,0-1.88-.84-1.88-1.88h0v-43.67h0c0-1.03.84-1.88,1.88-1.88h28.12c1.03,0,1.88.84,1.88,1.88v7.1c0,1.03-.84,1.88-1.88,1.88h-19.1v7.36h19.1c1.03,0,1.88.84,1.88,1.88v7.1c0,1.03-.84,1.88-1.88,1.88h-19.1v7.37h19.1c1.03,0,1.88.84,1.88,1.88v7.09c.08,1.03-.68,1.94-1.71,2.03h-.17Z"/>
  <path class="st0" d="M112.77,160.86c1.03,0,1.88-.84,1.88-1.88v-7.11c0-1.03-.84-1.88-1.88-1.88h-19.1v-34.69c0-1.03-.84-1.88-1.88-1.88h-7.12c-1.03,0-1.88.84-1.88,1.88v43.62h0c0,1.03.84,1.88,1.88,1.88h28.12l-.03.05Z"/>
  <rect class="st0" x="120.68" y="113.38" width="10.91" height="47.47" rx="2.04" ry="2.04"/>
  <path class="st0" d="M177.97,113.38h-7.09c-1.03,0-1.88.84-1.88,1.88v25.93l-19.97-26.97c-.05-.08-.1-.14-.16-.2h0l-.11-.11h0l-.1-.08h-.06l-.1-.08h-.06l-.1-.06h-7.94c-1.03,0-1.88.84-1.88,1.88v43.65c0,1.03.84,1.88,1.88,1.88h7.1c1.03,0,1.88-.84,1.88-1.88v-26.18l20,27c.13.19.3.36.49.49h0l.11.08h.44c.17.04.34.07.51.07h7.05c1.03,0,1.88-.84,1.88-1.88v-43.47c.03-1.03-.79-1.9-1.82-1.93h-.06Z"/>
</svg>