<?xml version="1.0" encoding="UTF-8"?>
<svg id="_圖層_1" data-name="圖層_1" xmlns="http://www.w3.org/2000/svg" version="1.1" viewBox="0 0 320 320">
  <!-- Generator: Adobe Illustrator 29.6.1, SVG Export Plug-In . SVG Version: 2.1.1 Build 9)  -->
  <defs>
    <style>
      .st0 {
        fill: none;
        stroke: #fff;
        stroke-miterlimit: 10;
        stroke-width: 13.33px;
      }

      .st1 {
        fill: #fff;
      }

      .st2 {
        fill: #6d757d;
      }
    </style>
  </defs>
  <rect class="st2" y="0" width="320" height="320" rx="56.69" ry="56.69"/>
  <path class="st1" d="M213.33,80c-14.73,0-26.67,11.94-26.67,26.67s11.94,26.67,26.67,26.67,26.67-11.94,26.67-26.67h0c0-14.73-11.94-26.67-26.67-26.67ZM213.33,186.67c-14.73,0-26.67,11.94-26.67,26.67s11.94,26.67,26.67,26.67,26.67-11.94,26.67-26.67h0c0-14.74-11.94-26.67-26.67-26.67ZM106.67,133.33c-14.73,0-26.67,11.93-26.68,26.66,0,14.73,11.93,26.67,26.66,26.68,14.73,0,26.67-11.93,26.68-26.66h0c0-14.74-11.93-26.67-26.66-26.68Z"/>
  <path class="st0" d="M213.33,106.67l-106.66,53.33,106.66,53.33"/>
</svg>