<?xml version="1.0" encoding="UTF-8"?>
<svg id="_圖層_1" xmlns="http://www.w3.org/2000/svg" version="1.1" viewBox="0 0 240 240">
  <!-- Generator: Adobe Illustrator 29.6.1, SVG Export Plug-In . SVG Version: 2.1.1 Build 9)  -->
  <defs>
    <style>
      .st0 {
        fill: #2867b2;
      }

      .st1 {
        fill: #fff;
      }
    </style>
  </defs>
  <rect class="st0" x="0" width="240" height="240" rx="56.69" ry="56.69"/>
  <path class="st1" d="M40,86.7h33.3v113.3h-33.3s0-113.3,0-113.3ZM56.6,73.3h-.2c-9.9,0-16.4-7.4-16.4-16.7s6.6-16.6,16.8-16.6,16.4,7.2,16.6,16.7c-.1,9.2-6.5,16.6-16.8,16.6ZM200,200h-33.3v-60.7c0-14.7-8.2-24.7-21.3-24.7-10,0-15.4,6.7-18,13.3-1,2.3-.7,8.8-.7,12v60h-33.4v-113.2h33.3v17.4c4.8-7.4,12.3-17.4,31.6-17.4,23.9,0,41.7,15,41.7,48.5l.1,64.8h0Z"/>
</svg>