<?xml version="1.0" encoding="UTF-8"?>
<svg id="_圖層_1" xmlns="http://www.w3.org/2000/svg" version="1.1" viewBox="0 0 320 320">
  <!-- Generator: Adobe Illustrator 29.6.1, SVG Export Plug-In . SVG Version: 2.1.1 Build 9)  -->
  <defs>
    <style>
      .st0 {
        fill: #06c755;
      }

      .st1 {
        fill: #fff;
      }
    </style>
  </defs>
  <rect class="st0" y="0" width="320" height="320" rx="60" ry="60"/>
  <path class="st1" d="M266.66,144c0-47.74-47.86-86.58-106.69-86.58s-106.69,38.85-106.69,86.58c0,42.8,38,78.65,89.22,85.42,3.48.75,8.21,2.29,9.4,5.26,1.08,2.7.71,6.93.35,9.65,0,0-1.25,7.53-1.52,9.13-.47,2.7-2.15,10.55,9.24,5.76s61.44-36.18,83.82-62h0c15.46-16.89,22.87-34.1,22.87-53.22Z"/>
  <path class="st0" d="M231.16,171.58h-30c-1.1,0-2-.9-2-2h0v-46.58h0c0-1.1.9-2,2-2h30c1.1,0,2,.9,2,2v7.57c0,1.1-.9,2-2,2h-20.37v7.85h20.37c1.1,0,2,.9,2,2v7.57c0,1.1-.9,2-2,2h-20.37v7.86h20.37c1.1,0,2,.9,2,2v7.56c.09,1.1-.72,2.07-1.82,2.16h-.18Z"/>
  <path class="st0" d="M120.29,171.58c1.1,0,2-.9,2-2v-7.58c0-1.1-.9-2-2-2h-20.37v-37c0-1.1-.9-2-2-2h-7.6c-1.1,0-2,.9-2,2v46.53h0c0,1.1.9,2,2,2h30l-.03.05Z"/>
  <rect class="st0" x="128.73" y="120.94" width="11.64" height="50.64" rx="2.04" ry="2.04"/>
  <path class="st0" d="M189.84,120.94h-7.56c-1.1,0-2,.9-2,2v27.66l-21.3-28.77c-.05-.08-.11-.15-.17-.21h0l-.12-.12h0l-.11-.09h-.06l-.11-.08h-.06l-.11-.06h-8.47c-1.1,0-2,.9-2,2v46.56c0,1.1.9,2,2,2h7.57c1.1,0,2-.9,2-2v-27.93l21.33,28.8c.14.2.32.38.52.52h0l.12.08h.47c.18.04.36.07.54.07h7.52c1.1,0,2-.9,2-2v-46.37c.03-1.1-.84-2.03-1.94-2.06h-.06Z"/>
</svg>