<?xml version="1.0" encoding="UTF-8"?>
<svg id="_圖層_1" xmlns="http://www.w3.org/2000/svg" version="1.1" viewBox="0 0 300 300">
  <!-- Generator: Adobe Illustrator 29.6.1, SVG Export Plug-In . SVG Version: 2.1.1 Build 9)  -->
  <defs>
    <style>
      .st0 {
        fill: #2867b2;
      }

      .st1 {
        fill: #fff;
      }
    </style>
  </defs>
  <rect class="st0" width="300" height="300" rx="60" ry="60"/>
  <path class="st1" d="M50,108.37h41.63v141.63h-41.62s0-141.63,0-141.63ZM70.75,91.63h-.25c-12.37,0-20.5-9.25-20.5-20.88s8.25-20.75,21-20.75,20.5,9,20.75,20.88c-.12,11.5-8.12,20.75-21,20.75ZM250,250h-41.63v-75.87c0-18.37-10.25-30.87-26.63-30.87-12.5,0-19.25,8.37-22.5,16.63-1.25,2.88-.87,11-.87,15v75h-41.75V108.38h41.62v21.75c6-9.25,15.38-21.75,39.5-21.75,29.87,0,52.12,18.75,52.12,60.62l.13,81h0Z"/>
</svg>